<svg id="Layer_1" data-name="Layer 1" xmlns="http://www.w3.org/2000/svg" xmlns:xlink="http://www.w3.org/1999/xlink" viewBox="0 0 1001 1001"><defs><style>.cls-1,.cls-4{fill:#fff;}.cls-1{stroke:#231f20;stroke-miterlimit:10;}.cls-2{fill:#007934;}.cls-3{fill:#6ebb44;}.cls-5{fill:#d13239;}.cls-11,.cls-6,.cls-7,.cls-8{fill-rule:evenodd;}.cls-6{fill:url(#GradientFill_1);}.cls-7{fill:url(#GradientFill_2);}.cls-8,.cls-9{fill:#0d8943;}.cls-10{fill:#118a44;}.cls-11{fill:url(#GradientFill_3);}</style><linearGradient id="GradientFill_1" x1="392.52" y1="831.14" x2="464.3" y2="831.14" gradientUnits="userSpaceOnUse"><stop offset="0" stop-color="#42abc2"/><stop offset="1" stop-color="#11131e"/></linearGradient><linearGradient id="GradientFill_2" x1="421.13" y1="822.29" x2="445.27" y2="860.68" gradientUnits="userSpaceOnUse"><stop offset="0" stop-color="#74bb44"/><stop offset="1" stop-color="#196332"/></linearGradient><linearGradient id="GradientFill_3" x1="521.65" y1="817.88" x2="534.23" y2="813.44" gradientUnits="userSpaceOnUse"><stop offset="0" stop-color="#3b9d47"/><stop offset="0.06" stop-color="#44a247"/><stop offset="0.24" stop-color="#59ad45"/><stop offset="0.43" stop-color="#68b545"/><stop offset="0.66" stop-color="#71ba44"/><stop offset="1" stop-color="#74bb44"/></linearGradient></defs><title>BOTON CHRONOS</title><circle class="cls-1" cx="500.5" cy="500.5" r="500"/><path class="cls-2" d="M291.09,358.68l-4.34,22.84A101.67,101.67,0,0,0,256.82,377q-25.05,0-38.91,14.34T204,425.09q0,15.14,9.56,24.13t25.77,9q19.92,0,45-14.43l-3.8,27.54q-22.05,9.74-43.48,9.74-26.92,0-43.57-15.66t-16.64-40.91q0-30.9,22.49-50.61t58.18-19.69A138.29,138.29,0,0,1,291.09,358.68Z" transform="translate(0.11 -1.11)"/><path class="cls-2" d="M411,398.43l-1.86,11.87.36.36q11-13.55,20-13.55,6.92,0,14.62,9l-11.43,22.67Q426.8,420,421.13,420q-4.89,0-9.75,5.05c-3.24,3.37-5,5.67-5.13,6.91l-6.83,48.88h-24.5l11.61-82.36Z" transform="translate(0.11 -1.11)"/><path class="cls-3" d="M674.89,356a35.29,35.29,0,0,0-4.22,2.61c-.15.11-.3.21-.44.32-5.81,4.37-8.07,9.44-8.65,14a21.46,21.46,0,0,0-.11,4,24.9,24.9,0,0,0,2.64,9.67h.2a68.94,68.94,0,0,0,10.44-1.29l1.88-.42a53.08,53.08,0,0,0,6.14-1.87c.79-.29,1.55-.6,2.29-.92,25.21-10.86,28.55-38.1,25.68-49.89a.73.73,0,0,0,0-.12C701.46,340.72,696.84,344.45,674.89,356Z" transform="translate(0.11 -1.11)"/><path class="cls-2" d="M286.47,480.94l23-119.82h24.5l-9.35,47.93h.34c7-7.6,15.65-12.49,26.54-12.49,12.93,0,20.93,8.09,20.93,22.27a97,97,0,0,1-1.53,14.86l-9,47.25h-24.5L346,435.71a50.14,50.14,0,0,0,1-10.12c0-5.57-2.21-9.45-8.33-9.45-8.68,0-17.36,10.46-20.42,27L311,480.94Z" transform="translate(0.11 -1.11)"/><path class="cls-2" d="M554.81,398.59l-1.32,9.4q13.7-10.71,28-10.72,10.78,0,16.51,6.67t5.74,18.67a54.23,54.23,0,0,1-.53,7.42L596.16,481h-24.5l6.91-49.08a26,26,0,0,0,.36-4.25q0-12.21-7.63-12.2-8.76,0-20.64,12.67L543.21,481h-24.5l11.69-82.36Z" transform="translate(0.11 -1.11)"/><path class="cls-2" d="M518.3,430.26c0,29.32-20.15,50.77-47.83,50.77-20.31,0-33.91-13.26-33.91-33.25,0-27.68,19.33-50.6,47.82-50.6C505.86,397.18,518.3,411.92,518.3,430.26ZM461,447.46c0,9.33,4.58,15.56,12.93,15.56,12.61,0,20-19,20-32.59,0-7.37-3.27-15.23-12.6-15.23C467.69,415.2,461,435,461,447.46Z" transform="translate(0.11 -1.11)"/><path class="cls-2" d="M776.93,400.61l-2.47,14.83A40.43,40.43,0,0,0,764,410.11,32.06,32.06,0,0,0,753.6,408a13.35,13.35,0,0,0-8.44,2.63,8.1,8.1,0,0,0-3.37,6.67,7.94,7.94,0,0,0,1.89,4.86q1.89,2.45,12,8.47t13.6,11.84a23.18,23.18,0,0,1,3.5,12.09A24.38,24.38,0,0,1,765.06,473q-7.73,7.33-20.8,7.33-16.59,0-28.64-8l2.72-14.65a49.41,49.41,0,0,0,12.08,6.24,35.42,35.42,0,0,0,11.72,2.39,14,14,0,0,0,8.8-2.57,8.09,8.09,0,0,0,3.32-6.72,10,10,0,0,0-2.15-5.85q-2.13-3-12.29-9.23t-13.35-11.58a20.92,20.92,0,0,1-3.2-11,23,23,0,0,1,8.44-18.15q8.45-7.3,21.16-7.3A46.88,46.88,0,0,1,776.93,400.61Z" transform="translate(0.11 -1.11)"/><path class="cls-4" d="M628.53,527.88l-.92-2.87,1-2.69a8.2,8.2,0,0,0,1.85-1.62,22,22,0,0,0,1.82-2.33c.88-1.22,1.62-2.43,2.36-3.64l.48-.78a20.46,20.46,0,0,1-1.07-5.2A17.94,17.94,0,0,1,639,495.18l3.63-3.78,2.32-.63,2.63.76,1.63,1.76,1.06,5.15c1.29,12.57-8.69,24-9.83,25.21a21.11,21.11,0,0,1-4.31,3.62l-.67.43a9.17,9.17,0,0,1-4.53,1.78Z" transform="translate(0.11 -1.11)"/><path class="cls-5" d="M634.18,525.77l.74-.47a18.94,18.94,0,0,0,3.79-3.19c1.07-1.18,10.42-11.84,9.27-23.19l-1.06-5.15L644.3,493l-3.63,3.79a15.58,15.58,0,0,0-4.29,11.77,16.88,16.88,0,0,0,1.34,5.58l-.06.13-1,1.61c-.79,1.29-1.56,2.55-2.46,3.8a23.84,23.84,0,0,1-2,2.56,10.29,10.29,0,0,1-2.38,2.06l.92,2.86A7,7,0,0,0,634.18,525.77Z" transform="translate(0.11 -1.11)"/><path class="cls-5" d="M654,526.65a23.79,23.79,0,0,0,4.51-7.74,38.5,38.5,0,0,0,1.13-4.09,35.93,35.93,0,0,1,1-3.66L657.82,510a40.47,40.47,0,0,0-1.48,3.9,35.94,35.94,0,0,1-1.36,3.59,22,22,0,0,1-4.33,6.24c-3.3,3.3-8.37,5.74-14.68,7a69.28,69.28,0,0,1-14.06,1.28c-1.25,0-2.5,0-3.74-.07A164.26,164.26,0,0,1,600,530.26c-6.3-.93-12.39-2.16-18-3.36l-.79-.16a134.36,134.36,0,0,0-18.26-2.84q-2.12-.15-4.28-.15a63.09,63.09,0,0,0-15.88,2c-1.18.3-2.39.65-3.69,1.07,1.17-2.5,2.34-5.19,3.56-8.21,2.48-6.06,4.51-12.1,6-16.7,2-6.16,3.55-11.73,4.81-17,.79-3.31,1.35-6.1,1.77-8.81l.06-.46a35,35,0,0,0,.43-9.28l-1.27-11.21-3-.2c-.07.26-6.74,26.5-13.3,34.92-6,7.66-18.53,18.52-44.5,26.75-8.54,2.7-22.35,5.08-41,7.07l-1,.11c-5.09.57-9.75.94-14.24,1.13q-3.45.15-6.91.15a177.72,177.72,0,0,1-21.63-1.36,268.08,268.08,0,0,1-28.22-5.2,60.08,60.08,0,0,1-13-4.55,43.93,43.93,0,0,1-10.7-7.65l-2.22,2.15a46.14,46.14,0,0,0,10.82,9,62.57,62.57,0,0,0,13.62,5.69c4.51,1.39,8.89,2.47,14.15,3.74,4.82,1.16,9.69,2.16,14.47,3a175.28,175.28,0,0,0,28.73,2.36h1.1c5.06,0,10.1-.26,15-.7,3.52-.3,7-.72,10.4-1.13l8.57-1c8.27-1,16.81-2,25.23-4.38s17.11-6.29,27-12.37c1-.62,2-1.21,3-1.9s2.15-1.5,3.2-2.35a46.21,46.21,0,0,0,5.38-5.2c.79-.89,1.7-2.06,2.61-3.31-12.3,37.15-25.89,46.37-26,46.47l1.56,2.67,16.26-8.49c11-5.75,20.88-8.55,30.17-8.55.81,0,1.62,0,2.46.07a131.69,131.69,0,0,1,17.82,2.35c5.5,1,12,2,18.72,2.77a160.44,160.44,0,0,0,17.76,1.1h1.4a82.1,82.1,0,0,0,19.3-2.26C642.38,534.72,649.33,532.06,654,526.65Z" transform="translate(0.11 -1.11)"/><path class="cls-5" d="M700.15,464.35a21.39,21.39,0,0,0-9.24,7.49,28.67,28.67,0,0,0-4,10.88c0,.28-.09.57-.14.85a62,62,0,0,0,25.72-22.75A50.57,50.57,0,0,0,700.15,464.35Z" transform="translate(0.11 -1.11)"/><path class="cls-5" d="M704.18,487.71c1.39-1.33,3.63-4,3-7.12l-2.89-.37a7.21,7.21,0,0,1-3.7,3.1,29.06,29.06,0,0,1-5.47,1.89A75.84,75.84,0,0,1,684,487.09c.18-1.72.4-3.29.66-4.78A30.94,30.94,0,0,1,689,470.55a23.61,23.61,0,0,1,10.19-8.3c4.77-2.22,10.35-3.31,15.16-4.08l-.08-3.06a53.56,53.56,0,0,0-5.65-.3,46.43,46.43,0,0,0-12,1.54,34.45,34.45,0,0,0-8.39,3.64,28.45,28.45,0,0,0-6.82,5.87,34.48,34.48,0,0,0-7.11,14.73,60.46,60.46,0,0,0-1.2,6.94c-.87,0-1.75-.06-2.62-.11a38.65,38.65,0,0,1-12.13-2.5l-1.8,2.38c3.13,4,8.6,6.06,12.64,7,1,.24,2.07.43,3.29.61l0,.74c-.1,2.24-.21,4.44-.38,6.57-.08,1.09-.19,2.11-.37,3.12l-.59,3.46a56.09,56.09,0,0,1-3.48,12.73,27.62,27.62,0,0,1-7.93,10.4,22.81,22.81,0,0,1-6,3.62,8.77,8.77,0,0,1-3.24.68,5.49,5.49,0,0,1-2.89-.76l-2,2.35A8.29,8.29,0,0,0,650,540.3a11.59,11.59,0,0,0,2.33.22,16.57,16.57,0,0,0,2.77-.25,29.13,29.13,0,0,0,8.62-3.23,34.89,34.89,0,0,0,7-5.29,33.43,33.43,0,0,0,5.16-6.67,49.77,49.77,0,0,0,5.52-14.53c.27-1.1.51-2.2.74-3.28l.06-.3c.27-1.31.47-2.64.62-3.91.21-2,.33-3.87.44-5.76l.13-2,.39,0a44.12,44.12,0,0,0,14.15-3.52A23.18,23.18,0,0,0,704.18,487.71Z" transform="translate(0.11 -1.11)"/><path class="cls-5" d="M817.49,503.67a16,16,0,0,0-6.39-4.51,35.48,35.48,0,0,0-13.54-2.21l-1.77,0a73.67,73.67,0,0,0-14.91,2.2,55,55,0,0,0-7.24,2.35c-2.16.87-4.39,1.88-6.62,3-4.71,2.31-9.08,4.95-13.31,7.5-3.56,2.15-6.92,4.19-10.46,6-8.36,4.53-16.3,7.09-24.29,7.82a59.27,59.27,0,0,1-6.46.38,36,36,0,0,1-6-.47,17.85,17.85,0,0,1-2.76-.68c.69-.48,1.31-.95,1.84-1.36a47,47,0,0,0,5.09-4.74,39.19,39.19,0,0,0,4.28-5.46,27.48,27.48,0,0,0,3.09-6.3,15,15,0,0,0,.74-3.79c0-.35,0-.7,0-1.19l0-.39a6.41,6.41,0,0,0-.09-.66,7.88,7.88,0,0,0-.93-2.55,8.06,8.06,0,0,0-5.64-3.73,12.23,12.23,0,0,0-2.09-.18,15.59,15.59,0,0,0-3.33.39,26.26,26.26,0,0,0-7.8,3.24,32.23,32.23,0,0,0-3.2,2.21,19.68,19.68,0,0,0-3.06,2.91,20.46,20.46,0,0,0-2.72,21.83,18.77,18.77,0,0,0,2.21,3.5l.53.63.67.69.42.38a15.46,15.46,0,0,0,2.11,1.57,24.38,24.38,0,0,0,8.53,3.1,48.73,48.73,0,0,0,8.7.74c2.19,0,4.57-.12,7.26-.38a68.63,68.63,0,0,0,15.08-3.36A80.41,80.41,0,0,0,748.84,526c4.21-2.43,8.17-5,12-7.53s7.24-4.74,10.91-6.87c2-1.13,3.85-2.11,5.75-3a58.27,58.27,0,0,1,5.94-2.36,65.26,65.26,0,0,1,12.94-3,46,46,0,0,1,5.69-.39,27.39,27.39,0,0,1,7.18.87,12.33,12.33,0,0,1,5.07,2.64,9.73,9.73,0,0,1,2.79,4.47l3-.59A12.13,12.13,0,0,0,817.49,503.67ZM699.89,522.1c-.16-.24-.3-.48-.43-.71a12,12,0,0,1-1-8.75,12.25,12.25,0,0,1,2-4.12,10.2,10.2,0,0,1,1.56-1.7,22.56,22.56,0,0,1,2.18-1.71,17.13,17.13,0,0,1,4.74-2.37,5.83,5.83,0,0,1,1.46-.24l.18-.08a1.49,1.49,0,0,1,.17.42l.14.11-.1,0c0,.15,0,.3,0,.45a8.58,8.58,0,0,1-.21,2.16,22,22,0,0,1-1.87,5,38.66,38.66,0,0,1-6.87,9.56A27.46,27.46,0,0,1,699.89,522.1Z" transform="translate(0.11 -1.11)"/><path class="cls-5" d="M645.4,487.12a4.56,4.56,0,1,0-4.15-4.54A4.37,4.37,0,0,0,645.4,487.12Z" transform="translate(0.11 -1.11)"/><path class="cls-5" d="M694.44,382.82l-10,15.64a35.63,35.63,0,0,1,19.22,34.4,39.71,39.71,0,0,1-4.14,15.3,70.39,70.39,0,0,0-27.56-2.43c-12.19-24.18-7.24-61.71-7.24-61.71l-1.61.56c-5.2,33.37-2.37,53.82-.37,62.73-4.33,1-8.58,2.31-12.88,3.75a31.32,31.32,0,0,1-19.25.39,36.7,36.7,0,0,1-3.66-18.6,41.46,41.46,0,0,1,23.54-34.4l-8.05-15.64c-18.64,9.4-32.15,28.27-33.52,50-1.44,23,11.08,42.73,30.25,51.51a7.26,7.26,0,0,1-.23-1.79,6.49,6.49,0,1,1,12.95,0,7,7,0,0,1-2.36,5.3c1.71.39,3.44.7,5.22.92l-.08-.09v-2.82l1.8-2.38,2.72-.74a36.4,36.4,0,0,0,11.41,2.33l.45,0c.26-1.8.59-3.48,1-5.08a36.74,36.74,0,0,1,7.61-15.7A30.7,30.7,0,0,1,687,458a36.53,36.53,0,0,1,8.94-3.88,48.9,48.9,0,0,1,12.68-1.63,55.59,55.59,0,0,1,5.89.32l1.54,1.67a58.56,58.56,0,0,0,5.65-21.62C723,411.09,711.9,392.22,694.44,382.82Z" transform="translate(0.11 -1.11)"/><path class="cls-5" d="M795,507.78a11.85,11.85,0,1,1-12.23,11.81A11.94,11.94,0,0,1,795,507.78Zm-.15,2.37A9.43,9.43,0,0,0,795,529c5.19.08,9-4.17,9-9.42a9.12,9.12,0,0,0-9.07-9.43Zm-1.8,15.55h-2.74V514a23.06,23.06,0,0,1,4.53-.43,6.69,6.69,0,0,1,4.1.94,3.23,3.23,0,0,1,1.15,2.52,3,3,0,0,1-2.45,2.8v.15c1.16.36,1.8,1.3,2.16,2.88a7.82,7.82,0,0,0,.87,2.88h-3a9.34,9.34,0,0,1-.95-2.8c-.21-1.3-.93-1.87-2.44-1.87H793.1Zm.08-6.62h1.29c1.51,0,2.73-.51,2.73-1.73s-.79-1.8-2.51-1.8a6.36,6.36,0,0,0-1.51.15Z" transform="translate(0.11 -1.11)"/><path class="cls-2" d="M227.24,582.93l10.54,28.2h-6.44l-2.13-6.28H218.67l-2.21,6.28h-6.24l10.66-28.2Zm.36,17.3L224,589.89H224l-3.67,10.35Z" transform="translate(0.11 -1.11)"/><path class="cls-2" d="M245.6,582.93l11.77,18.92h.08V582.93h5.8v28.2h-6.2l-11.73-18.88h-.08v18.88h-5.8v-28.2Z" transform="translate(0.11 -1.11)"/><path class="cls-2" d="M265.7,588.15v-5.21h23.1v5.21h-8.45v23h-6.2v-23Z" transform="translate(0.11 -1.11)"/><path class="cls-2" d="M297.45,582.93v28.2h-6.2v-28.2Z" transform="translate(0.11 -1.11)"/><path class="cls-2" d="M306.85,604.18a4.48,4.48,0,0,0,1.36,1.6,5.9,5.9,0,0,0,2,.91,9.46,9.46,0,0,0,2.37.3,12.28,12.28,0,0,0,1.78-.14,6.21,6.21,0,0,0,1.78-.53,3.87,3.87,0,0,0,1.38-1.09,2.72,2.72,0,0,0,.55-1.76,2.47,2.47,0,0,0-.73-1.86,5.76,5.76,0,0,0-1.91-1.18,19,19,0,0,0-2.69-.83q-1.5-.35-3-.79a26.88,26.88,0,0,1-3.08-1,10.56,10.56,0,0,1-2.69-1.48,7,7,0,0,1-1.91-2.27,6.88,6.88,0,0,1-.73-3.3,7.39,7.39,0,0,1,.93-3.77,8.4,8.4,0,0,1,2.43-2.66,10.59,10.59,0,0,1,3.4-1.58,14.51,14.51,0,0,1,3.79-.51,18,18,0,0,1,4.25.49,10.62,10.62,0,0,1,3.61,1.6,8.08,8.08,0,0,1,2.51,2.82,8.68,8.68,0,0,1,.93,4.17h-6a5,5,0,0,0-.53-2.09,3.5,3.5,0,0,0-1.21-1.3,5.11,5.11,0,0,0-1.72-.67,10.55,10.55,0,0,0-2.11-.2,7.21,7.21,0,0,0-1.5.16,4,4,0,0,0-1.36.55,3.41,3.41,0,0,0-1,1,2.64,2.64,0,0,0-.4,1.5,2.52,2.52,0,0,0,.32,1.34,2.8,2.8,0,0,0,1.24.95,15.93,15.93,0,0,0,2.57.87l4.28,1.11c.53.1,1.26.3,2.19.57a10.5,10.5,0,0,1,2.78,1.32,8.43,8.43,0,0,1,2.39,2.43,6.91,6.91,0,0,1,1,3.89,8.63,8.63,0,0,1-.75,3.59,7.83,7.83,0,0,1-2.23,2.86,10.69,10.69,0,0,1-3.67,1.88,17.34,17.34,0,0,1-5.07.67,17.88,17.88,0,0,1-4.52-.57,11.38,11.38,0,0,1-3.87-1.8,8.86,8.86,0,0,1-2.67-3.12,9.31,9.31,0,0,1-.95-4.5h6A5.17,5.17,0,0,0,306.85,604.18Z" transform="translate(0.11 -1.11)"/><path class="cls-2" d="M348,582.93v5.21H333.15v6h13.66V599H333.15v6.91h15.2v5.21h-21.4v-28.2Z" transform="translate(0.11 -1.11)"/><path class="cls-2" d="M357.91,582.93l11.77,18.92h.08V582.93h5.8v28.2h-6.2l-11.73-18.88h-.08v18.88h-5.8v-28.2Z" transform="translate(0.11 -1.11)"/><path class="cls-2" d="M401.31,582.93v5.21H386.42v6h13.66V599H386.42v6.91h15.2v5.21h-21.4v-28.2Z" transform="translate(0.11 -1.11)"/><path class="cls-2" d="M409.76,604.18a4.48,4.48,0,0,0,1.36,1.6,5.9,5.9,0,0,0,2,.91,9.46,9.46,0,0,0,2.37.3,12.28,12.28,0,0,0,1.78-.14,6.21,6.21,0,0,0,1.78-.53,3.87,3.87,0,0,0,1.38-1.09,2.72,2.72,0,0,0,.55-1.76,2.47,2.47,0,0,0-.73-1.86,5.76,5.76,0,0,0-1.91-1.18,19,19,0,0,0-2.69-.83q-1.5-.35-3-.79a26.88,26.88,0,0,1-3.08-1,10.56,10.56,0,0,1-2.69-1.48,7,7,0,0,1-1.91-2.27,6.88,6.88,0,0,1-.73-3.3,7.39,7.39,0,0,1,.93-3.77,8.4,8.4,0,0,1,2.43-2.66,10.59,10.59,0,0,1,3.4-1.58,14.51,14.51,0,0,1,3.79-.51,18,18,0,0,1,4.25.49,10.62,10.62,0,0,1,3.61,1.6,8.08,8.08,0,0,1,2.51,2.82,8.68,8.68,0,0,1,.93,4.17h-6a5,5,0,0,0-.53-2.09,3.5,3.5,0,0,0-1.21-1.3,5.11,5.11,0,0,0-1.72-.67,10.55,10.55,0,0,0-2.11-.2,7.21,7.21,0,0,0-1.5.16,4,4,0,0,0-1.36.55,3.41,3.41,0,0,0-1,1,2.64,2.64,0,0,0-.4,1.5,2.52,2.52,0,0,0,.32,1.34,2.8,2.8,0,0,0,1.24.95,15.93,15.93,0,0,0,2.57.87l4.28,1.11c.53.1,1.26.3,2.19.57a10.5,10.5,0,0,1,2.78,1.32,8.43,8.43,0,0,1,2.39,2.43,6.91,6.91,0,0,1,1,3.89,8.63,8.63,0,0,1-.75,3.59,7.83,7.83,0,0,1-2.23,2.86,10.69,10.69,0,0,1-3.67,1.88,17.34,17.34,0,0,1-5.07.67,17.88,17.88,0,0,1-4.52-.57,11.38,11.38,0,0,1-3.87-1.8,8.86,8.86,0,0,1-2.67-3.12,9.31,9.31,0,0,1-.95-4.5h6A5.17,5.17,0,0,0,409.76,604.18Z" transform="translate(0.11 -1.11)"/><path class="cls-2" d="M447.94,590.46a6.3,6.3,0,0,0-1.38-1.56,6.38,6.38,0,0,0-1.88-1,6.46,6.46,0,0,0-2.19-.38,7.22,7.22,0,0,0-3.55.81,6.71,6.71,0,0,0-2.37,2.17,9.51,9.51,0,0,0-1.32,3.1,15.43,15.43,0,0,0-.41,3.59,14.36,14.36,0,0,0,.41,3.45,9.33,9.33,0,0,0,1.32,3,6.78,6.78,0,0,0,2.37,2.15,7.22,7.22,0,0,0,3.55.81,5.74,5.74,0,0,0,4.44-1.74,8.05,8.05,0,0,0,2-4.58h6a14.32,14.32,0,0,1-1.22,4.78,11.43,11.43,0,0,1-2.61,3.63,11.05,11.05,0,0,1-3.79,2.29,13.87,13.87,0,0,1-4.78.79,14.47,14.47,0,0,1-5.82-1.12,12.5,12.5,0,0,1-4.36-3.1,13.72,13.72,0,0,1-2.72-4.64,17,17,0,0,1-.95-5.74,17.59,17.59,0,0,1,.95-5.87,14.1,14.1,0,0,1,2.72-4.72,12.47,12.47,0,0,1,4.36-3.16,15.13,15.13,0,0,1,10.23-.47,11.92,11.92,0,0,1,3.71,2,10.55,10.55,0,0,1,2.71,3.18,11.35,11.35,0,0,1,1.34,4.34h-6A5.06,5.06,0,0,0,447.94,590.46Z" transform="translate(0.11 -1.11)"/><path class="cls-2" d="M479.42,582.93v5.21H464.53v6h13.66V599H464.53v6.91h15.2v5.21h-21.4v-28.2Z" transform="translate(0.11 -1.11)"/><path class="cls-2" d="M489.29,582.93l11.77,18.92h.08V582.93h5.8v28.2h-6.2L489,592.25h-.08v18.88h-5.8v-28.2Z" transform="translate(0.11 -1.11)"/><path class="cls-2" d="M509.39,588.15v-5.21h23.1v5.21H524v23h-6.2v-23Z" transform="translate(0.11 -1.11)"/><path class="cls-2" d="M556,582.93v5.21H541.14v6H554.8V599H541.14v6.91h15.2v5.21h-21.4v-28.2Z" transform="translate(0.11 -1.11)"/><path class="cls-2" d="M584,582.93l10.54,28.2h-6.44L586,604.85H575.42l-2.21,6.28H567l10.66-28.2Zm.36,17.3-3.56-10.35h-.08L577,600.23Z" transform="translate(0.11 -1.11)"/><path class="cls-2" d="M612.89,610.91a10.4,10.4,0,0,1-4.06.85,14.5,14.5,0,0,1-5.83-1.12,12.49,12.49,0,0,1-4.36-3.1,13.73,13.73,0,0,1-2.73-4.64,17,17,0,0,1-.95-5.74,17.63,17.63,0,0,1,.95-5.87,14.1,14.1,0,0,1,2.73-4.72,12.47,12.47,0,0,1,4.36-3.16,14.28,14.28,0,0,1,5.83-1.14,13.68,13.68,0,0,1,4.2.65,12,12,0,0,1,3.67,1.91,10.37,10.37,0,0,1,4,7.39h-5.92a6,6,0,0,0-2.13-3.56,6.21,6.21,0,0,0-3.83-1.18,7.23,7.23,0,0,0-3.56.81,6.69,6.69,0,0,0-2.37,2.17,9.4,9.4,0,0,0-1.32,3.1,15.34,15.34,0,0,0-.42,3.59,14.28,14.28,0,0,0,.42,3.45,9.22,9.22,0,0,0,1.32,3,6.76,6.76,0,0,0,2.37,2.15,7.23,7.23,0,0,0,3.56.81,6,6,0,0,0,6.71-6.08H609.3v-4.62h11.85v15.24H617.2l-.63-3.2A9.32,9.32,0,0,1,612.89,610.91Z" transform="translate(0.11 -1.11)"/><path class="cls-2" d="M640.58,582.93a9,9,0,0,1,3.41.61,7.9,7.9,0,0,1,2.61,1.68,7.32,7.32,0,0,1,1.66,2.47,8,8,0,0,1,.57,3,8.47,8.47,0,0,1-1,4.3,6.57,6.57,0,0,1-3.42,2.76v.08a4.8,4.8,0,0,1,1.9,1,5.36,5.36,0,0,1,1.22,1.54,7.13,7.13,0,0,1,.69,2,16.85,16.85,0,0,1,.3,2.13c0,.45.05,1,.08,1.58s.07,1.22.14,1.86a12.37,12.37,0,0,0,.32,1.8,4.07,4.07,0,0,0,.65,1.44h-6.2a11,11,0,0,1-.63-3.2c-.08-1.24-.2-2.42-.35-3.55a5.61,5.61,0,0,0-1.34-3.24,4.62,4.62,0,0,0-3.36-1h-6.2v11h-6.2v-28.2Zm-2.21,12.76a4.69,4.69,0,0,0,3.2-.95,3.93,3.93,0,0,0,1.07-3.08,3.76,3.76,0,0,0-1.07-3,4.77,4.77,0,0,0-3.2-.93h-6.79v7.94Z" transform="translate(0.11 -1.11)"/><path class="cls-2" d="M659.29,582.93v28.2h-6.2v-28.2Zm-1.9-9.52-4.18,7h3.91l6.44-7Z" transform="translate(0.11 -1.11)"/><path class="cls-2" d="M682,590.46a6.17,6.17,0,0,0-1.38-1.56,6.34,6.34,0,0,0-1.88-1,6.45,6.45,0,0,0-2.19-.38,7.23,7.23,0,0,0-3.56.81,6.69,6.69,0,0,0-2.37,2.17,9.4,9.4,0,0,0-1.32,3.1,15.34,15.34,0,0,0-.42,3.59,14.28,14.28,0,0,0,.42,3.45,9.22,9.22,0,0,0,1.32,3,6.76,6.76,0,0,0,2.37,2.15,7.23,7.23,0,0,0,3.56.81,5.74,5.74,0,0,0,4.44-1.74,8.05,8.05,0,0,0,2-4.58h6a14.44,14.44,0,0,1-1.22,4.78,11.45,11.45,0,0,1-2.61,3.63,11.07,11.07,0,0,1-3.79,2.29,13.86,13.86,0,0,1-4.78.79,14.5,14.5,0,0,1-5.83-1.12,12.49,12.49,0,0,1-4.36-3.1,13.73,13.73,0,0,1-2.73-4.64,17,17,0,0,1-.95-5.74,17.63,17.63,0,0,1,.95-5.87,14.1,14.1,0,0,1,2.73-4.72,12.47,12.47,0,0,1,4.36-3.16,15.13,15.13,0,0,1,10.23-.47,11.92,11.92,0,0,1,3.71,2,10.58,10.58,0,0,1,2.71,3.18,11.38,11.38,0,0,1,1.34,4.34h-6A5,5,0,0,0,682,590.46Z" transform="translate(0.11 -1.11)"/><path class="cls-2" d="M692.14,591.29a14.1,14.1,0,0,1,2.73-4.72,12.47,12.47,0,0,1,4.36-3.16,15.45,15.45,0,0,1,11.67,0,12.51,12.51,0,0,1,4.34,3.16,14.1,14.1,0,0,1,2.73,4.72,17.63,17.63,0,0,1,.95,5.87,17,17,0,0,1-.95,5.74,13.73,13.73,0,0,1-2.73,4.64,12.53,12.53,0,0,1-4.34,3.1,15.71,15.71,0,0,1-11.67,0,12.49,12.49,0,0,1-4.36-3.1,13.73,13.73,0,0,1-2.73-4.64,17,17,0,0,1-.95-5.74A17.63,17.63,0,0,1,692.14,591.29Zm5.67,9.32a9.22,9.22,0,0,0,1.32,3,6.76,6.76,0,0,0,2.37,2.15,8.2,8.2,0,0,0,7.11,0,6.8,6.8,0,0,0,2.37-2.15,9.36,9.36,0,0,0,1.32-3,14.44,14.44,0,0,0,.41-3.45,15.52,15.52,0,0,0-.41-3.59,9.55,9.55,0,0,0-1.32-3.1,6.73,6.73,0,0,0-2.37-2.17,8.2,8.2,0,0,0-7.11,0,6.69,6.69,0,0,0-2.37,2.17,9.4,9.4,0,0,0-1.32,3.1,15.34,15.34,0,0,0-.42,3.59A14.28,14.28,0,0,0,697.81,600.61Z" transform="translate(0.11 -1.11)"/><path class="cls-2" d="M728.56,582.93v23H742.3v5.21H722.36v-28.2Z" transform="translate(0.11 -1.11)"/><path class="cls-2" d="M759,582.93l10.54,28.2h-6.44L761,604.85H750.47l-2.21,6.28H742l10.66-28.2Zm.36,17.3-3.56-10.35h-.08l-3.67,10.35Z" transform="translate(0.11 -1.11)"/><path class="cls-6" d="M421.4,840.05a22.51,22.51,0,0,1,10.18,7q1,1.54,1.9,2.91c5.45-1.55,4.4-7.61,7.45-9.67,1.93-1.3,5.41-.67,6.35,1.62s-.23,5-2,6.6a18.37,18.37,0,0,1-10,4.09l0,.05q1.12,1.54,2.18,2.83c4,4.91,6.76,7.57,10.62,8.85a.49.49,0,0,0,.24.05c.19,0,.53-.29.54-.28A45,45,0,0,0,459.59,852c12.88-21.12-1.83-54.12-29.82-54.12a38.12,38.12,0,0,0-37.25,30A29.89,29.89,0,0,0,409.25,837c1.14.2,2.3.41,3.46.65a8.12,8.12,0,0,1,1-1.79,17.86,17.86,0,0,1,4.87-4.34c3.1-2,4.42-.92.8-3.34-8.34-5.59-6.23-16.93,8.79-18.59,4.68-.52,11.51-.21,15.44,2.73,6,4.5-.78,10.64-4.52,6.54-1.65-1.81-3.43-8.83-11.18-6.64-5,1.42-6.9,7.24-5.31,11.88,2.09,6.13,8.49,4.7,13.35,4.42,4.61-.26,4.19,3.3.53,3.22-3-.06-5.11-.95-8.23-.36C423.46,832.3,421.42,835.86,421.4,840.05Z" transform="translate(0.11 -1.11)"/><path class="cls-7" d="M421,865.35a37,37,0,0,0,14.18,8.4,38.11,38.11,0,0,0,20-66.14c19.56,23.68,9.9,47.85-6.81,58.32l0,0c-3.86-1.28-7.34-3.68-11.38-8.59q-1.06-1.29-2.18-2.83c-1.2-1.64-2.45-3.5-3.79-5.61-4-5.1-10.38-7.41-16.46-8.82-2-.46-3.94-.83-5.87-1.17a29.09,29.09,0,0,1-16.5-9,38.14,38.14,0,0,0,37.62,44.22q1.42,0,2.82-.1a42.45,42.45,0,0,1-13.4-8.71,73,73,0,0,1-9-11.55A71.33,71.33,0,0,0,421,865.35Z" transform="translate(0.11 -1.11)"/><path class="cls-8" d="M481.91,854.47V825.28a1.23,1.23,0,0,1,.38-.9,1.26,1.26,0,0,1,.91-.36h13a8.46,8.46,0,0,1,6.1,2.27,7.73,7.73,0,0,1,2.37,5.84,7.52,7.52,0,0,1-.9,3.64,8.12,8.12,0,0,1-2.46,2.8,9.78,9.78,0,0,1,4.11,3.29,8.15,8.15,0,0,1,1.56,4.83,8.3,8.3,0,0,1-2.94,6.39,10.22,10.22,0,0,1-7.08,2.65H483.2a1.26,1.26,0,0,1-.91-.36,1.23,1.23,0,0,1-.38-.9Zm2.55-1.28H497a7.81,7.81,0,0,0,5.29-1.9,5.9,5.9,0,0,0,0-9.18,7.83,7.83,0,0,0-5.29-1.89h-12.5v13Zm0-15.52h11.35a6.91,6.91,0,0,0,4.42-1.49,4.89,4.89,0,0,0,1.88-4.06,5.5,5.5,0,0,0-.88-3.13,5,5,0,0,0-2.18-1.87,7,7,0,0,0-2.84-.57H484.46Z" transform="translate(0.11 -1.11)"/><path class="cls-9" d="M497,855.91H483.2a1.43,1.43,0,0,1-1-.41,1.41,1.41,0,0,1-.43-1V825.28a1.41,1.41,0,0,1,.43-1,1.43,1.43,0,0,1,1-.41h13a8.67,8.67,0,0,1,6.22,2.32,7.93,7.93,0,0,1,2.42,6,7.73,7.73,0,0,1-.92,3.72,8.3,8.3,0,0,1-2.27,2.68,9.94,9.94,0,0,1,3.91,3.23,8.34,8.34,0,0,1,1.6,4.93,8.5,8.5,0,0,1-3,6.52A10.44,10.44,0,0,1,497,855.91ZM483.2,824.19a1.08,1.08,0,0,0-.79.31,1.05,1.05,0,0,0-.33.78v29.19a1.06,1.06,0,0,0,.33.78,1.08,1.08,0,0,0,.79.31H497a10.1,10.1,0,0,0,7-2.61,8.17,8.17,0,0,0,2.89-6.26,8,8,0,0,0-1.53-4.73,9.64,9.64,0,0,0-4-3.23l-.28-.12.25-.18a7.91,7.91,0,0,0,2.41-2.74,7.39,7.39,0,0,0,.87-3.56,7.59,7.59,0,0,0-2.31-5.71,8.33,8.33,0,0,0-6-2.22ZM497,853.36H484.28V840H497a8,8,0,0,1,5.4,1.93,6.07,6.07,0,0,1,0,9.44A8,8,0,0,1,497,853.36ZM484.63,853H497a7.68,7.68,0,0,0,5.17-1.86,5.72,5.72,0,0,0,2.13-4.46,5.65,5.65,0,0,0-2.13-4.46,7.7,7.7,0,0,0-5.17-1.85H484.63Zm11.18-15.17H484.28V826.39h11.93a7.18,7.18,0,0,1,2.91.58,5.17,5.17,0,0,1,2.26,1.93,5.68,5.68,0,0,1,.91,3.22,5.07,5.07,0,0,1-1.95,4.2A7.1,7.1,0,0,1,495.81,837.84Zm-11.18-.35h11.18a6.76,6.76,0,0,0,4.31-1.45,4.74,4.74,0,0,0,1.81-3.92,5.34,5.34,0,0,0-.85-3,4.83,4.83,0,0,0-2.11-1.8,6.83,6.83,0,0,0-2.77-.56H484.63Z" transform="translate(0.11 -1.11)"/><path class="cls-8" d="M537,839.38a16.32,16.32,0,1,1,31.33,6.34,16.55,16.55,0,0,1-3.48,5.22,16.38,16.38,0,0,1-5.2,3.49,16,16,0,0,1-12.67,0,16.38,16.38,0,0,1-5.2-3.49,16.55,16.55,0,0,1-3.48-5.22,15.91,15.91,0,0,1-1.3-6.34Zm3.69-5.31a13.49,13.49,0,0,0,0,10.63A13.42,13.42,0,0,0,548,852a13.53,13.53,0,0,0,10.65,0,13.42,13.42,0,0,0,7.3-7.3,13.49,13.49,0,0,0,0-10.63,13.46,13.46,0,0,0-7.3-7.28,13.52,13.52,0,0,0-10.65,0,13.46,13.46,0,0,0-7.3,7.28Z" transform="translate(0.11 -1.11)"/><path class="cls-9" d="M553.3,855.91a16,16,0,0,1-6.4-1.32,16.63,16.63,0,0,1-5.26-3.53,16.82,16.82,0,0,1-3.52-5.27,16.47,16.47,0,0,1,.9-14.68,16.37,16.37,0,0,1,6-6,16.55,16.55,0,0,1,16.54,0,16.45,16.45,0,0,1,8.22,14.28,16.19,16.19,0,0,1-1.31,6.41,16.84,16.84,0,0,1-3.52,5.27,16.64,16.64,0,0,1-5.26,3.53A16,16,0,0,1,553.3,855.91Zm0-32.68a15.82,15.82,0,0,0-8.1,2.17,16.1,16.1,0,0,0-8,14,15.83,15.83,0,0,0,1.28,6.27,16.46,16.46,0,0,0,3.44,5.16,16.28,16.28,0,0,0,5.15,3.45,15.85,15.85,0,0,0,12.53,0,16.28,16.28,0,0,0,5.15-3.45,16.49,16.49,0,0,0,3.44-5.16,16.13,16.13,0,0,0-.88-14.37,16.05,16.05,0,0,0-5.88-5.88A15.83,15.83,0,0,0,553.3,823.23Zm0,30a13.62,13.62,0,0,1-5.39-1.11,13.59,13.59,0,0,1-7.4-7.39,13.66,13.66,0,0,1,0-10.77,13.63,13.63,0,0,1,7.4-7.37,13.7,13.7,0,0,1,10.79,0,13.63,13.63,0,0,1,7.4,7.37,13.66,13.66,0,0,1,0,10.77,13.6,13.6,0,0,1-7.4,7.39A13.62,13.62,0,0,1,553.3,853.27Zm0-27.4A13.27,13.27,0,0,0,548,827a13.28,13.28,0,0,0-7.21,7.19,13.31,13.31,0,0,0,0,10.5,13.24,13.24,0,0,0,7.21,7.2,13.35,13.35,0,0,0,10.51,0,13.24,13.24,0,0,0,7.21-7.2,13.31,13.31,0,0,0,0-10.5,13.28,13.28,0,0,0-7.21-7.19A13.26,13.26,0,0,0,553.3,825.87Z" transform="translate(0.11 -1.11)"/><path class="cls-8" d="M583,838.65a8.21,8.21,0,0,1,0-12.12,9.06,9.06,0,0,1,6.42-2.52h12.6a1.24,1.24,0,0,1,.91.37,1.26,1.26,0,0,1,0,1.81,1.24,1.24,0,0,1-.91.37h-12.6a6.6,6.6,0,0,0-4.63,1.77,5.69,5.69,0,0,0,0,8.53,6.62,6.62,0,0,0,4.63,1.77h6.69a9.12,9.12,0,0,1,6.37,2.54,8.18,8.18,0,0,1,0,12.06,9,9,0,0,1-6.42,2.51H582.36a1.28,1.28,0,0,1-.9-2.18,1.21,1.21,0,0,1,.9-.37h13.71a6.6,6.6,0,0,0,4.63-1.76,5.66,5.66,0,0,0,0-8.5,6.62,6.62,0,0,0-4.63-1.76h-6.6A9,9,0,0,1,583,838.65Z" transform="translate(0.11 -1.11)"/><path class="cls-10" d="M596.09,855.91H582.36a1.38,1.38,0,0,1-1-.42,1.47,1.47,0,0,1,0-2.05,1.38,1.38,0,0,1,1-.42h13.71a6.46,6.46,0,0,0,4.51-1.71,5.48,5.48,0,0,0,0-8.24,6.47,6.47,0,0,0-4.52-1.71h-6.6a9.25,9.25,0,0,1-6.54-2.57,8.38,8.38,0,0,1,0-12.38,9.26,9.26,0,0,1,6.54-2.57h12.6a1.41,1.41,0,0,1,1,.42,1.44,1.44,0,0,1,0,2.05,1.41,1.41,0,0,1-1,.42h-12.6a6.47,6.47,0,0,0-4.51,1.72,5.52,5.52,0,0,0,0,8.27,6.48,6.48,0,0,0,4.52,1.72h6.69a9.33,9.33,0,0,1,6.49,2.59,8.36,8.36,0,0,1,0,12.31A9.26,9.26,0,0,1,596.09,855.91Zm-13.72-2.55a1,1,0,0,0-.78.32,1.06,1.06,0,0,0-.32.78,1.08,1.08,0,0,0,1.09,1.1h13.72a8.91,8.91,0,0,0,6.31-2.46,8,8,0,0,0,0-11.81,9,9,0,0,0-6.25-2.49h-6.69a6.82,6.82,0,0,1-4.75-1.81,5.87,5.87,0,0,1,0-8.78,6.81,6.81,0,0,1,4.75-1.81h12.6a1.06,1.06,0,0,0,.79-.32,1.09,1.09,0,0,0,0-1.56,1.06,1.06,0,0,0-.79-.32h-12.6a8.92,8.92,0,0,0-6.31,2.47,8,8,0,0,0,0,11.87,8.92,8.92,0,0,0,6.3,2.47h6.6a6.81,6.81,0,0,1,4.75,1.81,5.83,5.83,0,0,1,0,8.75,6.8,6.8,0,0,1-4.75,1.81Z" transform="translate(0.11 -1.11)"/><path class="cls-8" d="M520.81,854.47V825.28a1.27,1.27,0,1,1,2.55,0v29.19a1.27,1.27,0,1,1-2.55,0Z" transform="translate(0.11 -1.11)"/><path class="cls-9" d="M522.08,855.91a1.43,1.43,0,0,1-1.45-1.44V825.28a1.45,1.45,0,1,1,2.9,0v29.19a1.39,1.39,0,0,1-.42,1A1.4,1.4,0,0,1,522.08,855.91Zm0-31.72a1.08,1.08,0,0,0-1.1,1.09v29.19a1,1,0,0,0,.32.78,1.06,1.06,0,0,0,.78.31,1.08,1.08,0,0,0,1.1-1.09V825.28a1.08,1.08,0,0,0-1.1-1.09Z" transform="translate(0.11 -1.11)"/><path class="cls-11" d="M526.21,822.75a11.87,11.87,0,0,1-4.27.25c1.25-3.29,3.13-4.74,5.27-6.39a27.63,27.63,0,0,0,4-3.59h0a11,11,0,0,0,1.58-2.92,14.41,14.41,0,0,0,.68-2.76,14.06,14.06,0,0,1,0,5.54,17.15,17.15,0,0,1-3,6.56,8.23,8.23,0,0,1-4.33,3.32Zm7-15.46-.37.35-.12.11-.09.07-.21.16-.22.16c-.24.16-.48.31-.73.45-.56.32-1.12.59-1.7.86l-.94.43a19.86,19.86,0,0,0-5.25,3.06h0l0,0a7.48,7.48,0,0,0-2.25,4.17,12.2,12.2,0,0,0,.39,5.32l.06.2c1.27-3.2,3.14-4.64,5.27-6.28a27.45,27.45,0,0,0,4-3.55,10.74,10.74,0,0,0,1.53-2.85A14.14,14.14,0,0,0,533.25,807.29Z" transform="translate(0.11 -1.11)"/></svg>