<?xml version="1.0" encoding="utf-8"?>
<!-- Generator: Adobe Illustrator 20.0.0, SVG Export Plug-In . SVG Version: 6.00 Build 0)  -->
<svg version="1.1" id="Layer_1" xmlns="http://www.w3.org/2000/svg" xmlns:xlink="http://www.w3.org/1999/xlink" x="0px" y="0px"
	 viewBox="0 0 1000 1000" style="enable-background:new 0 0 1000 1000;" xml:space="preserve">
<style type="text/css">
	.st0{fill:#FFFFFF;stroke:#000000;stroke-miterlimit:10;}
	.st1{fill-rule:evenodd;clip-rule:evenodd;fill:url(#SVGID_1_);}
	.st2{fill-rule:evenodd;clip-rule:evenodd;fill:url(#SVGID_2_);}
	.st3{fill-rule:evenodd;clip-rule:evenodd;fill:#0D8943;}
	.st4{fill:#0D8943;}
	.st5{fill:#118A44;}
	.st6{fill-rule:evenodd;clip-rule:evenodd;fill:url(#SVGID_3_);}
	.st7{fill:#66A643;}
	.st8{fill:#682210;}
	.st9{fill:#67200F;}
	.st10{fill:#F2AC1D;}
</style>
<circle class="st0" cx="498.4" cy="501.6" r="500"/>
<g>
	<linearGradient id="SVGID_1_" gradientUnits="userSpaceOnUse" x1="392.4626" y1="831.1398" x2="464.2444" y2="831.1398">
		<stop  offset="0" style="stop-color:#42ABC2"/>
		<stop  offset="1" style="stop-color:#11131E"/>
	</linearGradient>
	<path class="st1" d="M421.3,840.1c3.9,1.5,7.6,3.6,10.2,7c0.6,1,1.3,2,1.9,2.9c5.4-1.6,4.4-7.6,7.5-9.7c1.9-1.3,5.4-0.7,6.4,1.6
		c1,2.3-0.2,5-2,6.6c-2.5,2.3-6.1,3.6-10,4.1l0,0.1c0.7,1,1.5,2,2.2,2.8c4,4.9,6.8,7.6,10.6,8.9c0.1,0,0.1,0.1,0.2,0.1
		c0.2,0,0.5-0.3,0.5-0.3c4-3.1,7.6-7.1,10.6-12.1c12.9-21.1-1.8-54.1-29.8-54.1c-18.3,0-33.5,12.9-37.2,30c4.5,4.8,10.3,8,16.7,9.1
		c1.1,0.2,2.3,0.4,3.5,0.6c0.2-0.6,0.5-1.2,1-1.8c1.2-1.7,3.1-3.2,4.9-4.3c3.1-2,4.4-0.9,0.8-3.3c-8.3-5.6-6.2-16.9,8.8-18.6
		c4.7-0.5,11.5-0.2,15.4,2.7c6,4.5-0.8,10.6-4.5,6.5c-1.7-1.8-3.4-8.8-11.2-6.6c-5,1.4-6.9,7.2-5.3,11.9c2.1,6.1,8.5,4.7,13.3,4.4
		c4.6-0.3,4.2,3.3,0.5,3.2c-3-0.1-5.1-0.9-8.2-0.4C423.4,832.3,421.4,835.9,421.3,840.1z"/>
	<linearGradient id="SVGID_2_" gradientUnits="userSpaceOnUse" x1="421.0732" y1="822.2855" x2="445.2207" y2="860.6815">
		<stop  offset="0" style="stop-color:#74BB44"/>
		<stop  offset="1" style="stop-color:#196332"/>
	</linearGradient>
	<path class="st2" d="M420.9,865.3c4,3.6,8.5,6.6,14.2,8.4c18.5-2.6,32.7-18.5,32.7-37.7c0-11.3-4.9-21.4-12.7-28.4
		c19.6,23.7,9.9,47.8-6.8,58.3c0,0,0,0,0,0c-3.9-1.3-7.3-3.7-11.4-8.6c-0.7-0.9-1.4-1.8-2.2-2.8c-1.2-1.6-2.5-3.5-3.8-5.6
		c-4-5.1-10.4-7.4-16.5-8.8c-2-0.5-3.9-0.8-5.9-1.2c-6.4-1.1-12-4.2-16.5-9c-0.3,2-0.5,4-0.5,6.1c0,21,17.1,38.1,38.1,38.1
		c0.9,0,1.9,0,2.8-0.1c-5.3-2.2-9.8-5.1-13.4-8.7c-3.5-3.6-6.4-7.5-9-11.5C413.4,858.1,417,862,420.9,865.3z"/>
	<g>
		<path class="st3" d="M481.9,854.5v-29.2c0-0.4,0.1-0.7,0.4-0.9c0.3-0.2,0.6-0.4,0.9-0.4h13c2.5,0,4.5,0.8,6.1,2.3
			c1.6,1.5,2.4,3.5,2.4,5.8c0,1.3-0.3,2.5-0.9,3.6c-0.6,1.1-1.4,2-2.5,2.8c1.7,0.7,3.1,1.8,4.1,3.3c1,1.5,1.6,3.1,1.6,4.8
			c0,2.5-1,4.6-2.9,6.4c-2,1.8-4.3,2.7-7.1,2.7h-13.8c-0.4,0-0.7-0.1-0.9-0.4C482,855.1,481.9,854.8,481.9,854.5L481.9,854.5z
			 M484.4,853.2h12.5c2.1,0,3.8-0.6,5.3-1.9c1.5-1.3,2.2-2.8,2.2-4.6c0-1.8-0.7-3.3-2.2-4.6c-1.5-1.3-3.2-1.9-5.3-1.9h-12.5V853.2
			L484.4,853.2z M484.4,837.7h11.4c1.7,0,3.2-0.5,4.4-1.5c1.3-1,1.9-2.3,1.9-4.1c0-1.2-0.3-2.3-0.9-3.1c-0.6-0.9-1.3-1.5-2.2-1.9
			c-0.9-0.4-1.8-0.6-2.8-0.6h-11.8V837.7z"/>
		<path class="st4" d="M496.9,855.9h-13.8c-0.4,0-0.7-0.1-1-0.4c-0.3-0.3-0.4-0.6-0.4-1v-29.2c0-0.4,0.1-0.7,0.4-1
			c0.3-0.3,0.6-0.4,1-0.4h13c2.5,0,4.6,0.8,6.2,2.3c1.6,1.5,2.4,3.5,2.4,6c0,1.3-0.3,2.6-0.9,3.7c-0.5,1-1.3,1.9-2.3,2.7
			c1.6,0.8,2.9,1.8,3.9,3.2c1.1,1.5,1.6,3.1,1.6,4.9c0,2.5-1,4.7-3,6.5C502.1,855,499.7,855.9,496.9,855.9z M483.1,824.2
			c-0.3,0-0.6,0.1-0.8,0.3c-0.2,0.2-0.3,0.5-0.3,0.8v29.2c0,0.3,0.1,0.6,0.3,0.8c0.2,0.2,0.5,0.3,0.8,0.3h13.8c2.7,0,5-0.9,7-2.6
			c1.9-1.7,2.9-3.8,2.9-6.3c0-1.7-0.5-3.3-1.5-4.7c-1-1.4-2.4-2.5-4-3.2l-0.3-0.1l0.2-0.2c1-0.8,1.8-1.7,2.4-2.7
			c0.6-1.1,0.9-2.3,0.9-3.6c0-2.3-0.8-4.2-2.3-5.7c-1.5-1.5-3.6-2.2-6-2.2H483.1z M496.9,853.4h-12.7V840h12.7
			c2.1,0,3.9,0.6,5.4,1.9c1.5,1.3,2.3,2.9,2.3,4.7c0,1.8-0.8,3.4-2.3,4.7C500.8,852.7,499,853.4,496.9,853.4z M484.6,853h12.3
			c2,0,3.7-0.6,5.2-1.9c1.4-1.2,2.1-2.7,2.1-4.5c0-1.8-0.7-3.2-2.1-4.5c-1.4-1.2-3.2-1.8-5.2-1.8h-12.3V853z M495.8,837.8h-11.5
			v-11.5h11.9c1,0,2,0.2,2.9,0.6c0.9,0.4,1.7,1,2.3,1.9c0.6,0.9,0.9,2,0.9,3.2c0,1.8-0.7,3.2-1.9,4.2
			C499,837.3,497.5,837.8,495.8,837.8z M484.6,837.5h11.2c1.7,0,3.1-0.5,4.3-1.4c1.2-0.9,1.8-2.3,1.8-3.9c0-1.2-0.3-2.2-0.9-3
			c-0.6-0.8-1.3-1.4-2.1-1.8c-0.8-0.4-1.8-0.6-2.8-0.6h-11.6V837.5z"/>
	</g>
	<g>
		<path class="st3" d="M536.9,839.4c0-3,0.7-5.7,2.2-8.2c1.5-2.5,3.4-4.5,5.9-5.9c2.5-1.5,5.2-2.2,8.2-2.2s5.7,0.7,8.2,2.2
			c2.5,1.5,4.5,3.4,5.9,5.9c1.5,2.5,2.2,5.2,2.2,8.2c0,2.2-0.4,4.3-1.3,6.3c-0.9,2-2,3.8-3.5,5.2c-1.5,1.5-3.2,2.6-5.2,3.5
			c-2,0.9-4.1,1.3-6.3,1.3s-4.3-0.4-6.3-1.3c-2-0.9-3.7-2-5.2-3.5c-1.5-1.5-2.6-3.2-3.5-5.2C537.4,843.7,536.9,841.6,536.9,839.4
			L536.9,839.4z M540.6,834.1c-0.7,1.7-1.1,3.5-1.1,5.3c0,1.9,0.4,3.6,1.1,5.3c0.7,1.7,1.7,3.2,2.9,4.4c1.2,1.2,2.7,2.2,4.4,2.9
			c1.7,0.7,3.5,1.1,5.3,1.1s3.6-0.4,5.3-1.1c1.7-0.7,3.2-1.7,4.4-2.9c1.2-1.2,2.2-2.7,2.9-4.4c0.7-1.7,1.1-3.5,1.1-5.3
			c0-1.9-0.4-3.6-1.1-5.3c-0.7-1.7-1.7-3.1-2.9-4.4c-1.2-1.2-2.7-2.2-4.4-2.9c-1.7-0.7-3.5-1.1-5.3-1.1s-3.6,0.4-5.3,1.1
			c-1.7,0.7-3.2,1.7-4.4,2.9C542.3,830.9,541.3,832.4,540.6,834.1z"/>
		<path class="st4" d="M553.2,855.9c-2.2,0-4.4-0.4-6.4-1.3c-2-0.9-3.8-2.1-5.3-3.5c-1.5-1.5-2.7-3.2-3.5-5.3
			c-0.9-2-1.3-4.2-1.3-6.4c0-3,0.7-5.7,2.2-8.3c1.5-2.5,3.5-4.6,6-6c2.5-1.5,5.3-2.2,8.3-2.2c3,0,5.8,0.7,8.3,2.2
			c2.5,1.5,4.5,3.5,6,6c1.5,2.5,2.2,5.3,2.2,8.3c0,2.2-0.4,4.4-1.3,6.4c-0.9,2-2.1,3.8-3.5,5.3c-1.5,1.5-3.2,2.7-5.3,3.5
			C557.6,855.5,555.5,855.9,553.2,855.9z M553.2,823.2c-2.9,0-5.6,0.7-8.1,2.2c-2.5,1.4-4.4,3.4-5.9,5.9c-1.4,2.5-2.2,5.2-2.2,8.1
			c0,2.2,0.4,4.3,1.3,6.3c0.9,2,2,3.7,3.4,5.2c1.4,1.4,3.2,2.6,5.1,3.5c2,0.9,4.1,1.3,6.3,1.3c2.2,0,4.3-0.4,6.3-1.3
			c2-0.9,3.7-2,5.1-3.5c1.4-1.4,2.6-3.2,3.4-5.2c0.9-2,1.3-4.1,1.3-6.3c0-2.9-0.7-5.6-2.2-8.1c-1.4-2.5-3.4-4.5-5.9-5.9
			C558.9,824,556.2,823.2,553.2,823.2z M553.2,853.3c-1.9,0-3.7-0.4-5.4-1.1c-1.7-0.7-3.2-1.7-4.4-3c-1.2-1.2-2.2-2.7-3-4.4
			c-0.7-1.7-1.1-3.5-1.1-5.4c0-1.9,0.4-3.7,1.1-5.4c0.7-1.7,1.7-3.2,3-4.4c1.2-1.2,2.7-2.2,4.4-3c1.7-0.7,3.5-1.1,5.4-1.1
			c1.9,0,3.7,0.4,5.4,1.1c1.7,0.7,3.2,1.7,4.4,3c1.2,1.2,2.2,2.7,3,4.4c0.7,1.7,1.1,3.5,1.1,5.4c0,1.9-0.4,3.7-1.1,5.4
			c-0.7,1.7-1.7,3.2-3,4.4c-1.2,1.2-2.7,2.2-4.4,3C556.9,852.9,555.1,853.3,553.2,853.3z M553.2,825.9c-1.8,0-3.6,0.4-5.3,1.1
			c-1.7,0.7-3.1,1.7-4.3,2.9c-1.2,1.2-2.2,2.7-2.9,4.3c-0.7,1.7-1.1,3.4-1.1,5.2c0,1.8,0.4,3.6,1.1,5.3c0.7,1.7,1.7,3.1,2.9,4.3
			c1.2,1.2,2.7,2.2,4.3,2.9c1.7,0.7,3.4,1.1,5.3,1.1c1.8,0,3.6-0.4,5.3-1.1c1.7-0.7,3.1-1.7,4.3-2.9c1.2-1.2,2.2-2.7,2.9-4.3
			c0.7-1.7,1.1-3.4,1.1-5.3c0-1.8-0.4-3.6-1.1-5.2c-0.7-1.7-1.7-3.1-2.9-4.3c-1.2-1.2-2.7-2.2-4.3-2.9
			C556.8,826.2,555.1,825.9,553.2,825.9z"/>
	</g>
	<g>
		<path class="st3" d="M583,838.7c-1.8-1.7-2.7-3.7-2.7-6.1c0-2.4,0.9-4.4,2.7-6.1c1.8-1.7,3.9-2.5,6.4-2.5H602
			c0.4,0,0.7,0.1,0.9,0.4c0.3,0.2,0.4,0.5,0.4,0.9c0,0.4-0.1,0.7-0.4,0.9c-0.3,0.3-0.6,0.4-0.9,0.4h-12.6c-1.8,0-3.3,0.6-4.6,1.8
			c-1.3,1.2-1.9,2.6-1.9,4.3c0,1.7,0.6,3.1,1.9,4.3c1.3,1.2,2.8,1.8,4.6,1.8h6.6h0.1c2.5,0,4.6,0.9,6.4,2.5c1.8,1.7,2.6,3.7,2.6,6
			c0,2.4-0.9,4.4-2.7,6c-1.8,1.7-3.9,2.5-6.4,2.5h-13.7c-0.4,0-0.7-0.1-0.9-0.4c-0.2-0.2-0.4-0.5-0.4-0.9c0-0.4,0.1-0.7,0.4-0.9
			c0.2-0.3,0.5-0.4,0.9-0.4H596c1.8,0,3.3-0.6,4.6-1.8s1.9-2.6,1.9-4.2c0-1.7-0.6-3.1-1.9-4.2c-1.3-1.2-2.8-1.8-4.6-1.8h-6.6
			C586.9,841.2,584.8,840.3,583,838.7z"/>
		<path class="st5" d="M596,855.9h-13.7c-0.4,0-0.7-0.1-1-0.4c-0.3-0.3-0.4-0.6-0.4-1c0-0.4,0.1-0.8,0.4-1c0.3-0.3,0.6-0.4,1-0.4
			H596c1.8,0,3.3-0.6,4.5-1.7c1.2-1.1,1.9-2.5,1.9-4.1c0-1.6-0.6-3-1.9-4.1c-1.2-1.1-2.8-1.7-4.5-1.7h-6.6c-2.5,0-4.7-0.9-6.5-2.6
			c-1.8-1.7-2.7-3.8-2.7-6.2c0-2.4,0.9-4.5,2.7-6.2c1.8-1.7,4-2.6,6.5-2.6H602c0.4,0,0.8,0.1,1,0.4c0.3,0.3,0.4,0.6,0.4,1
			c0,0.4-0.1,0.7-0.4,1c-0.3,0.3-0.6,0.4-1,0.4h-12.6c-1.7,0-3.3,0.6-4.5,1.7c-1.3,1.2-1.9,2.5-1.9,4.1c0,1.6,0.6,3,1.9,4.1
			c1.2,1.1,2.8,1.7,4.5,1.7h6.7c2.5,0,4.7,0.9,6.5,2.6c1.8,1.7,2.7,3.8,2.7,6.1c0,2.4-0.9,4.5-2.7,6.2
			C600.8,855,598.6,855.9,596,855.9z M582.3,853.4c-0.3,0-0.6,0.1-0.8,0.3c-0.2,0.2-0.3,0.5-0.3,0.8c0,0.3,0.1,0.6,0.3,0.8
			c0.2,0.2,0.5,0.3,0.8,0.3H596c2.4,0,4.6-0.8,6.3-2.5c1.7-1.6,2.6-3.6,2.6-5.9c0-2.3-0.9-4.3-2.6-5.9c-1.7-1.6-3.8-2.5-6.3-2.5
			h-6.7c-1.8,0-3.4-0.6-4.8-1.8c-1.3-1.2-2-2.7-2-4.4c0-1.7,0.7-3.2,2-4.4c1.3-1.2,2.9-1.8,4.7-1.8H602c0.3,0,0.6-0.1,0.8-0.3
			c0.2-0.2,0.3-0.5,0.3-0.8s-0.1-0.6-0.3-0.8c-0.2-0.2-0.5-0.3-0.8-0.3h-12.6c-2.4,0-4.6,0.8-6.3,2.5c-1.7,1.6-2.6,3.6-2.6,5.9
			c0,2.3,0.9,4.3,2.6,5.9c1.7,1.6,3.9,2.5,6.3,2.5h6.6c1.8,0,3.4,0.6,4.8,1.8c1.3,1.2,2,2.7,2,4.4c0,1.7-0.7,3.2-2,4.4
			c-1.3,1.2-2.9,1.8-4.7,1.8H582.3z"/>
	</g>
	<g>
		<g>
			<path class="st3" d="M520.8,854.5v-29.2c0-0.4,0.1-0.7,0.4-0.9c0.2-0.2,0.5-0.4,0.9-0.4c0.4,0,0.7,0.1,0.9,0.4
				c0.3,0.3,0.4,0.5,0.4,0.9v29.2c0,0.4-0.1,0.7-0.4,0.9c-0.2,0.2-0.5,0.4-0.9,0.4c-0.4,0-0.7-0.1-0.9-0.4
				C520.9,855.1,520.8,854.8,520.8,854.5z"/>
			<path class="st4" d="M522,855.9c-0.4,0-0.8-0.1-1-0.4c-0.3-0.3-0.4-0.6-0.4-1v-29.2c0-0.4,0.1-0.7,0.4-1c0.3-0.3,0.6-0.4,1-0.4
				s0.8,0.1,1,0.4c0.3,0.3,0.4,0.6,0.4,1v29.2c0,0.4-0.1,0.7-0.4,1C522.8,855.8,522.4,855.9,522,855.9z M522,824.2
				c-0.3,0-0.6,0.1-0.8,0.3c-0.2,0.2-0.3,0.5-0.3,0.8v29.2c0,0.3,0.1,0.6,0.3,0.8c0.2,0.2,0.5,0.3,0.8,0.3c0.3,0,0.6-0.1,0.8-0.3
				c0.2-0.2,0.3-0.5,0.3-0.8v-29.2c0-0.3-0.1-0.6-0.3-0.8C522.6,824.3,522.3,824.2,522,824.2z"/>
		</g>
		<linearGradient id="SVGID_3_" gradientUnits="userSpaceOnUse" x1="521.5952" y1="817.8784" x2="534.1742" y2="813.4412">
			<stop  offset="0" style="stop-color:#3B9D47"/>
			<stop  offset="0.1802" style="stop-color:#56A846"/>
			<stop  offset="0.3911" style="stop-color:#67B245"/>
			<stop  offset="0.6372" style="stop-color:#71B844"/>
			<stop  offset="1" style="stop-color:#74BB44"/>
		</linearGradient>
		<path class="st6" d="M526.2,822.8c-1.4,0.4-2.8,0.4-4.3,0.3c1.2-3.3,3.1-4.7,5.3-6.4c1.3-1,2.6-2,4-3.6l0,0
			c0.7-0.9,1.2-1.9,1.6-2.9c0.3-0.9,0.5-1.8,0.7-2.8c0.4,1.8,0.4,3.6,0,5.5c-0.4,2.1-1.4,4.3-3,6.6
			C529.1,821.4,527.6,822.3,526.2,822.8L526.2,822.8z M533.2,807.3c-0.1,0.1-0.2,0.2-0.4,0.4c0,0-0.1,0.1-0.1,0.1c0,0-0.1,0-0.1,0.1
			c-0.1,0.1-0.1,0.1-0.2,0.2c-0.1,0.1-0.1,0.1-0.2,0.2c-0.2,0.2-0.5,0.3-0.7,0.5c-0.6,0.3-1.1,0.6-1.7,0.9c-0.3,0.1-0.6,0.3-0.9,0.4
			c-1.8,0.8-3.8,1.7-5.3,3.1l0,0l0,0c-1.2,1.2-2,2.6-2.2,4.2c-0.3,1.6-0.1,3.4,0.4,5.3l0.1,0.2c1.3-3.2,3.1-4.6,5.3-6.3
			c1.3-1,2.6-2,4-3.6c0.7-0.9,1.2-1.8,1.5-2.8C532.8,809.1,533.1,808.2,533.2,807.3z"/>
	</g>
</g>
<g>
	<g>
		<circle class="st7" cx="632" cy="375.7" r="4.6"/>
		<circle class="st7" cx="648.7" cy="384.9" r="4.6"/>
		<circle class="st7" cx="657.9" cy="359" r="4.6"/>
		<circle class="st7" cx="674.6" cy="373.8" r="4.6"/>
		<circle class="st7" cx="686.9" cy="356.5" r="4.6"/>
		<circle class="st7" cx="685.6" cy="383" r="4.6"/>
		<circle class="st7" cx="708.4" cy="392.2" r="4.6"/>
		<circle class="st7" cx="713.9" cy="380.8" r="4.6"/>
		<circle class="st7" cx="694.8" cy="419.9" r="4.6"/>
		<circle class="st7" cx="609.3" cy="395" r="4.6"/>
		<path class="st7" d="M694.8,356.5c0,0,7.9-3.5,4.6-13.1C699.4,343.4,690,348.4,694.8,356.5z"/>
		<path class="st7" d="M698.8,369.2c0,0,6.5,1.5,9.9-9.2C708.7,360,698.4,359.8,698.8,369.2z"/>
		<path class="st7" d="M693.4,361.8c0,0,0.5,7-8.4,9.5C685,371.2,682.3,364.3,693.4,361.8z"/>
		<path class="st7" d="M715,368c0,0-2.3,8.6-11.3,7.7C703.8,375.7,705.4,367.3,715,368z"/>
		<path class="st7" d="M700.2,372.5c0,0-2.2,7-10,6.5C690.2,378.9,690.2,371.9,700.2,372.5z"/>
		<path class="st7" d="M679.2,367.9c0,0,6.5-5-1-11.4C678.1,356.5,671.6,363.7,679.2,367.9z"/>
		<path class="st7" d="M676.4,353c0,0,5.8-5.4,2.2-14.2C678.6,338.8,671.4,344.7,676.4,353z"/>
		<path class="st7" d="M668.3,346.9c0,0,4.2-9.2-1.6-16.9C666.7,330,661.2,338.8,668.3,346.9z"/>
		<path class="st7" d="M661.4,349.9c0,0-0.4-6.8-8.1-8.4C653.3,341.5,652.2,351.1,661.4,349.9z"/>
		<path class="st7" d="M662.5,373.8c0,0,0-9.5-8.1-9.2C654.3,364.6,655,373.8,662.5,373.8z"/>
		<path class="st7" d="M648.7,360c0,0,3.5-8.7-5.8-13.1C642.9,346.9,639.5,356.4,648.7,360z"/>
		<path class="st7" d="M649.4,367.9c0,0-3.8-4-11.9,0C637.4,367.9,644.6,374.2,649.4,367.9z"/>
		<path class="st7" d="M631,368.4c0,0,6.3-4.4,1-11.9C632,356.5,626.1,363.7,631,368.4z"/>
		<path class="st7" d="M627.4,369.2c0,0-1.7-10.6-10.6-10.2C616.8,359,615.7,367.8,627.4,369.2z"/>
		<path class="st7" d="M624.7,372.4c0,0-7.1-3.2-10.8,1.4C613.9,373.8,620.2,379.4,624.7,372.4z"/>
		<path class="st7" d="M639.1,387.6c0,0-0.3-6-10.1-3.5C629,384,631.2,390.3,639.1,387.6z"/>
		<path class="st7" d="M640.8,395c0,0-4.3-7-11.7-4.5C629,390.5,633.1,398.1,640.8,395z"/>
		<path class="st7" d="M623.7,390c0,0,5.2-7.4-2.9-11.6C620.8,378.4,615.7,386.4,623.7,390z"/>
		<path class="st7" d="M615.3,388.3c0,0,2.1-9.3-6-12.3C609.3,375.9,605.1,385.8,615.3,388.3z"/>
		<path class="st7" d="M605.9,385.8c0,0-5.8-6.6-13.1,1.7C592.8,387.6,600.7,392.5,605.9,385.8z"/>
		<path class="st7" d="M625.3,398.2c0,0-5.3-2.9-9.8,4.4C615.6,402.6,623.2,405.7,625.3,398.2z"/>
		<path class="st7" d="M609.3,403.2c0,0-4.4-6.9-12.7-0.9C596.6,402.4,601.4,407.9,609.3,403.2z"/>
		<path class="st7" d="M628.3,406c0,0-0.4,7.1-10,8.8C618.3,414.8,617.2,407.3,628.3,406z"/>
		<path class="st7" d="M615.8,405.8c0,0-0.6,10.2-11,10C604.9,415.8,604.8,406.6,615.8,405.8z"/>
		<path class="st7" d="M661.4,403.2c0,0,1.9-11.6-5.4-12.7C656,390.5,650.8,397,661.4,403.2z"/>
		<path class="st7" d="M679.8,405.1c0,0,2.9-8.9-4.3-12.9C675.5,392.2,670.3,399.7,679.8,405.1z"/>
		<path class="st7" d="M690.2,396.9c0,0,8.3,1.3,11.7-4.7C701.9,392.2,695.8,388.3,690.2,396.9z"/>
		<path class="st7" d="M695.4,386.4c0,0,7.9,3.4,11.3-4.1C706.7,382.2,700.3,379.3,695.4,386.4z"/>
		<path class="st7" d="M709,365.9c0,0,7.9,3.4,11.3-4.1C720.3,361.8,713.9,358.9,709,365.9z"/>
		<path class="st7" d="M715,395.8c0,0,8.3,0.4,10.2-8.2C725.3,387.6,717.1,386.4,715,395.8z"/>
		<path class="st7" d="M715.5,374c0,0,8,2.3,11.8-5.6C727.3,368.4,719.7,365.4,715.5,374z"/>
		<path class="st7" d="M697.8,413.9c0,0,7-1.2,6.8-8.2C704.6,405.6,696.3,407.4,697.8,413.9z"/>
		<path class="st7" d="M704.9,412.9c0,0,10.3,1.9,13-6.9C717.9,406,709.5,404.4,704.9,412.9z"/>
		<path class="st7" d="M702.6,414.6c0,0,8.3-0.4,7.3,6C709.9,420.7,703.7,421.9,702.6,414.6z"/>
		<path class="st7" d="M682.5,416.1c0,0,7.5,2.7,5.7,9.4C688.2,425.4,681.3,424.6,682.5,416.1z"/>
		<path class="st7" d="M690,412.9c0,0,6.6-0.2,6.8-7.5C696.8,405.5,688.4,407.1,690,412.9z"/>
		<path class="st7" d="M646.6,411.2c0,0-7.5-5.8-13.1,0.9C633.5,412.1,639.7,418,646.6,411.2z"/>
		<path class="st7" d="M658.4,413.2c0,0,3.9-7.5-2.6-11.7C655.8,401.6,650.6,408.2,658.4,413.2z"/>
		<path class="st7" d="M686.9,346.9c0,0,6.3-4.4,4.6-12.5C691.5,334.4,682.6,339.1,686.9,346.9z"/>
		<path class="st7" d="M670.8,391.6c0,0,6.6,0.4,6.4-9.5C677.2,382.1,670,383.8,670.8,391.6z"/>
		<path class="st7" d="M670.7,363.6c0,0,5.8-3.5,3.3-10.6C674,353,667.1,356.1,670.7,363.6z"/>
		<path class="st7" d="M674.6,413.2c0,0,4-5.8-2.4-11.7C672.2,401.6,668.5,409.7,674.6,413.2z"/>
		<path class="st7" d="M602,392.9c0,0-0.4,6.6-10.2,5.8C591.8,398.6,593.2,391.3,602,392.9z"/>
		<path class="st7" d="M725.2,398.9c0,0-2.8,6.8-12.9,2.5C712.3,401.3,716.5,394.1,725.2,398.9z"/>
		<path class="st7" d="M711.9,355.4c0,0-5.8-6.6-13.1,1.7C698.8,357.2,706.7,362,711.9,355.4z"/>
		<path class="st7" d="M709.3,398.9c0,0-0.4,6.6-10.2,5.8C699.1,404.6,700.5,397.3,709.3,398.9z"/>
		<path class="st8" d="M655.6,430.7c-0.8-4.8-12.9-23.5-15.4-24.5c-2.5-1-22.3,0.8-28,0c0,0,20.2-2.5,22.3-3.8
			c2.1-1.3-14.4-10.2-14.4-10.2s18.4,7.3,22.7,10.6c4.4,3.3-1-18.6-1-18.6s4.6,10.2,5.8,16.5c1.3,6.3,12.7,18.1,14.8,18.1
			c2.1,0,0.4-26.3,0-29.8c-0.4-3.5-9.8-17.7-9.8-17.7s9.8,9.2,11.5,12.9c1.7,3.8,0.4-26.7,2.6-31.3c0,0,1.6,27.1,1.6,38.8
			c0,11.7,1.9,30,1.9,30s9.8-13.4,10.8-15.6s8.3-16.7,11.3-18.8c0,0-5.2,12.1-6.9,17.1c0,0,13.4-7.7,18.8-6.5c0,0-19,10.4-21.5,14.2
			c0,0,16.1,1,21.7,2.3c0,0-17.7-0.4-20.7,1.3c-2.9,1.7-6.1,10.9-7.6,14.9"/>
	</g>
	<g>
		<path class="st9" d="M287.9,466.6H319v49.1c-13.7,15.3-32.8,23-57.1,23c-20.3,0-37.4-6.7-51.2-20.2c-13.8-13.5-20.7-30.5-20.7-51
			c0-20.5,7-37.7,21.1-51.4c14.1-13.7,31-20.6,50.9-20.6c19.9,0,37.2,6.5,51.8,19.6l-16,23.2c-6.2-5.4-11.9-9.1-17.1-11.2
			c-5.2-2-10.9-3.1-16.9-3.1c-11.8,0-21.7,4-29.7,12c-8.1,8-12.1,18.5-12.1,31.6c0,13.1,3.9,23.5,11.6,31.4
			c7.7,7.9,16.9,11.8,27.6,11.8c10.7,0,19.6-2,26.7-6.1V466.6z"/>
		<path class="st9" d="M421,521.7c-12,11.4-26.1,17-42.3,17c-16.2,0-29.6-5-40.1-15c-10.6-10-15.9-23.3-15.9-40.1
			c0-16.8,5.4-30.1,16.1-40c10.8-9.9,23.5-14.9,38.1-14.9s27.1,4.4,37.3,13.3c10.2,8.9,15.4,21,15.4,36.5v15.9h-77.7
			c0.9,5.8,4,10.6,9.1,14.3c5.2,3.7,11,5.5,17.4,5.5c10.4,0,19-3.5,25.8-10.5L421,521.7z M392.5,458.5c-4.1-3.4-9.1-5.2-15-5.2
			c-5.9,0-11.3,1.8-16.1,5.4c-4.9,3.6-7.7,8.4-8.5,14.5h46.8C399,466.8,396.6,461.9,392.5,458.5z"/>
		<path class="st9" d="M464.1,477.7v59.4h-29.7V430.6h29.7v11.9c9-9.1,19.1-13.7,30.3-13.7c11.2,0,20.6,4,28.2,11.9
			c7.6,7.9,11.4,18.5,11.4,31.7v64.8h-29.7v-60.2c0-16.4-6-24.6-18-24.6c-5.9,0-11.1,2.1-15.6,6.4
			C466.3,463.1,464.1,469.4,464.1,477.7z"/>
		<path class="st9" d="M637.4,521.7c-12,11.4-26.1,17-42.3,17c-16.2,0-29.6-5-40.1-15c-10.6-10-15.9-23.3-15.9-40.1
			c0-16.8,5.4-30.1,16.1-40c10.8-9.9,23.5-14.9,38.1-14.9s27.1,4.4,37.3,13.3c10.2,8.9,15.4,21,15.4,36.5v15.9h-77.7
			c0.9,5.8,4,10.6,9.1,14.3c5.2,3.7,11,5.5,17.4,5.5c10.4,0,19-3.5,25.8-10.5L637.4,521.7z M608.9,458.5c-4.1-3.4-9.1-5.2-15-5.2
			s-11.3,1.8-16.1,5.4c-4.9,3.6-7.7,8.4-8.5,14.5H616C615.4,466.8,613,461.9,608.9,458.5z"/>
		<path class="st9" d="M806.8,537.2h-27.9v-12.9c-7.7,9.6-17.1,14.5-28.4,14.5s-20.8-3.3-28.4-9.8c-7.7-6.5-11.5-15.3-11.5-26.2
			s4-19.1,11.9-24.5c7.9-5.4,18.8-8.1,32.5-8.1h22.2v-0.6c0-11.4-6-17-18-17c-5.1,0-10.6,1-16.3,3.1c-5.7,2-10.6,4.6-14.6,7.6
			L714.9,444c14-10.2,30-15.3,47.9-15.3c12.9,0,23.5,3.2,31.7,9.7c8.2,6.5,12.3,16.7,12.3,30.7V537.2z M776.9,496.5v-5.1h-18.6
			c-11.9,0-17.8,3.7-17.8,11.1c0,3.8,1.4,6.8,4.3,8.8c2.8,2,6.9,3.1,12.2,3.1c5.3,0,9.9-1.6,14-4.9
			C774.9,506.3,776.9,502,776.9,496.5z"/>
	</g>
	<g>
		<path class="st7" d="M242.9,583.1c-0.1-0.2-0.2-0.4-0.3-0.6c-0.1-0.2-0.2-0.4-0.3-0.7l-7.9-19.8c0,0,0-0.1,0-0.1
			c0-0.1,0-0.1,0-0.2c0-0.3,0.2-0.5,0.6-0.5h3.2c0.4,0,0.6,0.2,0.8,0.6c0.2,0.6,0.5,1.4,0.8,2.2c0.3,0.8,0.7,1.7,1,2.7
			c0.4,0.9,0.7,1.9,1.1,2.9c0.4,1,0.7,2,1.1,2.9c0.4,0.9,0.7,1.8,1,2.6c0.3,0.8,0.6,1.5,0.8,2.1c0.2-0.6,0.5-1.3,0.8-2.1
			c0.3-0.8,0.6-1.7,1-2.6c0.3-0.9,0.7-1.9,1.1-2.9c0.4-1,0.7-2,1.1-2.9c0.4-0.9,0.7-1.8,1-2.7c0.3-0.8,0.6-1.6,0.8-2.2
			c0.1-0.4,0.4-0.6,0.8-0.6h3.2c0.5,0,0.7,0.2,0.7,0.5c0,0.1,0,0.1,0,0.2c0,0.1,0,0.1,0,0.1l-7.9,19.8c-0.1,0.2-0.2,0.4-0.2,0.6
			c-0.1,0.2-0.2,0.4-0.3,0.6c-0.1,0.3-0.3,0.4-0.6,0.5c-0.2,0.1-0.5,0.1-0.8,0.1h-1.7c-0.2,0-0.4,0-0.5-0.1
			C243,583.3,242.9,583.2,242.9,583.1z"/>
		<path class="st7" d="M258.4,561.9c0-0.2,0.1-0.3,0.2-0.5c0.1-0.1,0.3-0.2,0.5-0.2h3c0.2,0,0.3,0.1,0.5,0.2
			c0.1,0.1,0.2,0.3,0.2,0.5v21c0,0.4-0.2,0.7-0.7,0.7h-3c-0.4,0-0.7-0.2-0.7-0.7V561.9z"/>
		<path class="st7" d="M287,572.4c0,1-0.1,2-0.4,3c-0.3,1-0.7,1.8-1.1,2.7s-1.1,1.6-1.8,2.2c-0.7,0.7-1.5,1.2-2.3,1.7
			c-0.8,0.5-1.7,0.8-2.7,1.1c-1,0.3-2,0.4-3,0.4h-7.2c-0.2,0-0.3,0-0.5-0.1c-0.1-0.1-0.2-0.3-0.2-0.5v-21c0-0.5,0.2-0.7,0.7-0.7h7.2
			c1.6,0,3.1,0.3,4.5,0.9c1.4,0.6,2.6,1.4,3.6,2.4c1,1,1.8,2.2,2.4,3.5C286.7,569.4,287,570.8,287,572.4z M272,565.3v14.1h1.4
			c0.8,0,1.5,0,2.3,0c1,0,1.9-0.2,2.8-0.6c0.8-0.4,1.6-0.9,2.2-1.5c0.6-0.6,1.1-1.4,1.4-2.2c0.3-0.8,0.5-1.8,0.5-2.7
			c0-1-0.2-2-0.6-2.8c-0.4-0.9-0.9-1.6-1.5-2.2c-0.7-0.6-1.4-1.1-2.3-1.4c-0.9-0.3-1.8-0.5-2.8-0.5H272z"/>
		<path class="st7" d="M288.1,583c0-0.2,0.1-0.4,0.2-0.6c0.1-0.2,0.1-0.3,0.2-0.5l8.1-20.2c0-0.1,0.1-0.2,0.2-0.4
			c0.1-0.1,0.3-0.2,0.5-0.2h2.4c0.2,0,0.4,0.1,0.5,0.2c0.1,0.1,0.2,0.2,0.2,0.3l0.5,1.2l7.9,19.9c0,0,0,0.1,0,0.2c0,0.1,0,0.1,0,0.2
			c0,0.3-0.2,0.5-0.7,0.5h-3c-0.2,0-0.4,0-0.5-0.1c-0.1-0.1-0.2-0.2-0.3-0.4l-0.3-0.7c-0.2-0.5-0.4-1-0.6-1.4
			c-0.2-0.5-0.4-1-0.6-1.5h-9.3c-0.3,0.7-0.5,1.4-0.8,2c-0.2,0.6-0.5,1.2-0.6,1.6c-0.1,0.4-0.4,0.6-0.8,0.6h-3c-0.2,0-0.3,0-0.5-0.1
			c-0.1-0.1-0.2-0.2-0.2-0.3C288.1,583.1,288.1,583,288.1,583z M298.6,566.9c-0.5,1.4-1.1,2.8-1.6,4.3c-0.5,1.5-1.1,2.9-1.6,4.3h6.4
			L298.6,566.9z"/>
		<path class="st7" d="M329.6,570.3L329.6,570.3l4.6-8.6c0.1-0.2,0.2-0.3,0.3-0.4c0.1,0,0.2-0.1,0.3-0.1h4.1c0.2,0,0.3,0.1,0.3,0.3
			c0,0.1-0.1,0.2-0.2,0.4c-1.2,2.1-2.4,4.1-3.6,6.2c-1.2,2.1-2.4,4.2-3.6,6.2v8.6c0,0.5-0.2,0.7-0.7,0.7H328c-0.4,0-0.6-0.2-0.6-0.7
			v-8.5l-7.2-12.4c-0.1-0.1-0.1-0.1-0.1-0.2c0-0.1,0-0.2,0-0.2c0-0.2,0.1-0.2,0.3-0.2h4.1c0.1,0,0.1,0,0.2,0c0.1,0,0.1,0,0.1,0.1
			c0,0,0.1,0.1,0.1,0.2c0,0.1,0.1,0.2,0.2,0.3L329.6,570.3z"/>
		<path class="st7" d="M350.5,583c0-0.2,0.1-0.4,0.2-0.6c0.1-0.2,0.1-0.3,0.2-0.5l8.1-20.2c0-0.1,0.1-0.2,0.2-0.4
			c0.1-0.1,0.3-0.2,0.5-0.2h2.4c0.2,0,0.4,0.1,0.5,0.2c0.1,0.1,0.2,0.2,0.2,0.3l0.5,1.2l7.9,19.9c0,0,0,0.1,0,0.2c0,0.1,0,0.1,0,0.2
			c0,0.3-0.2,0.5-0.7,0.5h-3c-0.2,0-0.4,0-0.5-0.1c-0.1-0.1-0.2-0.2-0.3-0.4l-0.3-0.7c-0.2-0.5-0.4-1-0.6-1.4
			c-0.2-0.5-0.4-1-0.6-1.5h-9.3c-0.3,0.7-0.5,1.4-0.8,2c-0.2,0.6-0.5,1.2-0.6,1.6c-0.1,0.4-0.4,0.6-0.8,0.6h-3c-0.2,0-0.3,0-0.5-0.1
			c-0.1-0.1-0.2-0.2-0.2-0.3C350.5,583.1,350.5,583,350.5,583z M360.9,566.9c-0.5,1.4-1.1,2.8-1.6,4.3c-0.5,1.5-1.1,2.9-1.6,4.3h6.4
			L360.9,566.9z"/>
		<path class="st7" d="M374.8,561.9c0-0.5,0.2-0.7,0.7-0.7h9.4c0.9,0,1.7,0.2,2.5,0.5c0.8,0.3,1.4,0.8,2,1.3c0.6,0.6,1,1.2,1.3,2
			c0.3,0.8,0.5,1.6,0.5,2.5c0,0.8-0.1,1.6-0.4,2.3c-0.3,0.7-0.7,1.3-1.2,1.8c0.4,0.3,0.8,0.6,1.1,1c0.3,0.4,0.6,0.8,0.9,1.3
			c0.2,0.5,0.4,0.9,0.6,1.4c0.1,0.5,0.2,1,0.2,1.6c0,0.9-0.2,1.7-0.5,2.5c-0.3,0.8-0.8,1.5-1.4,2.1s-1.3,1.1-2,1.5
			c-0.8,0.4-1.6,0.5-2.5,0.5h-10.3c-0.2,0-0.4-0.1-0.5-0.2c-0.1-0.1-0.2-0.3-0.2-0.5V561.9z M386.8,567.6c0-0.4-0.1-0.7-0.2-1.1
			c-0.1-0.3-0.3-0.6-0.6-0.9c-0.2-0.2-0.5-0.4-0.9-0.6s-0.7-0.2-1.1-0.2h-4.9v5.4h4.9c0.4,0,0.8-0.1,1.1-0.2
			c0.3-0.1,0.6-0.3,0.9-0.6c0.2-0.2,0.4-0.5,0.6-0.9C386.7,568.3,386.8,568,386.8,567.6z M387.8,576.8c0-0.3-0.1-0.7-0.2-1
			c-0.1-0.3-0.3-0.6-0.5-0.9c-0.2-0.3-0.5-0.5-0.8-0.7c-0.3-0.2-0.6-0.3-0.9-0.4c-0.2,0-0.4-0.1-0.6-0.1c-0.2,0-0.4,0-0.6,0h-5v6.1
			h5c0.2,0,0.4,0,0.6,0c0.2,0,0.4,0,0.6-0.1c0.3,0,0.7-0.2,0.9-0.3c0.3-0.2,0.5-0.4,0.8-0.7c0.2-0.3,0.4-0.6,0.5-0.9
			C387.7,577.5,387.8,577.1,387.8,576.8z"/>
		<path class="st7" d="M408.5,567.2c-0.1,0-0.3,0-0.4-0.1c-0.1-0.1-0.2-0.2-0.4-0.3l0,0c-0.2-0.2-0.4-0.4-0.7-0.6
			c-0.3-0.2-0.6-0.4-1-0.6c-0.4-0.2-0.8-0.4-1.2-0.5c-0.4-0.1-0.9-0.2-1.3-0.2c-0.6,0-1.1,0.1-1.5,0.2c-0.4,0.1-0.8,0.3-1.1,0.5
			c-0.3,0.2-0.5,0.5-0.7,0.8c-0.2,0.3-0.2,0.6-0.2,0.9c0,0.4,0.1,0.7,0.3,0.9c0.2,0.3,0.5,0.5,0.9,0.7c0.4,0.2,0.8,0.4,1.3,0.6
			c0.5,0.2,1,0.3,1.6,0.5c0.6,0.2,1.3,0.4,1.9,0.6c0.6,0.2,1.2,0.5,1.8,0.7c0.6,0.3,1.1,0.6,1.6,0.9c0.5,0.3,0.9,0.7,1.3,1.2
			c0.4,0.4,0.6,0.9,0.8,1.5c0.2,0.5,0.3,1.1,0.3,1.8c0,1.1-0.2,2.1-0.7,3c-0.4,0.9-1,1.6-1.8,2.3c-0.8,0.6-1.7,1.1-2.7,1.4
			c-1,0.3-2.2,0.5-3.4,0.5c-0.8,0-1.5-0.1-2.3-0.3c-0.8-0.2-1.5-0.4-2.2-0.8c-0.7-0.3-1.4-0.7-2-1.2c-0.6-0.5-1.2-1-1.7-1.6v0l0-0.1
			c-0.2-0.3-0.3-0.5-0.3-0.7c0-0.1,0-0.2,0.1-0.3c0.1-0.1,0.2-0.2,0.3-0.3l0.5-0.5c0.2-0.1,0.3-0.3,0.5-0.4c0.2-0.2,0.3-0.3,0.5-0.4
			c0.2-0.1,0.3-0.2,0.5-0.3c0.1-0.1,0.3-0.1,0.4-0.1c0.1,0,0.3,0,0.4,0.1c0.1,0.1,0.2,0.2,0.3,0.3l0.1,0.1h0
			c0.4,0.3,0.7,0.6,1.2,0.9c0.4,0.3,0.9,0.6,1.3,0.8c0.5,0.2,0.9,0.4,1.4,0.6c0.5,0.1,0.9,0.2,1.3,0.2c0.6,0,1.1-0.1,1.5-0.2
			c0.5-0.1,0.9-0.3,1.2-0.6c0.4-0.3,0.6-0.6,0.8-0.9c0.2-0.4,0.3-0.8,0.3-1.2c0-0.4-0.1-0.8-0.4-1.1c-0.3-0.3-0.6-0.6-1-0.8
			c-0.4-0.2-0.9-0.4-1.4-0.6c-0.5-0.2-1.1-0.3-1.6-0.5c-1.2-0.4-2.3-0.8-3.2-1.2c-0.9-0.4-1.7-0.9-2.3-1.5c-0.6-0.5-1.1-1.1-1.4-1.8
			c-0.3-0.7-0.5-1.4-0.5-2.2c0-0.9,0.2-1.8,0.6-2.5c0.4-0.8,0.9-1.4,1.6-2c0.7-0.5,1.5-1,2.5-1.3c1-0.3,2.1-0.5,3.3-0.5
			c0.9,0,1.8,0.1,2.8,0.4c0.9,0.3,1.8,0.7,2.6,1.2c0.2,0.1,0.5,0.3,0.7,0.5c0.3,0.2,0.5,0.4,0.7,0.6c0.2,0.2,0.4,0.4,0.5,0.6
			c0.1,0.2,0.2,0.3,0.2,0.5c0,0.1,0,0.2-0.1,0.4c-0.1,0.1-0.1,0.2-0.2,0.3l-0.5,0.5v0c-0.2,0.2-0.3,0.3-0.5,0.5
			c-0.2,0.2-0.3,0.3-0.5,0.5c-0.2,0.1-0.3,0.2-0.4,0.3C408.7,567.1,408.6,567.2,408.5,567.2z"/>
		<path class="st7" d="M415.1,572.4c0-1.1,0.1-2.1,0.4-3.1c0.3-1,0.7-1.9,1.2-2.8c0.5-0.9,1.1-1.6,1.8-2.3c0.7-0.7,1.5-1.3,2.3-1.8
			c0.9-0.5,1.8-0.9,2.7-1.2c1-0.3,2-0.4,3.1-0.4c1.1,0,2.1,0.1,3,0.4c1,0.3,1.9,0.7,2.7,1.2c0.9,0.5,1.6,1.1,2.3,1.8
			c0.7,0.7,1.3,1.5,1.8,2.3s0.9,1.8,1.2,2.8c0.3,1,0.4,2,0.4,3.1s-0.1,2.1-0.4,3.1c-0.3,1-0.7,1.9-1.2,2.7c-0.5,0.9-1.1,1.6-1.8,2.3
			c-0.7,0.7-1.5,1.3-2.3,1.8c-0.9,0.5-1.8,0.9-2.7,1.1c-1,0.3-2,0.4-3.1,0.4s-2.1-0.1-3.1-0.4c-1-0.3-1.9-0.7-2.7-1.2
			c-0.9-0.5-1.6-1.1-2.3-1.8c-0.7-0.7-1.3-1.5-1.8-2.3s-0.9-1.8-1.2-2.7C415.2,574.5,415.1,573.5,415.1,572.4z M419.4,572.4
			c0,1,0.2,2,0.5,2.8c0.4,0.9,0.9,1.6,1.5,2.3c0.6,0.7,1.4,1.2,2.3,1.5s1.8,0.6,2.8,0.6c1,0,1.9-0.2,2.8-0.6s1.6-0.9,2.3-1.5
			c0.6-0.7,1.1-1.4,1.5-2.3c0.4-0.9,0.5-1.8,0.5-2.8c0-1-0.2-1.9-0.5-2.8c-0.4-0.9-0.9-1.7-1.5-2.3c-0.6-0.7-1.4-1.2-2.3-1.6
			c-0.9-0.4-1.8-0.6-2.8-0.6c-1,0-2,0.2-2.8,0.6c-0.9,0.4-1.6,0.9-2.3,1.6c-0.6,0.7-1.1,1.4-1.5,2.3
			C419.6,570.4,419.4,571.4,419.4,572.4z"/>
		<path class="st7" d="M442.2,561.9c0-0.5,0.2-0.7,0.7-0.7h9.2c1,0,2,0.2,2.8,0.6c0.9,0.4,1.7,0.9,2.3,1.5c0.7,0.7,1.2,1.4,1.5,2.3
			c0.4,0.9,0.6,1.8,0.6,2.8c0,0.7-0.1,1.4-0.3,2c-0.2,0.6-0.5,1.2-0.8,1.8c-0.3,0.5-0.7,1-1.2,1.5c-0.5,0.4-1,0.8-1.6,1.1l3.9,7.7
			c0,0.1,0.1,0.2,0.1,0.3c0,0.1,0.1,0.2,0.1,0.3c0,0.3-0.2,0.5-0.5,0.5h-3.5c-0.4,0-0.6-0.2-0.7-0.6l-3.6-7.2c-0.2,0-0.3,0-0.5,0
			c-0.2,0-0.4,0-0.8,0c-0.3,0-0.8,0-1.3,0c-0.5,0-1.2,0-2,0v7.1c0,0.4-0.2,0.6-0.7,0.6h-3c-0.2,0-0.4-0.1-0.5-0.2
			c-0.1-0.1-0.2-0.3-0.2-0.5V561.9z M454.9,568.5c0-0.4-0.1-0.8-0.2-1.3c-0.2-0.4-0.4-0.8-0.7-1.1c-0.3-0.3-0.6-0.6-1-0.8
			c-0.4-0.2-0.8-0.3-1.3-0.3c-0.4,0-0.7,0-1,0s-0.7,0-1,0h-3v7h4c0.2,0,0.4,0,0.6,0c0.2,0,0.4,0,0.6,0c0.5,0,0.9-0.1,1.3-0.3
			c0.4-0.2,0.7-0.4,1-0.8c0.3-0.3,0.5-0.7,0.7-1.1C454.8,569.3,454.9,568.9,454.9,568.5z"/>
		<path class="st7" d="M480.2,562.8c0.1,0.1,0.2,0.2,0.3,0.3c0.1,0.1,0.1,0.2,0.1,0.4c0,0.1,0,0.2-0.1,0.3l-1.5,2.5
			c-0.2,0.2-0.4,0.3-0.5,0.3c-0.1,0-0.1,0-0.2,0s-0.2-0.1-0.2-0.1c-0.6-0.5-1.3-0.8-2-1.1c-0.7-0.3-1.5-0.4-2.3-0.4
			c-1,0-2,0.2-2.8,0.6c-0.9,0.4-1.6,0.9-2.2,1.6c-0.6,0.7-1.1,1.4-1.5,2.3c-0.3,0.9-0.5,1.8-0.5,2.9c0,1,0.2,2,0.5,2.8
			c0.3,0.9,0.8,1.7,1.5,2.3c0.6,0.7,1.4,1.2,2.2,1.6c0.9,0.4,1.8,0.6,2.8,0.6c0.8,0,1.6-0.1,2.3-0.4c0.7-0.3,1.4-0.6,2-1.1
			c0.1-0.1,0.2-0.1,0.2-0.1c0.1,0,0.2,0,0.2,0c0.2,0,0.3,0.1,0.5,0.3l1.5,2.5c0.1,0.1,0.1,0.2,0.1,0.3c0,0.1,0,0.3-0.1,0.3
			c-0.1,0.1-0.2,0.2-0.3,0.3c-0.9,0.6-2,1.1-3,1.5c-1.1,0.3-2.2,0.5-3.4,0.5c-1.1,0-2.1-0.1-3.1-0.4c-1-0.3-1.9-0.7-2.7-1.2
			c-0.9-0.5-1.6-1.1-2.3-1.8c-0.7-0.7-1.3-1.5-1.8-2.3s-0.9-1.8-1.2-2.7c-0.3-1-0.4-2-0.4-3.1s0.1-2.1,0.4-3.1s0.7-1.9,1.2-2.8
			s1.1-1.6,1.8-2.3c0.7-0.7,1.5-1.3,2.3-1.8c0.9-0.5,1.8-0.9,2.7-1.2c1-0.3,2-0.4,3.1-0.4c1.2,0,2.3,0.2,3.4,0.5
			C478.2,561.7,479.2,562.2,480.2,562.8z"/>
		<path class="st7" d="M484.9,561.9c0-0.2,0.1-0.3,0.2-0.5c0.1-0.1,0.3-0.2,0.5-0.2h3c0.2,0,0.3,0.1,0.5,0.2
			c0.1,0.1,0.2,0.3,0.2,0.5v21c0,0.4-0.2,0.7-0.7,0.7h-3c-0.4,0-0.7-0.2-0.7-0.7V561.9z"/>
		<path class="st7" d="M493.5,572.4c0-1.1,0.1-2.1,0.4-3.1c0.3-1,0.7-1.9,1.2-2.8c0.5-0.9,1.1-1.6,1.8-2.3c0.7-0.7,1.5-1.3,2.3-1.8
			c0.9-0.5,1.8-0.9,2.7-1.2c1-0.3,2-0.4,3.1-0.4c1.1,0,2.1,0.1,3,0.4c1,0.3,1.9,0.7,2.7,1.2c0.9,0.5,1.6,1.1,2.3,1.8
			c0.7,0.7,1.3,1.5,1.8,2.3s0.9,1.8,1.2,2.8c0.3,1,0.4,2,0.4,3.1s-0.1,2.1-0.4,3.1c-0.3,1-0.7,1.9-1.2,2.7c-0.5,0.9-1.1,1.6-1.8,2.3
			c-0.7,0.7-1.5,1.3-2.3,1.8c-0.9,0.5-1.8,0.9-2.7,1.1c-1,0.3-2,0.4-3.1,0.4s-2.1-0.1-3.1-0.4c-1-0.3-1.9-0.7-2.7-1.2
			c-0.9-0.5-1.6-1.1-2.3-1.8c-0.7-0.7-1.3-1.5-1.8-2.3s-0.9-1.8-1.2-2.7C493.6,574.5,493.5,573.5,493.5,572.4z M497.8,572.4
			c0,1,0.2,2,0.5,2.8c0.4,0.9,0.9,1.6,1.5,2.3c0.6,0.7,1.4,1.2,2.3,1.5s1.8,0.6,2.8,0.6c1,0,1.9-0.2,2.8-0.6
			c0.9-0.4,1.6-0.9,2.3-1.5c0.6-0.7,1.1-1.4,1.5-2.3c0.4-0.9,0.5-1.8,0.5-2.8c0-1-0.2-1.9-0.5-2.8c-0.4-0.9-0.9-1.7-1.5-2.3
			c-0.6-0.7-1.4-1.2-2.3-1.6c-0.9-0.4-1.8-0.6-2.8-0.6c-1,0-2,0.2-2.8,0.6c-0.9,0.4-1.6,0.9-2.3,1.6c-0.6,0.7-1.1,1.4-1.5,2.3
			C498,570.4,497.8,571.4,497.8,572.4z M504.5,554.7c0.1-0.2,0.2-0.4,0.3-0.5c0.1-0.1,0.3-0.2,0.5-0.2h2.7c0.2,0,0.3,0,0.3,0.1
			c0.1,0.1,0.1,0.2,0.1,0.3c0,0.1,0,0.2,0,0.3c0,0.1,0,0.2-0.1,0.3l-1.4,3.2c-0.2,0.4-0.5,0.6-0.8,0.6h-2.3c-0.2,0-0.3,0-0.3-0.1
			c-0.1-0.1-0.1-0.2-0.1-0.3c0-0.1,0-0.2,0-0.3c0-0.1,0-0.2,0.1-0.3L504.5,554.7z"/>
		<path class="st7" d="M520.7,561.9c0-0.2,0.1-0.4,0.2-0.5c0.1-0.1,0.3-0.2,0.5-0.2h3.5c0.1,0,0.3,0,0.4,0.1
			c0.1,0.1,0.2,0.2,0.3,0.3c1.7,2.4,3.4,4.9,5.1,7.3c1.7,2.4,3.4,4.8,5.1,7.3v-14.4c0-0.2,0.1-0.3,0.2-0.4c0.1-0.1,0.3-0.2,0.4-0.2
			h2.9c0.2,0,0.4,0.1,0.5,0.2c0.1,0.1,0.2,0.3,0.2,0.5v21c0,0.4-0.2,0.6-0.7,0.6H536c-0.2,0-0.4-0.1-0.6-0.4
			c-1.8-2.6-3.5-5.1-5.3-7.7c-1.7-2.6-3.5-5.1-5.3-7.7v15.1c0,0.2-0.1,0.4-0.2,0.5c-0.1,0.1-0.3,0.2-0.5,0.2h-2.9
			c-0.2,0-0.4-0.1-0.5-0.2c-0.1-0.1-0.2-0.3-0.2-0.5V561.9z"/>
		<path class="st7" d="M299.7,591.3c0-0.5,0.2-0.7,0.7-0.7h9.2c1,0,2,0.2,2.8,0.6c0.9,0.4,1.7,0.9,2.3,1.5c0.7,0.7,1.2,1.4,1.5,2.3
			c0.4,0.9,0.6,1.8,0.6,2.8c0,0.7-0.1,1.4-0.3,2c-0.2,0.6-0.5,1.2-0.8,1.8c-0.3,0.5-0.7,1-1.2,1.5c-0.5,0.4-1,0.8-1.6,1.1l3.9,7.7
			c0,0.1,0.1,0.2,0.1,0.3c0,0.1,0.1,0.2,0.1,0.3c0,0.3-0.2,0.5-0.5,0.5H313c-0.4,0-0.6-0.2-0.7-0.6l-3.6-7.2c-0.2,0-0.3,0-0.5,0
			c-0.2,0-0.4,0-0.8,0c-0.3,0-0.8,0-1.3,0c-0.5,0-1.2,0-2,0v7.1c0,0.4-0.2,0.6-0.7,0.6h-3c-0.2,0-0.4-0.1-0.5-0.2
			c-0.1-0.1-0.2-0.3-0.2-0.5V591.3z M312.4,597.8c0-0.4-0.1-0.8-0.2-1.3c-0.2-0.4-0.4-0.8-0.7-1.1c-0.3-0.3-0.6-0.6-1-0.8
			c-0.4-0.2-0.8-0.3-1.3-0.3c-0.4,0-0.7,0-1,0c-0.3,0-0.7,0-1,0h-3v7h4c0.2,0,0.4,0,0.6,0c0.2,0,0.4,0,0.6,0c0.5,0,0.9-0.1,1.3-0.3
			c0.4-0.2,0.7-0.4,1-0.8c0.3-0.3,0.5-0.7,0.7-1.1C312.3,598.7,312.4,598.3,312.4,597.8z"/>
		<path class="st7" d="M319.3,612.3c0-0.2,0.1-0.4,0.2-0.6s0.1-0.3,0.2-0.5l8.1-20.2c0-0.1,0.1-0.2,0.2-0.4c0.1-0.1,0.3-0.2,0.5-0.2
			h2.4c0.2,0,0.4,0.1,0.5,0.2c0.1,0.1,0.2,0.2,0.2,0.3l0.5,1.2l7.9,19.9c0,0,0,0.1,0,0.2c0,0.1,0,0.1,0,0.2c0,0.3-0.2,0.5-0.7,0.5
			h-3c-0.2,0-0.4,0-0.5-0.1c-0.1-0.1-0.2-0.2-0.3-0.4l-0.3-0.7c-0.2-0.5-0.4-1-0.6-1.4c-0.2-0.5-0.4-1-0.6-1.5h-9.3
			c-0.3,0.7-0.5,1.4-0.8,2c-0.2,0.6-0.5,1.2-0.6,1.6c-0.1,0.4-0.4,0.6-0.8,0.6h-3c-0.2,0-0.3,0-0.5-0.1c-0.1-0.1-0.2-0.2-0.2-0.3
			C319.3,612.4,319.3,612.3,319.3,612.3z M329.8,596.3c-0.5,1.4-1.1,2.8-1.6,4.3c-0.5,1.5-1.1,2.9-1.6,4.3h6.4L329.8,596.3z"/>
		<path class="st7" d="M362.8,601.7c0,1-0.1,2-0.4,3c-0.3,1-0.7,1.8-1.1,2.7s-1.1,1.6-1.8,2.2c-0.7,0.7-1.5,1.2-2.3,1.7
			c-0.8,0.5-1.7,0.8-2.7,1.1c-1,0.3-2,0.4-3,0.4h-7.2c-0.2,0-0.3,0-0.5-0.1c-0.1-0.1-0.2-0.3-0.2-0.5v-21c0-0.5,0.2-0.7,0.7-0.7h7.2
			c1.6,0,3.1,0.3,4.5,0.9c1.4,0.6,2.6,1.4,3.6,2.4c1,1,1.8,2.2,2.4,3.5C362.5,598.7,362.8,600.2,362.8,601.7z M347.8,594.7v14.1h1.4
			c0.8,0,1.5,0,2.3,0c1,0,1.9-0.2,2.8-0.6c0.8-0.4,1.6-0.9,2.2-1.5c0.6-0.6,1.1-1.4,1.4-2.2c0.3-0.8,0.5-1.8,0.5-2.7
			c0-1-0.2-2-0.6-2.8c-0.4-0.9-0.9-1.6-1.5-2.2s-1.4-1.1-2.3-1.4c-0.9-0.3-1.8-0.5-2.8-0.5H347.8z"/>
		<path class="st7" d="M367.1,591.2c0-0.2,0.1-0.3,0.2-0.5c0.1-0.1,0.3-0.2,0.5-0.2h3c0.2,0,0.3,0.1,0.5,0.2
			c0.1,0.1,0.2,0.3,0.2,0.5v21c0,0.4-0.2,0.7-0.7,0.7h-3c-0.4,0-0.7-0.2-0.7-0.7V591.2z"/>
		<path class="st7" d="M393.4,592.2c0.1,0.1,0.2,0.2,0.3,0.3c0.1,0.1,0.1,0.2,0.1,0.4c0,0.1,0,0.2-0.1,0.3l-1.5,2.5
			c-0.2,0.2-0.4,0.3-0.5,0.3c-0.1,0-0.1,0-0.2,0c-0.1,0-0.2-0.1-0.2-0.1c-0.6-0.5-1.3-0.8-2-1.1c-0.7-0.3-1.5-0.4-2.3-0.4
			c-1,0-2,0.2-2.8,0.6c-0.9,0.4-1.6,0.9-2.2,1.6c-0.6,0.7-1.1,1.4-1.5,2.3c-0.3,0.9-0.5,1.8-0.5,2.9c0,1,0.2,2,0.5,2.8
			c0.3,0.9,0.8,1.7,1.5,2.3c0.6,0.7,1.4,1.2,2.2,1.6c0.9,0.4,1.8,0.6,2.8,0.6c0.8,0,1.6-0.1,2.3-0.4c0.7-0.3,1.4-0.6,2-1.1
			c0.1-0.1,0.2-0.1,0.2-0.1c0.1,0,0.2,0,0.2,0c0.2,0,0.3,0.1,0.5,0.3l1.5,2.5c0.1,0.1,0.1,0.2,0.1,0.3c0,0.1,0,0.3-0.1,0.3
			c-0.1,0.1-0.2,0.2-0.3,0.3c-0.9,0.6-2,1.1-3,1.5c-1.1,0.3-2.2,0.5-3.4,0.5c-1.1,0-2.1-0.1-3.1-0.4c-1-0.3-1.9-0.7-2.7-1.2
			c-0.9-0.5-1.6-1.1-2.3-1.8c-0.7-0.7-1.3-1.5-1.8-2.3c-0.5-0.8-0.9-1.8-1.2-2.7c-0.3-1-0.4-2-0.4-3.1s0.1-2.1,0.4-3.1
			s0.7-1.9,1.2-2.8c0.5-0.9,1.1-1.6,1.8-2.3s1.5-1.3,2.3-1.8c0.9-0.5,1.8-0.9,2.7-1.2c1-0.3,2-0.4,3.1-0.4c1.2,0,2.3,0.2,3.4,0.5
			C391.4,591.1,392.4,591.5,393.4,592.2z"/>
		<path class="st7" d="M402.3,603.8c0,0.8,0.1,1.6,0.4,2.3c0.2,0.7,0.6,1.2,1,1.7c0.4,0.5,1,0.8,1.6,1.1c0.6,0.2,1.3,0.4,2,0.4
			c0.8,0,1.5-0.1,2.1-0.4c0.6-0.3,1.1-0.6,1.6-1.1c0.4-0.5,0.8-1,1-1.7s0.3-1.4,0.3-2.2v-12.6c0-0.2,0.1-0.3,0.2-0.5
			c0.1-0.1,0.3-0.2,0.5-0.2h2.9c0.2,0,0.4,0.1,0.5,0.2c0.1,0.1,0.2,0.3,0.2,0.5V604c0,1.6-0.3,2.9-0.8,4.1c-0.5,1.2-1.2,2.1-2,2.9
			c-0.9,0.8-1.8,1.3-3,1.7c-1.1,0.4-2.3,0.6-3.6,0.6c-1.3,0-2.5-0.2-3.6-0.6c-1.1-0.4-2.1-1-3-1.8c-0.9-0.8-1.5-1.7-2-2.9
			c-0.5-1.2-0.8-2.5-0.8-4v-12.8c0-0.2,0.1-0.3,0.2-0.5c0.1-0.1,0.3-0.2,0.4-0.2h3.1c0.2,0,0.3,0.1,0.5,0.2c0.2,0.1,0.2,0.3,0.2,0.5
			V603.8z"/>
		<path class="st7" d="M421.3,591.2c0-0.2,0.1-0.3,0.2-0.5c0.1-0.1,0.3-0.2,0.5-0.2h3c0.2,0,0.3,0.1,0.5,0.2
			c0.1,0.1,0.2,0.3,0.2,0.5v17.5h9.4c0.2,0,0.3,0.1,0.5,0.2c0.1,0.1,0.2,0.3,0.2,0.5v2.8c0,0.2-0.1,0.3-0.2,0.5
			c-0.1,0.1-0.3,0.2-0.5,0.2H422c-0.4,0-0.7-0.2-0.7-0.7V591.2z"/>
		<path class="st7" d="M436.2,612.3c0-0.2,0.1-0.4,0.2-0.6s0.1-0.3,0.2-0.5l8.1-20.2c0-0.1,0.1-0.2,0.2-0.4c0.1-0.1,0.3-0.2,0.5-0.2
			h2.4c0.2,0,0.4,0.1,0.5,0.2c0.1,0.1,0.2,0.2,0.2,0.3l0.5,1.2l7.9,19.9c0,0,0,0.1,0,0.2c0,0.1,0,0.1,0,0.2c0,0.3-0.2,0.5-0.7,0.5
			h-3c-0.2,0-0.4,0-0.5-0.1c-0.1-0.1-0.2-0.2-0.3-0.4l-0.3-0.7c-0.2-0.5-0.4-1-0.6-1.4c-0.2-0.5-0.4-1-0.6-1.5H442
			c-0.3,0.7-0.5,1.4-0.8,2c-0.2,0.6-0.5,1.2-0.6,1.6c-0.1,0.4-0.4,0.6-0.8,0.6h-3c-0.2,0-0.3,0-0.5-0.1c-0.1-0.1-0.2-0.2-0.2-0.3
			C436.1,612.4,436.2,612.3,436.2,612.3z M446.6,596.3c-0.5,1.4-1.1,2.8-1.6,4.3c-0.5,1.5-1.1,2.9-1.6,4.3h6.4L446.6,596.3z"/>
		<path class="st7" d="M460.5,591.3c0-0.5,0.2-0.7,0.7-0.7h9.2c1,0,2,0.2,2.8,0.6c0.9,0.4,1.7,0.9,2.3,1.5c0.7,0.7,1.2,1.4,1.5,2.3
			c0.4,0.9,0.6,1.8,0.6,2.8c0,0.7-0.1,1.4-0.3,2c-0.2,0.6-0.5,1.2-0.8,1.8c-0.3,0.5-0.7,1-1.2,1.5c-0.5,0.4-1,0.8-1.6,1.1l3.9,7.7
			c0,0.1,0.1,0.2,0.1,0.3c0,0.1,0.1,0.2,0.1,0.3c0,0.3-0.2,0.5-0.5,0.5h-3.5c-0.4,0-0.6-0.2-0.7-0.6l-3.6-7.2c-0.2,0-0.3,0-0.5,0
			c-0.2,0-0.4,0-0.8,0c-0.3,0-0.8,0-1.3,0c-0.5,0-1.2,0-2,0v7.1c0,0.4-0.2,0.6-0.7,0.6h-3c-0.2,0-0.4-0.1-0.5-0.2
			c-0.1-0.1-0.2-0.3-0.2-0.5V591.3z M473.2,597.8c0-0.4-0.1-0.8-0.2-1.3c-0.2-0.4-0.4-0.8-0.7-1.1c-0.3-0.3-0.6-0.6-1-0.8
			c-0.4-0.2-0.8-0.3-1.3-0.3c-0.4,0-0.7,0-1,0s-0.7,0-1,0h-3v7h4c0.2,0,0.4,0,0.6,0c0.2,0,0.4,0,0.6,0c0.5,0,0.9-0.1,1.3-0.3
			c0.4-0.2,0.7-0.4,1-0.8c0.3-0.3,0.5-0.7,0.7-1.1C473.1,598.7,473.2,598.3,473.2,597.8z"/>
	</g>
	<circle class="st10" cx="619.3" cy="390" r="4.9"/>
	<circle class="st10" cx="642.2" cy="382.1" r="5.6"/>
	<circle class="st10" cx="651.2" cy="367.5" r="5.4"/>
	<circle class="st10" cx="666.7" cy="353" r="5.6"/>
	<circle class="st10" cx="672.3" cy="381.2" r="4.9"/>
	<circle class="st10" cx="690.8" cy="385.9" r="5.4"/>
	<circle class="st10" cx="704.8" cy="395.1" r="3.8"/>
	<g>
		<path class="st9" d="M667.5,572.1c0-0.2,0.1-0.4,0.1-0.6c0.1,0.2,0.2,0.3,0.3,0.4c0.2-0.9,0.5-1.7,0.8-2.8
			c-0.4,0.1-0.9,0.1-0.9,0.3c-0.2,0.9-0.2,1.8-0.3,2.7C667.4,572,667.5,572.1,667.5,572.1z"/>
		<path class="st9" d="M670.5,557c-0.2-1-0.7-2-1.1-3c-0.4-1.1-0.6-2.2-0.9-3.5C668.5,553,668.6,555.3,670.5,557z"/>
		<path class="st9" d="M669.4,577.5c1.2,0.8,2.4,1.7,3.6,2.6c-0.3-1.2,0.3-2.6-0.5-3.8c-0.6-0.9-1-1.9-1.6-2.8
			c-0.9-1.4-1.2-2.8-0.6-4.4c0,0-0.1-0.1-0.2-0.4c-0.3,0.3-0.7,0.5-0.8,0.8c-0.3,0.7-0.5,1.5-0.6,2.3c-0.3,1.9,0.9,3.1,1.8,4.5
			c0.3,0.4,0.6,0.8,0.9,1.2c-0.1,0-0.1,0.1-0.2,0.1c-1.2-1.4-2.7-2.7-3.2-4.8C667.4,574.5,668.1,576.7,669.4,577.5z"/>
		<path class="st9" d="M675.9,578c-0.3-1.4-0.6-2.7-0.9-4.2C673.7,575.6,674,576.9,675.9,578z"/>
		<path class="st9" d="M672.6,568.9c-1.5,1.9-1.1,4.2,1,6.2C674.9,572.5,674.9,572.5,672.6,568.9z"/>
		<path class="st9" d="M666.9,562.1c0-0.1,0.1-0.1,0.1-0.2c0.5,0.2,1.1,0.4,1.6,0.6c0.4-0.9-0.4-1.2-0.9-1.5c-1-0.7-1.6,0.4-1.9,1
			c-0.7,1.3,1,1.2,1.3,2c0.5-0.4,0.9-0.7,1.4-1C667.9,562.6,667.4,562.3,666.9,562.1z"/>
		<path class="st9" d="M666.4,557.9c0.6,1.8,0.9,1.9,2.1,0.4c0,0,0-0.1,0.1-0.2c-1.4-1.9-1.9-4.2-2.1-6.6
			C665.5,553.6,665.7,555.8,666.4,557.9z"/>
		<path class="st9" d="M665.3,561.2c1.2-0.7,1.3-1.4,0.4-2.4C665.6,559.5,665.5,560.3,665.3,561.2z"/>
		<path class="st9" d="M664.8,557.5c-0.7,2-1.4,3.9-2.1,5.9C664.3,562.7,665.3,559.7,664.8,557.5z"/>
		<path class="st9" d="M645.7,573.1c-0.1-0.1-0.1-0.3-0.2-0.4c-0.7,0.3-1.4,0.5-2.2,0.8c-0.2-0.4-1.4-0.8-2.5-0.3
			c-1.2,0.6-0.5,2-1,3C641.9,575.2,643.8,574.2,645.7,573.1z"/>
		<path class="st9" d="M625.9,571.3c0,0.3,0,0.6,0.2,0.9c0.1,0.3,0.3,0.6,0.6,0.7c0.7,0.2,1.5,0.2,2.4,0.3c0-1.3,0-2.5,0-3.6
			c0-0.2-0.2-0.5-0.4-0.5C626.9,568.3,625.7,569.4,625.9,571.3z"/>
		<path class="st9" d="M629.9,568.5c0.8,0,1.4,0,1.9,0c-0.1-0.6-0.2-1.1-0.3-1.6c-0.1-0.1-0.2-0.1-0.3-0.2
			C630.9,567.2,630.5,567.7,629.9,568.5z"/>
		<path class="st9" d="M627.2,563.3c0.1,0.1,0.3,0.1,0.4,0.2c-0.1,0.1-0.1,0.2-0.2,0.3c-0.4-0.3-0.7-0.5-1.2-0.9
			c-0.1,0.4-0.2,0.8-0.3,1.3c-0.4-1-1-0.8-1.5-0.3c-0.3,0.3-0.7,0.9-0.6,1.1c0.3,0.9,1,1.1,2,0.6c-0.9,0.9-0.8,1.6,0.1,2.6
			c1.1-0.7,2.2-1.3,3.5-2.1c-1,0-1.9,0-2.8,0c0-0.1,0-0.2,0-0.3c1.1,0.1,2.1,0.1,3.2,0.2c0.5,0,0.9-0.6,0.7-1.1
			c-0.1-0.3-0.3-0.5-0.6-0.8c1.2-0.1,0.6,1.1,1.2,1.7c0.3-0.3,0.6-0.7,0.9-1c-0.6-0.8-1.1-1.4-1.7-2c1.7,1.4,1.9,1.4,3.8,0.3
			c0.8-0.5,1.5-1,2.2-1.4c0.3-0.2,0.5-0.3,0.8-0.5c-0.1-0.1-0.2-0.3-0.3-0.4c-0.6-0.1-1.3-0.2-1.9-0.3c-2.9-0.4-5.5,0.4-8,1.9
			C626.6,562.7,626.7,563,627.2,563.3z"/>
		<path class="st9" d="M624.3,572.2c0,0.1,0.7,0.4,1.3,0.7c-0.1-1.1-0.2-1.8-0.3-2.6c-0.1,0-0.2-0.1-0.3-0.1
			C624.7,570.9,624.4,571.5,624.3,572.2z"/>
		<path class="st9" d="M667.8,559.8c0,0.2,0.1,0.4,0.1,0.6c0.5-0.1,1-0.2,1.4-0.3c0.1,0-0.1-0.6-0.1-0.9
			C668.7,559.4,668.3,559.6,667.8,559.8z"/>
		<path class="st9" d="M640.9,568.1c-0.2,0.1-0.5,0.4-0.5,0.6c0,1.2,0.1,2.4,0.2,3.6c0.1,0,0.2,0,0.3,0c0.8-2.3,3.2-3.2,4-5.6
			C643.5,567.2,642.2,567.6,640.9,568.1z"/>
		<path class="st9" d="M641.7,572.3c1.6,0.5,1.6,0.5,1.6-1c0-0.3,0-0.5,0.1-1C642.6,570.9,641.7,571.2,641.7,572.3z"/>
		<path class="st9" d="M645.9,566.1c-0.7,1.4-1.2,2.8-1.8,4.2c-0.2,0.4-0.3,0.8-0.3,1.2c-0.1,0.5,0.1,0.9,0.7,0.8
			c0.7-0.2,1.4-0.4,2.2-0.6c0.5-0.2,0.7-0.5,0.6-1.1c-0.1-0.7-0.2-1.4-0.2-2c0.1-2,1.1-3.5,2.5-4.7c1.5-1.3,3-2.6,4.5-4
			c0.6-0.5,1.1-1.1,1-2.3c-0.7,0.6-1.4,1-2,1.6c-1.9,1.8-3.8,3.6-5.8,5.4C646.8,565,646.2,565.5,645.9,566.1z"/>
		<path class="st9" d="M635.7,564.5c0.2-0.6,0.4-1.1,0.5-1.7c-0.1,0-0.1-0.1-0.2-0.1c-0.9,0.5-1.7,1.1-2.7,1.7
			c5.5,2.1,10.7,2.2,15.3-5.2c-0.3,0-0.6,0-0.9,0c-0.6,0.1-1.2,0.2-1.7,0.4c-1.5,0.5-1.7,0.8-1.3,2.4c0.1,0.5,0,1,0,1.5
			c-0.1,0-0.1,0-0.2,0c-0.1-0.9-0.3-1.8-0.4-2.8c-0.1,0-0.2,0-0.2-0.1c-0.4,1-0.7,2-1.1,2.9c-0.1,0-0.1,0-0.2-0.1
			c-0.1-0.3-0.1-0.7-0.2-1c-1.2,0.6-2.4,1.2-3.6,1.8c-0.1-0.1-0.1-0.2-0.2-0.3c0.9-0.5,1.7-1,2.6-1.5c1.1-0.6,1.8-1.3,1.9-2.2
			c-1.2,0.1-2.3,0.3-3.5,0.3c-1.8,0.1-2.6,0.8-2.8,2.8C636.7,564.3,636.4,564.6,635.7,564.5z"/>
		<path class="st9" d="M683,583.5c0.9,2,1.6,3.8,2.4,5.6C686.2,587.1,685.3,584.7,683,583.5z"/>
		<path class="st9" d="M683.6,594c2,0.2,2.2,0,1.7-2c-0.1-0.3-0.4-0.6-0.6-1c0.7-1.2-0.4-2.2-0.9-3.4c-0.3,1.8-0.6,3.5-0.9,5.3
			C682.7,593.5,682.8,593.9,683.6,594z"/>
		<path class="st9" d="M682.2,593.6C682.2,593.6,682.2,593.6,682.2,593.6L682.2,593.6z"/>
		<path class="st9" d="M624,563.5c0.4-0.4,0.9-0.7,1.4-1c1.5-0.8,3-1.5,4.5-2.2c-1.9-1-3.7-1.1-5.6-0.5c-1.3,0.5-2,2-1.4,3.4
			C623.2,563.7,623.4,564,624,563.5z"/>
		<path class="st9" d="M682.6,585c-0.7,1.5-1.5,2.9-2.2,4.3c-1.3,2.6-0.9,3.4,1.7,4.3c0.2-1.5,0.5-2.9,0.7-4.3
			C683,587.8,683.2,586.4,682.6,585z"/>
		<path class="st9" d="M688,584.6c-0.2-2.1-3.8-5.9-5.8-6.2c0.9,0.8,1.7,1.6,2.5,2.4c-2.1-0.7-3.4-2.7-5.2-4.1
			C680.1,578.8,683.9,582.3,688,584.6z"/>
		<path class="st9" d="M618.6,563.7c-0.3-0.3-0.6-0.5-0.9-0.8c-0.1,0.2-0.3,0.3-0.3,0.5c0,0.9,0.1,1.8,0.1,2.6c0.3,0,0.6,0,1.1,0
			C617.9,565.1,617.9,564.4,618.6,563.7z"/>
		<path class="st9" d="M676.2,573.3c-0.1,0.1-0.2,0.1-0.3,0.2c0.7,1.5,1.3,3,2,4.6c-0.1,0-0.2,0.1-0.3,0.1c-0.4-0.5-0.7-1.1-1.1-1.6
			c0,0.9-0.1,1.9,0.3,2.3c0.9,0.8,2.1,1.2,3.4,1.9c-0.6-1.5-1.3-2.7-1.6-4.1C678.3,575,677.1,574.4,676.2,573.3z"/>
		<path class="st9" d="M680.2,551.1c2.2,0.3,4.5,0.3,6.7,0.4c0-0.2,0.1-0.3,0.1-0.5c-1.6-0.2-3.2-0.5-4.8-0.7
			c-1.1-0.1-2.1-0.4-3-1.2c-0.3-0.3-0.8-0.5-1.3-0.6c-0.8-0.2-1.6-0.4-2.5-0.5C676.8,549.7,678.3,550.9,680.2,551.1z"/>
		<path class="st9" d="M677.2,557.3c0.2,0.2,0.5,0.2,0.8,0.2c1.4,0.3,2.9,0.4,4.3,0.8c1.5,0.5,2.6,1.6,3.3,3.1
			c-1.2-0.8-2.2-2.1-3.8-2.3c0,0.1-0.1,0.2-0.1,0.2c1.7,1.1,3.3,2.3,5,3.4c-0.1,0.1-0.1,0.2-0.2,0.3c-2.3-0.8-4-2-5.7-4
			c-0.7-0.8-1.5-1-2.3-0.5c0.5,0.8,1.1,1.5,1.4,2.3c0.5,1.4,1.4,2.3,2.5,3.2c0.4,0.3,0.7,0.4,1.1,0.1c1.2-0.7,2.5-0.4,3.3,0.9
			c-1-0.6-1.8-0.9-2.8-0.1c0.9,0.2,1.7,0.4,2.6,0.5c0.8,0.1,1.1,0.4,1.2,1.2c-1.9-0.5-3.9-1-5.9-1.5c3.1,4,7.4,4.2,11.7,4.4
			c0.1-0.1,0.1-0.2,0.2-0.2c-2-2.6-4-5.2-6.1-7.9c0.6,1.8,1.2,3.5,1.7,5.1c-0.4-0.4-0.9-0.8-1.3-1.3c-0.9-1.2-1.3-2.7-1.4-4.2
			c-0.3-3.1-2.3-5.7-5-6.3c-1.4-0.3-2.8-0.6-4.2-0.9c-2.6-0.5-4.6-2.1-5.9-4.5c-0.5-0.9-0.9-1.8-1.3-2.7c0.1,2,0.6,3.8,1.8,5.2
			C673.7,553.7,675.5,555.5,677.2,557.3z"/>
		<path class="st9" d="M678.3,574.1c-0.1-1.8-1.7-2.6-2-4.4C675.7,571.7,676.2,572.9,678.3,574.1z"/>
		<path class="st9" d="M672.6,563.6c-0.2,0-0.4,0.1-0.6,0.1c0.1,0.1,0.2,0.3,0.3,0.4c0.1,0,0.3,0,0.4,0.1c0.3,0.2,0.6,0.4,0.8,0.7
			c0,0-0.2,0.5-0.3,0.5c-0.3-0.1-0.7-0.2-0.9-0.4c-0.6-0.5-1.1-1-1.6-1.5c0,0-0.1,0.1-0.1,0.1c0.2,0.4,0.4,0.7,0.5,1.1
			c0.2,1,1,1.3,1.8,1.3c0.3,0,0.9-0.3,0.9-0.5c0-0.5-0.1-1.1-0.3-1.6C673.4,563.7,672.9,563.6,672.6,563.6z"/>
		<path class="st9" d="M671.4,563.1c0.5,0.5,1,0.4,1.8-0.1c-0.9-1-1.8-2-2.7-3C669.7,561.2,669.7,561.2,671.4,563.1z"/>
		<path class="st9" d="M673.5,568.9c0.4,0.9,0.9,1.7,1.3,2.5c0.1,0,0.2,0,0.2,0c0.1-1.6,1.1-3.2,0.4-5c-0.7,0.6-1.3,1.1-1.8,1.7
			C673.5,568.2,673.4,568.6,673.5,568.9z"/>
		<path class="st9" d="M671.6,557c-0.7,1-0.6,1.2,1.7,2.5C672.7,558.7,672.2,557.9,671.6,557z"/>
		<path class="st9" d="M666.4,568.3c0.8-0.3,0.8-0.8,0.7-1.6c-0.2-0.9-0.9-0.4-1.3-0.7c-0.1,0.2-0.2,0.5-0.2,0.7
			c0.1,0.4,0.4,0.8,0.6,1.2c-0.1,0.1-0.2,0.1-0.2,0.2c-0.4-0.4-0.8-0.7-1.1-1.1c-0.4-0.4-0.6-0.5-1,0c-1.6,2-1.5,5.4,0.1,7.3
			c0.6,0.7,1.2,0.9,2,0.5c0.8-0.4,1.1-1,1-1.9c-0.1-0.9-0.1-1.8,0-2.8c0-0.7-0.2-1-0.8-0.9c-0.8,0.1-1.7,0.3-2.5,0.5
			c0.2-0.2,0.5-0.5,0.8-0.6C664.9,568.8,665.7,568.6,666.4,568.3z"/>
		<path class="st9" d="M666.1,583.9c-0.6-2-2-3.3-3.4-4.8C663.2,581.7,664.6,583.7,666.1,583.9z"/>
		<path class="st9" d="M673.7,559.1c1.4,1.5,1.7,3.7,3.8,4.6C676.7,561.4,675,559.4,673.7,559.1z"/>
		<path class="st9" d="M668.4,566.5c-0.3,0.8,0.1,1.5,0.9,1.5c0.7,0,1.5-0.2,2.2-0.3c0-0.1,0-0.2,0.1-0.3c-0.4-0.3-0.7-0.7-1.1-0.9
			c-0.4-0.2-0.8-0.3-1.2-0.4c0-0.1,0.1-0.2,0.1-0.3c0.2,0.1,0.5,0.2,1,0.4c-0.4-0.9-0.8-1.5-1.1-2.2
			C668.9,564.9,668.7,565.7,668.4,566.5z"/>
		<path class="st9" d="M663,566.3c-1-0.1-1.5,0.4-1.6,1.3c-0.1,1.7-0.3,3.5-0.2,5.2c0,1.4,0.6,1.9,1.9,2.2c-0.4-1.5-1-2.9-1.3-4.4
			C661.5,569,662.2,567.6,663,566.3z"/>
		<path class="st9" d="M660.7,558.5c0.9-1.2,1.5-2.6,1.8-4c-0.1-0.1-0.1-0.1-0.2-0.2c-1.1,1.1-2.3,2.1-3.6,3.3
			c0.3-0.7,0.6-1.2,0.9-1.9c-1.5,0.7-1.9,2.2-2.9,3.3c0-0.5,0.1-1,0.3-1.4c0.7-1.9,2.3-2.7,4-3.3c2-0.8,3.4-3.5,3.1-5.8
			c-1.1,3.1-3.2,5.2-5.7,6.9c-1.2,0.8-2.2,1.6-2.6,3.2c-0.1,0.5-0.4,0.9-0.7,1.3c-0.8,0.9-1.6,1.7-2.5,2.5c-1.3,1.2-2.7,2.3-3.9,3.6
			c-1.1,1.2-1.3,2.8-0.8,4.4c1.4-3,3.7-4.9,6.4-6.4c1.2-0.6,1.9-1.5,2.3-2.9c-1.8,1.4-3.4,3-5.6,3.4c1.5-1.2,3-2.4,4.5-3.5
			c1.3-1,2.7-1.9,4.4-2.1C660.2,558.9,660.5,558.7,660.7,558.5z"/>
		<path class="st9" d="M683.4,595.8c0.6-0.1,1.2-0.4,1.9-0.7c-1.3-0.2-2.4-0.2-3.3-0.6c-1-0.4-1.9-1.2-2.9-2c0,0.9-0.1,1.7,0,2.5
			c0,0.3,0.4,0.8,0.7,0.8C681,595.9,682.2,595.9,683.4,595.8z"/>
		<path class="st9" d="M678.8,590.9c0.7-1.2,1.4-2.4,1.9-3.5c0.4-0.8,0.7-1.6,0.9-2.5c0.2-0.9,0.2-2-0.6-2.6
			c-0.7-0.5-1.5-0.8-2.5-1.3c1.1,2.7,0.8,5.1,0.2,7.6c-0.1-1.5,0-3-0.1-4.5c-0.1-1.5-0.7-2.9-1.9-3.9c-0.1,0.9-0.3,1.6-0.4,2.3
			c-0.3,1.9-0.4,3.8,1.1,5.4c0.2,0.2,0.2,0.7,0.4,1c-0.1,0-0.1,0.1-0.2,0.1c-0.6-0.7-1.2-1.4-1.8-2.2c-0.7,2.2-0.2,4,1,5.7
			c0.4,0.5,0.7,0.8,1.3,0.5l0,0c0.6-0.9,0.4-1.6-0.3-2.2c-0.4-0.3-0.6-0.8-0.9-1.1c0,0,0.1-0.1,0.1-0.1
			C677.6,590,678.2,590.5,678.8,590.9z"/>
		<path class="st9" d="M676.9,593.3c-0.2-0.2-0.6-0.1-0.9-0.1c-0.8,0.2-1,0.1-1.2-0.6c0.5,0.1,1,0.2,1.6,0.4
			c0.1-0.1,0.1-0.2,0.2-0.3c-1.2-1.1-2.2-2.3-1.9-4.2c-0.7,0.7-1.3,1.3-2.1,2.1c0.7-1.7,1.4-3.3,2-4.8c0.2-0.5,0.1-1.1,0.1-1.6
			c-0.1,0-0.2,0-0.3,0c-0.3,0.8-0.6,1.7-0.9,2.5c-1-1.5,1.1-2.7,0.3-4.3c-0.1,0.2-0.2,0.3-0.3,0.5c-0.3-0.4-0.6-0.9-0.9-1.2
			c-0.3-0.4-0.7-0.6-1.1-0.9c-0.1,0.1-0.2,0.1-0.3,0.2c0.1,0.7,0.1,1.5,0.4,2c0.3,0.5,1,0.9,1.6,1.3c-0.5,0.1-0.8,0.1-1.1,0.2
			c1.9,3.6,1.5,4,0.4,5.2c0-0.8,0-1.6,0-2.3c-0.8,1.3-0.8,2.7-0.3,4c0.3,0.8,1,1.4,1.5,2.2c0.7,1.2,1.3,2.4,2.9,2.5
			c0,0,0.1,0.1,0.1,0.1c-0.9,0.7-2.1-0.6-3.1,0.1c0,0.1,0,0.3-0.1,0.4c1.1,0.4,2.3,0.8,3.4,1.2c0.4-1.3,0.7-2.3,1-3.3
			c0.1-0.4,0.2-0.7,0.3-1.1C677.7,593.4,677.4,593.7,676.9,593.3z"/>
		<path class="st9" d="M684.5,601.3c0.9-1.8,1.3-3.5,1.2-5.2c-2.1,0.2-4.1,0.3-6.1,0.4C681.2,598.1,682.9,599.7,684.5,601.3z"/>
		<path class="st9" d="M664.7,590c1.5-1.8,2-3.9,1.2-4.6C664,587.4,663.2,588.9,664.7,590z"/>
		<path class="st9" d="M674,595c-0.8-0.2-2.3,0.3-1.4-1.6c-0.3,0-0.4,0-0.5,0c-0.2-0.5-0.3-1-0.5-1.5c-0.6-1.6-1-3.2-0.3-4.8
			c0.7-1.6,0-2.7-0.9-3.8c-1,1.5-1.4,3-0.6,4.8c-0.9-0.5-1.4-1.2-1.2-2.1c0.2-1.2,0.6-2.4,1-3.6c0.2-0.6,0.2-1.1-0.6-1.6
			c-0.2,1.2-0.3,2.2-0.4,3.2c-0.1,0-0.1,0-0.2,0c-0.1-0.5-0.2-0.9-0.3-1.4c-0.8,0.2-0.7,0.8-0.6,1.4c0.2,1.3,0.3,2.5,1,3.7
			c0.4,0.6,0.6,1.3,0.7,2c0.2,1.5,0.8,2.6,1.9,3.5c0.3,0.2,0.3,0.6,0.5,1c0,0-0.1,0-0.1,0.1c-0.3-0.4-0.5-0.7-0.8-1.1
			c-0.1,0.1-0.2,0.2-0.3,0.2c0.6,1,1.3,1.9,2.3,2.4c0.3,0.1,0.7-0.2,1.1-0.3C673.9,595.2,674,595.1,674,595z"/>
		<path class="st9" d="M662,592c-0.1,0.3,0.1,0.6,0.1,0.9c0.3-0.1,0.8-0.1,1-0.3c1.2-1.2,1.1-1.4,0.1-3.5
			C662.7,590.2,662.3,591,662,592z"/>
		<path class="st9" d="M688.3,590.6c0.6-4.2,0.3-4.7-3-6.7c0.3,0.4,0.6,0.7,0.8,1.1c0.7,1.2,1.3,2.5,0.5,3.8
			c-0.8,1.3-0.9,2.5-0.4,3.9c0.2,0.8,0.6,0.9,1,0.4c0.9-0.9,1.7-1.8,2.4-2.9c0.5-0.8,0.4-1.8-0.4-2.5
			C688.8,588.7,688.6,589.6,688.3,590.6z"/>
		<path class="st9" d="M662.6,588c-0.1,0.3-0.2,0.7-0.2,1c0,0,0.1,0,0.1,0c1-1.4,1.9-2.9,2.9-4.4c-0.4-0.4-0.7-0.7-1.2-1.1
			c-0.1,0.7-0.1,1.2-0.2,2c-0.6-1.6-0.6-3.3-2.3-3.8c-0.5,0.6-0.4,1.1,0,1.7C662.8,584.8,663.1,586.3,662.6,588z"/>
		<path class="st9" d="M667.6,578.7c-0.1-0.5-0.6-1-1.1-1.3c-0.9-0.5-1.9-0.7-2.8-1.1c1.2,1.9,2.4,3.7,3.7,5.7
			c0.1-0.2,0.5-0.5,0.4-0.8C667.9,580.4,667.8,579.5,667.6,578.7z"/>
		<path class="st9" d="M698,583.4c0.5,1.6,0.9,3.2,1.4,4.9c2.3-2.3,3.7-6.6,2.7-8.6c-1,1.8-2,3.7-3,5.6c-0.1,0-0.2-0.1-0.3-0.1
			c0.1-0.4,0-0.9,0.2-1.3c0.3-0.6,0.7-1.3,1.1-1.8c1.6-2.2,1.5-4.4-0.2-6.7c-0.3,1.2-0.6,2.3-0.9,3.4c-0.2,0.7-0.3,1.4-0.7,1.9
			C697.7,581.5,697.6,582.4,698,583.4z"/>
		<path class="st9" d="M695.4,571.9c0.2,0.5,0.3,0.9,0.5,1.2c1.1,1.3,0.9,2.6,0.3,4.1c-0.2,0.5-0.3,1.1-0.4,1.9
			c1.6-0.7,3-2.9,2.9-4.1C698.5,573.4,697.4,572.3,695.4,571.9z"/>
		<path class="st9" d="M622.2,571.9c0.6,0.2,1.2,0.4,1.4-0.6c0.1-0.5,0.5-0.9,0.8-1.3c0.9-1.2,0.9-1.3,0.2-2.6
			c-0.2-0.4-0.5-0.7-0.7-1c-0.1,0-0.3,0-0.4-0.1c-0.5,1.5-1.1,2.9-1.6,4.4C621.8,571.1,621.5,571.7,622.2,571.9z"/>
		<path class="st9" d="M681.4,545.8c0,0,0.2-54.5,0-54.8c0-10.3,2.2-18.6,6.5-24.9c4.4-6.3,11-9.4,19.8-9.4h5.7l-0.2-27.9
			c-5.9,0.1-11.8,1.7-17.5,4.8c-5.7,3-10.5,6.7-14.4,11.1v-14.1h-29.7l-0.1,115.2l-52.2,0c0,37.3,30.2,67.5,67.5,67.5
			s67.5-30.2,67.5-67.5H681.4z M678.5,474.2c0,1.7-1.4,3.1-3.1,3.1c-1.7,0-3.1-1.4-3.1-3.1c0-1.7,1.4-3.1,3.1-3.1
			C677.1,471.1,678.5,472.5,678.5,474.2z M675,467.9c0,1.7-1.4,3.1-3.1,3.1s-3.1-1.4-3.1-3.1c0-1.7,1.4-3.1,3.1-3.1
			S675,466.1,675,467.9z M667,512.5c-1.7,0-3.1-1.4-3.1-3.1c0-1.7,1.4-3.1,3.1-3.1c1.7,0,3.1,1.4,3.1,3.1
			C670.2,511.1,668.8,512.5,667,512.5z M670.2,520.8c0,1.7-1.4,3.1-3.1,3.1c-1.7,0-3.1-1.4-3.1-3.1c0-1.7,1.4-3.1,3.1-3.1
			C668.8,517.6,670.2,519,670.2,520.8z M667,500.8c-1.7,0-3.1-1.4-3.1-3.1c0-1.7,1.4-3.1,3.1-3.1c1.7,0,3.1,1.4,3.1,3.1
			C670.2,499.4,668.8,500.8,667,500.8z M667,489.1c-1.7,0-3.1-1.4-3.1-3.1c0-1.7,1.4-3.1,3.1-3.1c1.7,0,3.1,1.4,3.1,3.1
			C670.2,487.7,668.8,489.1,667,489.1z M667,477.4c-1.7,0-3.1-1.4-3.1-3.1c0-1.7,1.4-3.1,3.1-3.1c1.7,0,3.1,1.4,3.1,3.1
			C670.2,476,668.8,477.4,667,477.4z M667,459.2c1.7,0,3.1,1.4,3.1,3.1c0,1.7-1.4,3.1-3.1,3.1c-1.7,0-3.1-1.4-3.1-3.1
			C663.9,460.6,665.3,459.2,667,459.2z M662.4,464.7c1.7,0,3.1,1.4,3.1,3.1c0,1.7-1.4,3.1-3.1,3.1s-3.1-1.4-3.1-3.1
			C659.2,466.1,660.6,464.7,662.4,464.7z M657.9,471.1c1.7,0,3.1,1.4,3.1,3.1c0,1.7-1.4,3.1-3.1,3.1c-1.7,0-3.1-1.4-3.1-3.1
			C654.7,472.5,656.1,471.1,657.9,471.1z M703.6,598.3c-1.7,0-3.1-1.4-3.1-3.1s1.4-3.1,3.1-3.1c1.7,0,3.1,1.4,3.1,3.1
			S705.3,598.3,703.6,598.3z M713,576.1C713,576.1,713,576.1,713,576.1C713,576.1,713,576.1,713,576.1c-0.4,0.2-0.8,0.3-1.3,0.3
			c-1.7,0-3.1-1.4-3.1-3.1c0-0.3,0.1-0.7,0.2-1c-0.9-0.8-1.9-1.4-3.2-1.6c-0.9-0.1-1.9,0-2.8,0c0.1,1.2,0.8,1.8,2.1,1.9
			c2.2,0.2,3.7,1.4,4.5,3.6c0,0.1,0,0.2-0.1,0.5c-0.6-0.7-1.1-1.6-1.9-2.2c-0.7-0.6-1.6-0.9-2.5-1.2c0.7,1.2,2.6,1.5,2,3.4
			c-1-0.9-1.9-1.9-2.8-2.8c-0.4-0.4-0.9-0.8-1.3-1.3c-0.9-1.5-2.2-1.9-3.8-1.6c-0.4,0.1-0.7,0.1-1.2,0.1c1.4,1.6,2.6,3,4.6,3.4
			c0.7,0.1,1.4,0.8,1.9,1.4c1.2,1.3,2.5,1.8,4.2,1.6c1.8-0.2,3.5,0.3,5.1,1.3c0.9,0.6,1.1,1.5,0.7,2.9c-1.4-3.2-2.7-3.9-6.8-3.2
			c1.5,1.2,2.8,2.4,4.2,3.5c0,0.1-0.1,0.1-0.1,0.2c-2.3-1.6-4.7-3.1-6.9-4.9c-1.1-0.9-2-2.1-3.7-2.4c0.2,0.3,0.3,0.5,0.5,0.7
			c1.8,2.4,4,4.1,6.4,5.6c0.7,0.5,1.4,1.1,2,1.8c0.5,0.6,0.8,1.3,0.3,2c-0.4-0.6-0.7-1.2-1.2-1.8c-0.5-0.5-1.1-0.9-1.8-1.4
			c0.2,1.5,0.1,2.9,0.5,4.1c0.4,1.1,1.3,2,1.8,2.8c-1.9-0.6-2.7-1.6-2.7-3.9c0-1.8-0.7-3.2-1.9-4.4c-0.5-0.5-1.1-1-1.9-1.4
			c0.2,1.1,0.4,2.3,0.7,3.4c0.9,2.5,0.5,4.8-0.9,7c-0.5,0.7-0.9,1.5-1.5,2.4c-0.1-1.4,0.5-2.4,1.1-3.2c1.1-1.6,1.1-3.3,0.7-5.3
			c-0.6,2.1-1.5,3.7-3.1,4.9c-0.5,0.4-0.6,1-0.3,1.6c0.4,0.8,0.9,1.7,1.3,2.5c0.1,0.2,0.1,0.5,0.1,0.7c-0.2-0.1-0.4-0.2-0.6-0.4
			c-1.4-1.9-2.2-4.1-2.8-6.4c-0.3-1-0.6-2-0.9-3.2c-0.3,0.5-0.6,0.8-1,1.4c0-1.5,1.2-2.9-0.3-4c-0.6,5.3-0.3,10.4,2.3,15.2
			c-0.9-0.4-1.6-1.3-1.9-2.6c-0.5-2.3-0.9-4.6-1.4-6.9c-0.1-0.4-0.3-0.8-0.6-1.2c-0.2,1.1-0.1,2.1,0.3,3.2c0.4,0.9,0.3,1.9,0.5,2.9
			c0,0.1-0.2,0.3-0.4,0.7c-0.1-1-0.3-1.8-0.4-2.7c-0.2,1.5-0.3,2.9-0.5,4.2c-0.1,0.7-0.4,1.4-0.8,1.8c-0.3,0.4-1,0.5-1.6,0.5
			c2.1-1.4,2-3.5,2-5.6c0-0.2,0-0.4,0-0.6c0-2.1,0-2.1-1.7-3.1c-0.6,2.4-1.3,4.9-1.9,7.4c-0.3,1.2,0.2,2.4,0.8,3.4
			c0.3,0.5,0.6,1,0.9,1.5c-0.1,0.1-0.1,0.1-0.2,0.2c-0.8-1-1.6-2-2.5-3.1c-0.5,0.8-1.1,1.5-1.4,2.3c-0.2,0.6-0.1,1.4,0.1,2
			c0.4,1.5,0.9,2.9,1.3,4.3c0.1,0.4,0,0.8-0.2,1.2c-0.6-1.7-1.2-3.4-1.8-5.3c-0.4,0.8-0.8,1.4-1,2c-0.1,0.3,0.1,0.7,0.3,1
			c0.9,1.2,1.8,2.3,1.8,3.9c0,0.2,0,0.4-0.2,0.7c-0.1-0.4-0.2-0.8-0.4-1.1c-0.5-0.9-1-1.9-1.6-2.8c-0.4-0.7-0.9-0.5-1.2,0.1
			c-0.7,1.1-1.3,2.3-1,3.8c0.1,0.3,0,0.7,0,1.2c-0.9-1.8-0.9-3.3-0.1-4.9c1.1-2,1-1.7-0.5-3.3c-1.6-1.5-3.2-3.1-4.7-4.6
			c-1,1.3-1.3,6.2,1.5,8.8c-1-0.2-1.6-0.8-2-1.7c-0.6-1.4-0.7-2.8-0.7-4.3c0-0.8-0.1-1.1-1-1.3c-1.3-0.3-2.6-0.9-3.8-1.5
			c-0.6-0.3-1.1-1-1.6-1.5c-0.2,0.5-0.4,1-0.7,1.8c1.9,3.3,3.5,7,2.5,11.3c0,0.2-0.3,0.3-0.6,0.7c0-0.6,0-1,0-1.3
			c0.4-2.3,0.1-4.5-0.7-6.6c-0.4-0.9-1.2-1.7-1.8-2.5c-0.3,1-0.5,2-0.8,2.9c-0.3,1-0.9,1.8-1.9,2.3c1.2-1.8,1.8-3.9,2-6
			c0.2-1.5,0.4-3.1-0.3-4.7c-0.5-1.1-0.5-2.4-0.9-3.9c-0.7,1.1-1.2,2-1.8,3c-0.9,0.8-2,1.6-2.8,2.7c-1.1,1.4-1.3,3.1-0.5,4.7
			c1,2.1,2.1,4.3,3.1,6.3c1.4,0.3,2.4,1.6,2.4,3c0,1.7-1.4,3.1-3.1,3.1c-1.7,0-3.1-1.4-3.1-3.1s1.4-3.1,3.1-3.1c0.1,0,0.1,0,0.2,0
			c-2-2.6-3.9-5.5-4.1-9.3c-0.7-0.3-1,0-1.2,0.7c-0.6,2.2,0,4.3,0.7,6.4c0.3,0.8,0.3,1.7,0.4,2.6c0,0.2-0.1,0.4-0.3,0.6
			c-0.7-3-2.1-5.8-1.7-9c0.1-1.2-0.3-1.5-1.5-1.3c0.2,1.2,0.3,2.5,0.5,3.8c-0.1,0-0.1,0-0.2,0c-0.3-1.1-0.7-2.1-0.9-3.2
			c-0.2-0.9-0.6-0.9-1.1-0.4c-0.4,0.4-0.8,0.9-1,1.5c-0.6,1.6-1,3.3-1.6,5c-0.5,1.4-0.6,2.8-0.1,4.2c0.2,0.6,0.3,1.2,0.3,1.8
			c-0.9-1.3-1.5-2.7-1.3-4.3c0.2-1.5,0.8-3,1.3-4.8c-1,0.9-1.9,1.6-2.5,2.4c-0.6,0.9-1.1,2.1-1.4,3.2c-0.3,1.1-0.4,2.2-0.7,3.3
			c-0.7-0.9-0.6-1.9-0.3-3c0.2-0.7,0.3-1.5,0.5-2.2c-0.3,0.4-0.5,0.9-0.8,1.5c-0.4-1,0-1.7,0.4-2.3c1.1-1.8,1.2-3.6,0.6-5.6
			c-1.8,0.7-2.8,2.7-3.3,6.4c-0.1-0.5-0.3-0.9-0.3-1.4c0-1.8,0.6-3.4,1.9-4.6c1.6-1.4,1.6-3,0.5-4.6c-0.7,0.6-1.4,1.1-2.1,1.8
			c0.2-0.8,0.7-1.4,1.3-1.8c0.8-0.4,0.9-1,0.6-1.8c-0.1-0.4-0.2-0.8-0.6-1.3c-1,2.2-2,4.3-3,6.5c-0.1,0-0.1,0-0.2,0
			c0.1-0.6,0.1-1.3,0.4-1.9c0.5-1.3,1.1-2.6,1.7-3.9c0.7-1.5,1.8-2.6,3.3-3.3c2-1,3.4-2.7,4.5-4.7c0.6-1.1,0.6-2.3,0.4-3.5
			c-0.5-2.2-0.6-4.5-0.1-6.7c0.4-1.6,1.2-2.9,2.6-3.9c0.4-0.3,0.6-0.8,0.8-1.2c0.3-0.8,0.5-1.6,0.7-2.4c-0.3,0-0.7-0.1-1-0.1
			c-0.1,0-0.3-0.1-0.4,0c-0.6,1.1-1.7,0.6-2.4,1c-0.7,0.3-1.1,1.1-1.1,1.9c0,1.3,0.2,2.6,0.2,4c0,0.6-0.1,1.2-0.1,1.8
			c-0.1,0-0.2,0-0.3,0c-0.1-0.7-0.2-1.4-0.3-2.1c-0.1,0-0.1,0-0.2-0.1c-0.2,0.7-0.5,1.3-0.7,2c-0.1,0-0.2,0-0.3,0c0-0.5-0.1-1,0-1.5
			c0.4-1.6,0.8-3.2,1.2-4.9c-1.3,0.3-2.2,1.6-2.2,3c0,1,0.3,2.1,0.6,3.1c0.4,1.6,1.1,3.2,1.2,4.8c0.2,3.3-1,5.9-4.2,7.1
			c-0.6,0.2-1.2,0.5-1.8,0.7c1.8-1.9,4.7-2.8,5.1-6.3c-2,0.6-4,0.7-5.6,2c-1.7,1.3-2.1,3.6-1.3,5.6c0.7,1.8,0.9,3.6-0.3,5.4
			c0.2-1.6,0.4-3.3-0.3-4.7c-1,1.7-2,3.4-3,5.2c-0.1-0.1-0.2-0.1-0.3-0.2c0.3-0.5,0.6-1.1,1-1.6c1-1.5,1.4-3.3,1.2-5.1
			c0-0.7-0.7-1.4-1.1-2.1c-0.1,0-0.2,0.1-0.4,0.1c0,0.8-0.1,1.7-0.1,2.5c-0.1,1.2-0.1,2.5-0.2,3.7c-0.1,0.9-0.7,1.6-1.6,2.1
			c0.9-1.4,1.1-2.9,0.9-4.5c-2.5,1.2-4.5,7-3.7,10.5c-0.7-0.4-1.2-1.6-1.1-2.5c0.5-2.6,1.4-4.9,2.7-7.2c0.2-0.3,0.5-0.7,0.8-0.8
			c1.8-0.9,1.7-2.6,1.8-4.4c-1.2,0.6-2.4,1-3.3,1.7c-0.4,0.3-0.6,1.2-0.8,1.8c-0.1,0.5,0,1,0,1.6c-0.1,0-0.2,0-0.4,0
			c-0.1-0.9-0.2-1.8-0.3-2.7c-1.4-0.1-2.4,0.9-3.7,3.3c-0.6,1.1-0.7,2.2-0.7,3.3c1.2,0.4,2,1.6,2,2.9c0,1.7-1.4,3.1-3.1,3.1
			s-3.1-1.4-3.1-3.1s1.4-3.1,3.1-3.1c0.1,0,0.2,0,0.3,0c0-0.3,0-0.5,0.1-0.8c0.4-2.4,1.6-4.3,3.1-6c0.7-0.8,1.4-1.5,2.1-2.3
			c2.1-2.2,2.9-5,3.3-7.9c0.1-0.5,0.1-1,0.2-1.6c-1.5-0.3-2.3,0.5-3.1,1.6c0-1.3,0.8-2.3,2.2-2.6c0.4-0.1,1-0.4,1-0.7
			c0-0.8-0.1-1.7-0.3-2.5c0-0.1-0.5-0.2-0.7-0.1c-0.9,0.5-1.9,1.1-2.8,1.6c-0.7,0.4-0.9,1-0.4,1.8c0.7,1.3,0.8,2.7,0.2,4.1
			c-0.1,0.3-0.3,0.6-0.6,0.8c0.1-1.7,0.6-3.5-0.6-5.2c-0.8,1-1,2.1-1.2,3.3c-0.3,1.8-0.4,3.6-0.8,5.3c-0.4,1.7-1.3,3.2-3.1,3.7
			c-0.3,0.1-0.5,0.1-0.8,0.1c3.2-1.2,3.8-5.7,3.5-9.2c-0.8,0.8-1.7,1.6-2.4,2.5c-0.8,0.9-1.4,1.8-2.1,2.8c0-0.2-0.1-0.5-0.1-0.9
			c-1.1,0.4-2.2,0.9-3.4,1.3c1.6,1.9,3.6,3.6,2.8,6.5c-0.3-2-1.1-3.6-2.4-5c-1.3-1.4-1.6-1.4-3.1-0.2c0.1-1.1,0.3-2.2,0.4-3.3
			c-0.1-0.1-0.2-0.1-0.3-0.2c-0.3,0.5-0.5,0.9-0.8,1.4c-0.2-0.1-0.3-0.2-0.5-0.2c1.2-1.8,1.4-3.8,0.6-5.8c-0.2,0.6-0.5,1-0.9,1.4
			c-0.3,0.7-0.5,1.4-0.4,2.2c0.1,1.6-0.1,3.2-0.7,4.7c-0.4,0.9-1,1.5-2.2,1.2c1.2-0.7,1.8-1.6,2-2.9c0.1-0.5,0.1-0.9,0.1-1.4
			c-0.1-1.2,0-2.2,0.3-3.3c-0.4,0.1-0.7,0.2-1.1,0.2c-1.7,0-3.1-1.4-3.1-3.1s1.4-3.1,3.1-3.1c1,0,1.9,0.5,2.5,1.3
			c0.5-0.2,0.7-0.7,0.9-1.4c0.3-1,0.8-1.9,1.2-2.9c0.1-0.3,0.3-0.6,0.3-1.1c-1.7,1.1-3.1,2.6-5.2,2.5c1.5-0.6,2.9-1.2,3.7-2.8
			c0.4,0.1,1.1-1.3,0.9-2.1c-0.1-0.5-0.3-0.9-0.6-1.5c-0.2,0.4-0.3,0.8-0.5,1.3c-2,0.3-2,1.4-2.1,3.3c-0.5-0.2-0.9-0.5-1.3-0.7
			c0,0,0,0,0,0c-0.7,0.1-1.3,0.3-2,0.4c0-0.1,0-0.2-0.1-0.3c0.5-0.1,0.9-0.2,1.6-0.3c-0.1-1-0.1-2-0.2-3.1c0.7-0.3,1.2,0,1.6,0.6
			c1.1-1,2.3-2,3.4-3.1c1.6-1.4,3.4-1.8,5.4-1.6c1.8,0.2,3.7,0.4,5.5,0.7c3.6,0.5,7.2,0.4,10.7-0.2c2.9-0.5,5.7-1.4,8.2-3
			c2-1.3,3.9-2.7,5.9-4.1c1-0.7,1.9-1.5,2.7-2.4c0.7-0.8,1.1-1.8,1.2-3.1c-3.1,0.9-4.1,4.2-6.2,5.8c-0.5,0-0.9-0.2-1.1-0.1
			c-0.7,0.6-1.4,1.2-2,1.9c-0.4,0.5-0.8,1.1-1.3,1.5c0.5-2.2,1.6-3.8,3.7-4.5c1.1-0.4,2-1.1,2.6-2.2c-1.5,1-3,1.9-4.5,2.9
			c-0.9,0.5-1.8,1-2.6,1.5c-0.5,0.3-1,0.7-1.2,1.2c-0.5,1.8-1.7,2.7-3.4,3.5c0.3-0.5,0.6-0.8,0.8-1.1c-2.3,0.8-4.4,2.8-7.2,1.8
			c1-0.2,1.8-0.3,2.6-0.6c1.7-0.7,3.4-1.5,5.1-2.3c0.2-0.1,0.4,0,0.5-0.1c0.3-0.2,0.5-0.5,0.7-0.9c-6.4,3.2-13,4.1-19.9,1.9
			c7.3,1.3,14.2,0.3,20.7-3.8c-1.8,0.6-3.4,1.4-5.2,1.8c-1.8,0.4-3.6,0.3-5.4,0.5c-1.8,0.1-3.6,0.2-5.5,0.2c4.5-1,9.2-0.6,13.5-2.5
			c-2.8-0.6-5.5-1.2-8.1,0.8c-0.8,0.6-1.7,1.2-3,1c1.2-0.7,2.2-1.3,3.3-1.9c0-0.1-0.1-0.2-0.1-0.4c-2-0.1-3.8,0.6-5.8,0.8
			c-0.2,1.6-1.5,2.8-3.1,2.8c-1.7,0-3.1-1.4-3.1-3.1c0-1.7,1.4-3.1,3.1-3.1c1.7,0,3.1,1.4,3.1,3.1c0.1,0,0.2-0.1,0.3-0.1
			c1.4-0.4,2.9-0.8,4.3-1.2c0.3-0.1,0.7-0.1,0.9,0c1,0.5,2,0.4,3.2-0.1c-1.4-0.8-2.7-1.2-4.4-1c0.7-0.7,1.3-0.9,2-0.7
			c2.1,0.7,4.2,1.4,6.3,2.2c1.8,0.7,3.4,0.5,4.8-0.8c0.8-0.7,1.6-1.4,2.5-2.3c-2-0.1-3.4,0.7-4.8,1.7c-1,0.7-2.1,0.7-3.2,0.1
			c-0.1-0.1-0.3-0.1-0.4-0.2c0.1-0.1,0.1-0.2,0.2-0.2c0.7,0,1.4,0.1,2.2,0.1c0-0.1,0-0.2,0-0.3c-1.8-0.1-3.6-0.3-5.4-0.4
			c0-0.1,0-0.2,0-0.3c1,0,2.1,0.2,3.1,0c2.3-0.5,4.7-1,7-1.8c2.4-0.8,5.1-1.6,6.8-3.7c0.9-1.2,5.5-3.1,6.4-9.7
			c-0.4-0.5-0.7-1.2-0.7-1.9c0-1.7,1.4-3.1,3.1-3.1c1.7,0,3.1,1.4,3.1,3.1c0,0.9-0.4,1.7-1,2.3c0.3,1.2,1.4,4.8,1.6,5.2
			c0.5,1,1,3.2,2.1,4.1c1.9,1.5,3.1,4,5.2,4.2c0.7,0.1,1.4,0,2.1,0c1.1,0,2.1,0.3,3,1.1c-1-0.1-2-0.1-2.9-0.2c0,0.1,0,0.2-0.1,0.2
			c0.4,0.2,0.8,0.4,1.2,0.5c1.6,0.2,3.3,0.5,4.9,0.5c1,0,2-0.5,3-0.7c1.3-0.2,2.6-0.3,3.7,0.7c0.1,0.1,0.3,0.1,0.4,0.3
			c-2-0.6-3.8-0.4-5.9,0.2c2.1,0.7,3.6,1.7,4.1,4.1c-1.5-2.8-3.6-2.8-6.1-1.8c2.1,0.7,4,1.2,5.9,2c1.2,0.5,2.4,1,3.7,0.6
			c1.2-0.3,2.3-0.9,3.5-1.4c0.4-0.2,0.8-0.3,1.2-0.4c-0.1-0.3-0.1-0.6-0.1-0.9c0-1.7,1.4-3.1,3.1-3.1c1.7,0,3.1,1.4,3.1,3.1
			c0,1.7-1.4,3.1-3.1,3.1c-1,0-1.9-0.5-2.5-1.3c-0.5,0.1-0.9,0.1-1.4,0.2c-1.1,0.3-2.2,0.7-3.5,1.2c1.4,0.6,2.5,1.4,3.7,1.4
			c1.1,0,2.2-0.8,3.5-1.2c-0.6,0.8-1.3,1.5-2,2.3c3.6,1.4,7.2,2.8,11.2,2.9c0,0.1,0,0.2,0,0.3c-1.1,0-2.3,0.1-3.4,0
			c-3.9-0.3-7.5-2-11.1-3.4c-2.1-0.8-4.3-1.5-6.4-2.2c-0.1,0.1-0.1,0.3-0.2,0.4c0.7,0.5,1.4,1.1,2.2,1.4c1.6,0.6,3.3,1,5,1.7
			c0.9,0.4,1.8,0.9,2.7,1.4c1,0.7,1.2,1.2,0.8,2.9c-0.8-3.1-3.5-3.3-5.5-4.3c1.3,1.8,4.1,1.7,4.8,4.4c-3-2.5-6.3-4.4-9.8-6.4
			c0.5,1.1,0.9,1.9,1.3,2.8c-0.1,0-0.1,0.1-0.2,0.1c-0.6-1-1.3-1.9-1.7-3c-0.6-1.7-1.7-2.2-3.2-2.2c-0.4,0-0.9-0.1-1.3-0.1
			c2.1,4.1,3.7,5.2,8.2,6.5c1.5,0.4,3,1,4.4,1.7c1.2,0.6,2.1,1.7,2.2,3.1c-0.8-0.7-1.5-1.6-2.4-2.2c-0.9-0.6-2-0.9-3.2-1.5
			c0.4,1.2,0.5,2.2,1,2.9c0.5,0.7,1.3,1.1,1.9,1.8c-1.3-0.1-2.3-0.8-3.1-2c0.1,1,0.3,1.9,0.4,3c-0.8-0.1-0.9-0.8-1-1.5
			c-0.1-1.1-0.1-2.2-0.3-3.3c-0.1-0.5-0.5-1.1-0.9-1.3c-1.2-0.6-2.5-1-3.8-1.5c-0.1,0.1-0.1,0.1-0.2,0.2c0.6,1,1.2,2,1.9,2.9
			c1,1.3,2.3,2.3,3,3.7c0.9,1.7,2,1.9,3.6,1.8c3-0.2,3.4,0.2,6.6-2.2c-0.2,0.5-0.3,0.8-0.6,1.5c1.3-0.8,2.4-1.4,3.7-2.2
			c-0.7-0.2-1.1-0.3-1.6-0.4c1.7,0,3.3,0,4.7,0c0,0-0.2,0.1-0.4,0.1c2.8,0.5,4.8,2.2,6.6,4.4c-1.3-0.8-2.5-1.6-3.8-2.3
			c-0.9-0.5-1.8-0.8-2.7-1c-1.8-0.4-3.1,0.9-4.5,1.8c1,0.3,2.1,0.5,2.9,1c0.5,0.3,0.9,0.6,1.3,1c0.6-0.7,1.4-1.2,2.4-1.2
			c1.7,0,3.1,1.4,3.1,3.1C714.9,574.5,714.1,575.6,713,576.1z"/>
		<path class="st9" d="M694.8,584.6c0.1-1.5,0.2-2.8,0.2-4.2C693.9,581.7,693.8,583.5,694.8,584.6z"/>
		<path class="st9" d="M690.5,581.6c0.6,3.2,0.9,3.6,2.7,4.5C693.6,583.7,692.7,582.2,690.5,581.6z"/>
		<path class="st9" d="M685.3,578.1c-1.6-0.9-3.1-2-4.6-3c-0.5-0.4-1-0.8-1.6-1.2c-0.2,1.8,1,2.4,2,3c1,0.6,2.1,1,3.1,1.7
			c2.3,1.7,4.3,3.6,4.8,6.8c0.1,0.7,0.6,1.4,0.8,2.1c0.1,0,0.2-0.1,0.3-0.1c-0.1-0.6-0.1-1.2-0.2-1.9
			C689.4,582.3,688.2,579.7,685.3,578.1z"/>
		<path class="st9" d="M694.9,576.5c-0.9-0.8-1-1.8-0.8-2.8c0.2-1.4-0.2-2-1.6-2.1c-1.3-0.1-2.6-0.1-3.8-0.2c-0.2,0-0.5,0-0.7,0.1
			c0,0.1-0.1,0.2-0.1,0.3c1,0.8,2.1,1.5,3.1,2.3c0.8,0.7,1.5,1.5,2.1,2.4c0.5,0.8,0.3,1.5-0.3,2.1c-0.2-2-0.9-3.6-3-4.2
			c0.1,1,0.2,2,0.3,2.9c-0.1,0-0.2,0.1-0.3,0.1c-0.3-1.1-0.7-2.3-1-3.4c-0.1,0-0.2,0-0.3,0.1c0.1,0.9,0,1.9,0.4,2.6
			c0.4,0.8,1.2,1.3,1.8,1.9c-1.3,0.1-2.5-0.9-2.7-2.4c-0.1-0.7-0.2-1.4-0.1-2.1c0-1.6-0.7-2.5-2-3.1c-3.2-1.3-6-3.2-7.7-6.6
			c-0.1-0.3-0.6-0.4-0.9-0.5c-0.1,0.1-0.1,0.2-0.2,0.3c0.4,0.4,0.9,0.8,1.3,1.1c-0.2,0.1-0.1,0.2-0.1,1.1c0,1.7,0.8,2.7,1.8,3.8
			c0.6,0.7,1.2,0.9,2.1,0.6c0.8-0.2,1.7-0.4,2.5,0.4c-0.9,0.1-1.6,0.2-2.4,0.3c0.2,0.3,0.5,0.5,0.7,0.5c0.7,0.1,1.4,0,2.1,0.1
			c1.3,0.1,1.8,0.6,1.7,1.9c-1-1.2-1.5-1.4-2.6-1c1.1,0.9,2.4,1.7,2.7,3.1c-2.3-1.8-4.7-3.6-7.1-5.4c-0.1,0.1-0.2,0.2-0.3,0.3
			c1,1,1.9,2.1,3,2.9c2.2,1.7,4.6,3.2,6.9,4.8c1.4,1.1,2.8,2.3,4.2,3.6c0.1-0.4,0.3-0.7,0.3-1.1c0-1.3,0.5-2.4,1.2-3.4
			c0.6-0.9,0.7-3.3,0-4.5C694.9,574.6,694.9,575.5,694.9,576.5z"/>
		<path class="st9" d="M698,578.7c-0.4,0.3-0.9,0.6-1.4,0.9c0.2,0.5,0.4,0.9,0.6,1.2c0.1,0,0.2,0,0.3,0c0.3-0.7,0.5-1.3,0.8-2
			C698.2,578.8,698.1,578.8,698,578.7z"/>
		<path class="st9" d="M660.3,559.7c-1.2-0.1-2.1,0.4-2.7,1.3c-0.4,0.6-0.7,1.2-0.4,2C658.7,562.4,659.7,561.3,660.3,559.7z"/>
		<path class="st9" d="M637.2,584c0.1,0.1,0.2,0.1,0.3,0.2c0.9-0.6,1.9-1.1,2.8-1.7c-0.6-1-1-1.8-1.6-2.8
			C638.2,581.2,637.7,582.6,637.2,584z"/>
		<path class="st9" d="M642,583.1c0.3,0.5,0.7,0.9,1.1,1.4c0.3-0.6,0.5-1.2,0.7-1.7c0.3-0.5,0.6-1,1-1.8c-1.1,0.5-1.9,0.9-2.7,1.4
			C642,582.4,641.9,582.9,642,583.1z"/>
		<path class="st9" d="M633.3,565.2c-0.2-0.1-0.6,0-0.6,0.1c-0.2,0.6-0.4,1.2-0.3,1.8c0.1,0.5,0.6,1.3,1,1.4
			c2.7,0.3,5.3-0.3,7.7-1.8C638.4,566.7,635.8,566.5,633.3,565.2z"/>
		<path class="st9" d="M646.2,577.2c1.2-1.4,2.1-3,2.4-5.2c-1.5,1.9-3.4,2.8-5.3,3.6c-1,0.5-2,1.1-3,1.5c-0.9,0.4-1,1.2-0.7,2
			c0.3,0.9,0.8,1.7,1.2,2.4c0.1,0.2,0.7,0.3,0.9,0.2c0.6-0.4,1.1-1,1.7-1.5C644.3,579.2,645.2,578.3,646.2,577.2z"/>
		<path class="st9" d="M629.9,569.4c0,1-0.1,1.9-0.1,2.8c0,0.8,0.4,1,1,0.7c0.8-0.4,1.6-0.9,2.4-1.5c0.5-0.3,0.5-0.8,0-1.2
			C632.2,569.2,631.1,569.4,629.9,569.4z"/>
		<path class="st9" d="M628.8,574.2c-1.4-0.4-2.8-0.7-4.2-1c-0.3-0.1-0.8,0.2-0.9,0.5c-0.5,1.4-0.9,2.8-1.3,4.2
			c0,0.1-0.1,0.3-0.1,0.6c0.2,0.4,0.5,0.9,0.8,1.4c0.5,0.8,1.1,0.9,1.9,0.4c0.8-0.5,1.6-1,2.3-1.4c1.4-0.8,1.8-2.3,1.9-3.8
			C629.3,574.7,629,574.2,628.8,574.2z"/>
		<path class="st9" d="M623,573.1c0-0.2-0.6-0.5-0.9-0.7c-0.1,0-0.4,0.4-0.4,0.5c0.1,1.2,0.3,2.3,0.4,3.5c0.1,0,0.2,0,0.3,0
			C622.6,575.3,622.9,574.2,623,573.1z"/>
		<path class="st9" d="M629.7,567.1c-0.7,0.3-1.4,0.7-2.3,1.1C628.9,568.8,629.2,568.7,629.7,567.1z"/>
		<path class="st9" d="M629.8,576.1c0.1,0.1,0.2,0.1,0.3,0.2c0.7-0.9,1.4-1.7,2.3-2.8c-1,0.3-1.7,0.5-2.4,0.8
			C629.9,574.9,629.9,575.5,629.8,576.1z"/>
		<path class="st9" d="M659.8,584.2c0.1-0.2,0.1-0.5,0-0.6c-0.9-0.9-1.8-1.8-2.8-2.8c-0.6,2.3,0.6,3.9,1.6,5.7
			C659.1,585.6,659.5,584.9,659.8,584.2z"/>
		<path class="st9" d="M655.5,580c-0.3-2.4-0.6-4.8,0.1-7.2c0.3-1.1,0.6-2.2,0.9-3.3c-0.2,0-0.2,0-0.3,0c-0.1,0.1-0.1,0.1-0.2,0.2
			c-1.4,1.6-1.9,3.6-1.7,5.7c0.1,1.5,0.5,3.1,0.6,4.6c0.2,3.9-1.4,7-3.7,9.9c-0.2,0.3-0.6,0.4-0.8,0.6c1-2.2,2.6-4,3.2-6.4
			c-1.3,1.9-3,3.2-5,4.2c-0.3,0.1-0.6,0.5-0.6,0.8c0.1,0.8,0.4,1.6,0.6,2.5c2.2-0.9,4-2,5.5-3.8C655.9,585.5,655.9,582.8,655.5,580z
			"/>
		<path class="st9" d="M656.8,585.1c-0.3,0.8-0.8,1.6-1,2.5c-0.2,0.8-0.2,1.7-0.3,2.6c0,0.8,0,1.7,0,2.5c0.1,0,0.2,0,0.3,0.1
			c-0.1-1.8,0.9-3.2,1.7-4.6C658.2,587.1,657.8,586,656.8,585.1z"/>
		<path class="st9" d="M650.8,596.2c0.4-1,0.9-1.9,1.5-2.8c0.5-0.8,1.1-1.5,1.6-2.3c0.2-0.3,0.1-0.7,0.2-1.1c-1.5,0.7-2.9,1.4-4.3,2
			c-1.1,0.5-1.1,0.6-0.8,1.9c0.3,1.4,0.7,2.9,1,4.3c0.4,1.8-0.3,3.4-1.1,5c0.1-0.1,0.3-0.2,0.4-0.4c0.8-0.9,1.6-1.9,2.4-2.8
			c0.4-0.4,0.9-0.7,1.2-1c1.9-1.9,1.1-4.7,1.9-6.9c-1.5,1.8-3.4,3.1-3.7,5.8C650.8,597.2,650.6,596.6,650.8,596.2z"/>
		<path class="st9" d="M659,595.9c0.3-0.9,0.6-1.8,0.9-2.7c-0.1,0-0.2-0.1-0.4-0.1c1-0.3,1.1-0.6,1.1-1.8c-1.2,1.2-2.3,2.3-3.6,3.6
			C656.9,596.3,658.4,595.4,659,595.9z"/>
		<path class="st9" d="M643.5,580.4c1.4-0.5,3-1.1,4.6-1.6c0.7-0.2,1.5-0.3,2.2-0.7c0.3-0.2,0.7-0.7,0.7-1.1c0-1.7-0.9-3-1.7-4.6
			C648.6,575.1,647.4,577.8,643.5,580.4z"/>
		<path class="st9" d="M661.1,580.4c0.1-0.6,0.2-0.8,0.2-1c0.4-2.1-1-3.1-2.2-4.2c-0.3-0.3-0.7-0.4-1.1-0.5c-0.2,0.5-0.4,1-0.4,1.5
			c0,0.4,0.2,0.9,0.5,1.1C659,578.3,660,579.2,661.1,580.4z"/>
		<path class="st9" d="M658.3,578.8c-0.1,0.1-0.2,0.1-0.3,0.2c0.8,1,1.6,2,2.4,3c0.7-0.5,0.7-0.9,0.1-1.3
			C659.8,580.1,659.1,579.4,658.3,578.8z"/>
		<path class="st9" d="M659.1,586.9c-0.1,0.2-0.2,0.6-0.1,0.8c0.4,1.5-0.1,2.7-0.9,3.8c-0.3,0.4-0.6,0.8-0.8,1.2
			c3.6-2.5,5-6.1,3.3-8.3C660.1,585.2,659.6,586,659.1,586.9z"/>
	</g>
</g>
</svg>
