<?xml version="1.0" encoding="utf-8"?>
<!-- Generator: Adobe Illustrator 20.0.0, SVG Export Plug-In . SVG Version: 6.00 Build 0)  -->
<svg version="1.1" id="Layer_1" xmlns="http://www.w3.org/2000/svg" xmlns:xlink="http://www.w3.org/1999/xlink" x="0px" y="0px"
	 viewBox="0 0 1000 1000" style="enable-background:new 0 0 1000 1000;" xml:space="preserve">
<style type="text/css">
	.st0{fill:#FFFFFF;stroke:#000000;stroke-miterlimit:10;}
	.st1{fill-rule:evenodd;clip-rule:evenodd;fill:url(#SVGID_1_);}
	.st2{fill-rule:evenodd;clip-rule:evenodd;fill:url(#SVGID_2_);}
	.st3{fill-rule:evenodd;clip-rule:evenodd;fill:#0D8943;}
	.st4{fill:#0D8943;}
	.st5{fill:#118A44;}
	.st6{fill-rule:evenodd;clip-rule:evenodd;fill:url(#SVGID_3_);}
	.st7{fill:#446CA9;}
	.st8{fill:#00956D;}
	.st9{fill:#EC5624;}
	.st10{fill:#9E5917;}
	.st11{fill:#3BB0C9;}
</style>
<circle class="st0" cx="500.5" cy="501.6" r="500"/>
<g>
	<linearGradient id="SVGID_1_" gradientUnits="userSpaceOnUse" x1="392.5166" y1="831.1398" x2="464.2984" y2="831.1398">
		<stop  offset="0" style="stop-color:#42ABC2"/>
		<stop  offset="1" style="stop-color:#11131E"/>
	</linearGradient>
	<path class="st1" d="M421.4,840.1c3.9,1.5,7.6,3.6,10.2,7c0.6,1,1.3,2,1.9,2.9c5.4-1.6,4.4-7.6,7.5-9.7c1.9-1.3,5.4-0.7,6.4,1.6
		c1,2.3-0.2,5-2,6.6c-2.5,2.3-6.1,3.6-10,4.1l0,0.1c0.7,1,1.5,2,2.2,2.8c4,4.9,6.8,7.6,10.6,8.9c0.1,0,0.1,0.1,0.2,0.1
		c0.2,0,0.5-0.3,0.5-0.3c4-3.1,7.6-7.1,10.6-12.1c12.9-21.1-1.8-54.1-29.8-54.1c-18.3,0-33.5,12.9-37.2,30c4.5,4.8,10.3,8,16.7,9.1
		c1.1,0.2,2.3,0.4,3.5,0.6c0.2-0.6,0.5-1.2,1-1.8c1.2-1.7,3.1-3.2,4.9-4.3c3.1-2,4.4-0.9,0.8-3.3c-8.3-5.6-6.2-16.9,8.8-18.6
		c4.7-0.5,11.5-0.2,15.4,2.7c6,4.5-0.8,10.6-4.5,6.5c-1.7-1.8-3.4-8.8-11.2-6.6c-5,1.4-6.9,7.2-5.3,11.9c2.1,6.1,8.5,4.7,13.3,4.4
		c4.6-0.3,4.2,3.3,0.5,3.2c-3-0.1-5.1-0.9-8.2-0.4C423.5,832.3,421.4,835.9,421.4,840.1z"/>
	<linearGradient id="SVGID_2_" gradientUnits="userSpaceOnUse" x1="421.1272" y1="822.2855" x2="445.2747" y2="860.6815">
		<stop  offset="0" style="stop-color:#74BB44"/>
		<stop  offset="1" style="stop-color:#196332"/>
	</linearGradient>
	<path class="st2" d="M421,865.3c4,3.6,8.5,6.6,14.2,8.4c18.5-2.6,32.7-18.5,32.7-37.7c0-11.3-4.9-21.4-12.7-28.4
		c19.6,23.7,9.9,47.8-6.8,58.3c0,0,0,0,0,0c-3.9-1.3-7.3-3.7-11.4-8.6c-0.7-0.9-1.4-1.8-2.2-2.8c-1.2-1.6-2.5-3.5-3.8-5.6
		c-4-5.1-10.4-7.4-16.5-8.8c-2-0.5-3.9-0.8-5.9-1.2c-6.4-1.1-12-4.2-16.5-9c-0.3,2-0.5,4-0.5,6.1c0,21,17.1,38.1,38.1,38.1
		c0.9,0,1.9,0,2.8-0.1c-5.3-2.2-9.8-5.1-13.4-8.7c-3.5-3.6-6.4-7.5-9-11.5C413.4,858.1,417,862,421,865.3z"/>
	<g>
		<path class="st3" d="M481.9,854.5v-29.2c0-0.4,0.1-0.7,0.4-0.9c0.3-0.2,0.6-0.4,0.9-0.4h13c2.5,0,4.5,0.8,6.1,2.3
			c1.6,1.5,2.4,3.5,2.4,5.8c0,1.3-0.3,2.5-0.9,3.6c-0.6,1.1-1.4,2-2.5,2.8c1.7,0.7,3.1,1.8,4.1,3.3c1,1.5,1.6,3.1,1.6,4.8
			c0,2.5-1,4.6-2.9,6.4c-2,1.8-4.3,2.7-7.1,2.7h-13.8c-0.4,0-0.7-0.1-0.9-0.4C482,855.1,481.9,854.8,481.9,854.5L481.9,854.5z
			 M484.5,853.2H497c2.1,0,3.8-0.6,5.3-1.9c1.5-1.3,2.2-2.8,2.2-4.6c0-1.8-0.7-3.3-2.2-4.6c-1.5-1.3-3.2-1.9-5.3-1.9h-12.5V853.2
			L484.5,853.2z M484.5,837.7h11.4c1.7,0,3.2-0.5,4.4-1.5c1.3-1,1.9-2.3,1.9-4.1c0-1.2-0.3-2.3-0.9-3.1c-0.6-0.9-1.3-1.5-2.2-1.9
			c-0.9-0.4-1.8-0.6-2.8-0.6h-11.8V837.7z"/>
		<path class="st4" d="M497,855.9h-13.8c-0.4,0-0.7-0.1-1-0.4c-0.3-0.3-0.4-0.6-0.4-1v-29.2c0-0.4,0.1-0.7,0.4-1
			c0.3-0.3,0.6-0.4,1-0.4h13c2.5,0,4.6,0.8,6.2,2.3c1.6,1.5,2.4,3.5,2.4,6c0,1.3-0.3,2.6-0.9,3.7c-0.5,1-1.3,1.9-2.3,2.7
			c1.6,0.8,2.9,1.8,3.9,3.2c1.1,1.5,1.6,3.1,1.6,4.9c0,2.5-1,4.7-3,6.5C502.2,855,499.7,855.9,497,855.9z M483.2,824.2
			c-0.3,0-0.6,0.1-0.8,0.3c-0.2,0.2-0.3,0.5-0.3,0.8v29.2c0,0.3,0.1,0.6,0.3,0.8c0.2,0.2,0.5,0.3,0.8,0.3H497c2.7,0,5-0.9,7-2.6
			c1.9-1.7,2.9-3.8,2.9-6.3c0-1.7-0.5-3.3-1.5-4.7c-1-1.4-2.4-2.5-4-3.2l-0.3-0.1l0.2-0.2c1-0.8,1.8-1.7,2.4-2.7
			c0.6-1.1,0.9-2.3,0.9-3.6c0-2.3-0.8-4.2-2.3-5.7c-1.5-1.5-3.6-2.2-6-2.2H483.2z M497,853.4h-12.7V840H497c2.1,0,3.9,0.6,5.4,1.9
			c1.5,1.3,2.3,2.9,2.3,4.7c0,1.8-0.8,3.4-2.3,4.7C500.9,852.7,499.1,853.4,497,853.4z M484.6,853H497c2,0,3.7-0.6,5.2-1.9
			c1.4-1.2,2.1-2.7,2.1-4.5c0-1.8-0.7-3.2-2.1-4.5c-1.4-1.2-3.2-1.8-5.2-1.8h-12.3V853z M495.8,837.8h-11.5v-11.5h11.9
			c1,0,2,0.2,2.9,0.6c0.9,0.4,1.7,1,2.3,1.9c0.6,0.9,0.9,2,0.9,3.2c0,1.8-0.7,3.2-1.9,4.2C499.1,837.3,497.5,837.8,495.8,837.8z
			 M484.6,837.5h11.2c1.7,0,3.1-0.5,4.3-1.4c1.2-0.9,1.8-2.3,1.8-3.9c0-1.2-0.3-2.2-0.9-3c-0.6-0.8-1.3-1.4-2.1-1.8
			c-0.8-0.4-1.8-0.6-2.8-0.6h-11.6V837.5z"/>
	</g>
	<g>
		<path class="st3" d="M537,839.4c0-3,0.7-5.7,2.2-8.2c1.5-2.5,3.4-4.5,5.9-5.9c2.5-1.5,5.2-2.2,8.2-2.2s5.7,0.7,8.2,2.2
			c2.5,1.5,4.5,3.4,5.9,5.9c1.5,2.5,2.2,5.2,2.2,8.2c0,2.2-0.4,4.3-1.3,6.3c-0.9,2-2,3.8-3.5,5.2c-1.5,1.5-3.2,2.6-5.2,3.5
			c-2,0.9-4.1,1.3-6.3,1.3s-4.3-0.4-6.3-1.3c-2-0.9-3.7-2-5.2-3.5c-1.5-1.5-2.6-3.2-3.5-5.2C537.4,843.7,537,841.6,537,839.4
			L537,839.4z M540.7,834.1c-0.7,1.7-1.1,3.5-1.1,5.3c0,1.9,0.4,3.6,1.1,5.3c0.7,1.7,1.7,3.2,2.9,4.4c1.2,1.2,2.7,2.2,4.4,2.9
			c1.7,0.7,3.5,1.1,5.3,1.1s3.6-0.4,5.3-1.1c1.7-0.7,3.2-1.7,4.4-2.9c1.2-1.2,2.2-2.7,2.9-4.4c0.7-1.7,1.1-3.5,1.1-5.3
			c0-1.9-0.4-3.6-1.1-5.3c-0.7-1.7-1.7-3.1-2.9-4.4c-1.2-1.2-2.7-2.2-4.4-2.9c-1.7-0.7-3.5-1.1-5.3-1.1s-3.6,0.4-5.3,1.1
			c-1.7,0.7-3.2,1.7-4.4,2.9C542.4,830.9,541.4,832.4,540.7,834.1z"/>
		<path class="st4" d="M553.3,855.9c-2.2,0-4.4-0.4-6.4-1.3c-2-0.9-3.8-2.1-5.3-3.5c-1.5-1.5-2.7-3.2-3.5-5.3
			c-0.9-2-1.3-4.2-1.3-6.4c0-3,0.7-5.7,2.2-8.3c1.5-2.5,3.5-4.6,6-6c2.5-1.5,5.3-2.2,8.3-2.2c3,0,5.8,0.7,8.3,2.2
			c2.5,1.5,4.5,3.5,6,6c1.5,2.5,2.2,5.3,2.2,8.3c0,2.2-0.4,4.4-1.3,6.4c-0.9,2-2.1,3.8-3.5,5.3c-1.5,1.5-3.2,2.7-5.3,3.5
			C557.7,855.5,555.5,855.9,553.3,855.9z M553.3,823.2c-2.9,0-5.6,0.7-8.1,2.2c-2.5,1.4-4.4,3.4-5.9,5.9c-1.4,2.5-2.2,5.2-2.2,8.1
			c0,2.2,0.4,4.3,1.3,6.3c0.9,2,2,3.7,3.4,5.2c1.4,1.4,3.2,2.6,5.1,3.5c2,0.9,4.1,1.3,6.3,1.3c2.2,0,4.3-0.4,6.3-1.3
			c2-0.9,3.7-2,5.1-3.5c1.4-1.4,2.6-3.2,3.4-5.2c0.9-2,1.3-4.1,1.3-6.3c0-2.9-0.7-5.6-2.2-8.1c-1.4-2.5-3.4-4.5-5.9-5.9
			C558.9,824,556.2,823.2,553.3,823.2z M553.3,853.3c-1.9,0-3.7-0.4-5.4-1.1c-1.7-0.7-3.2-1.7-4.4-3c-1.2-1.2-2.2-2.7-3-4.4
			c-0.7-1.7-1.1-3.5-1.1-5.4c0-1.9,0.4-3.7,1.1-5.4c0.7-1.7,1.7-3.2,3-4.4c1.2-1.2,2.7-2.2,4.4-3c1.7-0.7,3.5-1.1,5.4-1.1
			c1.9,0,3.7,0.4,5.4,1.1c1.7,0.7,3.2,1.7,4.4,3c1.2,1.2,2.2,2.7,3,4.4c0.7,1.7,1.1,3.5,1.1,5.4c0,1.9-0.4,3.7-1.1,5.4
			c-0.7,1.7-1.7,3.2-3,4.4c-1.2,1.2-2.7,2.2-4.4,3C557,852.9,555.2,853.3,553.3,853.3z M553.3,825.9c-1.8,0-3.6,0.4-5.3,1.1
			c-1.7,0.7-3.1,1.7-4.3,2.9c-1.2,1.2-2.2,2.7-2.9,4.3c-0.7,1.7-1.1,3.4-1.1,5.2c0,1.8,0.4,3.6,1.1,5.3c0.7,1.7,1.7,3.1,2.9,4.3
			c1.2,1.2,2.7,2.2,4.3,2.9c1.7,0.7,3.4,1.1,5.3,1.1c1.8,0,3.6-0.4,5.3-1.1c1.7-0.7,3.1-1.7,4.3-2.9c1.2-1.2,2.2-2.7,2.9-4.3
			c0.7-1.7,1.1-3.4,1.1-5.3c0-1.8-0.4-3.6-1.1-5.2c-0.7-1.7-1.7-3.1-2.9-4.3c-1.2-1.2-2.7-2.2-4.3-2.9
			C556.9,826.2,555.1,825.9,553.3,825.9z"/>
	</g>
	<g>
		<path class="st3" d="M583,838.7c-1.8-1.7-2.7-3.7-2.7-6.1c0-2.4,0.9-4.4,2.7-6.1c1.8-1.7,3.9-2.5,6.4-2.5h12.6
			c0.4,0,0.7,0.1,0.9,0.4c0.3,0.2,0.4,0.5,0.4,0.9c0,0.4-0.1,0.7-0.4,0.9c-0.3,0.3-0.6,0.4-0.9,0.4h-12.6c-1.8,0-3.3,0.6-4.6,1.8
			c-1.3,1.2-1.9,2.6-1.9,4.3c0,1.7,0.6,3.1,1.9,4.3c1.3,1.2,2.8,1.8,4.6,1.8h6.6h0.1c2.5,0,4.6,0.9,6.4,2.5c1.8,1.7,2.6,3.7,2.6,6
			c0,2.4-0.9,4.4-2.7,6c-1.8,1.7-3.9,2.5-6.4,2.5h-13.7c-0.4,0-0.7-0.1-0.9-0.4c-0.2-0.2-0.4-0.5-0.4-0.9c0-0.4,0.1-0.7,0.4-0.9
			c0.2-0.3,0.5-0.4,0.9-0.4h13.7c1.8,0,3.3-0.6,4.6-1.8s1.9-2.6,1.9-4.2c0-1.7-0.6-3.1-1.9-4.2c-1.3-1.2-2.8-1.8-4.6-1.8h-6.6
			C587,841.2,584.8,840.3,583,838.7z"/>
		<path class="st5" d="M596.1,855.9h-13.7c-0.4,0-0.7-0.1-1-0.4c-0.3-0.3-0.4-0.6-0.4-1c0-0.4,0.1-0.8,0.4-1c0.3-0.3,0.6-0.4,1-0.4
			h13.7c1.8,0,3.3-0.6,4.5-1.7c1.2-1.1,1.9-2.5,1.9-4.1c0-1.6-0.6-3-1.9-4.1c-1.2-1.1-2.8-1.7-4.5-1.7h-6.6c-2.5,0-4.7-0.9-6.5-2.6
			c-1.8-1.7-2.7-3.8-2.7-6.2c0-2.4,0.9-4.5,2.7-6.2c1.8-1.7,4-2.6,6.5-2.6h12.6c0.4,0,0.8,0.1,1,0.4c0.3,0.3,0.4,0.6,0.4,1
			c0,0.4-0.1,0.7-0.4,1c-0.3,0.3-0.6,0.4-1,0.4h-12.6c-1.7,0-3.3,0.6-4.5,1.7c-1.3,1.2-1.9,2.5-1.9,4.1c0,1.6,0.6,3,1.9,4.1
			c1.2,1.1,2.8,1.7,4.5,1.7h6.7c2.5,0,4.7,0.9,6.5,2.6c1.8,1.7,2.7,3.8,2.7,6.1c0,2.4-0.9,4.5-2.7,6.2
			C600.8,855,598.6,855.9,596.1,855.9z M582.4,853.4c-0.3,0-0.6,0.1-0.8,0.3c-0.2,0.2-0.3,0.5-0.3,0.8c0,0.3,0.1,0.6,0.3,0.8
			c0.2,0.2,0.5,0.3,0.8,0.3h13.7c2.4,0,4.6-0.8,6.3-2.5c1.7-1.6,2.6-3.6,2.6-5.9c0-2.3-0.9-4.3-2.6-5.9c-1.7-1.6-3.8-2.5-6.3-2.5
			h-6.7c-1.8,0-3.4-0.6-4.8-1.8c-1.3-1.2-2-2.7-2-4.4c0-1.7,0.7-3.2,2-4.4c1.3-1.2,2.9-1.8,4.7-1.8h12.6c0.3,0,0.6-0.1,0.8-0.3
			c0.2-0.2,0.3-0.5,0.3-0.8s-0.1-0.6-0.3-0.8c-0.2-0.2-0.5-0.3-0.8-0.3h-12.6c-2.4,0-4.6,0.8-6.3,2.5c-1.7,1.6-2.6,3.6-2.6,5.9
			c0,2.3,0.9,4.3,2.6,5.9c1.7,1.6,3.9,2.5,6.3,2.5h6.6c1.8,0,3.4,0.6,4.8,1.8c1.3,1.2,2,2.7,2,4.4c0,1.7-0.7,3.2-2,4.4
			c-1.3,1.2-2.9,1.8-4.7,1.8H582.4z"/>
	</g>
	<g>
		<g>
			<path class="st3" d="M520.8,854.5v-29.2c0-0.4,0.1-0.7,0.4-0.9c0.2-0.2,0.5-0.4,0.9-0.4c0.4,0,0.7,0.1,0.9,0.4
				c0.3,0.3,0.4,0.5,0.4,0.9v29.2c0,0.4-0.1,0.7-0.4,0.9c-0.2,0.2-0.5,0.4-0.9,0.4c-0.4,0-0.7-0.1-0.9-0.4
				C520.9,855.1,520.8,854.8,520.8,854.5z"/>
			<path class="st4" d="M522.1,855.9c-0.4,0-0.8-0.1-1-0.4c-0.3-0.3-0.4-0.6-0.4-1v-29.2c0-0.4,0.1-0.7,0.4-1c0.3-0.3,0.6-0.4,1-0.4
				c0.4,0,0.8,0.1,1,0.4c0.3,0.3,0.4,0.6,0.4,1v29.2c0,0.4-0.1,0.7-0.4,1C522.8,855.8,522.5,855.9,522.1,855.9z M522.1,824.2
				c-0.3,0-0.6,0.1-0.8,0.3c-0.2,0.2-0.3,0.5-0.3,0.8v29.2c0,0.3,0.1,0.6,0.3,0.8c0.2,0.2,0.5,0.3,0.8,0.3c0.3,0,0.6-0.1,0.8-0.3
				c0.2-0.2,0.3-0.5,0.3-0.8v-29.2c0-0.3-0.1-0.6-0.3-0.8C522.7,824.3,522.4,824.2,522.1,824.2z"/>
		</g>
		<linearGradient id="SVGID_3_" gradientUnits="userSpaceOnUse" x1="521.6492" y1="817.8784" x2="534.2282" y2="813.4412">
			<stop  offset="0" style="stop-color:#3B9D47"/>
			<stop  offset="0.1802" style="stop-color:#56A846"/>
			<stop  offset="0.3911" style="stop-color:#67B245"/>
			<stop  offset="0.6372" style="stop-color:#71B844"/>
			<stop  offset="1" style="stop-color:#74BB44"/>
		</linearGradient>
		<path class="st6" d="M526.2,822.8c-1.4,0.4-2.8,0.4-4.3,0.3c1.2-3.3,3.1-4.7,5.3-6.4c1.3-1,2.6-2,4-3.6l0,0
			c0.7-0.9,1.2-1.9,1.6-2.9c0.3-0.9,0.5-1.8,0.7-2.8c0.4,1.8,0.4,3.6,0,5.5c-0.4,2.1-1.4,4.3-3,6.6
			C529.1,821.4,527.7,822.3,526.2,822.8L526.2,822.8z M533.2,807.3c-0.1,0.1-0.2,0.2-0.4,0.4c0,0-0.1,0.1-0.1,0.1c0,0-0.1,0-0.1,0.1
			c-0.1,0.1-0.1,0.1-0.2,0.2c-0.1,0.1-0.1,0.1-0.2,0.2c-0.2,0.2-0.5,0.3-0.7,0.5c-0.6,0.3-1.1,0.6-1.7,0.9c-0.3,0.1-0.6,0.3-0.9,0.4
			c-1.8,0.8-3.8,1.7-5.3,3.1l0,0l0,0c-1.2,1.2-2,2.6-2.2,4.2c-0.3,1.6-0.1,3.4,0.4,5.3l0.1,0.2c1.3-3.2,3.1-4.6,5.3-6.3
			c1.3-1,2.6-2,4-3.6c0.7-0.9,1.2-1.8,1.5-2.8C532.9,809.1,533.1,808.2,533.2,807.3z"/>
	</g>
</g>
<g>
	<path class="st7" d="M319.2,529.4c0-2.5,0.4-4.6,1.2-6.3c0.6-1.3,1.4-2.4,2.3-3.4c1-1,2.1-1.7,3.3-2.2c1.6-0.7,3.4-1,5.4-1
		c3.7,0,6.7,1.1,8.9,3.4c2.2,2.3,3.3,5.4,3.3,9.4c0,4-1.1,7.1-3.3,9.4c-2.2,2.3-5.2,3.4-8.9,3.4c-3.7,0-6.7-1.1-8.9-3.4
		C320.3,536.4,319.2,533.4,319.2,529.4z M324.5,529.3c0,2.8,0.7,4.9,2,6.4c1.3,1.4,3,2.2,5,2.2c2,0,3.7-0.7,5-2.1
		c1.3-1.4,2-3.6,2-6.4c0-2.8-0.6-4.9-1.9-6.3c-1.3-1.4-2.9-2.1-5-2.1c-2.1,0-3.8,0.7-5.1,2.1S324.5,526.4,324.5,529.3z"/>
	<path class="st7" d="M347.4,533.6l4.9-0.5c0.3,1.6,0.9,2.8,1.8,3.6c0.9,0.8,2.1,1.1,3.7,1.1c1.6,0,2.9-0.3,3.7-1
		c0.8-0.7,1.2-1.5,1.2-2.4c0-0.6-0.2-1.1-0.5-1.5c-0.3-0.4-1-0.8-1.8-1.1c-0.6-0.2-2-0.6-4.1-1.1c-2.7-0.7-4.6-1.5-5.7-2.4
		c-1.5-1.4-2.3-3-2.3-5c0-1.3,0.4-2.4,1.1-3.5c0.7-1.1,1.8-1.9,3.1-2.5c1.4-0.6,3-0.9,5-0.9c3.2,0,5.5,0.7,7.1,2
		c1.6,1.4,2.4,3.2,2.5,5.4l-5.1,0.2c-0.2-1.3-0.7-2.2-1.4-2.7c-0.7-0.6-1.8-0.8-3.2-0.8c-1.5,0-2.6,0.3-3.5,0.9
		c-0.5,0.4-0.8,0.9-0.8,1.5c0,0.6,0.3,1.1,0.8,1.5c0.6,0.5,2.2,1.1,4.7,1.7c2.5,0.6,4.3,1.2,5.5,1.8c1.2,0.6,2.1,1.4,2.8,2.5
		c0.7,1.1,1,2.4,1,3.9c0,1.4-0.4,2.7-1.2,4c-0.8,1.2-1.9,2.2-3.4,2.8c-1.5,0.6-3.3,0.9-5.5,0.9c-3.2,0-5.6-0.7-7.3-2.2
		C348.7,538.4,347.7,536.3,347.4,533.6z"/>
	<path class="st7" d="M373.1,541.6v-24.7h7.6l4.6,16.8l4.5-16.8h7.6v24.7h-4.7v-19.4l-5,19.4h-4.9l-5-19.4v19.4H373.1z"/>
	<path class="st7" d="M402.6,529.4c0-2.5,0.4-4.6,1.2-6.3c0.6-1.3,1.4-2.4,2.3-3.4c1-1,2.1-1.7,3.3-2.2c1.6-0.7,3.4-1,5.4-1
		c3.7,0,6.7,1.1,8.9,3.4c2.2,2.3,3.3,5.4,3.3,9.4c0,4-1.1,7.1-3.3,9.4c-2.2,2.3-5.2,3.4-8.9,3.4c-3.7,0-6.7-1.1-8.9-3.4
		C403.7,536.4,402.6,533.4,402.6,529.4z M407.8,529.3c0,2.8,0.7,4.9,2,6.4c1.3,1.4,3,2.2,5,2.2c2,0,3.7-0.7,5-2.1
		c1.3-1.4,2-3.6,2-6.4c0-2.8-0.6-4.9-1.9-6.3c-1.3-1.4-2.9-2.1-5-2.1c-2.1,0-3.8,0.7-5.1,2.1S407.8,526.4,407.8,529.3z"/>
	<path class="st7" d="M442.9,541.6v-24.7h10.7c2.7,0,4.6,0.2,5.9,0.7c1.2,0.4,2.2,1.2,2.9,2.4c0.7,1.1,1.1,2.4,1.1,3.9
		c0,1.9-0.6,3.4-1.7,4.6c-1.1,1.2-2.8,2-5,2.3c1.1,0.6,2,1.3,2.7,2.1c0.7,0.8,1.7,2.1,2.9,4l3.1,4.8h-6.1l-3.7-5.4
		c-1.3-1.9-2.2-3.1-2.7-3.6c-0.5-0.5-1-0.8-1.5-1c-0.5-0.2-1.4-0.3-2.6-0.3h-1v10.3H442.9z M448,527.4h3.8c2.4,0,4-0.1,4.6-0.3
		c0.6-0.2,1.1-0.6,1.4-1c0.3-0.5,0.5-1.1,0.5-1.9c0-0.8-0.2-1.5-0.7-2c-0.5-0.5-1.1-0.8-1.9-1c-0.4-0.1-1.6-0.1-3.7-0.1h-4V527.4z"
		/>
	<path class="st7" d="M469.3,541.6v-24.7H488v4.2h-13.6v5.5h12.6v4.2h-12.6v6.7h14.1v4.2H469.3z"/>
	<path class="st7" d="M505.6,532.5v-4.2h11v9.8c-1.1,1-2.6,1.9-4.6,2.7c-2,0.8-4.1,1.2-6.1,1.2c-2.6,0-4.9-0.5-6.9-1.6
		c-2-1.1-3.4-2.6-4.4-4.6c-1-2-1.5-4.2-1.5-6.6c0-2.6,0.5-4.9,1.6-6.9c1.1-2,2.7-3.5,4.8-4.6c1.6-0.8,3.6-1.2,6-1.2
		c3.1,0,5.6,0.6,7.3,1.9c1.8,1.3,2.9,3.1,3.4,5.3l-5.1,0.9c-0.4-1.2-1-2.2-2-2.9c-1-0.7-2.2-1.1-3.7-1.1c-2.2,0-4,0.7-5.3,2.1
		c-1.3,1.4-2,3.4-2,6.1c0,2.9,0.7,5.1,2,6.6c1.3,1.5,3.1,2.2,5.2,2.2c1.1,0,2.1-0.2,3.2-0.6c1.1-0.4,2-0.9,2.8-1.5v-3.1H505.6z"/>
	<path class="st7" d="M522.2,516.9h5.1v13.4c0,2.1,0.1,3.5,0.2,4.1c0.2,1,0.7,1.8,1.6,2.4c0.8,0.6,1.9,0.9,3.4,0.9
		c1.4,0,2.5-0.3,3.3-0.9c0.7-0.6,1.2-1.3,1.3-2.1c0.1-0.8,0.2-2.2,0.2-4.2v-13.7h5.1v13c0,3-0.1,5.1-0.4,6.3
		c-0.3,1.2-0.8,2.3-1.5,3.1s-1.7,1.5-3,2c-1.2,0.5-2.9,0.8-4.8,0.8c-2.4,0-4.2-0.3-5.5-0.8s-2.2-1.3-2.9-2.1
		c-0.7-0.9-1.2-1.8-1.4-2.7c-0.3-1.4-0.5-3.5-0.5-6.3V516.9z"/>
	<path class="st7" d="M548.9,541.6v-24.5h5.1v20.3h12.6v4.2H548.9z"/>
	<path class="st7" d="M594,541.6h-5.5l-2.2-5.6h-10.1l-2.1,5.6h-5.4l9.8-24.7h5.4L594,541.6z M584.7,531.8l-3.5-9.2l-3.4,9.2H584.7z
		"/>
	<path class="st7" d="M597.8,516.9h9.3c2.1,0,3.7,0.2,4.8,0.5c1.5,0.4,2.7,1.2,3.8,2.3s1.9,2.4,2.4,4c0.5,1.6,0.8,3.5,0.8,5.8
		c0,2-0.3,3.8-0.8,5.3c-0.6,1.8-1.5,3.3-2.7,4.4c-0.9,0.8-2.1,1.5-3.6,2c-1.1,0.3-2.6,0.5-4.5,0.5h-9.6V516.9z M602.8,521.1v16.4
		h3.8c1.4,0,2.4-0.1,3.1-0.2c0.8-0.2,1.5-0.5,2.1-1c0.5-0.5,1-1.3,1.3-2.4c0.3-1.1,0.5-2.6,0.5-4.5c0-1.9-0.2-3.4-0.5-4.4
		c-0.3-1-0.8-1.8-1.4-2.4c-0.6-0.6-1.4-1-2.4-1.2c-0.7-0.2-2.1-0.2-4.2-0.2H602.8z"/>
	<path class="st7" d="M623.2,529.4c0-2.5,0.4-4.6,1.2-6.3c0.6-1.3,1.4-2.4,2.3-3.4c1-1,2.1-1.7,3.3-2.2c1.6-0.7,3.4-1,5.4-1
		c3.7,0,6.7,1.1,8.9,3.4c2.2,2.3,3.3,5.4,3.3,9.4c0,4-1.1,7.1-3.3,9.4s-5.2,3.4-8.9,3.4c-3.7,0-6.7-1.1-8.9-3.4
		C624.3,536.4,623.2,533.4,623.2,529.4z M628.5,529.3c0,2.8,0.7,4.9,2,6.4c1.3,1.4,3,2.2,5,2.2c2,0,3.7-0.7,5-2.1
		c1.3-1.4,2-3.6,2-6.4c0-2.8-0.6-4.9-1.9-6.3c-1.3-1.4-2.9-2.1-5-2.1c-2.1,0-3.8,0.7-5.1,2.1S628.5,526.4,628.5,529.3z"/>
	<path class="st7" d="M652.7,541.6v-24.7h10.7c2.7,0,4.6,0.2,5.9,0.7s2.2,1.2,2.9,2.4c0.7,1.1,1.1,2.4,1.1,3.9
		c0,1.9-0.6,3.4-1.7,4.6c-1.1,1.2-2.8,2-5,2.3c1.1,0.6,2,1.3,2.7,2.1c0.7,0.8,1.7,2.1,2.9,4l3.1,4.8h-6.1l-3.7-5.4
		c-1.3-1.9-2.2-3.1-2.7-3.6c-0.5-0.5-1-0.8-1.5-1c-0.5-0.2-1.4-0.3-2.6-0.3h-1v10.3H652.7z M657.8,527.4h3.8c2.4,0,4-0.1,4.6-0.3
		c0.6-0.2,1.1-0.6,1.4-1c0.3-0.5,0.5-1.1,0.5-1.9c0-0.8-0.2-1.5-0.7-2c-0.5-0.5-1.1-0.8-1.9-1c-0.4-0.1-1.7-0.1-3.7-0.1h-4V527.4z"
		/>
	<path class="st7" d="M397.7,566.3c0-2.5,0.4-4.6,1.2-6.3c0.6-1.3,1.4-2.4,2.3-3.4c1-1,2.1-1.7,3.3-2.2c1.6-0.7,3.4-1,5.4-1
		c3.7,0,6.7,1.1,8.9,3.4c2.2,2.3,3.3,5.4,3.3,9.4c0,4-1.1,7.1-3.3,9.4c-2.2,2.3-5.2,3.4-8.9,3.4c-3.7,0-6.7-1.1-8.9-3.4
		C398.8,573.3,397.7,570.2,397.7,566.3z M402.9,566.1c0,2.8,0.7,4.9,2,6.4c1.3,1.4,3,2.2,5,2.2c2,0,3.7-0.7,5-2.1
		c1.3-1.4,2-3.6,2-6.4c0-2.8-0.6-4.9-1.9-6.3c-1.3-1.4-2.9-2.1-5-2.1c-2.1,0-3.8,0.7-5.1,2.1C403.6,561.1,402.9,563.3,402.9,566.1z"
		/>
	<path class="st7" d="M427.1,578.5v-24.7h10.7c2.7,0,4.6,0.2,5.9,0.7c1.2,0.4,2.2,1.2,2.9,2.4c0.7,1.1,1.1,2.4,1.1,3.9
		c0,1.9-0.6,3.4-1.7,4.6c-1.1,1.2-2.8,2-5,2.3c1.1,0.6,2,1.3,2.7,2.1c0.7,0.8,1.7,2.1,2.9,4l3.1,4.8h-6.1l-3.7-5.4
		c-1.3-1.9-2.2-3.1-2.7-3.6c-0.5-0.5-1-0.8-1.5-1c-0.5-0.2-1.4-0.3-2.6-0.3h-1v10.3H427.1z M432.2,564.2h3.8c2.4,0,4-0.1,4.6-0.3
		c0.6-0.2,1.1-0.5,1.4-1c0.3-0.5,0.5-1.1,0.5-1.9c0-0.8-0.2-1.5-0.7-2c-0.5-0.5-1.1-0.8-1.9-1c-0.4-0.1-1.6-0.1-3.7-0.1h-4V564.2z"
		/>
	<path class="st7" d="M465.3,569.4v-4.2h11v9.8c-1.1,1-2.6,1.9-4.6,2.7c-2,0.8-4.1,1.2-6.1,1.2c-2.6,0-4.9-0.5-6.9-1.6
		c-2-1.1-3.4-2.6-4.4-4.6c-1-2-1.5-4.2-1.5-6.6c0-2.6,0.5-4.9,1.6-6.9c1.1-2,2.7-3.5,4.8-4.6c1.6-0.8,3.6-1.2,6-1.2
		c3.1,0,5.6,0.6,7.3,1.9c1.8,1.3,2.9,3.1,3.4,5.3l-5.1,0.9c-0.4-1.2-1-2.2-2-2.9s-2.2-1.1-3.7-1.1c-2.2,0-4,0.7-5.3,2.1
		c-1.3,1.4-2,3.4-2,6.1c0,2.9,0.7,5.1,2,6.6c1.3,1.5,3.1,2.2,5.2,2.2c1.1,0,2.1-0.2,3.2-0.6c1.1-0.4,2-0.9,2.8-1.5v-3.1H465.3z"/>
	<path class="st7" d="M504.7,578.5h-5.5l-2.2-5.6h-10.1l-2.1,5.6h-5.4l9.8-24.7h5.4L504.7,578.5z M495.4,568.7l-3.5-9.2l-3.4,9.2
		H495.4z M489,552.4l2.4-5h5.4l-4.7,5H489z"/>
	<path class="st7" d="M508.6,578.5v-24.7h5l10.3,16.5v-16.5h4.7v24.7h-5.1l-10.2-16.1v16.1H508.6z"/>
	<path class="st7" d="M534.8,578.5v-24.7h5.1v24.7H534.8z"/>
	<path class="st7" d="M561.9,569.4l4.9,1.5c-0.8,2.7-2,4.7-3.8,6c-1.8,1.3-4,2-6.7,2c-3.3,0-6.1-1.1-8.2-3.4
		c-2.2-2.2-3.2-5.3-3.2-9.2c0-4.1,1.1-7.3,3.2-9.6c2.2-2.3,5-3.4,8.5-3.4c3.1,0,5.6,0.9,7.5,2.7c1.1,1.1,2,2.6,2.6,4.5l-5,1.2
		c-0.3-1.3-0.9-2.3-1.9-3c-0.9-0.7-2.1-1.1-3.4-1.1c-1.9,0-3.4,0.7-4.5,2c-1.2,1.3-1.7,3.4-1.7,6.4c0,3.1,0.6,5.3,1.7,6.7
		c1.1,1.3,2.6,2,4.5,2c1.4,0,2.5-0.4,3.5-1.3C560.8,572.5,561.5,571.2,561.9,569.4z"/>
	<path class="st7" d="M571.2,566.3c0-2.5,0.4-4.6,1.2-6.3c0.6-1.3,1.4-2.4,2.3-3.4c1-1,2.1-1.7,3.3-2.2c1.6-0.7,3.4-1,5.4-1
		c3.7,0,6.7,1.1,8.9,3.4c2.2,2.3,3.3,5.4,3.3,9.4c0,4-1.1,7.1-3.3,9.4c-2.2,2.3-5.2,3.4-8.9,3.4c-3.7,0-6.7-1.1-8.9-3.4
		C572.4,573.3,571.2,570.2,571.2,566.3z M576.5,566.1c0,2.8,0.7,4.9,2,6.4c1.3,1.4,3,2.2,5,2.2c2,0,3.7-0.7,5-2.1
		c1.3-1.4,2-3.6,2-6.4c0-2.8-0.6-4.9-1.9-6.3c-1.3-1.4-2.9-2.1-5-2.1c-2.1,0-3.8,0.7-5.1,2.1C577.1,561.1,576.5,563.3,576.5,566.1z"
		/>
</g>
<g>
	<g>
		<path class="st7" d="M639.5,415.7c2.3-6.4,5.5-12,9.7-16.8c4.2-4.8,9.4-8.5,15.6-11.3c6.1-2.7,13.1-4.1,20.8-4.1
			c7.8,0,14.7,1.4,20.8,4.1c6.1,2.7,11.3,6.5,15.5,11.3c4.2,4.8,7.5,10.4,9.7,16.8c2.3,6.4,3.4,13.4,3.4,20.9
			c0,7.3-1.1,14.2-3.4,20.5c-2.3,6.3-5.5,11.9-9.7,16.5c-4.2,4.7-9.4,8.4-15.5,11.1c-6.1,2.7-13.1,4-20.8,4c-7.7,0-14.6-1.3-20.8-4
			c-6.1-2.7-11.3-6.4-15.6-11.1c-4.2-4.7-7.5-10.2-9.7-16.5c-2.3-6.3-3.4-13.2-3.4-20.5C636.1,429.1,637.3,422.1,639.5,415.7z
			 M659.7,448.9c1,4,2.6,7.6,4.7,10.8c2.2,3.2,5,5.8,8.4,7.7c3.5,1.9,7.7,2.9,12.7,2.9c5,0,9.2-1,12.7-2.9c3.5-1.9,6.3-4.5,8.4-7.7
			c2.2-3.2,3.7-6.8,4.7-10.8c1-4,1.5-8.1,1.5-12.3c0-4.4-0.5-8.7-1.5-12.8c-1-4.1-2.6-7.8-4.7-11.1c-2.2-3.2-5-5.8-8.4-7.7
			c-3.5-1.9-7.7-2.9-12.7-2.9c-5,0-9.2,1-12.7,2.9c-3.5,1.9-6.3,4.5-8.4,7.7c-2.2,3.2-3.7,6.9-4.7,11.1c-1,4.1-1.5,8.4-1.5,12.8
			C658.3,440.8,658.8,445,659.7,448.9z"/>
		<path class="st7" d="M798.7,385.9c4.5,0,8.6,0.7,12.2,2.2c3.6,1.5,6.7,3.5,9.3,6c2.6,2.5,4.6,5.5,5.9,8.8c1.4,3.3,2,6.9,2,10.8
			c0,5.9-1.2,11-3.7,15.3c-2.5,4.3-6.5,7.6-12.2,9.9v0.3c2.7,0.8,5,1.9,6.8,3.4c1.8,1.5,3.2,3.4,4.4,5.5c1.1,2.1,1.9,4.4,2.5,7
			c0.5,2.5,0.9,5.1,1.1,7.6c0.1,1.6,0.2,3.5,0.3,5.6c0.1,2.2,0.3,4.4,0.5,6.6c0.2,2.3,0.6,4.4,1.1,6.4c0.5,2,1.3,3.7,2.3,5.1h-22.1
			c-1.2-3.2-2-7-2.3-11.4c-0.3-4.4-0.7-8.6-1.3-12.7c-0.8-5.3-2.3-9.1-4.8-11.5c-2.4-2.4-6.4-3.7-12-3.7h-22.1v39.3h-22.1V385.9
			H798.7z M790.8,431.4c5.1,0,8.9-1.1,11.4-3.4c2.5-2.3,3.8-5.9,3.8-11c0-4.9-1.3-8.4-3.8-10.6c-2.5-2.2-6.3-3.3-11.4-3.3h-24.2
			v28.3H790.8z"/>
	</g>
	<path class="st7" d="M219.1,457.4c0-17.5-50.9-15.1-50.9-49.9c0-18.3,16.1-32.6,38.9-32.6c18.4,0,29.9,8.5,33.6,13.2l-15,17.8
		c-2.7-3.3-9-10.2-20.6-10.2c-7.9,0-12.3,4.4-12.3,9.9c0,17.8,50.7,15.1,50.7,50.2c0,16.5-13.7,32.6-41.7,32.6
		c-21.3,0-34.5-9.5-38.3-13.7l13.7-19.8c4.7,4.7,14.3,13.2,27.7,13.2C214.6,468.1,219.1,463.2,219.1,457.4z"/>
	<path class="st7" d="M488.5,403.3c17.1,0,26.7,8.5,26.7,27.2v56.3H492v-52.4c0-9.5-5.2-12.7-11.2-12.7c-5.8,0-11.8,3.6-14.4,9.4
		v55.8h-23.2V436c0-9.5-4.3-14.3-12.3-14.3c-5.7,0-11.2,4.3-13.4,9.7v55.5h-23.2v-81.6h19.1l3.8,7.7h0.6c5.4-6.5,14.3-9.5,22.9-9.5
		c13.2,0,18.6,5.2,21.7,11h0.6C467.4,408.7,476.2,403.3,488.5,403.3z"/>
	<path class="st7" d="M592,430.8v32.6c0,4.6,1.8,6.6,6,6.6h2.5v15c-3.7,2.2-7.7,2.7-11.5,2.7c-8.3,0-13.1-3.8-15.7-8.8h-0.6
		c-3.2,4-9.7,9.1-22.1,9.1c-16.9,0-25.7-10.8-25.7-22.5c0-18.8,18-27.4,45.3-26.1v-6.4c0-9.1-5.4-11.8-12.4-11.8
		c-8.3,0-12.8,4.5-14.9,9.2l-16.4-11.4c3.4-4.5,12-15.3,31.2-15.3C579.8,403.8,592,411,592,430.8z M570.2,454.2
		c-15.2-1-22.7,2.3-22.7,9.4c0,4.6,3.4,7.9,9.4,7.9c5.7,0,10.8-2.5,13.4-5.8V454.2z"/>
	<path class="st7" d="M253,461v-38.8H242v-13.6l10.8-4.3v-19.2h22.7l0.1,20.6l20.1-0.1v16.6h-20.1v39.4c0,5.6,3.3,8.5,9,8.5
		c3.6,0,8.4-1.2,11.7-3.6l5.9,16.3c-2.9,2-9.6,5-23.8,5C263.6,487.8,253,480.7,253,461z"/>
	<rect x="600.7" y="435.8" class="st7" width="30.1" height="12.9"/>
	<g>
		<path class="st8" d="M330.3,487.4c-3,0-6.1-1-9-3c-2.9-1.5-6.7-5.8-8.4-8.9c-4.3-7.7-6.9-16.3-8.4-27.7
			c-1.7-15.2,2.2-31.2,10.8-43.9c3-5.2,9.3-8.6,15.9-8.6c6.2,0,11.3,3.1,13.5,8.3c2.5,5.8-1.1,12.7-4.3,18.7c-1.1,2-2.1,3.9-2.8,5.6
			c-3.4,8.4-3.4,18,0,26.4c0.7,1.7,1.7,3.5,2.8,5.4c3.1,5.4,7,12.1,3,19C341.3,483,336.7,487.4,330.3,487.4z M331.2,398.6
			c-5.6,0-11.1,2.9-13.6,7.2c-8,11.9-11.9,27.5-10.3,41.6c1.4,10.9,3.9,19.1,8,26.4c1.6,2.9,5.1,6.6,7.3,7.7l0.2,0.1
			c2.5,1.7,5.1,2.6,7.6,2.6c5.2,0,9.1-3.8,10.8-7.1c3-5.2,0.1-10.2-2.9-15.5c-1.2-2-2.3-3.9-3-5.8c-3.8-9.2-3.8-19.8,0-29.1
			c0.8-1.9,1.8-3.8,2.9-5.9c2.8-5.3,6-11.4,4.2-15.6C340.4,401,336.4,398.6,331.2,398.6z"/>
	</g>
	<path class="st8" d="M335.5,408.2c-0.3,1.4-2.7,2-5.4,1.2c-2.7-0.8-4.6-2.5-4.3-3.9c0.3-1.4,2.7-2,5.4-1.2
		C333.9,405,335.8,406.8,335.5,408.2z"/>
	<path class="st8" d="M333.6,416.4c1.2,0.5,1.5,3.3,0.5,6.3s-2.7,5-3.9,4.5c-1.2-0.5-1.5-3.3-0.5-6.3
		C330.7,417.9,332.4,415.9,333.6,416.4z"/>
	<path class="st8" d="M329.1,455.1c-1.3,0.3-2.8-1.9-3.4-5c-0.6-3.1-0.1-5.8,1.1-6.2s2.8,1.9,3.4,5
		C330.9,452,330.4,454.8,329.1,455.1z"/>
	<path class="st8" d="M335.9,474c-1.3,0.3-2.8-1.9-3.4-5c-0.6-3.1-0.1-5.8,1.1-6.2s2.8,1.9,3.4,5S337.1,473.7,335.9,474z"/>
	<ellipse transform="matrix(1 -1.093361e-03 1.093361e-03 1 -0.4818 0.3424)" class="st8" cx="313" cy="440.8" rx="2.3" ry="5.7"/>
	<path class="st8" d="M318.9,413.1c1.2,0.5,1.5,3.3,0.5,6.3c-0.9,3-2.7,5-3.9,4.5s-1.5-3.3-0.5-6.3
		C315.9,414.7,317.6,412.6,318.9,413.1z"/>
	<g>
		<g>
			<ellipse class="st9" cx="321.5" cy="433.2" rx="4.7" ry="6.2"/>
			<path class="st10" d="M321.5,439.9c-2.9,0-5.3-3-5.3-6.8s2.4-6.8,5.3-6.8s5.3,3,5.3,6.8S324.5,439.9,321.5,439.9z M321.5,427.6
				c-2.3,0-4.1,2.5-4.1,5.6s1.9,5.6,4.1,5.6s4.1-2.5,4.1-5.6S323.8,427.6,321.5,427.6z"/>
		</g>
		<ellipse class="st10" cx="321.5" cy="433.2" rx="1.5" ry="2"/>
	</g>
	<g>
		<g>
			
				<ellipse transform="matrix(0.3567 -0.9342 0.9342 0.3567 -186.9647 638.0128)" class="st9" cx="369.8" cy="454.8" rx="6.2" ry="4.7"/>
			<path class="st10" d="M368.9,461.4c-0.5,0-1-0.1-1.5-0.3c-1.4-0.5-2.4-1.7-2.8-3.3c-0.5-1.5-0.4-3.3,0.3-5
				c1.1-2.8,3.4-4.7,5.8-4.7c0.5,0,1,0.1,1.5,0.3c1.4,0.5,2.4,1.7,2.8,3.3c0.5,1.5,0.4,3.3-0.3,5
				C373.7,459.5,371.3,461.4,368.9,461.4z M370.7,449.3c-1.9,0-3.9,1.6-4.7,3.9c-0.5,1.4-0.6,2.9-0.3,4.2c0.4,1.2,1.1,2.1,2.1,2.5
				c2.1,0.8,4.8-0.9,5.9-3.7c0.5-1.4,0.6-2.9,0.3-4.2c-0.4-1.2-1.1-2.1-2.1-2.5C371.4,449.4,371.1,449.3,370.7,449.3z"/>
		</g>
		
			<ellipse transform="matrix(0.3567 -0.9342 0.9342 0.3567 -186.9647 638.0128)" class="st10" cx="369.8" cy="454.8" rx="2" ry="1.5"/>
	</g>
	<path class="st8" d="M337.2,422.4c0,0-7.4,27.7,0.7,37.9c6.9,8.8-0.8,0.3-0.8,0.3S321.6,442.1,337.2,422.4z"/>
	
		<ellipse transform="matrix(1.093361e-03 -1 1 1.093361e-03 -64.454 818.8155)" class="st8" cx="377.6" cy="441.7" rx="5.7" ry="2.3"/>
	<g>
		<path class="st8" d="M360.7,395.4c3,0,6.1,1,9,3c2.9,1.5,6.7,5.8,8.4,8.9c4.3,7.7,6.9,16.3,8.4,27.7c1.7,15.2-2.2,31.2-10.8,43.9
			c-3,5.2-9.3,8.6-15.9,8.6c-6.2,0-11.3-3.1-13.5-8.3c-2.5-5.8,1.1-12.7,4.3-18.7c1.1-2,2.1-3.9,2.8-5.6c3.4-8.4,3.4-18,0-26.4
			c-0.7-1.7-1.7-3.5-2.8-5.4c-3.1-5.4-7-12.1-3-19C349.7,399.9,354.3,395.4,360.7,395.4z M359.8,484.2c5.6,0,11.1-2.9,13.6-7.2
			c8-11.9,11.9-27.5,10.3-41.6c-1.4-10.9-3.9-19.1-8-26.4c-1.6-2.9-5.1-6.6-7.3-7.7l-0.2-0.1c-2.5-1.7-5.1-2.6-7.6-2.6
			c-5.2,0-9.1,3.8-10.8,7.1c-3,5.2-0.1,10.2,2.9,15.5c1.2,2,2.3,3.9,3,5.8c3.8,9.2,3.8,19.8,0,29.1c-0.8,1.9-1.8,3.8-2.9,5.9
			c-2.8,5.3-6,11.4-4.2,15.6C350.5,481.9,354.6,484.2,359.8,484.2z"/>
	</g>
	<path class="st8" d="M356.8,471.4c1-1.1,3.4-0.4,5.3,1.6c2,2,2.8,4.5,1.8,5.6c-1,1.1-3.4,0.4-5.3-1.6
		C356.7,474.9,355.9,472.5,356.8,471.4z"/>
	<path class="st8" d="M358.5,467.6c-1.2-0.5-1.5-3.3-0.5-6.3c0.9-3,2.7-5,3.9-4.5s1.5,3.3,0.5,6.3S359.7,468.1,358.5,467.6z"/>
	<path class="st8" d="M356.3,415.7c1.1-0.6,3.2,1.2,4.5,4c1.4,2.8,1.5,5.6,0.4,6.3c-1.1,0.6-3.2-1.2-4.5-4
		C355.3,419.2,355.2,416.4,356.3,415.7z"/>
	<path class="st8" d="M364.1,433.1c1.3-0.3,2.8,1.9,3.4,5c0.6,3.1,0.1,5.8-1.1,6.2s-2.8-1.9-3.4-5
		C362.3,436.2,362.8,433.4,364.1,433.1z"/>
	<path class="st8" d="M368.6,472.9c-1.1-0.6-1-3.5,0.3-6.3s3.3-4.6,4.4-4c1.1,0.6,1,3.5-0.3,6.3S369.8,473.5,368.6,472.9z"/>
	<path class="st8" d="M353.7,460.4c0,0,7.4-27.7-0.7-37.9c-6.9-8.8,0.8-0.3,0.8-0.3S369.3,440.8,353.7,460.4z"/>
	<g>
		<path class="st11" d="M363.4,417.1c0,0,0.7,0.7,1.5,2.9c1,2.7,2.3,6.2,2.9,7.7s2.1,3.2,2.5,3.5c0.5,0.3,4.6,2.2,6.5-0.7
			c1.9-2.9,1.3-3.6-0.1-9.4c-1.4-5.8-4.2-10.4-8-14c-3.9-3.8-10.2-5.2-11.5-3.4C355.8,405.6,355.2,409.3,363.4,417.1z"/>
		<path class="st7" d="M373.7,432.6L373.7,432.6c-1.7,0-3.3-0.7-3.7-1c-0.6-0.4-2.1-2.1-2.8-3.7c-0.6-1.6-2-5.1-3-7.7
			c-0.7-2-1.3-2.7-1.3-2.7c-6.5-6.2-8.6-10.9-6.2-14.1c0.5-0.7,1.5-1,2.8-1c2.6,0,6.7,1.5,9.7,4.3c4,3.8,6.7,8.6,8.1,14.3l0.4,1.8
			c1.1,4.2,1.4,5.3-0.4,8.1C376.5,432,375.3,432.6,373.7,432.6z M359.5,403.5c-0.9,0-1.5,0.2-1.8,0.6c-2.5,3.3,2,8.7,6.1,12.6
			c0.1,0.1,0.8,0.9,1.6,3.1c1,2.6,2.3,6.1,2.9,7.7c0.6,1.5,2,3,2.3,3.2c0.1,0.1,1.5,0.8,3,0.8l0,0c1.2,0,2.1-0.4,2.6-1.3
			c1.5-2.3,1.4-3,0.3-7.2l-0.4-1.8c-1.4-5.4-4-10-7.8-13.7C365.6,404.9,361.8,403.5,359.5,403.5z"/>
	</g>
	<g>
		<path class="st11" d="M319.8,473.3c0,0,2.6,2.8,4.9,4c1.5,0.8,7.1,5.5,6.1-0.8c-1-6.3-5.7-15.6-6.1-16.8c-0.4-1.2-2.3-4.5-2.8-5.6
			c-0.5-1.1-3.1-5.9-6.7-0.9S316.5,469.1,319.8,473.3z"/>
		<path class="st7" d="M329.7,480.3L329.7,480.3c-1.3,0-3-1.1-4.2-1.9c-0.4-0.3-0.7-0.5-0.9-0.6c-2.4-1.2-5-4-5.1-4.1
			c-3.6-4.6-8.4-15.7-4.7-20.9c1.2-1.6,2.4-2.5,3.6-2.5c2.2,0,3.7,2.7,4.1,3.5c0.2,0.4,0.5,1,0.9,1.7c0.8,1.5,1.7,3.1,2,4
			c0.1,0.2,0.4,0.9,0.8,1.8c1.5,3.3,4.5,10.1,5.4,15.1c0.3,1.6,0.1,2.7-0.4,3.3C330.8,480,330.4,480.3,329.7,480.3z M320.3,472.9
			c0,0,2.5,2.7,4.7,3.8c0.3,0.1,0.6,0.4,1.1,0.7c1.1,0.7,2.6,1.7,3.6,1.7h0c0.3,0,0.4-0.1,0.5-0.2c0.2-0.2,0.4-0.8,0.1-2.4
			c-0.8-4.9-3.8-11.6-5.3-14.8c-0.4-1-0.7-1.6-0.8-1.9c-0.2-0.7-1.2-2.5-1.9-3.8c-0.4-0.7-0.7-1.4-0.9-1.7c-0.2-0.5-1.4-2.8-3-2.8
			c-0.8,0-1.7,0.7-2.7,2C312.4,458.1,317,468.7,320.3,472.9L320.3,472.9z"/>
	</g>
</g>
</svg>
