<?xml version="1.0" encoding="utf-8"?>
<!-- Generator: Adobe Illustrator 20.0.0, SVG Export Plug-In . SVG Version: 6.00 Build 0)  -->
<svg version="1.1" id="Layer_1" xmlns="http://www.w3.org/2000/svg" xmlns:xlink="http://www.w3.org/1999/xlink" x="0px" y="0px"
	 viewBox="0 0 1200 1200" style="enable-background:new 0 0 1200 1200;" xml:space="preserve">
<style type="text/css">
	.st0{fill:none;stroke:#070606;stroke-miterlimit:10;}
	.st1{fill:#3F9984;}
	.st2{fill:#6C181E;}
	.st3{fill:#458EBF;}
	.st4{fill:#55B025;}
	.st5{fill:#FF4B00;}
	.st6{fill:#F82500;}
	.st7{fill:#FFFFFF;}
	.st8{fill:#006725;}
	.st9{fill:#6C993B;}
	.st10{fill:#57981F;}
	.st11{fill:#622914;}
	.st12{fill:#FEAE00;}
	.st13{fill:#486515;}
	.st14{fill:#486615;}
	.st15{font-family:'NissanAG-Medium';}
	.st16{font-size:20.9903px;}
	.st17{font-size:26.5877px;}
	.st18{font-size:23.091px;}
	.st19{font-size:16.7922px;}
	.st20{font-family:'NissanAG-Bold';}
	.st21{font-size:23.188px;}
	.st22{clip-path:url(#SVGID_2_);fill:#BA7036;}
	.st23{clip-path:url(#SVGID_2_);fill:#BCBBB0;}
	.st24{clip-path:url(#SVGID_2_);fill:#1D3432;}
	.st25{clip-path:url(#SVGID_2_);fill:#5B4849;}
	.st26{clip-path:url(#SVGID_2_);fill:#96988D;}
	.st27{clip-path:url(#SVGID_2_);fill:#A27653;}
</style>
<circle class="st0" cx="600" cy="600.4" r="595"/>
<g>
	<path class="st1" d="M684.3,207.5c0,0,3.6,1,9.1,2.6c5.5,1.6,12.7,3.9,19.8,6.5c7.1,2.5,14.2,5.3,19.4,7.5c5.2,2.2,8.7,3.7,8.7,3.7
		l-0.5,1.2c0,0-3.6-1.2-8.9-2.9c-5.4-1.7-12.6-3.7-19.9-5.5c-7.3-1.8-14.6-3.4-20.1-4.4c-5.5-1-9.2-1.6-9.2-1.6L684.3,207.5z"/>
	<g>
		<path class="st1" d="M753.4,233.6c-6.7-0.2-15.4,0.6-21.4,2.7l7.4-8.3l0.4-11.2C742.7,222.5,748.4,229.1,753.4,233.6z"/>
	</g>
</g>
<g>
	<path class="st1" d="M247.9,748.2c0,0-2.3-4.6-5.5-11.6c-3.2-7-7.3-16.5-10.9-26.2c-3.6-9.7-6.8-19.5-8.9-27
		c-2.2-7.5-3.4-12.5-3.4-12.5l7.2-1.5c0,0,0.8,5,2.4,12.5c1.5,7.5,3.9,17.4,6.7,27.2c2.8,9.8,6.1,19.5,8.8,26.7
		c2.7,7.2,4.6,12,4.6,12L247.9,748.2z"/>
	<g>
		<polygon class="st1" points="253.3,738.9 247.3,745.5 238.5,745.7 254,759.9 		"/>
	</g>
</g>
<g>
	<path class="st1" d="M219.1,507.2c0,0,1.3-5.2,3.6-13.1c2.2-7.8,5.6-18.2,9.4-28.3c3.8-10.1,8.1-20.1,11.5-27.4
		c3.4-7.3,5.9-12.1,5.9-12.1l1,0.5c0,0-2.1,4.9-5,12.5c-2.9,7.5-6.4,17.7-9.4,28c-3,10.3-5.6,20.7-7.2,28.5
		c-1.7,7.8-2.6,13.1-2.6,13.1L219.1,507.2z"/>
	<g>
		<polygon class="st1" points="256.9,412.4 255.6,436.1 249.7,427.6 239.4,428.4 		"/>
	</g>
</g>
<g>
	<path class="st1" d="M460.6,227.9c0,0,3.4-1.6,8.6-3.7c5.2-2.2,12.2-5,19.4-7.5c7.1-2.5,14.3-4.9,19.8-6.5c5.5-1.6,9.1-2.6,9.1-2.6
		l1.6,7.2c0,0-3.7,0.6-9.2,1.6c-5.5,1-12.8,2.6-20.1,4.4c-7.3,1.8-14.5,3.8-19.9,5.5c-5.4,1.6-8.9,2.9-8.9,2.9L460.6,227.9z"/>
	<g>
		<path class="st1" d="M448.5,233.6c6.7-0.2,15.4,0.6,21.4,2.7l-7.4-8.3l-0.4-11.2C459.2,222.5,453.5,229.1,448.5,233.6z"/>
	</g>
</g>
<g>
	<path class="st1" d="M951.4,424.2c0,0,2.6,4.9,6.1,12.4c3.6,7.5,8,17.6,11.9,28c3.9,10.3,7.4,20.9,9.7,28.9
		c2.3,8,3.7,13.4,3.7,13.4l-7.2,1.5c0,0-0.9-5.4-2.6-13.4c-1.7-8-4.3-18.6-7.5-29.1c-3.1-10.5-6.8-20.9-9.8-28.5
		c-3-7.7-5.2-12.7-5.2-12.7L951.4,424.2z"/>
	<g>
		<path class="st1" d="M945,412.4c0.6,6.7,0.3,15.4-1.4,21.5l7.9-7.9l11.1-1.1C956.7,422.4,949.8,417.1,945,412.4z"/>
	</g>
</g>
<g>
	<path class="st1" d="M982.7,671.4c0,0-1.2,4.9-3.4,12.4c-2.1,7.4-5.3,17.2-8.9,26.8c-3.6,9.6-7.6,19-10.8,26
		c-3.2,7-5.5,11.5-5.5,11.5l-0.9-0.4c0,0,1.9-4.7,4.6-11.9c2.7-7.2,5.9-16.8,8.7-26.6c2.8-9.8,5.2-19.6,6.7-27
		c1.5-7.4,2.4-12.4,2.4-12.4L982.7,671.4z"/>
	<g>
		<path class="st1" d="M947.9,759.9c0.5-6.7,0.1-15.4-1.7-21.5l8,7.8l11.1,0.9C959.5,749.8,952.7,755.2,947.9,759.9z"/>
	</g>
</g>
<g>
	<path class="st1" d="M745.9,948.3c0,0-3.8,1.8-9.7,4.3c-5.8,2.5-13.7,5.6-21.7,8.5c-8,2.8-16.1,5.4-22.2,7.2
		c-6.1,1.8-10.2,2.8-10.2,2.8l-1.5-7.2c0,0,4.1-0.7,10.3-1.8c6.2-1.2,14.3-3,22.5-5c8.1-2.1,16.2-4.5,22.2-6.4c6-1.9,10-3.4,10-3.4
		L745.9,948.3z"/>
	<g>
		<path class="st1" d="M758,942.6c-6.7,0.3-15.4-0.4-21.4-2.5l7.5,8.2l0.5,11.1C747.4,953.8,753.1,947.1,758,942.6z"/>
	</g>
</g>
<g>
	<path class="st1" d="M519.7,971.1c0,0-4.1-1-10.2-2.8c-6.1-1.8-14.2-4.3-22.2-7.2c-8-2.8-15.8-6-21.7-8.5c-5.8-2.5-9.7-4.3-9.7-4.3
		l0.5-1.1c0,0,4,1.4,10,3.4c6,1.9,14.1,4.3,22.2,6.4c8.1,2.1,16.3,3.9,22.5,5c6.1,1.2,10.3,1.8,10.3,1.8L519.7,971.1z"/>
	<g>
		<path class="st1" d="M443.9,942.6c6.7,0.3,15.4-0.4,21.4-2.5l-7.5,8.2l-0.5,11.1C454.5,953.8,448.8,947.1,443.9,942.6z"/>
	</g>
</g>
<path class="st2" d="M340,443c-0.2,0-0.5,0-0.7,0c-73.7-0.4-133.3-60.6-132.9-134.3c0.4-73.4,60.3-132.9,133.6-132.9
	c0.2,0,0.5,0,0.7,0c73.7,0.4,133.3,60.6,132.9,134.3C473.2,383.5,413.3,443,340,443z"/>
<path class="st2" d="M862,443c-0.2,0-0.5,0-0.7,0c-73.7-0.4-133.3-60.6-132.9-134.3c0.4-73.4,60.3-132.9,133.6-132.9
	c0.2,0,0.5,0,0.7,0c73.7,0.4,133.3,60.6,132.9,134.3C995.2,383.5,935.3,443,862,443z"/>
<path class="st2" d="M340,994.2c-0.2,0-0.5,0-0.7,0c-73.7-0.4-133.3-60.6-132.9-134.3c0.4-73.4,60.3-132.9,133.6-132.9
	c0.2,0,0.5,0,0.7,0c73.7,0.4,133.3,60.6,132.9,134.3C473.2,934.7,413.3,994.2,340,994.2z"/>
<path class="st2" d="M862,994.2c-0.2,0-0.5,0-0.7,0c-73.7-0.4-133.3-60.6-132.9-134.3c0.4-73.4,60.3-132.9,133.6-132.9
	c0.2,0,0.5,0,0.7,0c73.7,0.4,133.3,60.6,132.9,134.3C995.2,934.7,935.3,994.2,862,994.2z"/>
<path class="st3" d="M196.3,677c-0.2,0-0.3,0-0.5,0c-23.5-0.1-45.5-9.4-62.1-26.1c-16.5-16.7-25.6-38.8-25.4-62.3
	c0.3-48.3,39.7-87.5,87.9-87.5c0.2,0,0.3,0,0.5,0c23.5,0.1,45.5,9.4,62,26.1c16.5,16.7,25.6,38.8,25.4,62.3
	c-0.1,23.5-9.4,45.5-26.1,62.1C241.6,668,219.6,677,196.3,677z"/>
<path class="st4" d="M1013.3,680.3c-0.2,0-0.3,0-0.5,0c-23.5-0.1-45.5-9.4-62.1-26.1c-16.5-16.7-25.6-38.8-25.4-62.3
	c0.3-48.3,39.7-87.5,87.9-87.5c0.2,0,0.3,0,0.5,0c23.5,0.1,45.5,9.4,62.1,26.1c16.5,16.7,25.6,38.8,25.4,62.3
	c-0.1,23.5-9.4,45.5-26.1,62.1C1058.6,671.3,1036.6,680.3,1013.3,680.3z"/>
<path class="st5" d="M601.8,1095.3c-0.2,0-0.3,0-0.5,0c-23.5-0.1-45.5-9.4-62.1-26.1c-16.5-16.7-25.6-38.8-25.4-62.3
	c0.1-23.5,9.4-45.5,26.1-62c16.6-16.4,38.5-25.4,61.8-25.4c0.2,0,0.3,0,0.5,0c23.5,0.1,45.5,9.4,62.1,26.1
	c16.5,16.7,25.6,38.8,25.4,62.3c-0.1,23.5-9.4,45.5-26.1,62.1C647,1086.2,625.1,1095.3,601.8,1095.3z"/>
<path class="st6" d="M602.1,279.9c-0.2,0-0.3,0-0.5,0c-23.5-0.1-45.5-9.4-62.1-26.1c-16.5-16.7-25.6-38.8-25.4-62.3
	c0.1-23.5,9.4-45.5,26.1-62.1c16.6-16.4,38.5-25.4,61.8-25.4c0.2,0,0.3,0,0.5,0c48.5,0.3,87.7,39.9,87.5,88.4
	c-0.1,23.5-9.4,45.5-26.1,62.1C647.4,270.9,625.4,279.9,602.1,279.9z"/>
<g>
	<g>
		<path class="st7" d="M955.4,584.4v-15.2h10.7v2.5h-7.9v3.6h7.3v2.5h-7.3v4.1h8.5v2.6H955.4z"/>
		<path class="st7" d="M977,584.4l-3.5-5.6l-3.4,5.6h-3.3l5-8.3l-4.3-7h3.2l2.7,4.4l2.6-4.4h3.3l-4.2,7l5.1,8.3H977z"/>
		<path class="st7" d="M987.3,571.7v12.6h-2.8v-12.6h-4.1v-2.6h11.1v2.6H987.3z"/>
		<path class="st7" d="M1001.5,584.4l-3-5.6H996v5.6h-2.8v-15.2h5.5c1.9,0,3.5,0.3,4.7,1.9c0.6,0.9,0.9,1.9,0.9,3c0,2-1.1,3.6-3,4.2
			l3.3,6.2H1001.5z M998.6,571.6c-0.9,0-1.7,0-2.6,0v4.7h1.8c1.7,0,3.6-0.1,3.6-2.4C1001.5,572.2,1000.1,571.6,998.6,571.6z"/>
		<path class="st7" d="M1015.4,584.4l-0.9-3h-5.6l-0.9,3h-3l5.1-15.2h3.2l5.1,15.2H1015.4z M1011.7,571.9l-2.1,7h4.2L1011.7,571.9z"
			/>
		<path class="st7" d="M1026,584.7c-4.5,0-7-3.7-7-8c0-1.1,0.1-2.3,0.5-3.3c1-3,3.6-4.7,6.7-4.7c1.9,0,3.9,0.8,5,2.5
			c0.4,0.7,0.8,1.4,1,2.2l-2.8,0.7c-0.2-1.7-1.6-2.8-3.3-2.8c-2.9,0-4.1,2.7-4.1,5.2c0,1.9,0.6,4.1,2.4,5c0.5,0.3,1.2,0.4,1.7,0.4
			c1.8,0,3.2-1.3,3.7-3.1l2.7,1.1C1031.4,583.1,1029.1,584.7,1026,584.7z"/>
		<path class="st7" d="M1039.8,571.7v12.6h-2.8v-12.6h-4.1v-2.6h11.1v2.6H1039.8z"/>
		<path class="st7" d="M1051.3,584.7c-4.3,0-7.2-3.7-7.2-7.9c0-4.3,2.8-8.1,7.3-8.1c1.4,0,2.8,0.4,3.9,1.2c2.3,1.5,3.2,4.1,3.2,6.8
			C1058.5,581.1,1055.8,584.7,1051.3,584.7z M1055.7,576.9c0-2.7-1.3-5.5-4.4-5.5c-3,0-4.3,2.6-4.3,5.3c0,0.8,0.1,1.7,0.4,2.5
			c0.6,1.8,2.1,3,4,3c1.8,0,3.3-1.2,3.9-2.8c0.3-0.7,0.4-1.5,0.4-2.2V576.9z"/>
		<path class="st7" d="M1066.1,584.7c-1.9,0-4-0.6-5.4-1.9c-0.4-0.3-0.8-0.9-1.1-1.3l2.4-1.7c0.1,0.2,0.3,0.4,0.5,0.6
			c1,1.2,2.6,1.7,4.2,1.7c1.3,0,2.9-0.4,2.9-2c0-1.5-1.8-1.7-2.9-2l-1.8-0.4c-0.5-0.1-0.9-0.2-1.4-0.3c-1.9-0.6-3-1.9-3-3.9
			c0-3.4,3.1-4.7,6-4.7c2.2,0,4.1,0.8,5.5,2.4c0.2,0.2,0.3,0.4,0.5,0.6l-2.3,1.7c-0.9-1.4-2.1-2.3-3.8-2.3c-1.1,0-2.9,0.4-2.9,1.9
			c0,1.4,1.8,1.6,2.8,1.8c2.9,0.6,6.4,1.1,6.4,4.9C1072.6,583.5,1069.1,584.7,1066.1,584.7z"/>
		<path class="st7" d="M1010,603.6c-1.6,2.9-4,3.2-7,3.2h-4.8v-15.2h5.4c0.9,0,2,0.1,2.9,0.3c3.2,1.1,4.5,4.2,4.5,7.4
			C1010.9,600.7,1010.6,602.4,1010,603.6z M1004.9,594.4c-0.7-0.2-1.6-0.2-2.4-0.2h-1.5v10.1h1.2c1,0,2.2,0,3.1-0.2
			c2.3-0.6,2.6-2.8,2.6-5C1007.9,596.9,1007.1,595,1004.9,594.4z"/>
		<path class="st7" d="M1013,606.8v-15.2h10.7v2.5h-7.9v3.6h7.3v2.5h-7.3v4.1h8.5v2.6H1013z"/>
		<path class="st7" d="M980.9,622.1c-1.2,1.7-2.9,2-4.8,2h-2.7v5.2h-2.8v-15.2h5.3c1.9,0,3.6,0.3,4.8,1.9c0.7,0.9,1,2,1,3.1
			C981.7,620.1,981.5,621.2,980.9,622.1z M978.5,617.6c-0.7-1.1-1.8-1.1-3-1.1h-2.2v5.3h2c1.3,0,2.6-0.1,3.2-1.4
			c0.2-0.4,0.3-0.9,0.3-1.3C978.8,618.6,978.8,618,978.5,617.6z"/>
		<path class="st7" d="M983.5,629.3v-15.2h2.8v12.6h6v2.6H983.5z"/>
		<path class="st7" d="M1002.9,629.3l-0.9-3h-5.6l-0.9,3h-3l5.1-15.2h3.2l5.1,15.2H1002.9z M999.2,616.8l-2.1,7h4.2L999.2,616.8z"/>
		<path class="st7" d="M1016.6,629.3l-6.6-10.7l0.2,10.7h-2.7v-15.2h2.5l6.7,10.7l-0.3-10.7h2.8v15.2H1016.6z"/>
		<path class="st7" d="M1027.8,616.7v12.6h-2.8v-12.6h-4.1v-2.6h11.1v2.6H1027.8z"/>
		<path class="st7" d="M1041.2,629.3l-0.9-3h-5.6l-0.9,3h-3l5.1-15.2h3.2l5.1,15.2H1041.2z M1037.5,616.8l-2.1,7h4.2L1037.5,616.8z"
			/>
		<path class="st7" d="M1051,629.7c-1.9,0-4-0.6-5.4-1.9c-0.4-0.3-0.8-0.9-1.1-1.3l2.4-1.7c0.1,0.2,0.3,0.4,0.5,0.6
			c1,1.2,2.6,1.7,4.2,1.7c1.3,0,2.9-0.4,2.9-2c0-1.5-1.8-1.7-2.9-2l-1.8-0.4c-0.5-0.1-0.9-0.2-1.4-0.3c-1.9-0.6-3-1.9-3-3.9
			c0-3.4,3.1-4.7,6-4.7c2.2,0,4.1,0.8,5.5,2.4c0.2,0.2,0.3,0.4,0.5,0.6l-2.3,1.7c-0.9-1.4-2.1-2.3-3.8-2.3c-1.1,0-2.9,0.4-2.9,1.9
			c0,1.4,1.8,1.6,2.8,1.8c2.9,0.6,6.4,1.1,6.4,4.9C1057.5,628.5,1054,629.7,1051,629.7z"/>
	</g>
</g>
<g>
	<path class="st8" d="M536.2,72.3V57h2.8v15.3H536.2z"/>
	<path class="st8" d="M551.2,72.3l-6.6-10.7l0.2,10.7H542V57h2.5l6.7,10.8L550.9,57h2.8v15.3H551.2z"/>
	<path class="st8" d="M567.2,72.3V71c-1.2,1.1-2.4,1.7-4.1,1.7c-4.5,0-7.2-3.5-7.2-7.9c0-4.3,2.8-8.1,7.3-8.1c3,0,5.3,1.7,6.4,4.5
		l-2.7,1.1c-0.6-1.8-1.6-3-3.6-3c-3.1,0-4.3,2.8-4.3,5.5c0,1.9,0.6,3.9,2.4,4.8c0.6,0.3,1.2,0.4,1.8,0.4c1.6,0,3-0.8,3.5-2.4
		c0.1-0.4,0.2-0.8,0.3-1.1h-3.8V64h6.4v8.4H567.2z"/>
	<path class="st8" d="M580.7,72.3l-3-5.7h-2.5v5.7h-2.8V57h5.6c1.9,0,3.5,0.3,4.7,1.9c0.6,0.9,0.9,1.9,0.9,3c0,2-1.1,3.7-3,4.2
		l3.4,6.2H580.7z M577.8,59.5c-0.9,0-1.8,0-2.6,0v4.8h1.8c1.7,0,3.7-0.1,3.7-2.4C580.7,60.1,579.3,59.5,577.8,59.5z"/>
	<path class="st8" d="M585.7,72.3V57h10.7v2.6h-8v3.6h7.3v2.5h-7.3v4.1h8.5v2.6H585.7z"/>
	<path class="st8" d="M610.3,69.1c-1.6,2.9-4,3.2-7,3.2h-4.8V57h5.4c0.9,0,2,0.1,2.9,0.3c3.2,1.1,4.5,4.3,4.5,7.4
		C611.3,66.2,611,67.9,610.3,69.1z M605.2,59.8c-0.7-0.2-1.6-0.2-2.4-0.2h-1.5v10.1h1.2c1,0,2.2,0,3.1-0.2c2.4-0.6,2.6-2.8,2.6-5
		C608.3,62.4,607.5,60.4,605.2,59.8z"/>
	<path class="st8" d="M613.4,72.3V57h2.8v15.3H613.4z"/>
	<path class="st8" d="M619.2,72.3V57h10.7v2.6h-8v3.6h7.3v2.5H622v4.1h8.5v2.6H619.2z"/>
	<path class="st8" d="M641.4,72.3l-6.6-10.7l0.2,10.7h-2.8V57h2.5l6.7,10.8L641.1,57h2.8v15.3H641.4z"/>
	<path class="st8" d="M652.6,59.6v12.7h-2.8V59.6h-4.1V57h11.1v2.6H652.6z"/>
	<path class="st8" d="M658.5,72.3V57h10.7v2.6h-8v3.6h7.3v2.5h-7.3v4.1h8.5v2.6H658.5z"/>
	<path class="st8" d="M540.2,91.6c-1.6,2.9-4,3.2-7,3.2h-4.8V79.6h5.4c0.9,0,2,0.1,2.9,0.3c3.2,1.1,4.5,4.3,4.5,7.4
		C541.2,88.8,540.9,90.4,540.2,91.6z M535.1,82.4c-0.7-0.2-1.6-0.2-2.4-0.2h-1.5v10.1h1.2c1,0,2.2,0,3.1-0.2c2.4-0.6,2.6-2.8,2.6-5
		C538.2,84.9,537.4,83,535.1,82.4z"/>
	<path class="st8" d="M543.3,94.9V79.6h2.8v15.3H543.3z"/>
	<path class="st8" d="M552,82.2V86h6.3v2.4H552v6.5h-2.8V79.6h10v2.6H552z"/>
	<path class="st8" d="M560.7,94.9V79.6h10.7v2.6h-8v3.6h7.3v2.5h-7.3v4.1h8.5v2.6H560.7z"/>
	<path class="st8" d="M582,94.9l-3-5.7h-2.5v5.7h-2.8V79.6h5.6c1.9,0,3.5,0.3,4.7,1.9c0.6,0.9,0.9,1.9,0.9,3c0,2-1.1,3.7-3,4.2
		l3.4,6.2H582z M579.1,82.1c-0.9,0-1.8,0-2.6,0v4.8h1.8c1.7,0,3.7-0.1,3.7-2.4C582,82.7,580.6,82.1,579.1,82.1z"/>
	<path class="st8" d="M587,94.9V79.6h10.7v2.6h-8v3.6h7.3v2.5h-7.3v4.1h8.5v2.6H587z"/>
	<path class="st8" d="M609.3,94.9l-6.6-10.7l0.2,10.7h-2.8V79.6h2.5l6.7,10.8L609,79.6h2.8v15.3H609.3z"/>
	<path class="st8" d="M620.8,95.3c-4.5,0-7-3.7-7-8c0-1.1,0.1-2.3,0.5-3.4c1-3,3.6-4.7,6.7-4.7c1.9,0,4,0.8,5.1,2.5
		c0.4,0.7,0.8,1.4,1,2.3l-2.8,0.7c-0.2-1.7-1.6-2.8-3.3-2.8c-2.9,0-4.1,2.7-4.1,5.3c0,1.9,0.6,4.1,2.4,5c0.5,0.3,1.2,0.4,1.8,0.4
		c1.8,0,3.2-1.3,3.7-3.1l2.7,1.1C626.3,93.6,624,95.3,620.8,95.3z"/>
	<path class="st8" d="M629,94.9V79.6h2.8v15.3H629z"/>
	<path class="st8" d="M643.7,94.9l-0.9-3h-5.7l-0.9,3h-3l5.1-15.3h3.2l5.2,15.3H643.7z M640,82.4l-2.1,7h4.2L640,82.4z"/>
	<path class="st8" d="M659.9,91.6c-1.6,2.9-4,3.2-7,3.2h-4.8V79.6h5.4c0.9,0,2,0.1,2.9,0.3c3.2,1.1,4.5,4.3,4.5,7.4
		C660.8,88.8,660.6,90.4,659.9,91.6z M654.8,82.4c-0.7-0.2-1.6-0.2-2.4-0.2h-1.5v10.1h1.2c1,0,2.2,0,3.1-0.2c2.4-0.6,2.6-2.8,2.6-5
		C657.9,84.9,657,83,654.8,82.4z"/>
	<path class="st8" d="M669.5,95.3c-4.4,0-7.2-3.7-7.2-8c0-4.4,2.8-8.1,7.3-8.1c1.4,0,2.8,0.4,3.9,1.2c2.3,1.5,3.3,4.1,3.3,6.8
		C676.8,91.6,674,95.3,669.5,95.3z M673.9,87.4c0-2.7-1.3-5.6-4.4-5.6c-3,0-4.3,2.6-4.3,5.3c0,0.8,0.1,1.7,0.4,2.5
		c0.6,1.8,2.1,3,4,3c1.8,0,3.3-1.2,3.9-2.8c0.3-0.7,0.4-1.5,0.4-2.3V87.4z"/>
</g>
<rect x="941.4" y="686.2" class="st7" width="138.7" height="28.7"/>
<rect x="98.7" y="686.2" class="st7" width="184.6" height="28.7"/>
<g>
	<g>
		<path class="st2" d="M790.7,606.2c0,28.7-23.3,52-52,52c-28.7,0-52-23.3-52-52"/>
		<g>
			<circle class="st9" cx="711.9" cy="475.3" r="3.5"/>
			<circle class="st9" cx="724.7" cy="482.3" r="3.5"/>
			<circle class="st9" cx="731.8" cy="462.4" r="3.5"/>
			<circle class="st9" cx="744.7" cy="473.8" r="3.5"/>
			<circle class="st9" cx="754.1" cy="460.5" r="3.5"/>
			<circle class="st9" cx="753.2" cy="480.9" r="3.5"/>
			<circle class="st10" cx="770.7" cy="488" r="3.5"/>
			<circle class="st9" cx="775" cy="479.2" r="3.5"/>
			<circle class="st9" cx="760.2" cy="509.3" r="3.5"/>
			<circle class="st9" cx="694.4" cy="490.2" r="3.5"/>
			<path class="st9" d="M760.2,460.5c0,0,6.1-2.7,3.5-10.1C763.8,450.4,756.6,454.2,760.2,460.5z"/>
			<path class="st9" d="M763.4,470.2c0,0,5,1.1,7.6-7.1C771,463.2,763,463,763.4,470.2z"/>
			<path class="st9" d="M759.2,464.6c0,0,0.4,5.4-6.5,7.3C752.7,471.8,750.6,466.5,759.2,464.6z"/>
			<path class="st9" d="M775.8,469.3c0,0-1.8,6.6-8.7,5.9C767.2,475.3,768.4,468.8,775.8,469.3z"/>
			<path class="st9" d="M764.4,472.8c0,0-1.7,5.4-7.7,5C756.7,477.8,756.7,472.4,764.4,472.8z"/>
			<path class="st9" d="M748.2,469.3c0,0,5-3.8-0.8-8.8C747.4,460.5,742.4,466.1,748.2,469.3z"/>
			<path class="st9" d="M746.1,457.8c0,0,4.5-4.2,1.7-10.9C747.8,446.8,742.2,451.4,746.1,457.8z"/>
			<path class="st9" d="M739.8,453.1c0,0,3.2-7.1-1.2-13C738.6,440.1,734.4,446.8,739.8,453.1z"/>
			<path class="st9" d="M734.5,455.4c0,0-0.3-5.2-6.3-6.5C728.3,448.9,727.5,456.3,734.5,455.4z"/>
			<path class="st9" d="M735.3,473.8c0,0,0-7.3-6.3-7.1C729.1,466.7,729.6,473.8,735.3,473.8z"/>
			<path class="st9" d="M724.7,463.2c0,0,2.7-6.7-4.5-10.1C720.2,453.1,717.7,460.4,724.7,463.2z"/>
			<path class="st9" d="M725.2,469.3c0,0-3-3.1-9.2,0C716.1,469.3,721.5,474.1,725.2,469.3z"/>
			<path class="st9" d="M711.1,469.7c0,0,4.8-3.4,0.8-9.2C711.9,460.5,707.3,466,711.1,469.7z"/>
			<path class="st9" d="M708.4,470.3c0,0-1.3-8.2-8.2-7.9C700.2,462.4,699.4,469.2,708.4,470.3z"/>
			<path class="st9" d="M706.3,472.8c0,0-5.5-2.5-8.4,1.1C697.9,473.8,702.8,478.2,706.3,472.8z"/>
			<path class="st9" d="M717.3,484.4c0,0-0.2-4.7-7.8-2.7C709.6,481.7,711.2,486.5,717.3,484.4z"/>
			<path class="st9" d="M718.6,490.2c0,0-3.3-5.4-9-3.5C709.6,486.7,712.7,492.5,718.6,490.2z"/>
			<path class="st9" d="M705.5,486.3c0,0,4-5.7-2.2-8.9C703.2,477.4,699.3,483.5,705.5,486.3z"/>
			<path class="st9" d="M699,484.9c0,0,1.6-7.2-4.7-9.5C694.4,475.5,691.2,483.1,699,484.9z"/>
			<path class="st9" d="M691.8,483.1c0,0-4.5-5.1-10.1,1.3C681.7,484.4,687.8,488.2,691.8,483.1z"/>
			<path class="st9" d="M706.7,492.6c0,0-4.1-2.2-7.5,3.4C699.2,496,705.1,498.4,706.7,492.6z"/>
			<path class="st9" d="M694.4,496.5c0,0-3.4-5.3-9.8-0.7C684.6,495.8,688.3,500,694.4,496.5z"/>
			<path class="st9" d="M709,498.6c0,0-0.3,5.5-7.7,6.7C701.3,505.4,700.5,499.6,709,498.6z"/>
			<path class="st9" d="M699.4,498.4c0,0-0.5,7.9-8.4,7.7C691,506.1,690.9,499.1,699.4,498.4z"/>
			<path class="st9" d="M734.5,496.5c0,0,1.4-9-4.2-9.8C730.4,486.7,726.3,491.7,734.5,496.5z"/>
			<path class="st9" d="M748.7,497.9c0,0,2.3-6.9-3.3-10C745.4,488,741.4,493.7,748.7,497.9z"/>
			<path class="st9" d="M756.7,491.6c0,0,6.4,1,9-3.6C765.7,488,761,484.9,756.7,491.6z"/>
			<path class="st9" d="M760.7,483.5c0,0,6.1,2.6,8.7-3.2C769.4,480.3,764.5,478.1,760.7,483.5z"/>
			<path class="st9" d="M771.2,467.7c0,0,6.1,2.6,8.7-3.2C779.9,464.6,775,462.3,771.2,467.7z"/>
			<path class="st9" d="M775.8,490.7c0,0,6.4,0.3,7.9-6.3C783.7,484.4,777.4,483.5,775.8,490.7z"/>
			<path class="st9" d="M776.2,474c0,0,6.2,1.8,9.1-4.3C785.3,469.7,779.4,467.4,776.2,474z"/>
			<path class="st9" d="M762.6,504.7c0,0,5.4-1,5.3-6.3C767.8,498.3,761.4,499.7,762.6,504.7z"/>
			<path class="st9" d="M768.1,503.9c0,0,7.9,1.4,10-5.3C778.1,498.6,771.5,497.4,768.1,503.9z"/>
			<path class="st9" d="M766.3,505.2c0,0,6.4-0.3,5.6,4.7C771.9,509.9,767.1,510.9,766.3,505.2z"/>
			<path class="st9" d="M750.8,506.4c0,0,5.8,2.1,4.4,7.2C755.2,513.6,749.8,512.9,750.8,506.4z"/>
			<path class="st9" d="M756.5,504c0,0,5-0.1,5.2-5.8C761.7,498.2,755.3,499.5,756.5,504z"/>
			<path class="st9" d="M723.1,502.6c0,0-5.8-4.4-10.1,0.7C713,503.3,717.8,507.8,723.1,502.6z"/>
			<path class="st9" d="M732.2,504.2c0,0,3-5.8-2-9C730.2,495.2,726.2,500.3,732.2,504.2z"/>
			<path class="st9" d="M754.1,453.1c0,0,4.8-3.4,3.5-9.6C757.7,443.5,750.9,447.1,754.1,453.1z"/>
			<path class="st9" d="M741.8,487.6c0,0,5.1,0.3,5-7.3C746.7,480.2,741.1,481.5,741.8,487.6z"/>
			<path class="st9" d="M741.7,465.9c0,0,4.5-2.7,2.5-8.2C744.2,457.8,738.9,460.2,741.7,465.9z"/>
			<path class="st9" d="M744.7,504.2c0,0,3.1-4.5-1.8-9C742.8,495.2,740,501.5,744.7,504.2z"/>
			<path class="st9" d="M688.8,488.5c0,0-0.3,5.1-7.9,4.4C680.9,492.9,682,487.3,688.8,488.5z"/>
			<path class="st9" d="M783.6,493.1c0,0-2.1,5.3-9.9,1.9C773.7,495,776.9,489.4,783.6,493.1z"/>
			<path class="st9" d="M773.4,459.6c0,0-4.5-5.1-10.1,1.3C763.3,461,769.4,464.7,773.4,459.6z"/>
			<path class="st9" d="M771.4,493.1c0,0-0.3,5.1-7.9,4.4C763.5,497.5,764.7,491.9,771.4,493.1z"/>
			<path class="st11" d="M730.2,518.5c-0.6-3.7-10.2-18.9-12.1-19.7c-1.9-0.8-17.2,0.6-21.5,0c0,0,15.6-1.9,17.2-2.9
				c1.6-1-11.1-7.9-11.1-7.9s14.1,5.6,17.5,8.2c3.4,2.6-0.8-14.3-0.8-14.3s3.5,7.9,4.5,12.7c1,4.8,9.8,14,11.4,14
				c1.6,0,0.3-20.2,0-23c-0.3-2.7-7.6-13.7-7.6-13.7s7.6,7.1,8.8,10c1.3,2.9,0.3-20.6,2-24.1c0,0,1.2,20.9,1.2,29.9
				s1.4,23.1,1.4,23.1s7.6-10.3,8.4-12c0.8-1.8,6.4-12.9,8.7-14.5c0,0-4,9.3-5.3,13.2c0,0,10.3-5.9,14.5-5c0,0-14.6,8-16.5,10.9
				c0,0,12.4,0.8,16.7,1.8c0,0-13.7-0.3-15.9,1c-2.2,1.3-4.7,8.4-5.9,11.5"/>
		</g>
		<g>
			<path class="st2" d="M446.9,545.3h24v37.8c-10.6,11.8-25.2,17.7-43.9,17.7c-15.7,0-28.8-5.2-39.4-15.6
				c-10.6-10.4-15.9-23.5-15.9-39.3c0-15.8,5.4-29,16.3-39.6c10.8-10.6,23.9-15.9,39.2-15.9c15.3,0,28.6,5,39.9,15.1l-12.4,17.9
				c-4.8-4.2-9.2-7-13.2-8.6c-4-1.6-8.4-2.4-13-2.4c-9.1,0-16.7,3.1-22.9,9.2c-6.2,6.2-9.3,14.3-9.3,24.3c0,10.1,3,18.1,8.9,24.2
				c6,6.1,13,9.1,21.3,9.1c8.2,0,15.1-1.6,20.6-4.7V545.3z"/>
			<path class="st2" d="M549.4,587.7c-9.3,8.7-20.1,13.1-32.6,13.1c-12.5,0-22.8-3.8-30.9-11.5c-8.1-7.7-12.2-18-12.2-30.9
				c0-12.9,4.1-23.2,12.4-30.8c8.3-7.6,18.1-11.4,29.4-11.4c11.3,0,20.9,3.4,28.8,10.2c7.9,6.8,11.8,16.2,11.8,28.1v12.2h-59.8
				c0.7,4.5,3.1,8.1,7,11c4,2.8,8.4,4.3,13.4,4.3c8,0,14.6-2.7,19.8-8.1L549.4,587.7z M527.4,539c-3.2-2.6-7-4-11.5-4
				c-4.5,0-8.7,1.4-12.4,4.1c-3.8,2.7-6,6.5-6.6,11.1h36C532.4,545.5,530.6,541.7,527.4,539z"/>
			<path class="st2" d="M582.5,553.8v45.8h-22.9v-82.1h22.9v9.2c6.9-7,14.7-10.5,23.3-10.5c8.6,0,15.9,3.1,21.7,9.2
				c5.8,6.1,8.8,14.2,8.8,24.4v49.9h-22.9v-46.4c0-12.6-4.6-18.9-13.9-18.9c-4.6,0-8.6,1.7-12,5
				C584.2,542.6,582.5,547.4,582.5,553.8z"/>
			<path class="st2" d="M716.1,587.7c-9.3,8.7-20.1,13.1-32.6,13.1c-12.5,0-22.8-3.8-30.9-11.5c-8.1-7.7-12.2-18-12.2-30.9
				c0-12.9,4.1-23.2,12.4-30.8c8.3-7.6,18.1-11.4,29.4-11.4s20.9,3.4,28.8,10.2c7.9,6.8,11.8,16.2,11.8,28.1v12.2H663
				c0.7,4.5,3.1,8.1,7,11c4,2.8,8.4,4.3,13.4,4.3c8,0,14.6-2.7,19.8-8.1L716.1,587.7z M694.1,539c-3.2-2.6-7-4-11.5-4
				s-8.7,1.4-12.4,4.1c-3.8,2.7-6,6.5-6.6,11.1h36C699.1,545.5,697.2,541.7,694.1,539z"/>
			<path class="st2" d="M770.2,537.7c-6.8,0-11.9,2.4-15.3,7.2c-3.4,4.8-5,11.2-5,19.2v42.7H727v-89.2h22.9v10.8
				c2.9-3.4,6.6-6.2,11.1-8.5c4.4-2.3,8.9-3.6,13.5-3.7l0.2,21.5H770.2z"/>
			<path class="st2" d="M846.5,599.6H825v-9.9c-5.9,7.4-13.2,11.1-21.9,11.1c-8.7,0-16-2.5-21.9-7.6c-5.9-5-8.8-11.8-8.8-20.1
				c0-8.4,3.1-14.7,9.2-18.8c6.1-4.2,14.4-6.3,25-6.3h17.1v-0.5c0-8.7-4.6-13.1-13.9-13.1c-4,0-8.2,0.8-12.6,2.4
				c-4.4,1.6-8.2,3.5-11.2,5.9l-10.2-14.8c10.8-7.8,23.1-11.8,36.9-11.8c10,0,18.1,2.5,24.4,7.5c6.3,5,9.5,12.9,9.5,23.7V599.6z
				 M823.5,568.3v-4h-14.3c-9.2,0-13.7,2.8-13.7,8.5c0,3,1.1,5.2,3.3,6.8c2.2,1.6,5.3,2.4,9.4,2.4c4.1,0,7.7-1.2,10.8-3.7
				C821.9,575.8,823.5,572.5,823.5,568.3z"/>
		</g>
		<g>
			<path class="st9" d="M412.2,635c-0.1-0.2-0.2-0.3-0.2-0.5c-0.1-0.2-0.1-0.3-0.2-0.5l-6.1-15.2c0,0,0-0.1,0-0.1s0-0.1,0-0.2
				c0-0.2,0.2-0.4,0.5-0.4h2.5c0.3,0,0.5,0.1,0.6,0.4c0.2,0.5,0.4,1.1,0.6,1.7c0.2,0.7,0.5,1.3,0.8,2.1c0.3,0.7,0.6,1.5,0.8,2.2
				c0.3,0.8,0.6,1.5,0.8,2.2c0.3,0.7,0.5,1.4,0.8,2c0.2,0.6,0.4,1.2,0.6,1.6c0.2-0.4,0.4-1,0.6-1.6c0.2-0.6,0.5-1.3,0.7-2
				c0.3-0.7,0.5-1.5,0.8-2.2c0.3-0.8,0.6-1.5,0.8-2.2c0.3-0.7,0.5-1.4,0.8-2.1c0.2-0.7,0.5-1.2,0.6-1.7c0.1-0.3,0.3-0.4,0.6-0.4h2.4
				c0.3,0,0.5,0.1,0.5,0.4c0,0.1,0,0.1,0,0.1c0,0,0,0.1,0,0.1l-6.1,15.2c-0.1,0.2-0.1,0.3-0.2,0.5c-0.1,0.2-0.1,0.3-0.2,0.5
				c-0.1,0.2-0.3,0.3-0.4,0.4c-0.2,0-0.4,0.1-0.6,0.1h-1.3c-0.2,0-0.3,0-0.4-0.1C412.3,635.2,412.2,635.1,412.2,635z"/>
			<path class="st9" d="M424.1,618.7c0-0.1,0-0.3,0.1-0.4c0.1-0.1,0.2-0.2,0.4-0.2h2.3c0.1,0,0.3,0,0.4,0.1c0.1,0.1,0.2,0.2,0.2,0.4
				v16.2c0,0.3-0.2,0.5-0.5,0.5h-2.3c-0.3,0-0.5-0.2-0.5-0.5V618.7z"/>
			<path class="st9" d="M446.1,626.8c0,0.8-0.1,1.6-0.3,2.3c-0.2,0.7-0.5,1.4-0.9,2.1c-0.4,0.6-0.8,1.2-1.4,1.7
				c-0.5,0.5-1.1,1-1.8,1.3c-0.6,0.4-1.3,0.7-2.1,0.9c-0.7,0.2-1.5,0.3-2.3,0.3h-5.6c-0.1,0-0.3,0-0.4-0.1c-0.1-0.1-0.2-0.2-0.2-0.4
				v-16.2c0-0.4,0.2-0.5,0.5-0.5h5.6c1.2,0,2.4,0.2,3.4,0.7c1.1,0.4,2,1.1,2.8,1.8c0.8,0.8,1.4,1.7,1.9,2.7
				C445.9,624.4,446.1,625.6,446.1,626.8z M434.6,621.3v10.8h1.1c0.6,0,1.2,0,1.7,0c0.8,0,1.5-0.2,2.1-0.5c0.6-0.3,1.2-0.7,1.7-1.2
				s0.8-1.1,1.1-1.7c0.3-0.7,0.4-1.4,0.4-2.1c0-0.8-0.1-1.5-0.4-2.2c-0.3-0.7-0.7-1.2-1.2-1.7c-0.5-0.5-1.1-0.8-1.8-1.1
				c-0.7-0.3-1.4-0.4-2.1-0.4H434.6z"/>
			<path class="st9" d="M447,634.9c0-0.2,0.1-0.3,0.1-0.4c0.1-0.1,0.1-0.3,0.1-0.4l6.2-15.5c0-0.1,0.1-0.2,0.2-0.3
				c0.1-0.1,0.2-0.2,0.4-0.2h1.9c0.2,0,0.3,0,0.4,0.1c0.1,0.1,0.1,0.2,0.2,0.2l0.4,0.9l6.1,15.3c0,0,0,0.1,0,0.1c0,0.1,0,0.1,0,0.1
				c0,0.2-0.2,0.3-0.5,0.3h-2.3c-0.2,0-0.3,0-0.4-0.1c-0.1-0.1-0.2-0.2-0.2-0.3l-0.2-0.5c-0.1-0.4-0.3-0.7-0.4-1.1
				c-0.1-0.4-0.3-0.7-0.4-1.1h-7.1c-0.2,0.5-0.4,1-0.6,1.5c-0.2,0.5-0.3,0.9-0.5,1.2c-0.1,0.3-0.3,0.4-0.6,0.4h-2.3
				c-0.1,0-0.3,0-0.4-0.1c-0.1-0.1-0.1-0.1-0.1-0.2C447,635,447,634.9,447,634.9z M455.1,622.6c-0.4,1.1-0.8,2.2-1.2,3.3
				c-0.4,1.1-0.8,2.2-1.2,3.3h4.9L455.1,622.6z"/>
			<path class="st9" d="M479,625.2L479,625.2l3.5-6.6c0.1-0.2,0.2-0.3,0.2-0.3c0.1,0,0.1-0.1,0.3-0.1h3.2c0.1,0,0.2,0.1,0.2,0.2
				c0,0.1-0.1,0.2-0.2,0.3c-0.9,1.6-1.9,3.2-2.8,4.8c-0.9,1.6-1.9,3.2-2.8,4.8v6.6c0,0.4-0.2,0.5-0.5,0.5h-2.4
				c-0.3,0-0.5-0.2-0.5-0.5v-6.6l-5.6-9.6c0,0-0.1-0.1-0.1-0.2c0-0.1,0-0.1,0-0.2c0-0.1,0.1-0.2,0.2-0.2h3.2c0.1,0,0.1,0,0.2,0
				c0,0,0.1,0,0.1,0c0,0,0.1,0.1,0.1,0.1c0,0.1,0.1,0.1,0.1,0.2L479,625.2z"/>
			<path class="st9" d="M495,634.9c0-0.2,0.1-0.3,0.1-0.4c0.1-0.1,0.1-0.3,0.1-0.4l6.2-15.5c0-0.1,0.1-0.2,0.2-0.3
				c0.1-0.1,0.2-0.2,0.4-0.2h1.9c0.2,0,0.3,0,0.4,0.1c0.1,0.1,0.1,0.2,0.2,0.2l0.4,0.9l6.1,15.3c0,0,0,0.1,0,0.1c0,0.1,0,0.1,0,0.1
				c0,0.2-0.2,0.3-0.5,0.3h-2.3c-0.2,0-0.3,0-0.4-0.1c-0.1-0.1-0.2-0.2-0.2-0.3l-0.2-0.5c-0.1-0.4-0.3-0.7-0.4-1.1
				c-0.1-0.4-0.3-0.7-0.4-1.1h-7.1c-0.2,0.5-0.4,1-0.6,1.5c-0.2,0.5-0.3,0.9-0.5,1.2c-0.1,0.3-0.3,0.4-0.6,0.4h-2.3
				c-0.1,0-0.3,0-0.4-0.1c-0.1-0.1-0.1-0.1-0.1-0.2C495,635,495,634.9,495,634.9z M503.1,622.6c-0.4,1.1-0.8,2.2-1.2,3.3
				c-0.4,1.1-0.8,2.2-1.2,3.3h4.9L503.1,622.6z"/>
			<path class="st9" d="M513.8,618.7c0-0.4,0.2-0.5,0.5-0.5h7.2c0.7,0,1.3,0.1,1.9,0.4c0.6,0.3,1.1,0.6,1.5,1c0.4,0.4,0.8,0.9,1,1.5
				c0.3,0.6,0.4,1.2,0.4,1.9c0,0.6-0.1,1.2-0.3,1.7c-0.2,0.5-0.5,1-0.9,1.4c0.3,0.2,0.6,0.5,0.9,0.8c0.3,0.3,0.5,0.6,0.7,1
				c0.2,0.3,0.3,0.7,0.4,1.1c0.1,0.4,0.2,0.8,0.2,1.2c0,0.7-0.1,1.3-0.4,2c-0.3,0.6-0.6,1.2-1.1,1.6c-0.4,0.5-1,0.8-1.6,1.1
				c-0.6,0.3-1.2,0.4-1.9,0.4h-8c-0.2,0-0.3,0-0.4-0.1c-0.1-0.1-0.1-0.2-0.1-0.4V618.7z M523,623c0-0.3-0.1-0.6-0.2-0.8
				c-0.1-0.3-0.2-0.5-0.4-0.7s-0.4-0.3-0.7-0.4c-0.3-0.1-0.5-0.2-0.9-0.2h-3.8v4.2h3.8c0.3,0,0.6-0.1,0.9-0.2
				c0.3-0.1,0.5-0.3,0.7-0.4c0.2-0.2,0.3-0.4,0.4-0.7C523,623.6,523,623.3,523,623z M523.8,630.1c0-0.3,0-0.5-0.1-0.8
				s-0.2-0.5-0.4-0.7c-0.2-0.2-0.4-0.4-0.6-0.5c-0.2-0.1-0.5-0.2-0.7-0.3c-0.2,0-0.3,0-0.5-0.1s-0.3,0-0.5,0h-3.9v4.7h3.9
				c0.2,0,0.3,0,0.5,0c0.2,0,0.3,0,0.5-0.1c0.3,0,0.5-0.1,0.7-0.3c0.2-0.1,0.4-0.3,0.6-0.5c0.2-0.2,0.3-0.4,0.4-0.7
				C523.7,630.7,523.8,630.4,523.8,630.1z"/>
			<path class="st9" d="M539.8,622.7c-0.1,0-0.2,0-0.3-0.1c-0.1-0.1-0.2-0.1-0.3-0.2l0,0c-0.1-0.1-0.3-0.3-0.6-0.5
				c-0.2-0.2-0.5-0.3-0.8-0.5c-0.3-0.2-0.6-0.3-0.9-0.4s-0.7-0.2-1-0.2c-0.4,0-0.8,0-1.1,0.1c-0.3,0.1-0.6,0.2-0.8,0.4
				c-0.2,0.2-0.4,0.4-0.5,0.6c-0.1,0.2-0.2,0.5-0.2,0.7c0,0.3,0.1,0.5,0.3,0.7c0.2,0.2,0.4,0.4,0.7,0.6c0.3,0.2,0.6,0.3,1,0.4
				c0.4,0.1,0.8,0.3,1.2,0.4c0.5,0.1,1,0.3,1.4,0.5c0.5,0.2,0.9,0.4,1.4,0.6c0.4,0.2,0.8,0.4,1.2,0.7c0.4,0.3,0.7,0.6,1,0.9
				c0.3,0.3,0.5,0.7,0.6,1.1c0.2,0.4,0.2,0.9,0.2,1.4c0,0.8-0.2,1.6-0.5,2.3s-0.8,1.3-1.4,1.7c-0.6,0.5-1.3,0.9-2.1,1.1
				c-0.8,0.3-1.7,0.4-2.6,0.4c-0.6,0-1.2-0.1-1.8-0.2c-0.6-0.1-1.2-0.3-1.7-0.6c-0.5-0.3-1.1-0.6-1.5-0.9c-0.5-0.4-0.9-0.8-1.3-1.2
				v0l0,0c-0.2-0.2-0.3-0.4-0.3-0.5c0-0.1,0-0.2,0.1-0.2c0-0.1,0.1-0.2,0.2-0.3l0.4-0.4c0.1-0.1,0.2-0.2,0.4-0.3
				c0.1-0.1,0.3-0.2,0.4-0.3c0.1-0.1,0.3-0.2,0.4-0.3c0.1-0.1,0.2-0.1,0.3-0.1c0.1,0,0.2,0,0.3,0.1c0.1,0.1,0.2,0.1,0.2,0.2l0,0h0
				c0.3,0.3,0.6,0.5,0.9,0.7c0.3,0.2,0.7,0.4,1,0.6s0.7,0.3,1.1,0.4c0.4,0.1,0.7,0.2,1,0.2c0.4,0,0.8-0.1,1.2-0.2
				c0.4-0.1,0.7-0.3,1-0.5c0.3-0.2,0.5-0.4,0.6-0.7c0.2-0.3,0.2-0.6,0.2-0.9c0-0.3-0.1-0.6-0.3-0.9c-0.2-0.2-0.5-0.5-0.8-0.6
				c-0.3-0.2-0.7-0.3-1.1-0.5c-0.4-0.1-0.8-0.3-1.2-0.4c-0.9-0.3-1.8-0.6-2.5-0.9c-0.7-0.3-1.3-0.7-1.8-1.1
				c-0.5-0.4-0.8-0.9-1.1-1.4c-0.2-0.5-0.4-1.1-0.4-1.7c0-0.7,0.1-1.4,0.4-2c0.3-0.6,0.7-1.1,1.2-1.5c0.5-0.4,1.2-0.7,1.9-1
				c0.7-0.2,1.6-0.4,2.5-0.4c0.7,0,1.4,0.1,2.1,0.3c0.7,0.2,1.4,0.5,2,0.9c0.2,0.1,0.4,0.2,0.6,0.4c0.2,0.1,0.4,0.3,0.5,0.4
				c0.2,0.2,0.3,0.3,0.4,0.4c0.1,0.1,0.2,0.3,0.2,0.4c0,0.1,0,0.2-0.1,0.3c0,0.1-0.1,0.2-0.2,0.3l-0.3,0.4v0
				c-0.1,0.1-0.2,0.3-0.4,0.4c-0.1,0.1-0.2,0.3-0.4,0.4c-0.1,0.1-0.2,0.2-0.3,0.3C539.9,622.7,539.8,622.7,539.8,622.7z"/>
			<path class="st9" d="M544.8,626.8c0-0.8,0.1-1.6,0.3-2.4c0.2-0.8,0.5-1.5,0.9-2.1c0.4-0.7,0.8-1.3,1.4-1.8c0.5-0.5,1.1-1,1.8-1.4
				c0.7-0.4,1.4-0.7,2.1-0.9c0.8-0.2,1.5-0.3,2.4-0.3c0.8,0,1.6,0.1,2.3,0.3c0.8,0.2,1.5,0.5,2.1,0.9c0.7,0.4,1.3,0.8,1.8,1.4
				c0.5,0.5,1,1.1,1.4,1.8c0.4,0.7,0.7,1.4,0.9,2.1c0.2,0.8,0.3,1.5,0.3,2.4c0,0.8-0.1,1.6-0.3,2.4c-0.2,0.7-0.5,1.5-0.9,2.1
				c-0.4,0.7-0.8,1.3-1.4,1.8c-0.5,0.5-1.1,1-1.8,1.4c-0.7,0.4-1.4,0.7-2.1,0.9c-0.8,0.2-1.5,0.3-2.4,0.3c-0.8,0-1.6-0.1-2.4-0.3
				c-0.8-0.2-1.5-0.5-2.1-0.9c-0.7-0.4-1.3-0.8-1.8-1.4c-0.5-0.5-1-1.1-1.4-1.8c-0.4-0.7-0.7-1.4-0.9-2.1
				C544.9,628.4,544.8,627.6,544.8,626.8z M548.1,626.7c0,0.8,0.1,1.5,0.4,2.2c0.3,0.7,0.7,1.3,1.2,1.8c0.5,0.5,1.1,0.9,1.7,1.2
				c0.7,0.3,1.4,0.4,2.2,0.4c0.8,0,1.5-0.1,2.2-0.4c0.7-0.3,1.2-0.7,1.7-1.2c0.5-0.5,0.9-1.1,1.2-1.8c0.3-0.7,0.4-1.4,0.4-2.2
				c0-0.8-0.1-1.5-0.4-2.2c-0.3-0.7-0.7-1.3-1.2-1.8c-0.5-0.5-1.1-0.9-1.7-1.2c-0.7-0.3-1.4-0.4-2.2-0.4c-0.8,0-1.5,0.1-2.2,0.4
				c-0.7,0.3-1.2,0.7-1.7,1.2c-0.5,0.5-0.9,1.1-1.2,1.8C548.3,625.2,548.1,626,548.1,626.7z"/>
			<path class="st9" d="M565.7,618.7c0-0.4,0.2-0.5,0.5-0.5h7.1c0.8,0,1.5,0.1,2.2,0.4c0.7,0.3,1.3,0.7,1.8,1.2
				c0.5,0.5,0.9,1.1,1.2,1.8c0.3,0.7,0.4,1.4,0.4,2.2c0,0.5-0.1,1-0.2,1.5c-0.1,0.5-0.4,0.9-0.6,1.4c-0.3,0.4-0.6,0.8-0.9,1.1
				c-0.4,0.3-0.8,0.6-1.2,0.9l3,5.9c0,0.1,0,0.2,0.1,0.2c0,0.1,0.1,0.2,0.1,0.2c0,0.2-0.1,0.3-0.4,0.3H576c-0.3,0-0.5-0.1-0.6-0.4
				l-2.8-5.6c-0.1,0-0.3,0-0.4,0s-0.3,0-0.6,0c-0.3,0-0.6,0-1,0s-0.9,0-1.6,0v5.5c0,0.3-0.2,0.5-0.5,0.5h-2.3c-0.2,0-0.3,0-0.4-0.1
				s-0.1-0.2-0.1-0.4V618.7z M575.5,623.7c0-0.3-0.1-0.7-0.2-1c-0.1-0.3-0.3-0.6-0.5-0.8c-0.2-0.2-0.5-0.4-0.8-0.6
				c-0.3-0.2-0.6-0.2-1-0.3c-0.3,0-0.5,0-0.8,0s-0.5,0-0.8,0h-2.3v5.4h3.1c0.2,0,0.3,0,0.4,0c0.1,0,0.3,0,0.4,0c0.4,0,0.7-0.1,1-0.3
				c0.3-0.1,0.6-0.3,0.8-0.6c0.2-0.2,0.4-0.5,0.5-0.8C575.4,624.4,575.5,624.1,575.5,623.7z"/>
			<path class="st9" d="M594.9,619.4c0.1,0.1,0.2,0.1,0.2,0.2c0.1,0.1,0.1,0.2,0.1,0.3c0,0.1,0,0.2-0.1,0.3l-1.1,1.9
				c-0.1,0.2-0.3,0.3-0.4,0.3c0,0-0.1,0-0.2,0c-0.1,0-0.1,0-0.2-0.1c-0.5-0.3-1-0.6-1.6-0.8c-0.6-0.2-1.1-0.3-1.8-0.3
				c-0.8,0-1.5,0.1-2.2,0.4c-0.7,0.3-1.2,0.7-1.7,1.2c-0.5,0.5-0.9,1.1-1.1,1.8c-0.3,0.7-0.4,1.4-0.4,2.2c0,0.8,0.1,1.5,0.4,2.2
				c0.3,0.7,0.6,1.3,1.1,1.8c0.5,0.5,1,0.9,1.7,1.2c0.7,0.3,1.4,0.4,2.2,0.4c0.6,0,1.2-0.1,1.8-0.3c0.6-0.2,1.1-0.5,1.6-0.8
				c0.1,0,0.1-0.1,0.2-0.1c0.1,0,0.1,0,0.2,0c0.1,0,0.3,0.1,0.4,0.3l1.1,1.9c0,0.1,0.1,0.2,0.1,0.3c0,0.1,0,0.2-0.1,0.3
				c-0.1,0.1-0.1,0.1-0.2,0.2c-0.7,0.5-1.5,0.9-2.3,1.1c-0.8,0.3-1.7,0.4-2.6,0.4c-0.8,0-1.6-0.1-2.4-0.3c-0.8-0.2-1.5-0.5-2.1-0.9
				c-0.7-0.4-1.3-0.8-1.8-1.4c-0.5-0.5-1-1.1-1.4-1.8c-0.4-0.7-0.7-1.4-0.9-2.1c-0.2-0.8-0.3-1.5-0.3-2.4c0-0.8,0.1-1.6,0.3-2.4
				c0.2-0.8,0.5-1.5,0.9-2.1c0.4-0.7,0.8-1.3,1.4-1.8c0.5-0.5,1.1-1,1.8-1.4c0.7-0.4,1.4-0.7,2.1-0.9c0.8-0.2,1.5-0.3,2.4-0.3
				c0.9,0,1.8,0.1,2.6,0.4C593.4,618.5,594.2,618.9,594.9,619.4z"/>
			<path class="st9" d="M598.6,618.7c0-0.1,0-0.3,0.1-0.4c0.1-0.1,0.2-0.2,0.4-0.2h2.3c0.1,0,0.3,0,0.4,0.1c0.1,0.1,0.2,0.2,0.2,0.4
				v16.2c0,0.3-0.2,0.5-0.5,0.5h-2.3c-0.3,0-0.5-0.2-0.5-0.5V618.7z"/>
			<path class="st9" d="M605.2,626.8c0-0.8,0.1-1.6,0.3-2.4c0.2-0.8,0.5-1.5,0.9-2.1c0.4-0.7,0.8-1.3,1.4-1.8c0.5-0.5,1.1-1,1.8-1.4
				c0.7-0.4,1.4-0.7,2.1-0.9c0.8-0.2,1.5-0.3,2.4-0.3c0.8,0,1.6,0.1,2.3,0.3c0.8,0.2,1.5,0.5,2.1,0.9c0.7,0.4,1.3,0.8,1.8,1.4
				c0.5,0.5,1,1.1,1.4,1.8c0.4,0.7,0.7,1.4,0.9,2.1c0.2,0.8,0.3,1.5,0.3,2.4c0,0.8-0.1,1.6-0.3,2.4c-0.2,0.7-0.5,1.5-0.9,2.1
				c-0.4,0.7-0.8,1.3-1.4,1.8c-0.5,0.5-1.1,1-1.8,1.4c-0.7,0.4-1.4,0.7-2.1,0.9c-0.8,0.2-1.5,0.3-2.4,0.3c-0.8,0-1.6-0.1-2.4-0.3
				c-0.8-0.2-1.5-0.5-2.1-0.9c-0.7-0.4-1.3-0.8-1.8-1.4c-0.5-0.5-1-1.1-1.4-1.8c-0.4-0.7-0.7-1.4-0.9-2.1
				C605.3,628.4,605.2,627.6,605.2,626.8z M608.5,626.7c0,0.8,0.1,1.5,0.4,2.2c0.3,0.7,0.7,1.3,1.2,1.8c0.5,0.5,1.1,0.9,1.7,1.2
				c0.7,0.3,1.4,0.4,2.2,0.4c0.8,0,1.5-0.1,2.2-0.4c0.7-0.3,1.2-0.7,1.7-1.2c0.5-0.5,0.9-1.1,1.2-1.8c0.3-0.7,0.4-1.4,0.4-2.2
				c0-0.8-0.1-1.5-0.4-2.2c-0.3-0.7-0.7-1.3-1.2-1.8c-0.5-0.5-1.1-0.9-1.7-1.2c-0.7-0.3-1.4-0.4-2.2-0.4c-0.8,0-1.5,0.1-2.2,0.4
				c-0.7,0.3-1.2,0.7-1.7,1.2c-0.5,0.5-0.9,1.1-1.2,1.8C608.7,625.2,608.5,626,608.5,626.7z M613.7,613.1c0.1-0.2,0.1-0.3,0.3-0.4
				c0.1-0.1,0.2-0.1,0.4-0.1h2.1c0.1,0,0.2,0,0.3,0.1c0.1,0.1,0.1,0.1,0.1,0.2c0,0.1,0,0.1,0,0.2c0,0.1,0,0.1-0.1,0.2l-1.1,2.5
				c-0.1,0.3-0.4,0.5-0.6,0.5h-1.8c-0.1,0-0.2,0-0.3-0.1c0-0.1-0.1-0.1-0.1-0.2c0-0.1,0-0.2,0-0.2c0-0.1,0-0.2,0.1-0.2L613.7,613.1z
				"/>
			<path class="st9" d="M626.1,618.7c0-0.1,0-0.3,0.1-0.4c0.1-0.1,0.2-0.2,0.4-0.2h2.7c0.1,0,0.2,0,0.3,0.1c0.1,0.1,0.2,0.1,0.3,0.2
				c1.3,1.9,2.6,3.8,3.9,5.6c1.3,1.9,2.6,3.7,3.9,5.6v-11.1c0-0.1,0.1-0.2,0.2-0.3s0.2-0.1,0.3-0.1h2.2c0.2,0,0.3,0,0.4,0.1
				c0.1,0.1,0.2,0.2,0.2,0.4v16.2c0,0.3-0.2,0.5-0.5,0.5H638c-0.2,0-0.3-0.1-0.5-0.3c-1.4-2-2.7-3.9-4.1-5.9c-1.3-2-2.7-3.9-4-5.9
				v11.6c0,0.2,0,0.3-0.1,0.4s-0.2,0.1-0.4,0.1h-2.2c-0.2,0-0.3,0-0.4-0.1s-0.1-0.2-0.1-0.4V618.7z"/>
			<path class="st9" d="M455.9,641.3c0-0.4,0.2-0.5,0.5-0.5h7.1c0.8,0,1.5,0.1,2.2,0.4c0.7,0.3,1.3,0.7,1.8,1.2
				c0.5,0.5,0.9,1.1,1.2,1.8c0.3,0.7,0.4,1.4,0.4,2.2c0,0.5-0.1,1-0.2,1.5c-0.1,0.5-0.4,0.9-0.6,1.4c-0.3,0.4-0.6,0.8-0.9,1.1
				c-0.4,0.3-0.8,0.6-1.2,0.9l3,5.9c0,0.1,0,0.2,0.1,0.2s0.1,0.2,0.1,0.2c0,0.2-0.1,0.3-0.4,0.3h-2.7c-0.3,0-0.5-0.1-0.6-0.4
				l-2.8-5.6c-0.1,0-0.3,0-0.4,0c-0.1,0-0.3,0-0.6,0c-0.3,0-0.6,0-1,0s-0.9,0-1.6,0v5.5c0,0.3-0.2,0.5-0.5,0.5h-2.3
				c-0.2,0-0.3,0-0.4-0.1s-0.1-0.2-0.1-0.4V641.3z M465.7,646.3c0-0.3-0.1-0.7-0.2-1c-0.1-0.3-0.3-0.6-0.5-0.8
				c-0.2-0.2-0.5-0.4-0.8-0.6c-0.3-0.2-0.6-0.2-1-0.3c-0.3,0-0.5,0-0.8,0s-0.5,0-0.8,0h-2.3v5.4h3.1c0.2,0,0.3,0,0.4,0s0.3,0,0.4,0
				c0.4,0,0.7-0.1,1-0.3c0.3-0.1,0.6-0.3,0.8-0.6s0.4-0.5,0.5-0.8C465.6,647,465.7,646.7,465.7,646.3z"/>
			<path class="st9" d="M471,657.5c0-0.2,0.1-0.3,0.1-0.4c0.1-0.1,0.1-0.3,0.1-0.4l6.2-15.5c0-0.1,0.1-0.2,0.2-0.3
				c0.1-0.1,0.2-0.2,0.4-0.2h1.9c0.2,0,0.3,0,0.4,0.1c0.1,0.1,0.1,0.2,0.2,0.2l0.4,0.9l6.1,15.3c0,0,0,0.1,0,0.1c0,0.1,0,0.1,0,0.1
				c0,0.2-0.2,0.3-0.5,0.3h-2.3c-0.2,0-0.3,0-0.4-0.1c-0.1-0.1-0.2-0.2-0.2-0.3l-0.2-0.5c-0.1-0.4-0.3-0.7-0.4-1.1
				c-0.1-0.4-0.3-0.7-0.4-1.1h-7.1c-0.2,0.5-0.4,1-0.6,1.5c-0.2,0.5-0.3,0.9-0.5,1.2c-0.1,0.3-0.3,0.4-0.6,0.4h-2.3
				c-0.1,0-0.3,0-0.4-0.1c-0.1-0.1-0.1-0.1-0.1-0.2C471,657.6,471,657.5,471,657.5z M479.1,645.2c-0.4,1.1-0.8,2.2-1.2,3.3
				c-0.4,1.1-0.8,2.2-1.2,3.3h4.9L479.1,645.2z"/>
			<path class="st9" d="M504.5,649.4c0,0.8-0.1,1.6-0.3,2.3c-0.2,0.7-0.5,1.4-0.9,2.1c-0.4,0.6-0.8,1.2-1.4,1.7
				c-0.5,0.5-1.1,1-1.8,1.3c-0.6,0.4-1.3,0.7-2.1,0.9c-0.7,0.2-1.5,0.3-2.3,0.3h-5.6c-0.1,0-0.3,0-0.4-0.1c-0.1-0.1-0.2-0.2-0.2-0.4
				v-16.2c0-0.4,0.2-0.5,0.5-0.5h5.6c1.2,0,2.4,0.2,3.4,0.7c1.1,0.4,2,1.1,2.8,1.8c0.8,0.8,1.4,1.7,1.9,2.7
				C504.3,647,504.5,648.1,504.5,649.4z M493,643.9v10.8h1.1c0.6,0,1.2,0,1.7,0c0.8,0,1.5-0.2,2.1-0.5c0.6-0.3,1.2-0.7,1.7-1.2
				s0.8-1.1,1.1-1.7c0.3-0.7,0.4-1.4,0.4-2.1c0-0.8-0.1-1.5-0.4-2.2c-0.3-0.7-0.7-1.2-1.2-1.7c-0.5-0.5-1.1-0.8-1.8-1.1
				c-0.7-0.3-1.4-0.4-2.1-0.4H493z"/>
			<path class="st9" d="M507.9,641.3c0-0.1,0-0.3,0.1-0.4c0.1-0.1,0.2-0.2,0.4-0.2h2.3c0.1,0,0.3,0,0.4,0.1c0.1,0.1,0.2,0.2,0.2,0.4
				v16.2c0,0.3-0.2,0.5-0.5,0.5h-2.3c-0.3,0-0.5-0.2-0.5-0.5V641.3z"/>
			<path class="st9" d="M528.1,642c0.1,0.1,0.2,0.1,0.2,0.2c0.1,0.1,0.1,0.2,0.1,0.3c0,0.1,0,0.2-0.1,0.3l-1.1,1.9
				c-0.1,0.2-0.3,0.3-0.4,0.3c0,0-0.1,0-0.2,0c-0.1,0-0.1,0-0.2-0.1c-0.5-0.3-1-0.6-1.6-0.8c-0.6-0.2-1.1-0.3-1.8-0.3
				c-0.8,0-1.5,0.1-2.2,0.4c-0.7,0.3-1.2,0.7-1.7,1.2c-0.5,0.5-0.9,1.1-1.1,1.8c-0.3,0.7-0.4,1.4-0.4,2.2c0,0.8,0.1,1.5,0.4,2.2
				s0.6,1.3,1.1,1.8c0.5,0.5,1,0.9,1.7,1.2c0.7,0.3,1.4,0.4,2.2,0.4c0.6,0,1.2-0.1,1.8-0.3c0.6-0.2,1.1-0.5,1.6-0.8
				c0.1,0,0.1-0.1,0.2-0.1c0.1,0,0.1,0,0.2,0c0.1,0,0.3,0.1,0.4,0.3l1.1,1.9c0,0.1,0.1,0.2,0.1,0.3c0,0.1,0,0.2-0.1,0.3
				c-0.1,0.1-0.1,0.1-0.2,0.2c-0.7,0.5-1.5,0.9-2.3,1.1c-0.8,0.3-1.7,0.4-2.6,0.4c-0.8,0-1.6-0.1-2.4-0.3c-0.8-0.2-1.5-0.5-2.1-0.9
				c-0.7-0.4-1.3-0.8-1.8-1.4c-0.5-0.5-1-1.1-1.4-1.8c-0.4-0.7-0.7-1.4-0.9-2.1c-0.2-0.8-0.3-1.5-0.3-2.4c0-0.8,0.1-1.6,0.3-2.4
				c0.2-0.8,0.5-1.5,0.9-2.1c0.4-0.7,0.8-1.3,1.4-1.8c0.5-0.5,1.1-1,1.8-1.4c0.7-0.4,1.4-0.7,2.1-0.9c0.8-0.2,1.5-0.3,2.4-0.3
				c0.9,0,1.8,0.1,2.6,0.4C526.6,641.1,527.4,641.5,528.1,642z"/>
			<path class="st9" d="M535,651c0,0.6,0.1,1.2,0.3,1.7c0.2,0.5,0.4,1,0.8,1.3s0.7,0.6,1.2,0.8c0.5,0.2,1,0.3,1.6,0.3
				c0.6,0,1.1-0.1,1.6-0.3c0.5-0.2,0.9-0.5,1.2-0.9c0.3-0.4,0.6-0.8,0.8-1.3s0.3-1.1,0.3-1.7v-9.7c0-0.1,0.1-0.3,0.2-0.4
				c0.1-0.1,0.2-0.2,0.4-0.2h2.2c0.2,0,0.3,0.1,0.4,0.2c0.1,0.1,0.2,0.2,0.2,0.4v9.8c0,1.2-0.2,2.2-0.6,3.1
				c-0.4,0.9-0.9,1.6-1.6,2.2c-0.7,0.6-1.4,1-2.3,1.3c-0.9,0.3-1.8,0.4-2.8,0.4s-1.9-0.2-2.8-0.5c-0.9-0.3-1.6-0.8-2.3-1.4
				c-0.7-0.6-1.2-1.3-1.6-2.2c-0.4-0.9-0.6-1.9-0.6-3.1v-9.8c0-0.1,0-0.2,0.1-0.3c0.1-0.1,0.2-0.2,0.3-0.2h2.4
				c0.1,0,0.2,0.1,0.4,0.2c0.1,0.1,0.2,0.2,0.2,0.4V651z"/>
			<path class="st9" d="M549.6,641.3c0-0.1,0-0.3,0.1-0.4c0.1-0.1,0.2-0.2,0.4-0.2h2.3c0.1,0,0.3,0,0.4,0.1c0.1,0.1,0.2,0.2,0.2,0.4
				v13.5h7.2c0.1,0,0.3,0,0.4,0.1c0.1,0.1,0.2,0.2,0.2,0.4v2.1c0,0.1,0,0.3-0.1,0.4c-0.1,0.1-0.2,0.2-0.4,0.2h-10.1
				c-0.3,0-0.5-0.2-0.5-0.5V641.3z"/>
			<path class="st9" d="M561,657.5c0-0.2,0.1-0.3,0.1-0.4c0.1-0.1,0.1-0.3,0.1-0.4l6.2-15.5c0-0.1,0.1-0.2,0.2-0.3
				c0.1-0.1,0.2-0.2,0.4-0.2h1.9c0.2,0,0.3,0,0.4,0.1c0.1,0.1,0.1,0.2,0.2,0.2l0.4,0.9l6.1,15.3c0,0,0,0.1,0,0.1s0,0.1,0,0.1
				c0,0.2-0.2,0.3-0.5,0.3h-2.3c-0.2,0-0.3,0-0.4-0.1c-0.1-0.1-0.2-0.2-0.2-0.3l-0.2-0.5c-0.1-0.4-0.3-0.7-0.4-1.1
				c-0.1-0.4-0.3-0.7-0.4-1.1h-7.1c-0.2,0.5-0.4,1-0.6,1.5c-0.2,0.5-0.3,0.9-0.5,1.2c-0.1,0.3-0.3,0.4-0.6,0.4h-2.3
				c-0.1,0-0.3,0-0.4-0.1c-0.1-0.1-0.1-0.1-0.1-0.2C561,657.6,561,657.5,561,657.5z M569.1,645.2c-0.4,1.1-0.8,2.2-1.2,3.3
				c-0.4,1.1-0.8,2.2-1.2,3.3h4.9L569.1,645.2z"/>
			<path class="st9" d="M579.8,641.3c0-0.4,0.2-0.5,0.5-0.5h7.1c0.8,0,1.5,0.1,2.2,0.4c0.7,0.3,1.3,0.7,1.8,1.2
				c0.5,0.5,0.9,1.1,1.2,1.8c0.3,0.7,0.4,1.4,0.4,2.2c0,0.5-0.1,1-0.2,1.5c-0.1,0.5-0.4,0.9-0.6,1.4c-0.3,0.4-0.6,0.8-0.9,1.1
				c-0.4,0.3-0.8,0.6-1.2,0.9l3,5.9c0,0.1,0,0.2,0.1,0.2c0,0.1,0.1,0.2,0.1,0.2c0,0.2-0.1,0.3-0.4,0.3h-2.7c-0.3,0-0.5-0.1-0.6-0.4
				l-2.8-5.6c-0.1,0-0.3,0-0.4,0s-0.3,0-0.6,0c-0.3,0-0.6,0-1,0s-0.9,0-1.6,0v5.5c0,0.3-0.2,0.5-0.5,0.5h-2.3c-0.2,0-0.3,0-0.4-0.1
				s-0.1-0.2-0.1-0.4V641.3z M589.6,646.3c0-0.3-0.1-0.7-0.2-1c-0.1-0.3-0.3-0.6-0.5-0.8c-0.2-0.2-0.5-0.4-0.8-0.6
				c-0.3-0.2-0.6-0.2-1-0.3c-0.3,0-0.5,0-0.8,0s-0.5,0-0.8,0h-2.3v5.4h3.1c0.2,0,0.3,0,0.4,0c0.1,0,0.3,0,0.4,0c0.4,0,0.7-0.1,1-0.3
				c0.3-0.1,0.6-0.3,0.8-0.6c0.2-0.2,0.4-0.5,0.5-0.8C589.5,647,589.6,646.7,589.6,646.3z"/>
		</g>
		<circle class="st12" cx="702.1" cy="486.3" r="3.8"/>
		<circle class="st12" cx="719.7" cy="480.2" r="4.3"/>
		<circle class="st12" cx="726.6" cy="468.9" r="4.2"/>
		<circle class="st12" cx="738.6" cy="457.8" r="4.3"/>
		<circle class="st12" cx="742.9" cy="479.5" r="3.8"/>
		<circle class="st12" cx="757.1" cy="483.1" r="4.2"/>
		<circle class="st12" cx="768" cy="490.2" r="2.9"/>
		<g>
			<path class="st7" d="M740.4,597.2c0,0.4,1.1,4,1.3,4.3c0.3,0.8,0.7,2.4,1.6,3.1c1.5,1.2,2.4,3,4,3.2c0.5,0.1,1.1,0,1.6,0
				c0.8,0,1.6,0.2,2.3,0.9c-0.8-0.1-1.5-0.1-2.2-0.2c0,0.1,0,0.1,0,0.2c0.3,0.1,0.6,0.3,0.9,0.4c1.3,0.2,2.5,0.4,3.8,0.4
				c0.8,0,1.5-0.4,2.3-0.5c1-0.2,2-0.2,2.8,0.5c0.1,0.1,0.2,0.1,0.3,0.3c-1.5-0.4-2.9-0.3-4.5,0.2c1.6,0.5,2.8,1.3,3.2,3.1
				c-1.1-2.2-2.8-2.1-4.7-1.4c1.6,0.5,3.1,0.9,4.5,1.5c0.9,0.4,1.9,0.7,2.9,0.5c0.9-0.3,1.8-0.7,2.7-1.1c0.8-0.3,1.5-0.5,2.3-0.1
				c0.2,0.1,0.4,0.3,0.7,0.4c-1,0.1-1.9,0.2-2.7,0.4c-0.9,0.2-1.7,0.6-2.7,0.9c1.1,0.4,2,1.1,2.8,1.1c0.9,0,1.7-0.6,2.7-0.9
				c-0.5,0.6-1,1.2-1.5,1.8c2.8,1.1,5.6,2.2,8.6,2.2c0,0.1,0,0.2,0,0.2c-0.9,0-1.8,0-2.7,0c-3-0.2-5.8-1.5-8.5-2.6
				c-1.6-0.6-3.3-1.2-4.9-1.7c-0.1,0.1-0.1,0.2-0.2,0.3c0.6,0.4,1.1,0.9,1.7,1.1c1.3,0.5,2.6,0.8,3.8,1.3c0.7,0.3,1.4,0.7,2,1.1
				c0.8,0.5,0.9,1,0.6,2.2c-0.7-2.4-2.7-2.5-4.3-3.3c1,1.4,3.2,1.3,3.7,3.4c-2.3-1.9-4.8-3.4-7.5-4.9c0.4,0.8,0.7,1.5,1,2.1
				c-0.1,0-0.1,0.1-0.2,0.1c-0.4-0.8-1-1.5-1.3-2.3c-0.4-1.3-1.3-1.7-2.4-1.7c-0.3,0-0.7-0.1-1-0.1c1.6,3.1,2.8,4,6.3,5
				c1.1,0.3,2.3,0.8,3.4,1.3c0.9,0.5,1.6,1.3,1.7,2.4c-0.6-0.6-1.2-1.2-1.9-1.7c-0.7-0.5-1.5-0.7-2.5-1.1c0.3,0.9,0.4,1.7,0.8,2.2
				c0.4,0.5,1,0.9,1.4,1.4c-1-0.1-1.8-0.6-2.4-1.6c0.1,0.7,0.2,1.5,0.3,2.3c-0.6-0.1-0.7-0.6-0.8-1.2c-0.1-0.8-0.1-1.7-0.2-2.5
				c-0.1-0.4-0.4-0.9-0.7-1c-0.9-0.5-2-0.8-2.9-1.2c-0.1,0.1-0.1,0.1-0.2,0.2c0.5,0.8,0.9,1.6,1.5,2.3c0.7,1,1.7,1.8,2.3,2.8
				c0.7,1.3,1.6,1.5,2.8,1.4c2.3-0.2,2.6,0.1,5-1.7c-0.1,0.4-0.2,0.6-0.4,1.1c1-0.6,1.8-1.1,2.9-1.7c-0.6-0.1-0.9-0.2-1.2-0.3
				c1.3,0,2.5,0,3.6,0c0,0-0.2,0-0.3,0.1c2.1,0.4,3.7,1.7,5.1,3.4c-1-0.6-2-1.3-2.9-1.8c-0.7-0.3-1.4-0.6-2.1-0.8
				c-1.4-0.3-2.4,0.7-3.5,1.4c0.8,0.3,1.6,0.4,2.2,0.8c0.6,0.4,1.2,0.9,1.7,1.5c0.8,1,1.5,2.1,2.2,3c-0.7-0.2-1.3-0.9-1.9-1.6
				c-1.1-1.2-2.2-2.4-3.8-2.6c-0.7-0.1-1.4,0-2.1,0c0.1,0.9,0.6,1.4,1.6,1.5c1.7,0.2,2.9,1.1,3.5,2.8c0,0.1,0,0.2-0.1,0.4
				c-0.5-0.6-0.9-1.2-1.4-1.7c-0.5-0.4-1.2-0.7-1.9-0.9c0.5,0.9,2,1.1,1.6,2.6c-0.7-0.7-1.5-1.4-2.2-2.1c-0.3-0.3-0.7-0.6-1-1
				c-0.7-1.2-1.7-1.5-2.9-1.3c-0.3,0.1-0.6,0-0.9,0.1c1,1.2,2,2.3,3.6,2.6c0.5,0.1,1.1,0.6,1.5,1.1c0.9,1,1.9,1.4,3.2,1.2
				c1.4-0.2,2.7,0.2,3.9,1c0.7,0.5,0.8,1.2,0.6,2.2c-1.1-2.5-2.1-3-5.2-2.5c1.1,0.9,2.2,1.8,3.2,2.7c0,0-0.1,0.1-0.1,0.1
				c-1.8-1.2-3.6-2.4-5.3-3.8c-0.9-0.7-1.6-1.6-2.9-1.8c0.2,0.2,0.3,0.4,0.4,0.6c1.4,1.8,3.1,3.1,5,4.3c0.6,0.4,1.1,0.8,1.6,1.3
				c0.4,0.4,0.6,1,0.3,1.5c-0.3-0.4-0.6-1-0.9-1.4c-0.4-0.4-0.8-0.7-1.4-1.1c0.1,1.2,0.1,2.2,0.4,3.1c0.3,0.9,1,1.5,1.4,2.2
				c-1.5-0.5-2.1-1.3-2-3c0-1.4-0.5-2.5-1.5-3.4c-0.4-0.4-0.9-0.8-1.5-1.1c0.2,0.9,0.3,1.8,0.6,2.6c0.7,1.9,0.4,3.7-0.7,5.4
				c-0.4,0.6-0.7,1.1-1.1,1.8c-0.1-1.1,0.4-1.8,0.9-2.5c0.8-1.2,0.9-2.5,0.5-4.1c-0.5,1.6-1.2,2.9-2.4,3.8c-0.4,0.3-0.5,0.7-0.3,1.2
				c0.3,0.7,0.7,1.3,1,1.9c0.1,0.2,0.1,0.4,0.1,0.6c-0.1-0.1-0.3-0.1-0.4-0.3c-1.1-1.5-1.7-3.2-2.2-4.9c-0.2-0.8-0.4-1.5-0.7-2.4
				c-0.3,0.4-0.5,0.6-0.8,1.1c0-1.1,0.9-2.2-0.2-3.1c-0.5,4.1-0.2,8,1.7,11.7c-0.7-0.3-1.2-1-1.5-2c-0.4-1.8-0.7-3.5-1-5.3
				c-0.1-0.3-0.2-0.6-0.4-0.9c-0.1,0.8-0.1,1.6,0.2,2.4c0.3,0.7,0.3,1.5,0.4,2.2c0,0.1-0.1,0.2-0.3,0.6c-0.1-0.8-0.2-1.4-0.3-2.1
				c-0.1,1.2-0.2,2.2-0.4,3.2c-0.1,0.5-0.3,1-0.6,1.4c-0.2,0.3-0.7,0.3-1.2,0.4c1.6-1,1.6-2.7,1.6-4.3c0-0.2,0-0.3,0-0.5
				c0-1.6,0-1.6-1.3-2.4c-0.5,1.9-1,3.8-1.5,5.7c-0.2,0.9,0.1,1.8,0.6,2.6c0.2,0.4,0.5,0.8,0.7,1.1c-0.1,0-0.1,0.1-0.2,0.1
				c-0.6-0.8-1.2-1.6-1.9-2.4c-0.4,0.6-0.8,1.1-1,1.8c-0.2,0.4,0,1.1,0.1,1.5c0.3,1.1,0.7,2.2,1,3.3c0.1,0.3,0,0.6-0.1,1
				c-0.4-1.3-0.9-2.6-1.4-4.1c-0.3,0.6-0.6,1.1-0.8,1.5c-0.1,0.2,0.1,0.6,0.2,0.8c0.7,0.9,1.4,1.8,1.4,3c0,0.2,0,0.3-0.2,0.5
				c-0.1-0.3-0.2-0.6-0.3-0.8c-0.4-0.7-0.8-1.4-1.2-2.1c-0.3-0.5-0.7-0.4-0.9,0.1c-0.6,0.9-1,1.8-0.7,2.9c0.1,0.2,0,0.5,0,0.9
				c-0.7-1.4-0.7-2.5-0.1-3.8c0.8-1.6,0.8-1.3-0.4-2.5c-1.2-1.2-2.4-2.4-3.7-3.5c-0.8,1-1,4.8,1.1,6.8c-0.8-0.2-1.2-0.6-1.6-1.3
				c-0.5-1-0.5-2.2-0.5-3.3c0-0.6-0.1-0.9-0.7-1c-1-0.3-2-0.7-3-1.1c-0.5-0.3-0.8-0.8-1.2-1.2c-0.1,0.4-0.3,0.8-0.5,1.4
				c1.5,2.6,2.7,5.4,1.9,8.7c0,0.1-0.2,0.3-0.5,0.6c0-0.5,0-0.7,0-1c0.3-1.8,0.1-3.5-0.6-5.1c-0.3-0.7-0.9-1.3-1.4-1.9
				c-0.2,0.7-0.4,1.5-0.6,2.3c-0.2,0.8-0.7,1.4-1.4,1.8c0.9-1.4,1.4-3,1.6-4.6c0.1-1.2,0.3-2.4-0.2-3.6c-0.4-0.8-0.4-1.8-0.7-3
				c-0.5,0.9-0.9,1.6-1.4,2.3c-0.7,0.6-1.5,1.2-2.2,2.1c-0.8,1.1-1,2.4-0.4,3.6c1,2.1,2.1,4.2,3,6.1c-1.8-2.4-4-4.9-4.1-8.5
				c-0.5-0.2-0.8,0-0.9,0.6c-0.4,1.7,0,3.3,0.5,4.9c0.2,0.6,0.2,1.3,0.3,2c0,0.2-0.1,0.3-0.3,0.5c-0.5-2.3-1.6-4.5-1.3-7
				c0.1-0.9-0.2-1.2-1.2-1c0.1,1,0.2,1.9,0.4,2.9c0,0-0.1,0-0.1,0c-0.2-0.8-0.5-1.6-0.7-2.5c-0.1-0.7-0.5-0.7-0.8-0.3
				c-0.3,0.3-0.6,0.7-0.7,1.2c-0.4,1.3-0.8,2.6-1.2,3.8c-0.4,1.1-0.5,2.1-0.1,3.2c0.2,0.4,0.2,0.9,0.2,1.4c-0.7-1-1.2-2.1-1-3.3
				c0.2-1.2,0.6-2.3,1-3.7c-0.7,0.7-1.5,1.2-1.9,1.9c-0.5,0.7-0.8,1.6-1.1,2.5c-0.2,0.8-0.3,1.7-0.5,2.6c-0.5-0.7-0.4-1.5-0.3-2.3
				c0.1-0.6,0.3-1.2,0.4-1.8c0.1-0.1,0.3-0.2,0.4-0.3c0.6-0.7,1.2-1.5,1.9-2.2c0.3-0.3,0.7-0.5,1-0.8c1.4-1.5,0.8-3.6,1.5-5.3
				c-1.1,1.4-2.6,2.4-2.9,4.5c-0.1-0.4-0.3-0.9-0.2-1.2c0.3-0.8,0.7-1.5,1.1-2.2c0.4-0.6,0.9-1.2,1.2-1.8c0.1-0.2,0.1-0.6,0.1-0.8
				c-1.2,0.6-2.2,1.1-3.3,1.5c-0.9,0.4-0.9,0.4-0.6,1.4c0.3,1.1,0.5,2.2,0.7,3.3c0.3,1.5-0.2,2.7-0.9,3.9c-0.2,0.4-0.4,0.7-0.7,1.2
				c-0.3-0.8,0-1.3,0.3-1.8c0.8-1.4,0.9-2.8,0.5-4.3c-1.4,0.6-2.2,2.1-2.6,4.9c-0.1-0.4-0.3-0.7-0.3-1.1c0-1.4,0.5-2.6,1.5-3.5
				c1.2-1.1,1.2-2.3,0.4-3.5c-0.5,0.4-1.1,0.9-1.6,1.3c0.1-0.6,0.5-1.1,1-1.4c0.6-0.3,0.7-0.7,0.5-1.4c-0.1-0.3-0.2-0.6-0.4-1
				c-0.8,1.7-1.5,3.3-2.3,5c0,0-0.1,0-0.1,0c0.1-0.5,0.1-1,0.3-1.4c0.4-1,0.8-2,1.3-3c0.5-1.2,1.4-2,2.5-2.5
				c1.5-0.7,2.6-2.1,3.4-3.6c0.5-0.8,0.5-1.8,0.3-2.7c-0.4-1.7-0.5-3.4-0.1-5.2c0.3-1.3,0.9-2.3,2-3c0.3-0.2,0.5-0.6,0.6-1
				c0.2-0.6,0.4-1.2,0.6-1.8c-0.3,0-0.5,0-0.7-0.1c-0.1,0-0.3-0.1-0.3,0c-0.4,0.8-1.3,0.5-1.9,0.8c-0.6,0.3-0.9,0.8-0.8,1.5
				c0,1,0.1,2,0.2,3.1c0,0.5-0.1,0.9-0.1,1.4c-0.1,0-0.1,0-0.2,0c-0.1-0.5-0.1-1.1-0.2-1.6c0,0-0.1,0-0.1,0c-0.2,0.5-0.4,1-0.6,1.5
				c-0.1,0-0.1,0-0.2,0c0-0.4-0.1-0.8,0-1.1c0.3-1.2,0.6-2.4,0.9-3.8c-1,0.2-1.7,1.2-1.7,2.3c0,0.8,0.3,1.6,0.4,2.4
				c0.3,1.2,0.9,2.5,1,3.7c0.2,2.6-0.8,4.5-3.2,5.5c-0.5,0.2-0.9,0.4-1.4,0.6c1.4-1.5,3.6-2.2,3.9-4.8c-1.5,0.5-3.1,0.6-4.3,1.5
				c-1.3,1-1.6,2.8-1,4.3c0.5,1.4,0.7,2.8-0.2,4.1c0.2-1.3,0.3-2.5-0.2-3.6c-0.8,1.3-1.5,2.7-2.3,4c-0.1-0.1-0.2-0.1-0.2-0.2
				c0.3-0.4,0.5-0.8,0.8-1.2c0.8-1.2,1.1-2.5,1-3.9c0-0.5-0.5-1.1-0.8-1.6c-0.1,0-0.2,0.1-0.3,0.1c0,0.6-0.1,1.3-0.1,1.9
				c-0.1,0.9-0.1,1.9-0.2,2.8c-0.1,0.7-0.6,1.3-1.2,1.6c0.7-1,0.8-2.2,0.7-3.4c-1.9,1-3.5,5.4-2.9,8.1c-0.6-0.3-1-1.2-0.8-2
				c0.4-2,1.1-3.8,2.1-5.5c0.1-0.3,0.4-0.5,0.6-0.6c1.4-0.7,1.3-2,1.4-3.4c-0.9,0.4-1.8,0.8-2.6,1.3c-0.3,0.2-0.5,0.9-0.6,1.4
				c-0.1,0.4,0,0.8,0,1.2c-0.1,0-0.2,0-0.3,0c-0.1-0.7-0.1-1.4-0.2-2.1c-1.1-0.1-1.8,0.7-2.8,2.6c-0.7,1.4-0.6,2.7-0.4,4.2
				c-0.6-0.7-0.9-1.4-0.8-2.4c0.3-1.8,1.2-3.3,2.4-4.6c0.5-0.6,1.1-1.2,1.6-1.8c1.6-1.7,2.2-3.8,2.6-6.1c0.1-0.4,0.1-0.8,0.2-1.2
				c-1.1-0.2-1.8,0.4-2.4,1.2c0-1,0.6-1.8,1.7-2c0.3-0.1,0.8-0.3,0.8-0.5c0-0.6-0.1-1.3-0.2-1.9c0-0.1-0.4-0.2-0.5-0.1
				c-0.7,0.4-1.4,0.8-2.1,1.2c-0.5,0.3-0.7,0.8-0.3,1.4c0.5,1,0.6,2.1,0.2,3.2c-0.1,0.2-0.3,0.4-0.5,0.6c0.1-1.3,0.5-2.7-0.5-4
				c-0.6,0.8-0.8,1.6-0.9,2.5c-0.2,1.4-0.3,2.7-0.6,4.1c-0.3,1.3-1,2.4-2.4,2.8c-0.2,0.1-0.4,0.1-0.6,0.1c2.5-0.9,2.9-4.4,2.7-7.1
				c-0.6,0.6-1.3,1.2-1.9,1.9c-0.6,0.7-1.1,1.4-1.6,2.1c0-0.2-0.1-0.4-0.1-0.7c-0.9,0.3-1.7,0.7-2.6,1c1.2,1.5,2.8,2.8,2.2,5
				c-0.2-1.5-0.9-2.8-1.9-3.8c-1-1.1-1.3-1.1-2.4-0.1c0.1-0.9,0.2-1.7,0.3-2.6c-0.1-0.1-0.1-0.1-0.2-0.2c-0.2,0.4-0.4,0.7-0.6,1.1
				c-0.1-0.1-0.2-0.1-0.4-0.2c0.9-1.4,1.1-2.9,0.5-4.5c-0.7,0.8-1.1,1.7-1.1,2.8c0,1.2,0,2.4-0.5,3.6c-0.3,0.7-0.7,1.1-1.7,0.9
				c0.9-0.5,1.4-1.2,1.5-2.2c0-0.4,0.1-0.7,0.1-1.1c-0.2-1.7,0.3-3.2,1.2-4.5c0.6-1,0.6-1-0.5-1.5c-0.1,0-0.1-0.1-0.2-0.2
				c1,0.3,1.2-0.2,1.5-1.1c0.2-0.8,0.6-1.5,0.9-2.2c0.1-0.2,0.2-0.5,0.2-0.8c-1.3,0.8-2.4,2-4,2c1.1-0.4,2.2-0.9,2.8-2.2
				c0.3,0.1,0.8-1,0.7-1.6c-0.1-0.4-0.2-0.7-0.5-1.1c-0.1,0.3-0.2,0.6-0.4,1c-1.6,0.2-1.6,1.1-1.6,2.5c-0.4-0.2-0.7-0.4-1-0.5
				c0.2,0,0.5,0,0.9,0c-0.6-0.6-0.6-1.2-0.1-1.7c-0.2-0.2-0.5-0.4-0.7-0.6c-0.1,0.2-0.2,0.3-0.2,0.3c0,0.7,0.1,1.4,0.1,2
				c-0.5,0.1-1,0.2-1.5,0.3c0-0.1,0-0.2,0-0.2c0.3-0.1,0.7-0.1,1.2-0.2c0-0.8-0.1-1.6-0.1-2.4c0.6-0.2,0.9,0,1.3,0.5
				c0.8-0.8,1.7-1.6,2.6-2.4c1.2-1.1,2.7-1.4,4.2-1.2c1.4,0.2,2.8,0.3,4.2,0.5c2.8,0.4,5.5,0.3,8.3-0.2c2.2-0.4,4.4-1,6.3-2.3
				c1.5-1,3-2.1,4.5-3.2c0.7-0.5,1.4-1.2,2.1-1.9c0.6-0.6,0.8-1.4,0.9-2.4c-2.4,0.7-3.1,3.3-4.8,4.5c-0.4,0-0.7-0.2-0.9,0
				c-0.5,0.4-1.1,0.9-1.5,1.4c-0.3,0.4-0.6,0.8-1,1.2c0.4-1.7,1.3-2.9,2.9-3.4c0.9-0.3,1.5-0.9,2-1.7c-1.2,0.7-2.3,1.5-3.5,2.2
				c-0.7,0.4-1.4,0.7-2,1.2c-0.3,0.2-0.8,0.5-0.9,0.9c-0.4,1.4-1.3,2.1-2.6,2.7c0.3-0.4,0.4-0.6,0.6-0.8c-1.8,0.6-3.4,2.1-5.6,1.4
				c0.7-0.2,1.4-0.2,2-0.5c1.3-0.5,2.6-1.2,4-1.8c0.1-0.1,0.3,0,0.4-0.1c0.2-0.2,0.4-0.4,0.5-0.7c-5,2.5-10,3.2-15.3,1.5
				c5.6,1,11,0.2,15.9-2.9c-1.4,0.5-2.6,1.1-4,1.4c-1.4,0.3-2.8,0.3-4.2,0.4c-1.4,0.1-2.8,0.2-4.2,0.2c3.5-0.8,7.1-0.4,10.4-2
				c-2.1-0.5-4.2-0.9-6.2,0.6c-0.6,0.5-1.3,0.9-2.3,0.7c0.9-0.5,1.7-1,2.5-1.4c0-0.1,0-0.2-0.1-0.3c-1.7-0.1-3.3,0.7-5.1,0.6
				c0.3-0.1,0.6-0.3,0.9-0.3c1.1-0.3,2.2-0.6,3.3-0.9c0.2-0.1,0.5-0.1,0.7,0c0.8,0.4,1.6,0.3,2.5-0.1c-1.1-0.6-2.1-0.9-3.4-0.8
				c0.5-0.5,1-0.7,1.5-0.5c1.6,0.6,3.2,1.1,4.8,1.7c1.4,0.5,2.6,0.4,3.7-0.7c0.6-0.6,1.2-1.1,2-1.8c-1.5-0.1-2.6,0.6-3.7,1.3
				c-0.8,0.6-1.6,0.6-2.5,0.1c-0.1-0.1-0.2-0.1-0.3-0.1c0-0.1,0.1-0.1,0.1-0.2c0.6,0,1.1,0.1,1.7,0.1c0-0.1,0-0.2,0-0.3
				c-1.4-0.1-2.8-0.2-4.2-0.3c0-0.1,0-0.2,0-0.3c0.8,0,1.6,0.1,2.4,0c1.8-0.4,3.6-0.8,5.4-1.4c1.8-0.7,4-1.2,5.2-2.9
				c0.7-0.9,4.4-2.4,5-7.7 M747.4,642.6c-0.3,0.3-0.5,0.5-0.9,0.2c-0.1-0.1-0.5-0.1-0.7,0c-0.6,0.1-0.7,0.1-0.9-0.5
				c0.3,0.1,0.8,0.2,1.2,0.3c0-0.1,0.1-0.1,0.1-0.2c-0.9-0.9-1.7-1.8-1.5-3.3c-0.5,0.5-1,1-1.6,1.6c0.6-1.3,1.1-2.5,1.6-3.7
				c0.1-0.4,0.1-0.8,0.1-1.3c-0.1,0-0.2,0-0.3,0c-0.2,0.6-0.5,1.3-0.7,1.9c-0.8-1.1,0.8-2.1,0.3-3.3c-0.1,0.2-0.2,0.3-0.3,0.4
				c-0.2-0.3-0.4-0.7-0.7-1c-0.3-0.3-0.6-0.5-0.9-0.7c-0.1,0-0.2,0.1-0.3,0.1c0.1,0.5,0.1,1.1,0.3,1.5c0.2,0.4,0.8,0.7,1.2,1
				c-0.4,0.1-0.6,0.1-0.9,0.1c1.4,2.8,1.2,3,0.3,4c0-0.6,0-1.2,0-1.8c-0.6,1-0.6,2.1-0.2,3.1c0.3,0.6,0.8,1.1,1.1,1.7
				c0.5,0.9,1,1.9,2.2,1.9c0,0,0.1,0.1,0,0.1c-0.7,0.5-1.6-0.5-2.4,0.1c0,0.1,0,0.2,0,0.3c0.9,0.3,1.8,0.6,2.6,0.9
				c0.3-1,0.5-1.8,0.7-2.6C747.2,643.2,747.3,642.9,747.4,642.6c0.5-0.7,0.3-1.2-0.3-1.7c-0.3-0.2-0.5-0.6-0.7-0.9
				c0,0,0.1-0.1,0.1-0.1c0.5,0.4,1,0.8,1.4,1.1c0.5-1,1-1.8,1.5-2.7c0.3-0.6,0.6-1.3,0.7-1.9c0.2-0.7,0.2-1.5-0.5-2
				c-0.5-0.4-1.2-0.6-1.9-1c0.8,2.1,0.7,4,0.2,5.8c-0.1-1.2,0-2.3-0.1-3.5c-0.1-1.2-0.5-2.2-1.5-3c-0.1,0.7-0.2,1.2-0.3,1.8
				c-0.2,1.5-0.3,3,0.8,4.1c0.2,0.2,0.2,0.5,0.3,0.8c-0.1,0-0.1,0.1-0.2,0.1c-0.4-0.5-0.9-1.1-1.4-1.7c-0.5,1.7-0.2,3.1,0.8,4.4
				C746.6,642.6,746.9,642.8,747.4,642.6z M754,619.4c-0.1,0.1-0.1,0.2-0.2,0.2c-1.8-0.6-3.1-1.6-4.4-3.1c-0.5-0.6-1.2-0.7-1.7-0.4
				c0.4,0.6,0.8,1.1,1.1,1.8c0.4,1,1.1,1.8,1.9,2.4c0.3,0.2,0.5,0.3,0.9,0.1c0.9-0.6,1.9-0.3,2.5,0.7c-0.7-0.4-1.4-0.7-2.1-0.1
				c0.7,0.2,1.3,0.3,2,0.4c0.6,0.1,0.8,0.3,0.9,0.9c-1.5-0.4-3-0.8-4.5-1.2c2.4,3.1,5.7,3.2,9,3.4c0-0.1,0.1-0.1,0.1-0.2
				c-1.5-2-3.1-4-4.7-6.1c0.5,1.4,0.9,2.7,1.3,4c-0.3-0.3-0.7-0.6-1-1c-0.7-0.9-1-2.1-1.1-3.3c-0.3-2.4-1.8-4.4-3.9-4.9
				c-1.1-0.3-2.2-0.5-3.2-0.7c-2-0.4-3.5-1.6-4.5-3.5c-0.4-0.7-0.7-1.4-1-2.1c0.1,1.5,0.5,2.9,1.4,4c1.2,1.5,2.6,2.9,3.9,4.3
				c0.1,0.1,0.4,0.1,0.6,0.2c1.1,0.2,2.2,0.3,3.3,0.6c1.1,0.4,2,1.2,2.5,2.4c-0.9-0.7-1.7-1.6-2.9-1.8c0,0.1-0.1,0.1-0.1,0.2
				C751.4,617.7,752.7,618.6,754,619.4z M748.5,625.6c-0.1,0.1-0.1,0.1-0.2,0.2c0.8,0.8,1.4,1.6,2.3,2.2c1.7,1.3,3.6,2.4,5.3,3.7
				c1.1,0.8,2.1,1.8,3.2,2.8c0.1-0.3,0.2-0.6,0.2-0.8c0-1,0.4-1.9,0.9-2.7c0.4-0.7,0.5-2.6,0-3.5c0,0.8,0.1,1.5,0.1,2.3
				c-0.7-0.6-0.8-1.4-0.6-2.2c0.2-1.1-0.1-1.6-1.2-1.6c-1-0.1-2-0.1-3-0.1c-0.2,0-0.4,0-0.6,0c0,0.1-0.1,0.1-0.1,0.2
				c0.8,0.6,1.6,1.1,2.4,1.8c0.6,0.5,1.2,1.2,1.6,1.9c0.4,0.6,0.2,1.1-0.2,1.7c-0.2-1.5-0.7-2.8-2.3-3.3c0.1,0.8,0.2,1.5,0.2,2.2
				c-0.1,0-0.2,0-0.2,0.1c-0.3-0.9-0.5-1.7-0.8-2.6c-0.1,0-0.2,0-0.2,0.1c0.1,0.7,0,1.4,0.3,2c0.3,0.6,0.9,1,1.4,1.5
				c-1,0-1.9-0.7-2.1-1.8c-0.1-0.5-0.1-1.1-0.1-1.6c0-1.2-0.5-1.9-1.6-2.4c-2.5-1-4.6-2.4-5.9-5.1c-0.1-0.2-0.5-0.3-0.7-0.4
				c-0.1,0.1-0.1,0.2-0.2,0.3c0.3,0.3,0.7,0.6,1,0.9c-0.2,0.1-0.1,0.1-0.1,0.8c0,1.3,0.6,2.1,1.4,3c0.5,0.5,0.9,0.7,1.6,0.5
				c0.6-0.1,1.3-0.3,1.9,0.3c-0.7,0.1-1.3,0.2-1.9,0.3c0.2,0.2,0.4,0.4,0.5,0.4c0.5,0,1.1,0,1.6,0.1c1,0.1,1.4,0.5,1.3,1.5
				c-0.7-0.9-1.1-1.1-2-0.7c0.8,0.7,1.8,1.3,2.1,2.4C752.2,628.4,750.3,627,748.5,625.6z M716,618.1c-0.1-0.1-0.1-0.2-0.2-0.3
				c-0.5-0.1-1-0.2-1.5-0.3c-2.2-0.3-4.2,0.3-6.1,1.5c-0.4,0.2-0.4,0.5,0,0.7c0.1,0.1,0.2,0.1,0.3,0.1c0,0.1-0.1,0.2-0.1,0.2
				c-0.3-0.2-0.5-0.4-0.9-0.7c-0.1,0.3-0.2,0.6-0.3,1c-0.3-0.7-0.8-0.6-1.2-0.2c-0.2,0.2-0.5,0.7-0.4,0.9c0.2,0.7,0.8,0.9,1.6,0.4
				c-0.7,0.7-0.6,1.2,0.1,2c0.9-0.5,1.7-1,2.7-1.6c-0.8,0-1.5,0-2.1,0c0-0.1,0-0.2,0-0.2c0.8,0.1,1.6,0.1,2.5,0.2
				c0.4,0,0.7-0.5,0.5-0.9c-0.1-0.2-0.3-0.4-0.4-0.6c0.9,0,0.5,0.9,0.9,1.3c0.2-0.3,0.5-0.5,0.7-0.8c-0.5-0.6-0.9-1.1-1.3-1.5
				c1.3,1.1,1.4,1.1,2.9,0.2c0.6-0.4,1.2-0.7,1.7-1.1C715.6,618.4,715.8,618.3,716,618.1z M735.4,612.9c-0.1-0.1-0.1-0.1-0.2-0.2
				c-0.9,0.8-1.8,1.6-2.8,2.6c0.3-0.6,0.4-1,0.7-1.5c-1.2,0.5-1.5,1.7-2.2,2.5c0-0.4,0.1-0.8,0.2-1.1c0.6-1.5,1.8-2.1,3.1-2.5
				c1.5-0.6,2.7-2.7,2.4-4.5c-0.9,2.4-2.5,4-4.4,5.3c-0.9,0.6-1.7,1.3-2,2.5c-0.1,0.4-0.3,0.7-0.5,1c-0.6,0.7-1.3,1.3-1.9,2
				c-1,0.9-2.1,1.8-3,2.8c-0.9,0.9-1,2.1-0.6,3.4c1-2.3,2.9-3.8,4.9-4.9c0.9-0.5,1.4-1.2,1.8-2.2c-1.4,1.1-2.6,2.3-4.3,2.6
				c1.1-0.9,2.3-1.8,3.5-2.7c1-0.8,2.1-1.5,3.4-1.6c0.2,0,0.5-0.2,0.6-0.3C734.7,615.1,735.1,614.1,735.4,612.9z M717.1,620.6
				c0-0.1-0.1-0.1-0.1-0.2c0.7-0.4,1.3-0.8,2-1.1c0.9-0.5,1.4-1,1.4-1.7c-0.9,0.1-1.8,0.2-2.7,0.2c-1.4,0.1-2,0.6-2.1,2.2
				c0,0.6-0.3,0.8-0.8,0.8c0.1-0.4,0.3-0.9,0.4-1.3c-0.1,0-0.1-0.1-0.2-0.1c-0.7,0.4-1.3,0.8-2.1,1.3c4.2,1.6,8.2,1.7,11.8-4
				c-0.2,0-0.5,0-0.7,0c-0.4,0.1-0.9,0.2-1.3,0.3c-1.2,0.4-1.3,0.6-1,1.9c0.1,0.4,0,0.8,0,1.1c-0.1,0-0.1,0-0.2,0
				c-0.1-0.7-0.2-1.4-0.3-2.1c-0.1,0-0.1,0-0.2,0c-0.3,0.8-0.5,1.5-0.8,2.3c-0.1,0-0.1,0-0.2,0c0-0.3-0.1-0.5-0.1-0.8
				C718.9,619.6,718,620.1,717.1,620.6z M704.4,631.4c0.2,0.3,0.4,0.7,0.6,1.1c0.4,0.6,0.9,0.7,1.5,0.3c0.6-0.4,1.2-0.8,1.8-1.1
				c1.1-0.6,1.4-1.8,1.5-2.9c0-0.2-0.2-0.5-0.4-0.6c-1.1-0.3-2.1-0.5-3.2-0.7c-0.2,0-0.6,0.2-0.7,0.4c-0.4,1.1-0.7,2.1-1,3.2
				C704.5,631.1,704.4,631.2,704.4,631.4z M728.4,635.8c-1,1.4-2.3,2.5-3.8,3.2c-0.2,0.1-0.5,0.4-0.4,0.6c0.1,0.6,0.3,1.3,0.5,1.9
				c1.7-0.7,3.1-1.6,4.2-2.9c1.5-1.8,1.4-3.9,1.1-6c-0.3-1.8-0.4-3.7,0.1-5.5c0.2-0.8,0.4-1.7,0.7-2.5c-0.1,0-0.2,0-0.2,0
				c-0.1,0-0.1,0.1-0.2,0.2c-1,1.3-1.4,2.8-1.3,4.4c0.1,1.2,0.4,2.4,0.4,3.6c0.2,3-1.1,5.4-2.9,7.6c-0.2,0.2-0.4,0.3-0.7,0.5
				C726.7,639.1,728,637.7,728.4,635.8z M724.6,626.5c-1.2,1.5-2.6,2.1-4.1,2.8c-0.8,0.4-1.5,0.8-2.3,1.2c-0.7,0.3-0.8,0.9-0.6,1.5
				c0.2,0.7,0.6,1.3,1,1.9c0.1,0.2,0.5,0.3,0.7,0.1c0.5-0.3,0.9-0.8,1.3-1.2c0.7-0.8,1.5-1.5,2.2-2.3
				C723.7,629.4,724.4,628.1,724.6,626.5z M765.9,632.4c-0.7,1.4-1.5,2.9-2.3,4.3c-0.1,0-0.2-0.1-0.3-0.1c0-0.3,0-0.7,0.2-1
				c0.2-0.5,0.5-1,0.8-1.4c1.2-1.7,1.2-3.4-0.2-5.2c-0.2,0.9-0.5,1.7-0.7,2.6c-0.1,0.5-0.2,1.1-0.5,1.5c-0.5,0.7-0.5,1.3-0.3,2.1
				c0.4,1.2,0.7,2.4,1.1,3.8C765.5,637.2,766.6,633.9,765.9,632.4z M729.7,615.4c-0.6,0.4-1.1,0.8-1.6,1.2c-1.5,1.4-3,2.8-4.4,4.1
				c-0.4,0.4-0.9,0.7-1.1,1.2c-0.5,1-0.9,2.2-1.4,3.3c-0.1,0.3-0.2,0.6-0.2,1c0,0.4,0.1,0.7,0.6,0.6c0.6-0.1,1.1-0.3,1.7-0.5
				c0.4-0.1,0.5-0.4,0.4-0.9c-0.1-0.5-0.2-1.1-0.1-1.6c0.1-1.5,0.9-2.7,2-3.6c1.2-1,2.3-2,3.5-3.1
				C729.4,616.7,729.8,616.3,729.7,615.4z M738.1,623.2c-0.1,0-0.1,0.1-0.2,0.1c-0.3-0.3-0.6-0.6-0.9-0.9c-0.3-0.3-0.5-0.4-0.8,0
				c-1.2,1.5-1.2,4.2,0.1,5.7c0.4,0.5,0.9,0.7,1.5,0.4c0.6-0.3,0.8-0.8,0.8-1.5c0-0.7-0.1-1.4,0-2.1c0-0.5-0.1-0.7-0.6-0.7
				c-0.6,0.1-1.3,0.2-1.9,0.4c0.2-0.1,0.4-0.4,0.6-0.5c0.5-0.2,1.1-0.4,1.6-0.6c0.6-0.2,0.6-0.7,0.5-1.2c-0.1-0.7-0.7-0.3-1-0.6
				c-0.1,0.2-0.2,0.4-0.1,0.5C737.8,622.7,738,622.9,738.1,623.2z M739.8,634.6c-0.6,0.2-0.5,0.7-0.5,1.1c0.2,1,0.2,2,0.8,2.8
				c0.3,0.4,0.5,1,0.5,1.6c0.2,1.1,0.6,2,1.5,2.7c0.2,0.2,0.3,0.5,0.4,0.8c0,0-0.1,0-0.1,0c-0.2-0.3-0.4-0.6-0.6-0.9
				c-0.1,0.1-0.1,0.1-0.2,0.2c0.4,0.8,1,1.4,1.8,1.8c0.2,0.1,0.6-0.2,0.9-0.3c0-0.1,0-0.2,0-0.2c-0.6-0.2-1.8,0.2-1.1-1.2
				c-0.2,0-0.3,0-0.4,0c-0.1-0.4-0.2-0.8-0.4-1.1c-0.5-1.2-0.8-2.5-0.2-3.7c0.5-1.2,0-2.1-0.7-3c-0.8,1.2-1.1,2.3-0.4,3.7
				c-0.7-0.4-1.1-0.9-0.9-1.6c0.2-0.9,0.5-1.9,0.8-2.8c0.1-0.5,0.2-0.8-0.4-1.2c-0.1,0.9-0.2,1.7-0.3,2.4c0,0-0.1,0-0.1,0
				C739.9,635.3,739.9,635,739.8,634.6z M743.5,632.7c-0.2-0.9,0.2-2-0.4-2.9c-0.5-0.7-0.8-1.5-1.2-2.2c-0.7-1.1-1-2.2-0.4-3.4
				c0,0,0-0.1-0.1-0.3c-0.2,0.2-0.5,0.4-0.6,0.6c-0.2,0.6-0.4,1.1-0.5,1.7c-0.2,1.4,0.7,2.4,1.4,3.5c0.2,0.3,0.4,0.6,0.7,0.9
				c0,0-0.1,0.1-0.1,0.1c-1-1.1-2.1-2.1-2.5-3.7c-0.5,1.2,0.1,2.9,1.1,3.5C741.6,631.3,742.5,632,743.5,632.7z M752.9,635.6
				c0.2,0.3,0.4,0.5,0.6,0.8c0.5,0.9,1,1.9,0.4,2.9c-0.6,1-0.7,1.9-0.3,3c0.2,0.6,0.5,0.7,0.8,0.3c0.7-0.7,1.3-1.4,1.8-2.2
				c0.4-0.6,0.3-1.4-0.3-1.9c-0.2,0.8-0.4,1.5-0.6,2.2C755.7,637.6,755.5,637.1,752.9,635.6z M756.4,638.4c0.1,0,0.2-0.1,0.2-0.1
				c-0.1-0.5-0.1-1-0.2-1.4c-0.4-2.5-1.4-4.5-3.5-5.7c-1.2-0.7-2.4-1.5-3.6-2.3c-0.4-0.3-0.8-0.6-1.3-0.9c-0.1,1.4,0.8,1.8,1.6,2.3
				c0.8,0.5,1.6,0.8,2.4,1.3c1.8,1.3,3.3,2.8,3.7,5.2C755.9,637.3,756.2,637.8,756.4,638.4z M720.7,633c1.1-0.4,2.3-0.8,3.6-1.3
				c0.6-0.2,1.2-0.3,1.7-0.5c0.3-0.1,0.6-0.6,0.6-0.9c0-1.3-0.7-2.3-1.3-3.6C724.7,628.9,723.8,630.9,720.7,633z M748.5,645.4
				c1.2,1.2,2.5,2.4,3.8,3.7c0.7-1.4,1-2.7,0.9-4C751.6,645.1,750.1,645.3,748.5,645.4z M718.9,622.3c-2.1,0.1-4.1-0.1-6-1.1
				c-0.1-0.1-0.5,0-0.5,0.1c-0.1,0.4-0.3,0.9-0.2,1.4c0.1,0.4,0.5,1,0.8,1C715,624,717,623.5,718.9,622.3z M710.3,617.4
				c-1.5-0.8-2.9-0.9-4.3-0.4c-1,0.4-1.5,1.5-1.1,2.6c0.2,0.5,0.4,0.7,0.8,0.2c0.3-0.3,0.7-0.6,1.1-0.8
				C707.9,618.5,709.1,618,710.3,617.4z M750.5,643.1c0.2-1.1,0.4-2.2,0.5-3.4c0.2-1.1,0.3-2.2-0.1-3.3c-0.6,1.1-1.1,2.2-1.7,3.3
				C748.2,641.8,748.4,642.4,750.5,643.1C750.5,643.1,750.6,643.1,750.5,643.1z M755,636.2c-0.2-1.6-2.9-4.6-4.5-4.8
				c0.7,0.6,1.3,1.2,1.9,1.8c-1.6-0.5-2.6-2.1-4-3.2C748.9,631.7,751.9,634.4,755,636.2z M709.6,627.4c0-1,0-1.9,0-2.8
				c0-0.1-0.2-0.4-0.3-0.4c-1.4-0.5-2.3,0.2-2.1,1.8c0,0.2,0,0.5,0.1,0.7c0.1,0.2,0.3,0.5,0.4,0.5
				C708.3,627.3,708.9,627.3,709.6,627.4z M754.2,610.7c0-0.1,0-0.3,0.1-0.4c-1.2-0.2-2.5-0.4-3.7-0.5c-0.9-0.1-1.6-0.3-2.3-0.9
				c-0.3-0.2-0.6-0.4-1-0.5c-0.6-0.2-1.2-0.3-1.9-0.4c1,1.2,2.2,2.1,3.6,2.4C750.7,610.7,752.5,610.6,754.2,610.7z M760.7,626.4
				c0.2,0.4,0.2,0.7,0.4,0.9c0.8,1,0.7,2,0.3,3.1c-0.2,0.4-0.2,0.9-0.3,1.4c1.2-0.5,2.3-2.2,2.2-3.2
				C763.1,627.6,762.2,626.7,760.7,626.4z M734.3,632.9c0.1-0.4,0.2-0.6,0.2-0.8c0.3-1.6-0.8-2.4-1.7-3.2c-0.2-0.2-0.6-0.3-0.8-0.4
				c-0.1,0.4-0.3,0.8-0.3,1.2c0,0.3,0.2,0.7,0.4,0.9C732.7,631.3,733.4,632,734.3,632.9z M745.9,627.5c-0.1,0-0.1,0.1-0.2,0.1
				c0.5,1.2,1,2.3,1.5,3.5c-0.1,0-0.1,0.1-0.2,0.1c-0.3-0.4-0.6-0.8-0.8-1.3c0,0.7-0.1,1.5,0.3,1.8c0.7,0.6,1.6,0.9,2.6,1.5
				c-0.5-1.2-1-2.1-1.2-3.1C747.6,628.8,746.6,628.3,745.9,627.5z M733.8,636c-0.4,0.6-0.7,1.3-1.1,1.9c-0.1,0.2-0.1,0.5-0.1,0.7
				c0.3,1.1-0.1,2.1-0.7,2.9c-0.2,0.3-0.4,0.6-0.7,0.9C734.1,640.5,735.2,637.7,733.8,636z M751.7,638.4c-0.2,1.4-0.5,2.7-0.7,4.1
				c-0.1,0.5,0,0.8,0.6,0.9c1.5,0.2,1.7,0,1.3-1.6c-0.1-0.3-0.3-0.5-0.5-0.8C752.9,640.1,752.1,639.3,751.7,638.4z M705.7,622.2
				c-0.1,0-0.2,0-0.3,0c-0.4,1.1-0.8,2.2-1.2,3.4c-0.1,0.3-0.4,0.8,0.2,0.9c0.5,0.1,0.9,0.3,1.1-0.5c0.1-0.4,0.4-0.7,0.6-1
				c0.7-0.9,0.7-1,0.1-2C706,622.7,705.8,622.4,705.7,622.2z M743.1,624.1c-1.1,1.5-0.8,3.2,0.7,4.8
				C744.9,626.8,744.9,626.8,743.1,624.1z M718.5,626.7c0.1,0,0.1,0,0.2,0c0.6-1.7,2.4-2.5,3.1-4.3c-1.1,0.4-2.1,0.7-3.1,1.1
				c-0.2,0.1-0.4,0.3-0.3,0.4C718.4,624.8,718.5,625.8,718.5,626.7z M710.2,624.4c0,0.8-0.1,1.5-0.1,2.2c0,0.6,0.3,0.8,0.7,0.5
				c0.6-0.3,1.3-0.7,1.8-1.1c0.4-0.3,0.4-0.6,0-1C712,624.3,711.2,624.4,710.2,624.4z M736.5,636.9c-0.5-1.2-0.5-2.6-1.8-3
				c-0.4,0.4-0.3,0.8,0,1.3c0.9,1,1.1,2.2,0.6,3.5c-0.1,0.3-0.1,0.5-0.2,0.8c0,0,0.1,0,0.1,0c0.7-1.1,1.5-2.2,2.3-3.4
				c-0.3-0.3-0.6-0.5-0.9-0.8C736.6,635.9,736.6,636.3,736.5,636.9z M748.1,642.3c0,0.7-0.1,1.3,0,1.9c0,0.2,0.3,0.6,0.5,0.6
				c0.9,0.1,1.9,0.1,2.8,0c0.5,0,0.9-0.3,1.5-0.5c-1-0.2-1.8-0.2-2.6-0.5C749.6,643.5,748.9,642.8,748.1,642.3z M739.2,634.2
				c0.1-0.2,0.3-0.4,0.3-0.6c0-0.7-0.1-1.4-0.2-2c-0.1-0.4-0.5-0.8-0.8-1c-0.7-0.4-1.4-0.6-2.1-0.8
				C737.3,631.3,738.2,632.7,739.2,634.2z M738.4,610.7c-0.7,1.6-0.6,3.3,0,4.9c0.4,1.4,0.7,1.4,1.6,0.3c0,0,0-0.1,0.1-0.2
				C738.9,614.3,738.5,612.5,738.4,610.7z M731,636.6c-0.3,0.6-0.6,1.3-0.8,1.9c-0.2,0.6-0.2,1.3-0.2,2c0,0.6,0,1.3,0,2
				c0.1,0,0.2,0,0.3,0c-0.1-1.4,0.7-2.4,1.3-3.6C732,638.1,731.8,637.3,731,636.6z M732.4,637.5c0.3-0.6,0.6-1.2,0.9-1.7
				c0.1-0.1,0.1-0.4,0-0.5c-0.7-0.7-1.4-1.4-2.1-2.2C730.7,635,731.6,636.2,732.4,637.5z M735.8,628.8c-0.3-1.1-0.8-2.2-1-3.4
				c-0.2-1.2,0.3-2.3,0.9-3.3c-0.8,0-1.2,0.3-1.2,1c-0.1,1.3-0.2,2.7-0.2,4C734.4,628.2,734.8,628.6,735.8,628.8z M720.6,627.6
				c-0.1-0.3-1.1-0.6-1.9-0.2c-0.9,0.4-0.4,1.5-0.8,2.3c1.6-0.8,3-1.6,4.5-2.4c0-0.1-0.1-0.2-0.1-0.3
				C721.8,627.2,721.2,627.4,720.6,627.6z M759,637.3c0.3-1.8-0.4-3-2.1-3.4C757.5,636.4,757.6,636.6,759,637.3z M744.9,626
				c0.1,0,0.1,0,0.2,0c0.1-1.3,0.9-2.5,0.3-3.9c-0.5,0.5-1,0.9-1.4,1.3c-0.1,0.2-0.2,0.5-0.2,0.7C744.1,624.7,744.5,625.3,744.9,626
				z M733,642.7c0.7-0.3,0.9-0.4,0.9-1.4c-0.9,0.9-1.8,1.8-2.7,2.7c-0.1,1.2,1,0.5,1.5,0.9c0.2-0.7,0.4-1.4,0.7-2.1
				C733.3,642.8,733.2,642.7,733,642.7z M740.6,620.2c-0.3,0.8-0.4,1.4-0.7,2c-0.2,0.6,0.1,1.2,0.7,1.1c0.6,0,1.1-0.2,1.7-0.2
				c0-0.1,0-0.1,0-0.2c-0.3-0.2-0.6-0.5-0.9-0.7c-0.3-0.2-0.6-0.2-0.9-0.3c0-0.1,0-0.1,0.1-0.2c0.2,0.1,0.4,0.2,0.8,0.3
				C741.1,621.2,740.8,620.7,740.6,620.2z M738,636.8c-1.4,1.5-2.1,2.7-0.9,3.6C738.2,638.9,738.6,637.4,738,636.8z M718.3,634.5
				c-0.4-0.8-0.8-1.4-1.2-2.2c-0.4,1.2-0.8,2.3-1.2,3.4c0.1,0,0.2,0.1,0.2,0.1C716.9,635.4,717.6,635,718.3,634.5z M738.9,620.3
				c0.4-0.3,0.7-0.5,1.1-0.8c-0.5-0.2-0.8-0.4-1.2-0.6c0-0.1,0-0.1,0.1-0.2c0.4,0.2,0.8,0.3,1.2,0.5c0.3-0.7-0.3-0.9-0.7-1.2
				c-0.8-0.5-1.2,0.3-1.5,0.8C737.4,619.8,738.7,619.7,738.9,620.3z M753,639.7c0.7-1.6-0.1-3.4-1.9-4.3
				C751.8,636.9,752.4,638.3,753,639.7z M733.7,617c-1-0.1-1.6,0.3-2.1,1c-0.3,0.4-0.6,0.9-0.3,1.5C732.4,619,733.2,618.2,733.7,617
				z M735.6,631.9c0.3,2,1.4,3.6,2.6,3.7C737.7,634,736.6,633.1,735.6,631.9z M741.5,617.1c-0.6,1-0.6,1,0.7,2.4
				c0.4,0.4,0.8,0.3,1.4-0.1C742.9,618.7,742.2,618,741.5,617.1z M735.8,639.6c-0.3,0.8-0.6,1.5-0.9,2.2c-0.1,0.2,0,0.5,0.1,0.7
				c0.3-0.1,0.6-0.1,0.7-0.2C736.7,641.3,736.7,641.2,735.8,639.6z M737.2,615.3c-0.5,1.5-1,3-1.6,4.5
				C736.7,619.3,737.5,617,737.2,615.3z M721.8,633.4c-0.8,0.4-1.5,0.7-2.1,1c-0.1,0.1-0.2,0.5-0.1,0.6c0.2,0.4,0.6,0.7,0.9,1
				c0.2-0.5,0.4-0.9,0.6-1.3C721.2,634.3,721.5,634,721.8,633.4z M746.9,620c-0.7-1.7-1.9-3.3-3-3.5
				C745,617.6,745.3,619.3,746.9,620z M741.7,620C741.7,620,741.6,620,741.7,620c0,0.4,0.2,0.6,0.3,0.9c0.2,0.8,0.7,1,1.4,1
				c0.3,0,0.7-0.2,0.7-0.4c0-0.4-0.1-0.9-0.3-1.3c-0.1-0.2-0.4-0.2-0.7-0.2c-0.2,0-0.3,0.1-0.5,0.1c0.1,0.1,0.2,0.2,0.2,0.3
				c0.1,0,0.2,0,0.3,0.1c0.2,0.2,0.4,0.3,0.6,0.5c0,0-0.2,0.4-0.3,0.4c-0.2,0-0.5-0.1-0.7-0.3C742.5,620.8,742.1,620.4,741.7,620z
				 M740,609.9c-0.1,2,0,3.7,1.5,5c-0.2-0.8-0.6-1.5-0.8-2.3C740.4,611.8,740.3,610.9,740,609.9z M704.2,629.9c0.1,0,0.2,0,0.2,0
				c0.2-0.9,0.4-1.7,0.5-2.6c0-0.2-0.4-0.4-0.7-0.5c0,0-0.3,0.3-0.3,0.4C704,628.1,704.1,629,704.2,629.9z M747.6,628
				c-0.1-1.4-1.3-2-1.5-3.4C745.5,626.3,745.9,627.1,747.6,628z M745,627.9c-1,1.4-0.8,2.3,0.7,3.2C745.5,630,745.2,629,745,627.9z
				 M710.2,629.6c0.1,0.1,0.1,0.1,0.2,0.2c0.6-0.7,1.1-1.3,1.8-2.2c-0.8,0.2-1.3,0.4-1.9,0.6C710.3,628.7,710.2,629.2,710.2,629.6z
				 M732.2,631.7c-0.1,0.1-0.1,0.1-0.2,0.2c0.6,0.8,1.2,1.6,1.8,2.3c0.5-0.4,0.5-0.7,0.1-1C733.3,632.7,732.7,632.2,732.2,631.7z
				 M760.2,636.1c0.1-1.2,0.1-2.2,0.2-3.2C759.5,633.9,759.5,635.3,760.2,636.1z M720.6,625.1c-0.6,0.5-1.2,0.7-1.3,1.5
				c1.2,0.4,1.2,0.4,1.2-0.8C720.5,625.7,720.6,625.5,720.6,625.1z M740.1,624.2c-0.3,0.1-0.7,0.1-0.7,0.2c-0.1,0.7-0.2,1.4-0.3,2.1
				c0,0,0.1,0,0.1,0.1c0-0.2,0.1-0.3,0.1-0.5c0.1,0.1,0.2,0.2,0.2,0.3C739.7,625.6,739.9,625,740.1,624.2z M711.6,622.5
				c-0.1,0-0.2-0.1-0.2-0.1c-0.3,0.4-0.6,0.9-1.1,1.4c0.7,0,1.1,0,1.5,0C711.7,623.3,711.7,622.9,711.6,622.5z M706.9,627.1
				c-0.1-0.8-0.1-1.4-0.2-2c-0.1,0-0.1,0-0.2-0.1c-0.2,0.5-0.4,1-0.6,1.5C705.9,626.7,706.5,626.9,706.9,627.1z M742.4,614.9
				c-0.5,0.8-0.4,0.9,1.3,2C743.2,616.2,742.8,615.6,742.4,614.9z M710.1,622.7c-0.6,0.3-1.1,0.5-1.8,0.8
				C709.5,624,709.7,623.9,710.1,622.7z M761.6,632.3c0.2,0.4,0.3,0.7,0.5,0.9c0.1,0,0.1,0,0.2,0c0.2-0.5,0.4-1,0.6-1.5
				c-0.1,0-0.1-0.1-0.2-0.1C762.4,631.8,762.1,632.1,761.6,632.3z M739.4,617.1c0,0.1,0.1,0.3,0.1,0.4c0.4-0.1,0.7-0.1,1.1-0.3
				c0,0-0.1-0.5-0.1-0.7C740.2,616.7,739.8,616.9,739.4,617.1z M737.5,618.1c1-0.6,1-1.1,0.3-1.9
				C737.8,616.8,737.7,617.4,737.5,618.1z"/>
		</g>
		<circle class="st7" cx="738.9" cy="595.7" r="2.4"/>
		<circle class="st7" cx="738.9" cy="587" r="2.4"/>
		<circle class="st7" cx="738.9" cy="578.2" r="2.4"/>
		<circle class="st7" cx="738.9" cy="569.2" r="2.4"/>
		<circle class="st7" cx="738.9" cy="560.2" r="2.4"/>
		<circle class="st7" cx="738.9" cy="551.2" r="2.4"/>
		<circle class="st7" cx="738.9" cy="542" r="2.4"/>
		<circle class="st7" cx="745.3" cy="551.2" r="2.4"/>
		<circle class="st7" cx="731.8" cy="551.2" r="2.4"/>
		<circle class="st7" cx="735.3" cy="546.3" r="2.4"/>
		<circle class="st7" cx="742.6" cy="546.3" r="2.4"/>
		<circle class="st7" cx="710.1" cy="611.6" r="2.4"/>
		<circle class="st7" cx="766.3" cy="611.6" r="2.4"/>
		<circle class="st7" cx="710.7" cy="644.3" r="2.4"/>
		<circle class="st7" cx="701.1" cy="627.4" r="2.4"/>
		<circle class="st7" cx="773.3" cy="627.4" r="2.4"/>
		<circle class="st7" cx="767" cy="644.3" r="2.4"/>
		<circle class="st7" cx="737" cy="654.5" r="2.4"/>
	</g>
</g>
<g>
	<g>
		<path class="st13" d="M662,724.3l-61.5-0.2c-0.2-0.4-0.4-0.7-0.7-1.1c-0.7-0.8-1.8-1.8-2.9-2.5c-1.1-0.7-1.9-1.3-2.7-1.3
			c-0.2,0-0.3,0-0.5,0.2c-0.2,0.1-0.3,0.4-0.3,0.6c0,0,0,0,0,0.1c0.1,1,0.8,1.5,1.6,2.3c0.7,0.6,1.4,1.3,1.9,1.8
			c-0.8,0-2.2,0-4.2-0.1c-0.1-0.3-0.3-0.6-0.6-0.9c-0.6-0.8-1.6-1.7-2.5-2.5c-0.9-0.7-1.6-1.3-2.4-1.3c-0.3,0-0.8,0.3-0.8,0.6
			c0,0,0,0.1,0,0.1c0,0.6,0.3,0.9,0.6,1.4c0.5,0.7,1.2,1.4,1.8,2c0.1,0.1,0.2,0.2,0.3,0.3c-1.3-0.1-2.8-0.2-4.4-0.3
			c-0.3-0.8-1-1.7-1.7-2.6c-0.5-0.5-1-1-1.4-1.4c-0.5-0.4-0.8-0.7-1.3-0.7c-0.2,0-0.6,0.2-0.6,0.5c0,0.1,0,0.2,0,0.3
			c0,0.9,0.7,1.7,1.3,2.6c0.3,0.4,0.6,0.8,0.8,1.2c0,0,0,0,0,0c-1.5-0.1-3-0.3-4.7-0.5c-0.2-0.7-0.8-1.5-1.4-2.4
			c-0.4-0.5-0.8-0.9-1.2-1.3c-0.4-0.3-0.6-0.6-1.1-0.6c-0.2,0-0.5,0.2-0.5,0.4c0,0.1,0,0.2,0,0.3c0,0.7,0.6,1.4,1.1,2.2
			c0.2,0.3,0.4,0.7,0.6,0.9c-1.4-0.3-2.8-0.6-4.1-1c-0.1-0.6-0.6-1.4-1.1-2.1c-0.3-0.4-0.6-0.8-0.9-1.1c-0.3-0.3-0.5-0.5-0.9-0.5
			c-0.2,0-0.4,0.1-0.4,0.3c0,0.1,0,0.2,0,0.2c0,0.6,0.4,1.2,0.8,1.8c0.2,0.3,0.3,0.5,0.4,0.7c-0.9-0.3-1.8-0.7-2.5-1
			c-1-1.1-5.2-3.5-5.7-2.6c-0.6,0.9,3.6,3.3,5.3,3.3c0.8,0.4,1.7,0.7,2.6,1.1c-0.3,0.1-0.6,0.3-0.9,0.5c-0.4,0.2-0.7,0.4-1,0.5
			c-0.3,0.2-0.5,0.3-0.6,0.6c0,0,0,0.1,0,0.1c0,0.2,0.2,0.4,0.3,0.4c0.1,0,0.2,0,0.3,0c0.5,0,1.5-0.2,2.4-0.6
			c0.7-0.3,1.4-0.5,1.8-0.9c1.3,0.4,2.7,0.7,4.1,1c-0.3,0.2-0.8,0.5-1.2,0.7c-0.4,0.2-0.8,0.5-1.2,0.7c-0.3,0.2-0.6,0.4-0.7,0.8v0
			l0,0h0c0,0,0,0.1,0,0.1c0,0.2,0.2,0.5,0.3,0.5c0.1,0.1,0.2,0.1,0.3,0.1c0.6,0,1.7-0.3,2.9-0.8c1-0.5,2-0.8,2.4-1.5
			c1.3,0.2,2.7,0.4,4.1,0.6c-0.3,0.2-0.7,0.4-1.1,0.7c-0.5,0.3-0.9,0.6-1.3,0.8c-0.4,0.3-0.7,0.4-0.8,0.9h0c0,0,0,0,0,0.1
			c0,0.2,0.2,0.5,0.4,0.6c0.2,0.1,0.3,0.1,0.4,0.1c0.7,0,2-0.5,3.3-1c1.1-0.6,2.2-1,2.7-1.8c1.5,0.2,3,0.3,4.4,0.4
			c-0.4,0.3-0.9,0.7-1.4,1.1c-0.5,0.4-1,0.8-1.3,1.1c-0.4,0.4-0.7,0.6-0.8,1.1h0l0,0c0,0,0,0,0,0.1c0,0.2,0.1,0.5,0.3,0.6
			c0.2,0.1,0.3,0.1,0.4,0.1c0.8,0,2.1-0.7,3.6-1.5c0.7-0.4,1.3-0.9,1.9-1.3c0.4-0.4,0.7-0.7,0.9-1c1.5,0.1,2.7,0.1,3.7,0.1
			c-0.4,0.3-0.8,0.7-1.2,1.1c-0.5,0.5-1,0.9-1.4,1.3c-0.4,0.4-0.7,0.7-0.7,1.3c0,0.2,0.1,0.5,0.3,0.6c0.2,0.1,0.4,0.1,0.5,0.1
			c0.5,0,1-0.3,1.7-0.6c1-0.5,2.1-1.3,3.1-2.1c0.8-0.7,1.5-1.3,1.9-2l61.5,0.2c5.7,0,10.2,4.6,10.2,10.3l-0.1,34.5l-126.2-0.4
			l0.1-34.5c0-5.7,4.6-10.2,10.3-10.2l0-1.2c-6.3,0-11.5,5.1-11.5,11.4l-0.1,41.6c0,6.3,5.1,11.5,11.4,11.5l105.7,0.3
			c6.3,0,11.5-5.1,11.5-11.4l0.1-41.6C673.4,729.5,668.3,724.4,662,724.3z"/>
		<polygon class="st14" points="596.7,800.1 598.1,800.1 598.2,797.5 600.5,797.5 600.5,796.3 598.2,796.3 598.2,794.9 600.7,794.9 
			600.7,793.7 596.7,793.6 		"/>
		<path class="st14" d="M604,795.3c-1.5,0-2.5,1-2.5,2.5c0,1.5,1.1,2.4,2.4,2.4c1.3,0,2.5-0.8,2.5-2.5
			C606.4,796.3,605.5,795.3,604,795.3z M604,799.2c-0.6,0-1-0.6-1-1.4c0-0.7,0.3-1.4,1-1.4c0.7,0,0.9,0.7,0.9,1.4
			C604.9,798.7,604.5,799.2,604,799.2z"/>
		<path class="st14" d="M608.7,796.3L608.7,796.3l-0.1-0.9l-1.3,0c0,0.4,0,0.9,0,1.6l0,3.2l1.5,0l0-2.4c0-0.1,0-0.2,0-0.3
			c0.1-0.5,0.5-0.7,1-0.7c0.2,0,0.3,0,0.4,0l0-1.4c-0.1,0-0.2,0-0.3,0C609.5,795.4,608.9,795.6,608.7,796.3z"/>
		<path class="st14" d="M616,793.6c-1.9,0-3.2,1.4-3.2,3.4c0,1.9,1.1,3.3,3,3.3c1.9,0,3.2-1.3,3.2-3.4
			C619.1,795.1,618,793.6,616,793.6z M616,799.1c-1,0-1.6-0.9-1.6-2.2c0-1.3,0.6-2.2,1.6-2.2c1,0,1.6,1,1.6,2.2
			C617.5,798.2,617,799.1,616,799.1z"/>
		<path class="st14" d="M621.4,796.4L621.4,796.4l-0.1-0.9l-1.3,0c0,0.4,0,0.9,0,1.6l0,3.2l1.5,0l0-2.4c0-0.1,0-0.2,0-0.3
			c0.1-0.5,0.5-0.7,1-0.7c0.2,0,0.3,0,0.4,0l0-1.4c-0.1,0-0.2,0-0.3,0C622.2,795.4,621.6,795.7,621.4,796.4z"/>
		<path class="st13" d="M627,796.1L627,796.1c-0.3-0.4-0.7-0.7-1.3-0.7c-1.2,0-2.1,1-2.2,2.5c0,1.4,0.8,2.3,2,2.3
			c0.5,0,1-0.2,1.3-0.6l0,0l0,0.3c0,0.9-0.5,1.2-1.2,1.2c-0.6,0-1.1-0.2-1.4-0.4l-0.3,1.1c0.4,0.2,1.1,0.4,1.7,0.4
			c0.7,0,1.4-0.1,1.9-0.6c0.5-0.5,0.7-1.2,0.7-2.1l0-2.6c0-0.7,0-1.1,0-1.4l-1.3,0L627,796.1z M626.8,798.1c0,0.1,0,0.3-0.1,0.4
			c-0.1,0.3-0.4,0.6-0.8,0.6c-0.6,0-1-0.6-1-1.3c0-0.9,0.4-1.3,1-1.3c0.4,0,0.7,0.3,0.8,0.6c0,0.1,0,0.2,0,0.3L626.8,798.1z"/>
		<path class="st14" d="M633.4,797.5c0-1.1-0.5-2-2.1-2.1c-0.9,0-1.5,0.2-1.8,0.4l0.3,0.9c0.3-0.2,0.8-0.4,1.3-0.4
			c0.7,0,0.9,0.4,0.9,0.6l0,0.1c-1.7,0-2.8,0.6-2.8,1.8c0,0.8,0.6,1.4,1.5,1.5c0.6,0,1-0.2,1.4-0.6l0,0l0.1,0.5l1.3,0
			c-0.1-0.3-0.1-0.7-0.1-1.1L633.4,797.5z M632,798.5c0,0.1,0,0.2,0,0.3c-0.1,0.3-0.4,0.5-0.8,0.5c-0.3,0-0.6-0.2-0.6-0.6
			c0-0.6,0.6-0.7,1.4-0.7L632,798.5z"/>
		<path class="st14" d="M637.4,795.4c-0.8,0-1.3,0.4-1.5,0.8l0,0l-0.1-0.7l-1.3,0c0,0.4,0,0.9,0,1.5l0,3.2l1.5,0l0-2.7
			c0-0.1,0-0.3,0-0.4c0.1-0.3,0.3-0.5,0.8-0.5c0.5,0,0.7,0.4,0.7,1l0,2.6l1.5,0l0-2.8C639.1,796.1,638.4,795.4,637.4,795.4z"/>
		<path class="st14" d="M641.1,793.5c-0.5,0-0.8,0.3-0.8,0.7c0,0.4,0.3,0.7,0.8,0.7c0.5,0,0.8-0.3,0.8-0.7
			C641.8,793.8,641.5,793.5,641.1,793.5z"/>
		
			<rect x="638.7" y="797.2" transform="matrix(3.133768e-03 -1 1 3.133768e-03 -158.885 1436.4655)" class="st14" width="4.7" height="1.5"/>
		<path class="st14" d="M645.5,796.6c0.4,0,0.6,0.1,0.8,0.1l0.2-1.1c-0.3-0.1-0.7-0.2-1.1-0.2c-1.8,0-2.7,1.1-2.7,2.5
			c0,1.5,1,2.4,2.5,2.4c0.6,0,1.1-0.1,1.3-0.2l-0.2-1.1c-0.2,0.1-0.5,0.2-0.8,0.2c-0.7,0-1.3-0.5-1.3-1.3
			C644.2,797.1,644.7,796.6,645.5,796.6z"/>
		<path class="st14" d="M653.3,797.6c0,1.2-0.4,1.7-1.2,1.7c-0.7,0-1.2-0.6-1.2-1.7l0-3.7l-1.5,0l0,3.6c0,2.1,0.9,3,2.6,3
			c1.7,0,2.7-0.9,2.7-3l0-3.6l-1.5,0L653.3,797.6z"/>
		<path class="st14" d="M658,797.5c-0.6-0.2-0.8-0.3-0.8-0.6c0-0.2,0.2-0.4,0.6-0.4c0.4,0,0.8,0.2,1,0.3l0.3-1
			c-0.3-0.1-0.8-0.3-1.3-0.3c-1.2,0-1.9,0.7-1.9,1.5c0,0.6,0.4,1.1,1.3,1.4c0.5,0.2,0.7,0.3,0.7,0.5c0,0.2-0.2,0.4-0.6,0.4
			c-0.4,0-1-0.2-1.3-0.4l-0.3,1c0.4,0.2,0.9,0.3,1.5,0.3c1.4,0,2-0.6,2-1.5C659.3,798.2,658.9,797.8,658,797.5z"/>
		<path class="st14" d="M662.4,795.5c-1.6,0-2.4,1.3-2.4,2.5c0,1.5,0.9,2.4,2.5,2.4c0.6,0,1.2-0.1,1.7-0.3l-0.2-1
			c-0.4,0.1-0.8,0.2-1.3,0.2c-0.7,0-1.3-0.3-1.3-0.9l3,0c0-0.1,0-0.3,0-0.6C664.5,796.7,663.9,795.5,662.4,795.5z M661.4,797.5
			c0-0.4,0.3-1,0.9-1c0.7,0,0.8,0.6,0.8,1L661.4,797.5z"/>
		<polygon class="st13" points="620.6,767.3 620.7,734.4 620.4,734.4 605.5,752.5 590.5,734.3 590.2,734.3 590.1,767.2 594.7,767.2 
			594.8,746.3 605.2,759.4 605.5,759.4 616.1,746.4 616,767.2 		"/>
		<path class="st13" d="M648.2,747.5c0-7.4-4.6-12.3-13.1-12.4l-7.9,0l-0.1,32.2l4.9,0l0-7.7l3,0c0.8,0,1.5,0,2.2-0.1l5.2,7.8l5.8,0
			l-6.2-9.2C646,756.3,648.2,752.4,648.2,747.5z M634.8,755.3l-2.9,0l0-15.7l2.9,0c5.9,0,8.4,3,8.3,7.8
			C643.2,752.4,640.8,755.3,634.8,755.3z"/>
		<polygon class="st13" points="653.7,764.2 653.7,767.7 664.6,767.8 664.6,764.3 661.6,764.2 661.7,738.7 664.7,738.7 664.7,735.2 
			653.8,735.2 653.8,738.7 656.8,738.7 656.7,764.2 		"/>
		<path class="st13" d="M568.8,767.5c8.9,0,16-7,16-16.5c0-9.5-7-16.6-15.9-16.6c-8.9,0-16,7-16,16.5
			C552.9,760.5,560,767.5,568.8,767.5z M568.9,739.1c6.4,0,10.9,5.1,10.9,12c0,6.8-4.5,11.9-10.9,11.9c-6.4,0-10.9-5.1-10.9-12
			C558,744.1,562.5,739,568.9,739.1z"/>
	</g>
	<g>
		<path class="st7" d="M554,774l2.4,0l0,8.7l4.3,0l0,2.1l-6.7,0L554,774z"/>
		<path class="st7" d="M577.1,774.1l0,10.8l-2.4,0l0-10.8L577.1,774.1z"/>
		<path class="st7" d="M591.7,782.4c0.6,0.3,1.7,0.7,2.7,0.7c1.1,0,1.7-0.5,1.7-1.2c0-0.7-0.5-1.1-1.8-1.5c-1.8-0.6-3-1.6-3-3.2
			c0-1.8,1.6-3.2,4.1-3.2c1.2,0,2.1,0.2,2.7,0.6l-0.5,1.9c-0.4-0.2-1.2-0.5-2.2-0.5c-1.1,0-1.6,0.5-1.6,1c0,0.7,0.6,1,2,1.5
			c1.9,0.7,2.8,1.7,2.8,3.2c0,1.8-1.4,3.3-4.3,3.3c-1.2,0-2.4-0.3-3.1-0.7L591.7,782.4z"/>
		<path class="st7" d="M614.9,776.2l-2.9,0l0-2l8.3,0l0,2l-2.9,0l0,8.7l-2.4,0L614.9,776.2z"/>
		<path class="st7" d="M640.4,780.5l-4,0l0,2.6l4.4,0l0,2l-6.9,0l0-10.8l6.6,0l0,2l-4.2,0l0,2.2l4,0L640.4,780.5z"/>
		<path class="st7" d="M655,774.5c0.9-0.2,2.1-0.2,3.3-0.2c2.1,0,3.4,0.3,4.4,1.1c1.1,0.8,1.8,2.2,1.8,4.1c0,2.1-0.8,3.5-1.8,4.4
			c-1.1,0.9-2.9,1.4-5,1.4c-1.3,0-2.2-0.1-2.8-0.2L655,774.5z M657.4,783.2c0.2,0,0.6,0,0.9,0.1c2.2,0,3.7-1.2,3.7-3.8
			c0-2.3-1.3-3.4-3.4-3.4c-0.5,0-0.9,0-1.1,0.1L657.4,783.2z"/>
	</g>
</g>
<text transform="matrix(1 0 0 1 571.9863 176.1387)"><tspan x="0" y="0" class="st7 st15 st16">CERO</tspan><tspan x="-31.7" y="21" class="st7 st15 st16">HORMONAS</tspan><tspan x="-31.3" y="42" class="st7 st15 st16">SINTTICAS</tspan></text>
<text transform="matrix(1 0 0 1 778.0586 264.3169)"><tspan x="0" y="0" class="st7 st15 st17">MAYOR VIDA </tspan><tspan x="-1.4" y="25.2" class="st7 st15 st17">RADICULAR Y</tspan><tspan x="4.6" y="50.4" class="st7 st15 st17">MS RACES</tspan><tspan x="-12.9" y="75.6" class="st7 st15 st17">ABSORBENTES</tspan><tspan x="21" y="100.8" class="st7 st15 st17">POR MS </tspan><tspan x="35.1" y="125.9" class="st7 st15 st17">TIEMPO</tspan></text>
<text transform="matrix(1 0 0 1 279.0664 241.5977)"><tspan x="0" y="0" class="st7 st15 st18">USLO EN:</tspan><tspan x="-14" y="21.9" class="st7 st15 st18">TRASPLANTE,</tspan><tspan x="-18.5" y="43.8" class="st7 st15 st18">DESARROLLO </tspan><tspan x="-12.1" y="65.6" class="st7 st15 st18">VEGETATIVO,</tspan><tspan x="-7" y="87.5" class="st7 st15 st18">FLORACIN,</tspan><tspan x="-13.9" y="109.4" class="st7 st15 st18">LLENADO DE </tspan><tspan x="10.5" y="131.3" class="st7 st15 st18">RGANO</tspan><tspan x="-10.1" y="153.1" class="st7 st15 st18">DE RESERVA</tspan></text>
<text transform="matrix(1 0 0 1 792.834 818.5684)"><tspan x="0" y="0" class="st7 st15 st17">INHIBIDOR</tspan><tspan x="18.6" y="25.2" class="st7 st15 st17">DEL AIA</tspan><tspan x="-26.9" y="46.9" class="st7 st15 st19">(CIDO INDOLACTICO)</tspan><tspan x="-5.3" y="72.1" class="st7 st15 st17">OXIDACIN</tspan><tspan x="50.4" y="97.3" class="st7 st15 st17">DE</tspan><tspan x="20.8" y="122.4" class="st7 st15 st17">RACES</tspan></text>
<text transform="matrix(1 0 0 1 250.9189 821.3662)"><tspan x="0" y="0" class="st7 st15 st17">DESARROLLO</tspan><tspan x="27.4" y="25.2" class="st7 st15 st17">NATURAL</tspan><tspan x="69" y="50.4" class="st7 st15 st17">DE</tspan><tspan x="44" y="75.6" class="st7 st15 st17">MICRO</tspan><tspan x="-2.8" y="100.8" class="st7 st15 st17">ORGANISMOS</tspan></text>
<text transform="matrix(1 0 0 1 926.7646 712.4795)" class="st8 st20 st18">ORGNICO</text>
<text transform="matrix(1 0 0 1 104.6294 712.4795)" class="st8 st20 st18">RACES FUNCIONALES</text>
<text transform="matrix(1 0 0 1 502.6489 1126.832)" class="st8 st20 st21">VIDA RADICULAR</text>
<g>
	<defs>
		<rect id="SVGID_1_" x="517.6" y="815.3" width="182.8" height="53.1"/>
	</defs>
	<clipPath id="SVGID_2_">
		<use xlink:href="#SVGID_1_"  style="overflow:visible;"/>
	</clipPath>
	<path class="st22" d="M549.8,841.8c0-3.7-3-6.7-6.7-6.7c-3.7,0-6.7,3-6.7,6.7c0,3.7,3,6.7,6.7,6.7
		C546.8,848.5,549.8,845.5,549.8,841.8"/>
	<path class="st23" d="M530.1,841.5c0-7.1,5.9-12.8,13.1-12.8c4.4,0,8.2,2.1,10.6,5.3l6.1-6.1c-4.1-4.4-10.2-7.2-17-7.2
		c-12.4,0-22.5,9.5-22.5,21.1c0,5.8,2.5,11,6.5,14.8l6.8-6.4C531.4,847.9,530.1,844.9,530.1,841.5"/>
	<path class="st24" d="M560,855.5l-6.5-6.2c-2.4,3-6.1,5-10.4,5c-3.8,0-7.2-1.6-9.6-4.1l-6.8,6.4c4.1,3.9,9.8,6.3,16.1,6.3
		C549.7,863,555.9,860.1,560,855.5"/>
	<path class="st25" d="M565.5,833.4c0-5.1,3.8-8.9,9.1-8.9c3.2,0,6,1.5,7.5,4l-3.4,2c-0.8-1.3-2.3-2.1-4-2.1c-3.1,0-5.1,2-5.1,5.1
		c0,3.1,2,5.1,5.1,5.1c1.8,0,3.3-0.8,4-2.1l3.4,2c-1.5,2.4-4.3,4-7.5,4C569.3,842.4,565.5,838.5,565.5,833.4"/>
	<path class="st25" d="M582.7,833.4c0-5.1,4.1-8.9,9.2-8.9c5.1,0,9.2,3.9,9.2,8.9s-4.1,8.9-9.2,8.9
		C586.8,842.4,582.7,838.5,582.7,833.4 M597,833.4c0-3.1-2.3-5.1-5.1-5.1s-5.1,2-5.1,5.1c0,3.1,2.3,5.1,5.1,5.1S597,836.5,597,833.4
		"/>
	<polygon class="st25" points="608.1,828.6 608.1,831.9 615.9,831.9 615.9,835.7 608.1,835.7 608.1,842 603.3,842 603.3,824.8 
		616,824.8 616,828.6 	"/>
	<polygon class="st25" points="631.4,838.2 631.4,842 618.2,842 618.2,824.8 631.2,824.8 631.2,828.6 623,828.6 623,831.4 
		630.5,831.4 630.5,835.2 623,835.2 623,838.2 	"/>
	<path class="st25" d="M648.9,830.7c0,3.3-3,5.9-6.8,5.9h-2.9v5.4h-4.4v-17.2h7.4C645.9,824.8,648.9,827.4,648.9,830.7 M644.4,830.7
		c0-1.3-1-2.2-2.4-2.2h-2.9v4.4h2.9C643.4,832.9,644.4,832,644.4,830.7"/>
	<path class="st25" d="M658.1,836.4h-2.1v5.7h-4.5v-17.2h7.9c3.8,0,6.8,2.6,6.8,5.9c0,2.1-1.5,4-3.6,5l4.2,6.3h-4.9L658.1,836.4z
		 M655.9,832.9h3.4c1.2,0,2.3-1,2.3-2.2c0-1.3-1-2.2-2.3-2.2h-3.4V832.9z"/>
	<rect x="668.8" y="824.8" class="st25" width="3.9" height="17.2"/>
	<path class="st25" d="M678.9,842.1c-0.9-0.2-1.7-0.4-2.5-0.8c-0.8-0.3-1.5-0.7-2.1-1.2l1.7-2.8c0.7,0.6,1.6,1,2.6,1.3
		c1,0.3,2,0.5,3,0.5c1.2,0,2.1-0.2,2.7-0.6c0.7-0.4,1-0.9,1-1.6v0c0-0.5-0.1-0.9-0.4-1.1c-0.3-0.3-0.7-0.5-1.1-0.6
		c-0.5-0.1-1.1-0.3-1.8-0.4c0,0-0.1,0-0.1,0c0,0,0,0-0.1,0l-0.3,0c-1.3-0.2-2.3-0.4-3.2-0.7c-0.8-0.3-1.6-0.8-2.2-1.5
		c-0.6-0.7-0.9-1.7-0.9-3.1v0c0-1.2,0.3-2.2,0.8-3c0.6-0.8,1.4-1.5,2.4-1.9c1.1-0.4,2.3-0.7,3.8-0.7c0.7,0,1.4,0.1,2.1,0.2
		c0.7,0.1,1.4,0.4,2.1,0.6c0.7,0.3,1.3,0.6,2,1l-1.5,2.9c-0.7-0.5-1.5-0.9-2.3-1.1c-0.8-0.3-1.6-0.4-2.3-0.4c-1.1,0-2,0.2-2.6,0.5
		c-0.6,0.3-0.9,0.8-0.9,1.5v0c0,0.5,0.2,0.9,0.5,1.2c0.3,0.3,0.7,0.5,1.2,0.7c0.5,0.1,1.1,0.3,2,0.4c0,0,0.1,0,0.1,0
		c0,0,0.1,0,0.1,0c0.1,0,0.1,0,0.2,0c0,0,0.1,0,0.2,0c1.2,0.2,2.2,0.5,3,0.8c0.8,0.3,1.5,0.8,2,1.5c0.5,0.7,0.8,1.7,0.8,2.9v0
		c0,1.2-0.3,2.1-0.9,3c-0.6,0.8-1.4,1.4-2.5,1.9c-1.1,0.4-2.4,0.6-4,0.6C680.7,842.4,679.8,842.3,678.9,842.1"/>
	<path class="st26" d="M566.1,851.2c0-1.2,0.9-2.1,2.1-2.1c0.7,0,1.4,0.4,1.7,0.9l-0.8,0.5c-0.2-0.3-0.5-0.5-0.9-0.5
		c-0.7,0-1.2,0.5-1.2,1.2c0,0.7,0.5,1.2,1.2,1.2c0.4,0,0.8-0.2,0.9-0.5l0.8,0.5c-0.3,0.6-1,0.9-1.7,0.9
		C567,853.3,566.1,852.4,566.1,851.2"/>
	<path class="st26" d="M570.5,851.2c0-1.2,0.9-2.1,2.1-2.1c1.2,0,2.1,0.9,2.1,2.1s-0.9,2.1-2.1,2.1
		C571.4,853.3,570.5,852.4,570.5,851.2 M573.8,851.2c0-0.7-0.5-1.2-1.2-1.2c-0.7,0-1.2,0.5-1.2,1.2c0,0.7,0.5,1.2,1.2,1.2
		C573.3,852.4,573.8,851.9,573.8,851.2"/>
	<polygon class="st26" points="579.6,853.2 578.7,853.2 578.7,850.8 577.7,852.6 577.6,852.6 576.5,850.8 576.5,853.2 575.6,853.2 
		575.6,849.1 576.5,849.1 577.6,850.9 578.7,849.1 579.6,849.1 	"/>
	<rect x="580.7" y="849.1" class="st26" width="0.9" height="4"/>
	<path class="st26" d="M582.4,852.3l0.8-0.5c0.1,0.3,0.4,0.6,0.8,0.6c0.4,0,0.6-0.2,0.6-0.3c0-0.2-0.2-0.3-0.8-0.5
		c-0.6-0.2-1.2-0.5-1.2-1.2c0-0.8,0.7-1.2,1.4-1.2c0.7,0,1.2,0.3,1.5,0.9l-0.8,0.5c-0.1-0.3-0.3-0.5-0.7-0.5c-0.3,0-0.4,0.1-0.4,0.3
		c0,0.2,0.1,0.3,0.7,0.5c0.6,0.2,1.3,0.4,1.3,1.3c0,0.8-0.6,1.2-1.5,1.2C583.2,853.3,582.6,852.9,582.4,852.3"/>
	<rect x="586.3" y="849.1" class="st26" width="0.9" height="4"/>
	<path class="st26" d="M588.1,851.2c0-1.2,0.9-2.1,2.1-2.1s2.1,0.9,2.1,2.1c0,1.2-0.9,2.1-2.1,2.1S588.1,852.4,588.1,851.2
		 M591.4,851.2c0-0.7-0.5-1.2-1.2-1.2c-0.7,0-1.2,0.5-1.2,1.2c0,0.7,0.5,1.2,1.2,1.2C590.9,852.4,591.4,851.9,591.4,851.2
		 M590.5,848.7l0.7-0.8h-1l-0.5,0.8H590.5z"/>
	<polygon class="st26" points="596.4,849.1 596.4,853.2 595.7,853.2 594.1,851 594.1,853.2 593.2,853.2 593.2,849.1 593.9,849.1 
		595.5,851.3 595.5,849.1 	"/>
	<polygon class="st26" points="600.3,850 600.3,850.8 601.8,850.8 601.8,851.7 600.3,851.7 600.3,853.2 599.4,853.2 599.4,849.1 
		601.8,849.1 601.8,850 	"/>
	<polygon class="st26" points="605.7,852.3 605.7,853.2 603.2,853.2 603.2,849.1 605.7,849.1 605.7,850 604.1,850 604.1,850.7 
		605.5,850.7 605.5,851.6 604.1,851.6 604.1,852.3 	"/>
	<path class="st26" d="M610.6,851.2c0,1.1-0.9,2-2,2H607v-4h1.6C609.7,849.1,610.6,850,610.6,851.2 M609.7,851.2
		c0-0.7-0.4-1.1-1.1-1.1h-0.7v2.3h0.7C609.2,852.3,609.7,851.9,609.7,851.2"/>
	<polygon class="st26" points="614.4,852.3 614.4,853.2 611.9,853.2 611.9,849.1 614.4,849.1 614.4,850 612.8,850 612.8,850.7 
		614.2,850.7 614.2,851.6 612.8,851.6 612.8,852.3 	"/>
	<path class="st26" d="M617.1,851.9h-0.4v1.3h-0.9v-4h1.6c0.8,0,1.4,0.6,1.4,1.4c0,0.5-0.3,0.9-0.7,1.2l0.9,1.5h-1L617.1,851.9z
		 M616.6,851.1h0.7c0.3,0,0.5-0.2,0.5-0.5c0-0.3-0.2-0.5-0.5-0.5h-0.7V851.1z"/>
	<path class="st26" d="M622.4,852.6h-1.5l-0.2,0.6h-1l1.4-4h1.2l1.4,4h-1L622.4,852.6z M622.1,851.7l-0.5-1.5l-0.5,1.5H622.1z"/>
	<polygon class="st26" points="627.1,852.3 627.1,853.2 624.7,853.2 624.7,849.1 625.6,849.1 625.6,852.3 	"/>
	<path class="st26" d="M633.1,850.5c0,0.8-0.6,1.4-1.4,1.4h-0.6v1.3h-0.9v-4h1.5C632.5,849.1,633.1,849.8,633.1,850.5 M632.2,850.5
		c0-0.3-0.2-0.5-0.5-0.5h-0.6v1h0.6C632,851.1,632.2,850.8,632.2,850.5"/>
	<path class="st26" d="M636.1,852.6h-1.5l-0.2,0.6h-1l1.4-4h1.2l1.4,4h-1L636.1,852.6z M635.8,851.7l-0.5-1.5l-0.5,1.5H635.8z"/>
	<path class="st26" d="M639.5,851.9H639v1.3h-0.9v-4h1.6c0.8,0,1.4,0.6,1.4,1.4c0,0.5-0.3,0.9-0.7,1.2l0.9,1.5h-1L639.5,851.9z
		 M639,851.1h0.7c0.3,0,0.5-0.2,0.5-0.5c0-0.3-0.2-0.5-0.5-0.5H639V851.1z"/>
	<path class="st26" d="M644.5,852.6H643l-0.2,0.6h-1l1.4-4h1.2l1.4,4h-1L644.5,852.6z M644.2,851.7l-0.5-1.5l-0.5,1.5H644.2z"/>
	<polygon class="st26" points="650.9,852.3 650.9,853.2 648.5,853.2 648.5,849.1 649.4,849.1 649.4,852.3 	"/>
	<path class="st26" d="M654.3,852.6h-1.5l-0.2,0.6h-1l1.4-4h1.2l1.4,4h-1L654.3,852.6z M654,851.7l-0.5-1.5l-0.5,1.5H654z"/>
	<path class="st26" d="M661.2,850.5c0,0.8-0.6,1.4-1.4,1.4h-0.6v1.3h-0.9v-4h1.5C660.6,849.1,661.2,849.8,661.2,850.5 M660.3,850.5
		c0-0.3-0.2-0.5-0.5-0.5h-0.6v1h0.6C660.1,851.1,660.3,850.8,660.3,850.5"/>
	<path class="st26" d="M663.5,851.9h-0.4v1.3h-0.9v-4h1.6c0.8,0,1.4,0.6,1.4,1.4c0,0.5-0.3,0.9-0.7,1.2l0.9,1.5h-1L663.5,851.9z
		 M663.1,851.1h0.7c0.3,0,0.5-0.2,0.5-0.5c0-0.3-0.2-0.5-0.5-0.5h-0.7V851.1z"/>
	<path class="st26" d="M666,851.2c0-1.2,0.9-2.1,2.1-2.1c1.2,0,2.1,0.9,2.1,2.1s-0.9,2.1-2.1,2.1C666.9,853.3,666,852.4,666,851.2
		 M669.2,851.2c0-0.7-0.5-1.2-1.2-1.2c-0.7,0-1.2,0.5-1.2,1.2c0,0.7,0.5,1.2,1.2,1.2C668.7,852.4,669.2,851.9,669.2,851.2"/>
	<polygon class="st26" points="673.6,850 672.6,850 672.6,853.2 671.7,853.2 671.7,850 670.6,850 670.6,849.1 673.6,849.1 	"/>
	<polygon class="st26" points="677,852.3 677,853.2 674.5,853.2 674.5,849.1 677,849.1 677,850 675.4,850 675.4,850.7 676.9,850.7 
		676.9,851.6 675.4,851.6 675.4,852.3 	"/>
	<path class="st26" d="M677.8,851.2c0-1.2,0.9-2.1,2.1-2.1c0.7,0,1.4,0.4,1.7,0.9l-0.8,0.5c-0.2-0.3-0.5-0.5-0.9-0.5
		c-0.7,0-1.2,0.5-1.2,1.2c0,0.7,0.5,1.2,1.2,1.2c0.4,0,0.8-0.2,0.9-0.5l0.8,0.5c-0.3,0.6-1,0.9-1.7,0.9
		C678.7,853.3,677.8,852.4,677.8,851.2"/>
	<path class="st26" d="M682.3,851.2c0-1.2,0.9-2.1,2.1-2.1c0.7,0,1.4,0.4,1.7,0.9l-0.8,0.5c-0.2-0.3-0.5-0.5-0.9-0.5
		c-0.7,0-1.2,0.5-1.2,1.2c0,0.7,0.5,1.2,1.2,1.2c0.4,0,0.8-0.2,0.9-0.5l0.8,0.5c-0.3,0.6-1,0.9-1.7,0.9
		C683.2,853.3,682.3,852.4,682.3,851.2"/>
	<rect x="687.1" y="849.1" class="st26" width="0.9" height="4"/>
	<path class="st26" d="M689,851.2c0-1.2,0.9-2.1,2.1-2.1c1.2,0,2.1,0.9,2.1,2.1c0,1.2-0.9,2.1-2.1,2.1
		C689.9,853.3,689,852.4,689,851.2 M692.3,851.2c0-0.7-0.5-1.2-1.2-1.2c-0.7,0-1.2,0.5-1.2,1.2c0,0.7,0.5,1.2,1.2,1.2
		C691.7,852.4,692.3,851.9,692.3,851.2 M691.4,848.7l0.7-0.8h-1l-0.5,0.8H691.4z"/>
	<polygon class="st26" points="697.3,849.1 697.3,853.2 696.7,853.2 695.1,851 695.1,853.2 694.2,853.2 694.2,849.1 694.9,849.1 
		696.4,851.3 696.4,849.1 	"/>
	<path class="st27" d="M565.9,856.8c0-1.1,0.8-1.9,1.9-1.9c0.7,0,1.3,0.3,1.6,0.9l-0.7,0.4c-0.2-0.3-0.5-0.5-0.9-0.5
		c-0.7,0-1.1,0.4-1.1,1.1c0,0.7,0.4,1.1,1.1,1.1c0.4,0,0.7-0.2,0.9-0.5l0.7,0.4c-0.3,0.5-0.9,0.9-1.6,0.9
		C566.7,858.7,565.9,857.8,565.9,856.8"/>
	<path class="st27" d="M570.4,856.8c0-1.1,0.9-1.9,1.9-1.9c1.1,0,1.9,0.8,1.9,1.9c0,1.1-0.9,1.9-1.9,1.9
		C571.2,858.7,570.4,857.8,570.4,856.8 M573.4,856.8c0-0.7-0.5-1.1-1.1-1.1c-0.6,0-1.1,0.4-1.1,1.1c0,0.7,0.5,1.1,1.1,1.1
		C572.9,857.8,573.4,857.4,573.4,856.8"/>
	<polygon class="st27" points="578.4,854.9 578.4,858.6 577.8,858.6 576.3,856.6 576.3,858.6 575.5,858.6 575.5,854.9 576.1,854.9 
		577.6,856.9 577.6,854.9 	"/>
	<polygon class="st27" points="582.3,855.7 581.4,855.7 581.4,858.6 580.5,858.6 580.5,855.7 579.6,855.7 579.6,854.9 582.3,854.9 	
		"/>
	<path class="st27" d="M584.8,857.4h-0.4v1.2h-0.8v-3.7h1.5c0.7,0,1.3,0.6,1.3,1.3c0,0.5-0.3,0.9-0.7,1.1l0.8,1.4h-0.9L584.8,857.4z
		 M584.4,856.6h0.6c0.2,0,0.4-0.2,0.4-0.5c0-0.3-0.2-0.5-0.4-0.5h-0.6V856.6z"/>
	<path class="st27" d="M589.7,858h-1.4l-0.2,0.6h-0.9l1.3-3.7h1.1l1.3,3.7h-0.9L589.7,858z M589.5,857.2l-0.4-1.4l-0.4,1.4H589.5z"
		/>
	<path class="st27" d="M594.9,857.4h-0.4v1.2h-0.8v-3.7h1.5c0.7,0,1.3,0.6,1.3,1.3c0,0.5-0.3,0.9-0.7,1.1l0.8,1.4h-0.9L594.9,857.4z
		 M594.5,856.6h0.6c0.2,0,0.4-0.2,0.4-0.5c0-0.3-0.2-0.5-0.4-0.5h-0.6V856.6z"/>
	<rect x="597.6" y="854.9" class="st27" width="0.8" height="3.7"/>
	<polygon class="st27" points="602.2,857.8 602.2,858.6 599.9,858.6 599.9,854.9 602.2,854.9 602.2,855.7 600.7,855.7 600.7,856.3 
		602,856.3 602,857.1 600.7,857.1 600.7,857.8 	"/>
	<path class="st27" d="M603.3,857.8l0.7-0.4c0.1,0.3,0.4,0.5,0.8,0.5c0.4,0,0.5-0.2,0.5-0.3c0-0.2-0.2-0.3-0.8-0.5
		c-0.5-0.2-1.1-0.4-1.1-1.1c0-0.7,0.6-1.1,1.2-1.1c0.6,0,1.1,0.3,1.3,0.8l-0.7,0.4c-0.1-0.3-0.3-0.4-0.6-0.4c-0.3,0-0.4,0.1-0.4,0.3
		c0,0.2,0.1,0.3,0.7,0.5c0.6,0.2,1.2,0.4,1.2,1.1c0,0.7-0.6,1.1-1.4,1.1C604,858.7,603.5,858.3,603.3,857.8"/>
	<path class="st27" d="M610.9,856.9c0,1.1-0.8,1.8-1.8,1.8c-1.2,0-2-0.9-2-1.9c0-1.1,0.8-1.9,1.9-1.9c0.7,0,1.3,0.3,1.6,0.8
		l-0.7,0.4c-0.2-0.2-0.5-0.4-0.9-0.4c-0.6,0-1.1,0.5-1.1,1.1c0,0.6,0.4,1.1,1.2,1.1c0.5,0,0.8-0.2,0.9-0.6h-1v-0.7h1.8V856.9z"/>
	<path class="st27" d="M612,856.8c0-1.1,0.9-1.9,1.9-1.9c1.1,0,1.9,0.8,1.9,1.9c0,1.1-0.9,1.9-1.9,1.9
		C612.8,858.7,612,857.8,612,856.8 M615,856.8c0-0.7-0.5-1.1-1.1-1.1c-0.6,0-1.1,0.4-1.1,1.1c0,0.7,0.5,1.1,1.1,1.1
		C614.5,857.8,615,857.4,615,856.8"/>
	<path class="st27" d="M616.7,857.8l0.7-0.4c0.1,0.3,0.4,0.5,0.8,0.5c0.4,0,0.5-0.2,0.5-0.3c0-0.2-0.2-0.3-0.8-0.5
		c-0.5-0.2-1.1-0.4-1.1-1.1c0-0.7,0.6-1.1,1.2-1.1c0.6,0,1.1,0.3,1.3,0.8l-0.7,0.4c-0.1-0.3-0.3-0.4-0.6-0.4c-0.3,0-0.4,0.1-0.4,0.3
		c0,0.2,0.1,0.3,0.7,0.5c0.6,0.2,1.2,0.4,1.2,1.1c0,0.7-0.6,1.1-1.4,1.1C617.4,858.7,616.9,858.3,616.7,857.8"/>
	<path class="st27" d="M622.2,857.8l0.7-0.4c0.1,0.3,0.4,0.5,0.8,0.5c0.4,0,0.5-0.2,0.5-0.3c0-0.2-0.2-0.3-0.8-0.5
		c-0.5-0.2-1.1-0.4-1.1-1.1c0-0.7,0.6-1.1,1.2-1.1c0.6,0,1.1,0.3,1.3,0.8l-0.7,0.4c-0.1-0.3-0.3-0.4-0.6-0.4c-0.3,0-0.4,0.1-0.4,0.3
		c0,0.2,0.1,0.3,0.7,0.5c0.6,0.2,1.2,0.4,1.2,1.1c0,0.7-0.6,1.1-1.4,1.1C622.9,858.7,622.4,858.3,622.2,857.8"/>
	<path class="st27" d="M628.4,858H627l-0.2,0.6h-0.9l1.3-3.7h1.1l1.3,3.7h-0.9L628.4,858z M628.1,857.2l-0.4-1.4l-0.4,1.4H628.1z"/>
	<polygon class="st27" points="633.5,854.9 633.5,858.6 632.9,858.6 631.5,856.6 631.5,858.6 630.6,858.6 630.6,854.9 631.3,854.9 
		632.7,856.9 632.7,854.9 	"/>
	<rect x="635" y="854.9" class="st27" width="0.8" height="3.7"/>
	<polygon class="st27" points="639.7,855.7 638.8,855.7 638.8,858.6 637.9,858.6 637.9,855.7 637,855.7 637,854.9 639.7,854.9 	"/>
	<path class="st27" d="M642.8,858h-1.4l-0.2,0.6h-0.9l1.3-3.7h1.1l1.3,3.7h-0.9L642.8,858z M642.5,857.2l-0.4-1.4l-0.4,1.4H642.5z"
		/>
	<path class="st27" d="M646.2,857.4h-0.4v1.2H645v-3.7h1.5c0.7,0,1.3,0.6,1.3,1.3c0,0.5-0.3,0.9-0.7,1.1l0.8,1.4h-0.9L646.2,857.4z
		 M645.8,856.6h0.6c0.2,0,0.4-0.2,0.4-0.5c0-0.3-0.2-0.5-0.4-0.5h-0.6V856.6z"/>
	<rect x="649" y="854.9" class="st27" width="0.8" height="3.7"/>
	<path class="st27" d="M651.1,856.8c0-1.1,0.9-1.9,1.9-1.9c1.1,0,1.9,0.8,1.9,1.9c0,1.1-0.9,1.9-1.9,1.9
		C652,858.7,651.1,857.8,651.1,856.8 M654.1,856.8c0-0.7-0.5-1.1-1.1-1.1c-0.6,0-1.1,0.4-1.1,1.1c0,0.7,0.5,1.1,1.1,1.1
		C653.7,857.8,654.1,857.4,654.1,856.8"/>
	<path class="st27" d="M655.9,857.8l0.7-0.4c0.1,0.3,0.4,0.5,0.8,0.5c0.4,0,0.5-0.2,0.5-0.3c0-0.2-0.2-0.3-0.8-0.5
		c-0.5-0.2-1.1-0.4-1.1-1.1c0-0.7,0.6-1.1,1.2-1.1c0.6,0,1.1,0.3,1.3,0.8l-0.7,0.4c-0.1-0.3-0.3-0.4-0.6-0.4c-0.3,0-0.4,0.1-0.4,0.3
		c0,0.2,0.1,0.3,0.7,0.5c0.6,0.2,1.2,0.4,1.2,1.1c0,0.7-0.6,1.1-1.4,1.1C656.6,858.7,656.1,858.3,655.9,857.8"/>
</g>
<text transform="matrix(1 0 0 1 126.9922 573.5591)"><tspan x="0" y="0" class="st7 st15 st16">DESARROLLO</tspan><tspan x="16.2" y="21" class="st7 st15 st16">EFICIENTE</tspan><tspan x="1.1" y="42" class="st7 st15 st16">DEL SISTEMA</tspan><tspan x="7.5" y="63" class="st7 st15 st16">RADICULAR </tspan></text>
<text transform="matrix(1 0 0 1 532.3848 988.459)"><tspan x="0" y="0" class="st7 st15 st16">FAVORECE LA</tspan><tspan x="4.8" y="21" class="st7 st15 st16"> ABSORCIN</tspan><tspan x="55.5" y="42" class="st7 st15 st16">DE</tspan><tspan x="5.2" y="63" class="st7 st15 st16">NUTRIENTES</tspan></text>
</svg>
